<?xml version="1.0" standalone="no"?>
<!DOCTYPE svg PUBLIC "-//W3C//DTD SVG 1.1//EN" "http://www.w3.org/Graphics/SVG/1.1/DTD/svg11.dtd" >
<svg xmlns="http://www.w3.org/2000/svg" xmlns:xlink="http://www.w3.org/1999/xlink" version="1.1">
<metadata></metadata>
<defs>
<font id="gt_walsheim_promedium" horiz-adv-x="1165" >
<font-face units-per-em="2048" ascent="1536" descent="-512" />
<missing-glyph horiz-adv-x="512" />
<glyph horiz-adv-x="0" />
<glyph unicode="&#xd;" horiz-adv-x="512" />
<glyph unicode=" "  horiz-adv-x="512" />
<glyph unicode="&#x09;" horiz-adv-x="512" />
<glyph unicode="&#xa0;" horiz-adv-x="512" />
<glyph unicode="!" horiz-adv-x="632" d="M143 139q0 35 13.5 67t37 55.5t54.5 36.5t67 13q37 0 69 -13t55.5 -36.5t36.5 -55.5t13 -67t-13 -66.5t-36.5 -55t-55.5 -38t-69 -14.5t-67.5 14.5t-54 38t-37 55t-13.5 66.5zM195 457v977h243v-977h-243z" />
<glyph unicode="&#x22;" horiz-adv-x="796" d="M123 1264v204h211v-204l-53 -310h-105zM463 1264v204h211v-204l-53 -310h-105z" />
<glyph unicode="#" horiz-adv-x="1124" d="M59 418v172h207l35 254h-180v172h205l57 418h182l-57 -418h209l57 418h182l-57 -418h168v-172h-193l-34 -254h166v-172h-191l-59 -418h-181l58 418h-209l-59 -418h-181l58 418h-183zM449 590h208l35 254h-209z" />
<glyph unicode="$" d="M166 469h235q0 -141 78 -217t201 -76q49 0 92 15.5t75 43t50 66.5t18 88q0 55 -21.5 92t-55 62.5t-73.5 43t-77 29.5q-98 35 -184 71t-150.5 86t-101.5 122t-37 180q0 78 27.5 144.5t77 116.5t116 82t142.5 44v217h167v-219q80 -12 149 -50t118 -95.5t76.5 -132 t27.5 -162.5h-235q0 106 -57.5 171.5t-157.5 65.5q-88 0 -151.5 -45t-63.5 -137q0 -43 17 -76.5t47 -58.5t66.5 -43t77.5 -33q84 -31 171.5 -65.5t159 -85.5t116.5 -123t45 -174q0 -98 -32 -176t-86 -133.5t-128 -89t-160 -46.5v-217h-167v217q-84 12 -159 51t-131.5 101.5 t-89 149.5t-32.5 196z" />
<glyph unicode="%" horiz-adv-x="1945" d="M166 909v260q0 57 20.5 107.5t59.5 89.5t94 61.5t125 22.5t125 -22.5t94 -61.5t60.5 -89t21.5 -108v-260q0 -57 -21.5 -108t-60.5 -89t-94 -60.5t-125 -22.5t-125 22.5t-94 60.5t-59.5 89t-20.5 108zM346 909q0 -53 33 -91t86 -38q55 0 88 38t33 91v260q0 53 -33 91 t-88 38q-53 0 -86 -37.5t-33 -91.5v-260zM420 -2l895 1542l178 -102l-895 -1542zM1178 264v260q0 57 20.5 107.5t59 89.5t94 61.5t125.5 22.5t125 -22.5t94 -61.5t60.5 -89t21.5 -108v-260q0 -57 -21.5 -108.5t-60.5 -89t-94.5 -60t-124.5 -22.5q-70 0 -125.5 22.5t-94 60 t-59 89t-20.5 108.5zM1358 264q0 -53 32.5 -91t86.5 -38q55 0 87.5 38t32.5 91v260q0 53 -32.5 91t-87.5 38q-53 0 -86 -37.5t-33 -91.5v-260z" />
<glyph unicode="&#x26;" horiz-adv-x="1226" d="M90 430q0 61 17.5 108.5t48 85.5t72.5 68.5t91 57.5q-88 49 -141 117.5t-53 197.5q0 88 37 160.5t98.5 125t143 80t171.5 27.5q98 0 180.5 -32.5t142.5 -92t94 -141.5t34 -182h-235q0 106 -51.5 171.5t-174.5 65.5q-90 0 -147.5 -45t-57.5 -137q0 -43 10.5 -82t37 -66.5 t72.5 -44t120 -16.5v-209q-152 0 -213 -68.5t-61 -175.5q0 -41 17 -79.5t50 -69.5t81 -49.5t108 -18.5q49 0 95 19.5t82 56.5t58.5 91.5t22.5 123.5h-148v209h492v-209h-109q0 -121 -42 -214t-111.5 -156.5t-157.5 -97.5t-182 -34q-92 0 -180.5 31t-158 89.5t-111.5 142.5 t-42 192z" />
<glyph unicode="'" horiz-adv-x="456" d="M123 1264v204h211v-204l-53 -310h-105z" />
<glyph unicode="(" horiz-adv-x="798" d="M215 0v1124q0 100 36 191.5t101.5 161t157.5 109.5t207 40v-211q-61 0 -110.5 -23.5t-84.5 -63.5t-53 -92t-18 -112v-1124q0 -59 18 -111.5t53 -92.5t84 -63.5t111 -23.5v-211q-115 0 -207 40t-157.5 109.5t-101.5 160t-36 192.5z" />
<glyph unicode=")" horiz-adv-x="798" d="M82 -291q61 0 110.5 23.5t84 63.5t53 92.5t18.5 111.5v1124q0 59 -18.5 111.5t-53 92.5t-84 63.5t-110.5 23.5v211q113 0 206 -40t158.5 -109.5t101.5 -160.5t36 -192v-1124q0 -102 -36 -192.5t-101.5 -160t-158.5 -109.5t-206 -40v211z" />
<glyph unicode="*" horiz-adv-x="946" d="M113 1153l45 135l268 -114l-29 294h152l-29 -294l268 114l46 -135l-289 -70l219 -254l-127 -90l-164 279l-164 -279l-127 90l219 254z" />
<glyph unicode="+" horiz-adv-x="1187" d="M180 483v199h301v315h224v-315h303v-199h-303v-313h-224v313h-301z" />
<glyph unicode="," horiz-adv-x="595" d="M123 152q0 70 48 117.5t116 47.5q84 0 135 -58t51 -153q0 -94 -23.5 -159.5t-67.5 -106.5t-107.5 -59.5t-143.5 -18.5v105q53 0 89 11t61 30q23 20 34 43.5t15 48.5q-4 -4 -16.5 -8t-26.5 -4q-76 0 -120 48t-44 116z" />
<glyph unicode="-" horiz-adv-x="602" d="M61 483v199h480v-199h-480z" />
<glyph unicode="." horiz-adv-x="575" d="M123 152q0 70 48 117.5t116 47.5q70 0 118 -48t48 -117q0 -68 -48.5 -116t-117.5 -48q-68 0 -116 48t-48 116z" />
<glyph unicode="/" horiz-adv-x="927" d="M-2 -53l745 1732l205 -88l-745 -1732z" />
<glyph unicode="0" horiz-adv-x="1187" d="M90 477v479q0 100 36 191.5t101.5 161t157.5 109.5t207 40t208 -40t159.5 -109.5t102.5 -160.5t36 -192v-479q0 -102 -36 -192t-102.5 -160t-159.5 -110t-208 -40t-207 40t-157.5 110t-101.5 160t-36 192zM326 477q0 -59 18 -111.5t53 -92.5t84 -63.5t111 -23.5 q61 0 111.5 23.5t85 63.5t54 92.5t19.5 111.5v479q0 59 -19.5 111.5t-54 92.5t-85 63.5t-111.5 23.5t-110.5 -23.5t-84.5 -63.5t-53 -92t-18 -112v-479z" />
<glyph unicode="1" horiz-adv-x="749" d="M61 1010v186q98 0 160 13.5t96.5 41t47 72.5t12.5 111h223v-1434h-244v1010h-295z" />
<glyph unicode="2" horiz-adv-x="1079" d="M96 0q0 170 29 284.5t80 194.5t121.5 135.5t152.5 108.5q47 29 97.5 59.5t91.5 68.5t67.5 86t26.5 114q0 104 -59.5 150t-147.5 46q-92 0 -157.5 -56t-65.5 -181h-236q0 109 38 192.5t102.5 140t147.5 86t173 29.5q92 0 173 -26.5t140.5 -81t93 -135t33.5 -187.5 q0 -98 -47 -176t-110.5 -136.5t-128 -99.5t-99.5 -65q-78 -55 -126 -96t-74.5 -78t-35.5 -76t-9 -90h622v-211h-893z" />
<glyph unicode="3" d="M68 479h235q0 -70 21.5 -124t58.5 -92t87 -57.5t108 -19.5q55 0 100 18.5t75.5 49.5t47 72t16.5 84q0 51 -13 94t-43 74.5t-79 50t-123 18.5h-96v209h98q127 0 174 58.5t47 150.5t-56 137t-146 45q-127 0 -177.5 -65.5t-50.5 -171.5h-235q0 100 32.5 182t92 141.5 t141.5 92t180 32.5q92 0 175 -27.5t144.5 -80t98.5 -125t37 -160.5q0 -123 -54.5 -201t-140.5 -114q98 -39 164 -120t66 -218q0 -98 -39 -178t-104.5 -137.5t-154.5 -89.5t-188 -32q-98 0 -188 34t-158.5 98.5t-110.5 157.5t-42 214z" />
<glyph unicode="4" horiz-adv-x="1144" d="M133 430v1004h236v-793h286v430h236v-430h196v-211h-196v-430h-236v430h-522z" />
<glyph unicode="5" horiz-adv-x="1241" d="M131 477h236q0 -59 18 -111.5t53 -92.5t84 -63.5t111 -23.5q61 0 111.5 23.5t86 63.5t54 92.5t18.5 111.5t-18.5 111.5t-54 92.5t-86 63.5t-111.5 23.5q-78 0 -139.5 -38t-102.5 -120h-235v824h870v-211h-659v-398q23 41 59.5 70t79.5 47.5t87 26.5t81 8q115 0 202 -40 t145 -108.5t88 -159.5t30 -192q0 -102 -36 -192t-102.5 -160t-159.5 -110t-208 -40t-207 40t-157.5 110t-101.5 160t-36 192z" />
<glyph unicode="6" d="M76 477q0 82 24.5 157t65.5 140l412 660h270l-301 -457q10 2 31 2q115 0 208 -40t159.5 -109.5t102 -160.5t35.5 -192q0 -102 -35.5 -192t-102 -160t-159.5 -110t-208 -40t-207 40t-158 110t-101.5 160t-35.5 192zM311 477q0 -59 18.5 -111.5t53.5 -92.5t84.5 -63.5 t110.5 -23.5t111 23.5t85 63.5t54.5 92.5t19.5 111.5t-19.5 111.5t-54.5 92.5t-85 63.5t-111 23.5t-110.5 -23.5t-84.5 -63.5t-53.5 -92t-18.5 -112z" />
<glyph unicode="7" horiz-adv-x="980" d="M78 1223v211h913l-610 -1434h-250l528 1223h-581z" />
<glyph unicode="8" horiz-adv-x="1206" d="M113 414q0 51 12 103t37.5 98.5t64.5 83t95 55.5q-96 43 -135.5 127t-39.5 170q0 82 31 156.5t90.5 130t143.5 88t192 32.5q106 0 191.5 -32.5t143.5 -89t89 -130t31 -155.5q0 -86 -39 -170t-135 -127q55 -18 94 -55t64.5 -84.5t38 -99.5t12.5 -101q0 -86 -34 -165 t-96.5 -140.5t-153.5 -97.5t-206 -36t-206 35t-154.5 95.5t-97 139.5t-33.5 169zM348 414q0 -47 17.5 -88t50.5 -72t81 -49.5t107 -18.5t106.5 18.5t80 50.5t50 73t17.5 86q0 43 -16.5 85t-49 73.5t-79.5 51t-109 19.5q-61 0 -109.5 -18.5t-81 -50t-49 -73.5t-16.5 -87z M383 1040q0 -43 15.5 -80.5t43 -66.5t68.5 -45.5t94 -16.5q51 0 92 17.5t69 46.5t43 66.5t15 78.5t-15 78t-43 65.5t-69 46t-92 17.5q-53 0 -94 -16.5t-68.5 -45t-43 -66.5t-15.5 -79z" />
<glyph unicode="9" d="M82 956q0 100 36 191.5t101.5 161t159.5 109.5t209 40q113 0 206 -40t158.5 -109.5t101.5 -160.5t36 -192q0 -84 -26 -157.5t-67 -139.5l-409 -659h-271l301 455q-123 0 -221 37.5t-168.5 104.5t-108.5 159t-38 200zM317 956q0 -59 19.5 -111t54.5 -92t85 -63.5 t112 -23.5q61 0 110.5 23.5t84 63.5t53 92t18.5 111t-18.5 111.5t-53 92.5t-84 63.5t-110.5 23.5t-111.5 -23.5t-85.5 -63.5t-54.5 -92t-19.5 -112z" />
<glyph unicode=":" horiz-adv-x="575" d="M123 152q0 70 48 117.5t116 47.5q70 0 118 -48t48 -117q0 -68 -48.5 -116t-117.5 -48q-68 0 -116 48t-48 116zM123 825q0 70 48 118t116 48q70 0 118 -48t48 -118q0 -68 -48.5 -115.5t-117.5 -47.5q-68 0 -116 47.5t-48 115.5z" />
<glyph unicode=";" horiz-adv-x="595" d="M123 152q0 70 48 117.5t116 47.5q84 0 135 -58t51 -153q0 -94 -23.5 -159.5t-67.5 -106.5t-107.5 -59.5t-143.5 -18.5v105q53 0 89 11t61 30q23 20 34 43.5t15 48.5q-4 -4 -16.5 -8t-26.5 -4q-76 0 -120 48t-44 116zM123 825q0 70 48 118t116 48q70 0 118 -48t48 -118 q0 -68 -48.5 -115.5t-117.5 -47.5q-68 0 -116 47.5t-48 115.5z" />
<glyph unicode="&#x3c;" horiz-adv-x="1187" d="M76 502v157l1038 361v-211l-708 -227l708 -230v-211z" />
<glyph unicode="=" horiz-adv-x="1187" d="M180 322v198h828v-198h-828zM180 641v199h828v-199h-828z" />
<glyph unicode="&#x3e;" horiz-adv-x="1187" d="M74 141v211l708 230l-708 227v211l1038 -361v-157z" />
<glyph unicode="?" horiz-adv-x="1046" d="M49 1010q0 109 37 192.5t98.5 140t143.5 86t172 29.5q92 0 174 -28.5t143.5 -81t97 -127t35.5 -166.5q0 -72 -22.5 -128.5t-56 -100.5t-71.5 -76.5t-67 -57.5q-51 -41 -80.5 -70.5t-45 -61.5t-20.5 -73t-5 -102h-226q0 68 6.5 123t23.5 102t48 89t82 79q31 23 65.5 50.5 t64.5 61.5t49.5 75t19.5 90q0 98 -60.5 145t-154.5 47q-43 0 -82 -13t-69 -43t-47 -75t-17 -106h-236zM297 139q0 35 13.5 67t37 55.5t54 36.5t67.5 13t68.5 -13t55 -36.5t37 -55.5t13.5 -67t-13.5 -66.5t-37 -55t-55 -38t-68.5 -14.5t-67.5 14.5t-54 38t-37 55t-13.5 66.5z " />
<glyph unicode="@" horiz-adv-x="1697" d="M41 422q0 193 69.5 348.5t189.5 263t278.5 165.5t336.5 58q176 0 322.5 -50t251 -143t162 -226t57.5 -299q0 -160 -24.5 -274.5t-71.5 -187.5t-114.5 -106.5t-156.5 -33.5q-109 0 -172 58t-92 136q-37 -59 -107.5 -94t-140.5 -35q-92 0 -167.5 34t-130 91t-84 134 t-29.5 161q0 86 29.5 161.5t84 134t130 92.5t167.5 34q70 0 140.5 -34t107.5 -95v108h187v-534q0 -92 26.5 -138.5t85.5 -46.5q27 0 52.5 18.5t46 67t33 132.5t12.5 217q0 125 -45 227t-125 174t-190.5 111t-244.5 39q-139 0 -264 -46.5t-219 -132.5t-149.5 -209.5 t-55.5 -279.5q0 -125 44 -244t132.5 -211t220.5 -148.5t308 -56.5q70 0 158 17.5t186 68.5l67 -145q-117 -66 -222 -87.5t-189 -21.5q-223 0 -390 71t-278.5 186.5t-167 264t-55.5 306.5zM606 422q0 -51 16.5 -97t47 -80t73 -54.5t95.5 -20.5q55 0 99 20.5t74.5 54.5t48 80 t17.5 97t-17.5 98t-48 81t-74.5 54.5t-99 20.5q-53 0 -95.5 -20.5t-73 -54.5t-47 -81t-16.5 -98z" />
<glyph unicode="A" horiz-adv-x="1169" d="M6 0l496 1434h166l495 -1434h-248l-61 182h-539l-61 -182h-248zM387 393h395l-196 649z" />
<glyph unicode="B" horiz-adv-x="1224" d="M150 0v1434h489q147 0 237.5 -40t140.5 -98.5t66.5 -126t16.5 -122.5q0 -68 -22.5 -122.5t-58.5 -94t-81 -65.5t-90 -36q35 0 80 -20.5t86 -60.5t69.5 -100.5t28.5 -141.5q0 -55 -18.5 -126t-69.5 -133.5t-143.5 -104.5t-239.5 -42h-491zM385 211h266q72 0 116 19.5 t68.5 50t33 66.5t8.5 67q0 27 -9.5 62.5t-35 67t-68.5 54.5t-111 23h-268v-410zM385 831h254q72 0 116 20.5t68.5 50.5t32.5 63.5t8 60.5t-8 60.5t-32.5 64.5t-68.5 51.5t-116 20.5h-254v-392z" />
<glyph unicode="C" horiz-adv-x="1587" d="M78 719q0 145 50 280.5t145.5 239.5t229.5 166.5t304 62.5q160 0 283.5 -44t212 -118.5t140.5 -176t68 -218.5h-247q-12 74 -48 137.5t-90.5 109.5t-127 72.5t-160.5 26.5q-123 0 -220.5 -45t-163 -119.5t-100.5 -172t-35 -201.5q0 -111 36 -209t104.5 -173t170 -118 t232.5 -43q61 0 124 21.5t116 59.5t93 90t58 114h258q-25 -104 -84 -194.5t-147 -158t-202.5 -105.5t-246.5 -38q-176 0 -315 61.5t-236.5 165t-149.5 239.5t-52 288z" />
<glyph unicode="D" horiz-adv-x="1435" d="M150 0v1434h464q178 0 316.5 -61.5t234 -162t144.5 -229.5t49 -264t-49 -264t-144.5 -229.5t-233.5 -162t-317 -61.5h-464zM385 211h229q119 0 213.5 43t158 113.5t97 162t33.5 187.5t-33.5 187t-97 162t-158 114t-213.5 43h-229v-1012z" />
<glyph unicode="E" horiz-adv-x="1116" d="M150 0v1434h827v-211h-592v-406h592v-211h-592v-395h592v-211h-827z" />
<glyph unicode="F" horiz-adv-x="1101" d="M150 0v1434h827v-211h-592v-455h592v-211h-592v-557h-235z" />
<glyph unicode="G" horiz-adv-x="1716" d="M78 717q0 145 51 281.5t147.5 240.5t232.5 166.5t306 62.5q127 0 234.5 -36.5t188.5 -100t130 -148.5t57 -179h-237q-10 53 -41 99t-80 81t-113.5 54t-138.5 19q-115 0 -207 -45t-156.5 -119.5t-98.5 -173t-34 -202.5t33 -202.5t98.5 -173.5t164 -120t231.5 -45 q92 0 164.5 26.5t125 73t85 106.5t43.5 126h-275v211h682v-211h-158q-25 -121 -81 -220.5t-143 -171t-205.5 -111.5t-268.5 -40q-176 0 -313 62.5t-231.5 167t-143.5 240.5t-49 282z" />
<glyph unicode="H" horiz-adv-x="1361" d="M150 0v1434h235v-617h592v617h235v-1434h-235v606h-592v-606h-235z" />
<glyph unicode="I" horiz-adv-x="542" d="M150 0v1434h243v-1434h-243z" />
<glyph unicode="J" horiz-adv-x="1097" d="M25 467h235q0 -129 56.5 -210t172.5 -81q117 0 175.5 80t58.5 209v969h235v-969q0 -104 -30.5 -195.5t-91 -159t-147.5 -106.5t-200 -39q-111 0 -197.5 39t-146 107.5t-90 159.5t-30.5 196z" />
<glyph unicode="K" horiz-adv-x="1243" d="M150 0v1434h235v-631l533 631h294l-606 -717l606 -717h-294l-533 629v-629h-235z" />
<glyph unicode="L" horiz-adv-x="878" d="M150 0v1434h235v-1223h442v-211h-677z" />
<glyph unicode="M" horiz-adv-x="1665" d="M150 0v1434h225l459 -1067l456 1067h226v-1434h-236v887l-358 -887h-179l-358 887v-887h-235z" />
<glyph unicode="N" horiz-adv-x="1359" d="M150 0v1434h258l567 -1020v1020h235v-1434h-258l-567 1020v-1020h-235z" />
<glyph unicode="O" horiz-adv-x="1638" d="M78 717q0 145 51 281.5t146.5 240.5t233.5 166.5t310 62.5t310.5 -62.5t233.5 -166.5t146.5 -240.5t51.5 -281.5t-51.5 -281.5t-146.5 -241t-233.5 -167t-310.5 -62.5t-310 62.5t-233.5 167t-146.5 240.5t-51 282zM326 717q0 -104 33.5 -201.5t98 -173.5t155.5 -121 t206 -45t206 45t155.5 121t98.5 173t34 202q0 104 -34 201.5t-98.5 173t-155.5 120.5t-206 45t-206 -45t-155.5 -120.5t-98 -173t-33.5 -201.5z" />
<glyph unicode="P" horiz-adv-x="1220" d="M150 0v1434h514q115 0 208 -40t159.5 -110t102 -161t35.5 -191q0 -102 -35.5 -192.5t-102 -160t-160 -109.5t-207.5 -40h-279v-430h-235zM385 641h279q61 0 111 23.5t85 63.5t54.5 92t19.5 112q0 59 -19.5 111.5t-54.5 92.5t-85 63.5t-111 23.5h-279v-582z" />
<glyph unicode="Q" horiz-adv-x="1638" d="M78 717q0 145 51 281.5t146.5 240.5t233.5 166.5t310 62.5t310.5 -62.5t233.5 -166.5t146.5 -240.5t51.5 -281.5q0 -117 -33 -227.5t-95.5 -205t-153.5 -167t-206 -111.5l123 -172l-207 -104l-172 235q-172 0 -309 63.5t-232.5 168t-146.5 239.5t-51 281zM326 717 q0 -104 33.5 -201.5t98 -173.5t155.5 -121t206 -45t206 45t155.5 121t98.5 173t34 202q0 104 -34 201.5t-98.5 173t-155.5 120.5t-206 45t-206 -45t-155.5 -120.5t-98 -173t-33.5 -201.5z" />
<glyph unicode="R" horiz-adv-x="1247" d="M150 0v1434h514q115 0 208 -40t159.5 -110t102 -161t35.5 -191q0 -78 -20.5 -148.5t-60 -131t-96 -108.5t-126.5 -77l285 -467h-268l-262 430h-236v-430h-235zM385 641h279q61 0 111 23.5t85 63.5t54.5 92t19.5 112q0 59 -19.5 111.5t-54.5 92.5t-85 63.5t-111 23.5h-279 v-582z" />
<glyph unicode="S" d="M86 469h236q0 -141 77.5 -217t200.5 -76q49 0 92 15.5t75 43t50.5 66.5t18.5 88q0 55 -21.5 92t-55.5 62.5t-74 43t-77 29.5q-98 35 -184 71t-150.5 86t-101.5 122t-37 180q0 88 36 161t96.5 125t141 79.5t171.5 27.5q96 0 180 -32.5t145.5 -92t96 -141.5t34.5 -182h-235 q0 106 -57.5 171.5t-157.5 65.5q-88 0 -151.5 -45t-63.5 -137q0 -43 17.5 -76.5t47 -58.5t66.5 -43t78 -33q84 -31 171 -65.5t158.5 -85.5t116.5 -123t45 -174q0 -111 -39 -195t-106.5 -141t-156.5 -86t-189 -29q-98 0 -187.5 34t-157 98.5t-108.5 157.5t-41 214z" />
<glyph unicode="T" horiz-adv-x="987" d="M20 1223v211h947v-211h-357v-1223h-235v1223h-355z" />
<glyph unicode="U" horiz-adv-x="1310" d="M139 479v955h236v-955q0 -61 19.5 -116.5t56 -96.5t88 -65.5t114.5 -24.5t115.5 24.5t89.5 65.5t57.5 96.5t20.5 116.5v955h235v-955q0 -104 -36.5 -197.5t-104 -164t-163 -111.5t-214.5 -41q-117 0 -211 41t-161.5 111.5t-104.5 164t-37 197.5z" />
<glyph unicode="V" d="M4 1434h248l332 -1043l329 1043h248l-495 -1434h-166z" />
<glyph unicode="W" horiz-adv-x="2013" d="M10 1434h248l330 -1022l332 1022h174l331 -1022l330 1022h248l-496 -1434h-170l-329 1022l-332 -1022h-170z" />
<glyph unicode="X" horiz-adv-x="1150" d="M16 0l426 717l-426 717h267l292 -514l293 514h267l-426 -717l426 -717h-267l-293 512l-292 -512h-267z" />
<glyph unicode="Y" horiz-adv-x="1253" d="M23 1434h272l383 -617l307 617h258l-711 -1434h-258l285 573z" />
<glyph unicode="Z" horiz-adv-x="1181" d="M27 0l743 1223h-700v211h1091l-743 -1223h739v-211h-1130z" />
<glyph unicode="[" horiz-adv-x="727" d="M150 -479v2107h413v-198h-190v-1713h190v-196h-413z" />
<glyph unicode="\" horiz-adv-x="927" d="M-2 1591l205 88l745 -1732l-205 -88z" />
<glyph unicode="]" horiz-adv-x="727" d="M164 -283h190v1710h-190v199h414v-2105h-414v196z" />
<glyph unicode="^" horiz-adv-x="1327" d="M123 662l459 874h155l467 -874h-252l-290 591l-295 -591h-244z" />
<glyph unicode="_" horiz-adv-x="1146" d="M61 -102h1024v-154h-1024v154z" />
<glyph unicode="`" horiz-adv-x="1173" d="M244 1335l106 174l510 -280l-106 -174z" />
<glyph unicode="a" horiz-adv-x="1234" d="M78 477q0 100 36 191.5t100.5 161t154.5 109.5t198 40q84 0 167 -41t128 -113v129h223v-954h-223v129q-45 -72 -128 -113t-167 -41q-109 0 -198.5 40t-154 110t-100.5 160t-36 192zM301 477q0 -61 19.5 -116.5t56.5 -96.5t88.5 -65.5t114.5 -24.5t115.5 24.5t89 65.5 t57 96.5t20.5 116.5t-20.5 116.5t-57 96.5t-89 65.5t-115.5 24.5t-114.5 -24.5t-88.5 -65.5t-56.5 -96t-19.5 -117z" />
<glyph unicode="b" horiz-adv-x="1239" d="M150 0v1434h223v-609q45 72 128 113t167 41q109 0 198.5 -40t154 -109.5t100.5 -160.5t36 -192q0 -102 -36 -192t-100.5 -160t-154.5 -110t-198 -40q-84 0 -167 41t-128 113v-129h-223zM373 477q0 -61 19.5 -116.5t56 -96.5t88.5 -65.5t118 -24.5q63 0 114.5 24.5 t88.5 65.5t56.5 96.5t19.5 116.5t-19.5 116.5t-56.5 96.5t-88 65.5t-115 24.5q-66 0 -118 -24.5t-88.5 -65.5t-56 -96t-19.5 -117z" />
<glyph unicode="c" horiz-adv-x="1093" d="M82 477q0 96 30.5 187.5t91 161t148.5 111.5t205 42t200 -33t137 -85t82 -118.5t34 -136.5h-224q-10 78 -60 126t-165 48q-66 0 -113 -24.5t-79.5 -66.5t-48 -96t-15.5 -116q0 -61 15.5 -116.5t48 -96.5t84 -65.5t122.5 -24.5q98 0 144.5 41t68.5 113h224 q-12 -74 -45 -138.5t-89.5 -112.5t-135 -75t-183.5 -27q-117 0 -206 42t-149.5 112t-91 160t-30.5 188z" />
<glyph unicode="d" horiz-adv-x="1234" d="M78 477q0 100 36 191.5t100.5 161t154.5 109.5t198 40q84 0 167 -41t128 -113v609h223v-1434h-223v129q-45 -72 -128 -113t-167 -41q-109 0 -198.5 40t-154 110t-100.5 160t-36 192zM301 477q0 -61 19.5 -116.5t56.5 -96.5t88.5 -65.5t114.5 -24.5t115.5 24.5t89 65.5 t57 96.5t20.5 116.5t-20.5 116.5t-57 96.5t-89 65.5t-115.5 24.5t-114.5 -24.5t-88.5 -65.5t-56.5 -96t-19.5 -117z" />
<glyph unicode="e" horiz-adv-x="1087" d="M82 477q0 106 31.5 198.5t91 160t147.5 105.5t201 38q92 0 173 -33t141.5 -91t94 -136t33.5 -170q0 -25 -1 -58.5t-9 -80.5h-682q4 -51 18.5 -96.5t44 -79t76.5 -53t117 -19.5q96 0 139 37t64 88h225q-10 -61 -44 -117.5t-89 -99.5t-129 -69t-166 -26q-121 0 -210 39 t-148.5 106.5t-89 160t-29.5 196.5zM303 575h475q0 111 -64.5 173.5t-166.5 62.5q-104 0 -174 -59.5t-70 -176.5z" />
<glyph unicode="f" horiz-adv-x="735" d="M41 768v186h195v119q0 137 37.5 212t92 111t114 43t100.5 7q43 0 76.5 -7t52.5 -18v-188q-23 6 -47.5 10t-51.5 4t-53.5 -2t-48 -16.5t-35.5 -45t-14 -85.5v-144h250v-186h-250v-768h-223v768h-195z" />
<glyph unicode="g" horiz-adv-x="1228" d="M78 477q0 100 36 191.5t100.5 161t154.5 109.5t198 40q84 0 167 -41t128 -113v129h223l5 -1001q0 -121 -36 -207t-102 -141t-160 -82t-214 -27q-121 0 -209 34t-148 89q-59 55 -91 126t-36 146h225q8 -78 72 -136t184 -58q135 0 211 60.5t76 195.5v176q-45 -72 -128 -113 t-167 -41q-109 0 -198.5 40t-154 110t-100.5 160t-36 192zM301 477q0 -61 19.5 -116.5t56.5 -96.5t88 -65.5t115 -24.5q63 0 115.5 24.5t89 65.5t57 96.5t20.5 116.5t-20.5 116.5t-57 96.5t-89 65.5t-115.5 24.5t-114.5 -24.5t-88.5 -65.5t-56.5 -96t-19.5 -117z" />
<glyph unicode="h" d="M150 0v1434h223v-613q45 78 125 118t186 40q104 0 175 -35t112 -94q35 -53 48 -118.5t13 -164.5v-567h-223v494q0 61 -10.5 114.5t-34 91t-63 60t-99.5 22.5q-117 0 -173 -83t-56 -205v-494h-223z" />
<glyph unicode="i" horiz-adv-x="522" d="M96 1303q0 70 48.5 117.5t115.5 47.5q70 0 118 -48t48 -117q0 -68 -48 -116t-118 -48q-68 0 -116 48t-48 116zM150 0v954h223v-954h-223z" />
<glyph unicode="j" horiz-adv-x="522" d="M0 -283q33 -4 48 -5t30 -1q72 0 72 101v1142h223v-1177q0 -80 -19.5 -133.5t-50.5 -85t-70.5 -45t-80.5 -13.5q-47 0 -89.5 6.5t-62.5 16.5v194zM96 1303q0 70 48.5 117.5t115.5 47.5q70 0 118 -48t48 -117q0 -68 -48 -116t-118 -48q-68 0 -116 48t-48 116z" />
<glyph unicode="k" horiz-adv-x="1021" d="M150 0v1434h223v-902l350 422h278l-397 -477l397 -477h-278l-350 420v-420h-223z" />
<glyph unicode="l" horiz-adv-x="522" d="M150 0v1434h223v-1434h-223z" />
<glyph unicode="m" horiz-adv-x="1712" d="M150 0v954h223v-133q31 66 101.5 112t164.5 46q131 0 200.5 -49t100.5 -121q35 72 112.5 121t180.5 49q106 0 174 -34t105.5 -87t51 -119.5t13.5 -134.5v-604h-223v535q0 115 -42 181t-136 66q-43 0 -79 -14t-63.5 -49t-43 -91.5t-15.5 -142.5v-485h-223v537 q0 115 -40 180t-134 65q-43 0 -80 -14t-64.5 -49t-44 -91.5t-16.5 -142.5v-485h-223z" />
<glyph unicode="n" d="M150 0v954h223v-133q45 78 125 118t186 40q104 0 175 -35t112 -94q35 -53 48 -118.5t13 -164.5v-567h-223v494q0 61 -10.5 114.5t-34 91t-63 60t-99.5 22.5q-117 0 -173 -83t-56 -205v-494h-223z" />
<glyph unicode="o" horiz-adv-x="1163" d="M78 477q0 100 36 191.5t101.5 161t157.5 109.5t207 40t208 -40t159.5 -109.5t102 -160.5t35.5 -192q0 -102 -35.5 -192t-102 -160t-159.5 -110t-208 -40t-207 40t-157.5 110t-101.5 160t-36 192zM301 477q0 -61 19.5 -116.5t56.5 -96.5t88.5 -65.5t114.5 -24.5 t115.5 24.5t89 65.5t57 96.5t20.5 116.5t-20.5 116.5t-57 96.5t-89 65.5t-115.5 24.5t-114.5 -24.5t-88.5 -65.5t-56.5 -96t-19.5 -117z" />
<glyph unicode="p" horiz-adv-x="1239" d="M150 -479v1433h223v-129q45 72 128 113t167 41q109 0 198.5 -40t154 -109.5t100.5 -160.5t36 -192q0 -102 -36 -192t-100.5 -160t-154.5 -110t-198 -40q-84 0 -167 41t-128 113v-608h-223zM373 477q0 -61 19.5 -116.5t56 -96.5t89 -65.5t117.5 -24.5q63 0 114.5 24.5 t88.5 65.5t56.5 96.5t19.5 116.5t-19.5 116.5t-56.5 96.5t-88.5 65.5t-114.5 24.5q-66 0 -118 -24.5t-88.5 -65.5t-56 -96t-19.5 -117z" />
<glyph unicode="q" horiz-adv-x="1239" d="M82 477q0 100 36 191.5t100.5 161t154.5 109.5t198 40q84 0 167 -41t128 -113v129h224v-1433h-224v608q-45 -72 -128 -113t-167 -41q-109 0 -198.5 40t-154 110t-100.5 160t-36 192zM305 477q0 -61 19.5 -116.5t56.5 -96.5t88 -65.5t115 -24.5q63 0 115.5 24.5t89 65.5 t57 96.5t20.5 116.5t-20.5 116.5t-57 96.5t-89 65.5t-115.5 24.5t-114.5 -24.5t-88.5 -65.5t-56.5 -96t-19.5 -117z" />
<glyph unicode="r" horiz-adv-x="774" d="M150 0v954h223v-153q16 33 46 62.5t69.5 53t86 37t93.5 13.5q53 0 88 -15v-204q-27 6 -44.5 8t-43.5 2q-143 0 -219 -83t-76 -263v-412h-223z" />
<glyph unicode="s" horiz-adv-x="929" d="M74 322h217q0 -94 52 -132t132 -38q66 0 111 24.5t45 85.5q0 33 -18.5 53.5t-55.5 38t-92 36t-131 46.5q-49 18 -91 40t-73 50.5t-47.5 71.5t-16.5 104q0 68 29 119t78 87t113.5 53.5t138.5 17.5q76 0 142.5 -24.5t115.5 -67.5t77.5 -102.5t28.5 -129.5h-217 q0 68 -35.5 108t-117.5 40q-57 0 -97 -26.5t-40 -78.5q0 -31 16 -50t49 -34.5t82 -32.5t115 -42q49 -18 96 -39t84 -51.5t58.5 -73.5t21.5 -109q0 -74 -30 -129t-82 -91t-121.5 -53.5t-147.5 -17.5t-147.5 22.5t-124 67t-86 109t-31.5 148.5z" />
<glyph unicode="t" horiz-adv-x="718" d="M41 768v186h162v289h223v-289h219v-186h-219v-393q0 -61 9 -98t27.5 -56.5t44 -26t58.5 -6.5q27 0 62 2.5t51 6.5v-197q-27 -4 -72 -8t-94 -4q-41 0 -94 7t-101.5 40t-81 100.5t-32.5 188.5v444h-162z" />
<glyph unicode="u" d="M133 387v567h223v-493q0 -61 10.5 -114.5t34 -91.5t63.5 -60.5t99 -22.5q117 0 173.5 83t56.5 206v493h223v-954h-223v133q-45 -78 -125 -118t-187 -40q-104 0 -174.5 35t-111.5 94q-35 53 -48.5 119t-13.5 164z" />
<glyph unicode="v" horiz-adv-x="1011" d="M2 954h240l262 -635l266 635h240l-432 -954h-150z" />
<glyph unicode="w" horiz-adv-x="1542" d="M0 954h240l206 -604l216 604h219l215 -604l207 604h239l-371 -954h-149l-250 713l-252 -713h-149z" />
<glyph unicode="x" horiz-adv-x="913" d="M16 0l312 481l-305 473h258l176 -299l176 299h258l-305 -473l311 -481h-258l-182 307l-183 -307h-258z" />
<glyph unicode="y" horiz-adv-x="1183" d="M131 -104h225q8 -104 73 -154.5t153 -50.5q51 0 94 10t73.5 36.5t48 69.5t17.5 111v219q-45 -78 -125 -117.5t-186 -39.5q-104 0 -175 34.5t-112 94.5q-35 53 -48 118.5t-13 163.5v567h223v-493q0 -61 10 -114.5t33.5 -91.5t63.5 -60.5t100 -22.5q117 0 173 83t56 206 v493h223v-1040q0 -209 -118 -315q-117 -104 -340 -105v4q-96 0 -177 24.5t-141 74.5q-59 49 -94 122.5t-37 172.5z" />
<glyph unicode="z" horiz-adv-x="897" d="M45 0l453 756h-441v198h811l-450 -755h450v-199h-823z" />
<glyph unicode="{" horiz-adv-x="942" d="M164 457v182q25 0 57.5 9t61 30.5t49 54.5t20.5 82v526q0 72 25.5 125.5t65.5 89t90.5 53t99.5 17.5h145v-168h-90q-37 0 -58.5 -14t-33.5 -37t-15 -49.5t-3 -52.5v-521q0 -66 -24 -109.5t-55.5 -70t-66.5 -39t-57 -14.5q23 -4 57.5 -15.5t66 -38t55.5 -74.5t24 -126 v-455q0 -25 3 -52.5t15 -50t33.5 -36.5t58.5 -14h90v-168h-145q-49 0 -99.5 17.5t-90.5 52t-65.5 89t-25.5 125.5v461q0 53 -20.5 89t-49 58.5t-61.5 33t-57 10.5z" />
<glyph unicode="|" horiz-adv-x="522" d="M168 -479v2105h192v-2105h-192z" />
<glyph unicode="}" horiz-adv-x="942" d="M164 -311h90q37 0 58.5 14t33.5 36.5t15.5 50.5t3.5 52v455q0 78 22.5 126t55 74.5t67.5 38t57 15.5q-23 2 -57.5 14.5t-67 39t-55 70.5t-22.5 109v521q0 27 -3.5 53t-15.5 49t-33.5 37t-58.5 14h-90v168h145q49 0 99.5 -17.5t90.5 -53t65.5 -89t25.5 -125.5v-526 q0 -49 20.5 -82t49 -54.5t61.5 -30.5t57 -9v-182q-25 0 -57.5 -10.5t-61 -33t-49 -58.5t-20.5 -89v-461q0 -72 -25.5 -126t-65.5 -88.5t-90.5 -52t-99.5 -17.5h-145v168z" />
<glyph unicode="~" horiz-adv-x="1079" d="M82 395v191q51 68 112.5 94.5t114.5 26.5q55 0 116.5 -19.5t125.5 -46.5q59 -25 118.5 -49.5t102.5 -24.5q70 0 127 36t98 77v-191q-51 -68 -112.5 -94t-114.5 -26q-59 0 -113.5 19.5t-107.5 47.5q-53 29 -114.5 50.5t-135.5 21.5q-63 0 -119.5 -36t-97.5 -77z" />
<glyph unicode="&#xa2;" horiz-adv-x="1187" d="M119 715q0 88 25.5 171t74.5 150.5t123 113.5t170 60v220h168v-220q92 -12 159.5 -47t111.5 -85t66.5 -111.5t29.5 -122.5h-224q-10 78 -60 126t-165 48q-66 0 -113 -24.5t-79.5 -66.5t-48 -96.5t-15.5 -115.5t15.5 -116.5t48 -96.5t84 -65.5t122.5 -24.5q98 0 144.5 41 t68.5 112h224q-23 -135 -113 -230t-256 -118v-217h-168v219q-96 14 -170 60.5t-123 114t-74.5 150.5t-25.5 171z" />
<glyph unicode="&#xa3;" horiz-adv-x="1187" d="M88 645v168h139v69t-1 70.5t-1 64.5v48q0 88 37 160.5t98.5 125t143.5 80t172 27.5q98 0 180 -32.5t142.5 -92t94 -141.5t33.5 -182h-235q0 106 -51.5 171.5t-173.5 65.5q-90 0 -147.5 -45t-57.5 -137v-44t1 -61.5t1 -71.5v-71h293v-168h-293q-2 -76 -5 -148.5 t-12 -131.5q-8 -59 -19 -101.5t-28 -56.5h611v-211h-877v174q25 23 42.5 69t27.5 109t15 139t9 154h-139z" />
<glyph unicode="&#xa5;" horiz-adv-x="1187" d="M-61 1434h272l385 -617l381 617h272l-504 -813h267v-168h-312v-129h312v-168h-312v-156h-211v156h-305v168h305v129h-305v168h260z" />
<glyph unicode="&#xa8;" horiz-adv-x="1218" d="M201 1300q0 66 45 112t110 46q66 0 112 -46t46 -112t-46 -110.5t-112 -44.5t-110.5 44.5t-44.5 110.5zM670 1300q0 66 45 112t110 46q66 0 112 -46t46 -112t-46 -110.5t-112 -44.5t-110.5 44.5t-44.5 110.5z" />
<glyph unicode="&#xa9;" horiz-adv-x="1646" d="M82 717q0 145 51 281.5t146.5 240.5t233.5 166.5t310 62.5t310.5 -62.5t233.5 -166.5t146.5 -240.5t51.5 -281.5t-51.5 -281.5t-146.5 -241t-233.5 -167t-310.5 -62.5t-310 62.5t-233.5 167t-146.5 240.5t-51 282zM262 717q0 -119 39 -228.5t111.5 -194.5t176 -136.5 t234.5 -51.5t234.5 51.5t176.5 136.5t111.5 194.5t38.5 228.5t-38.5 228.5t-111.5 194.5t-176.5 136t-234.5 51t-234.5 -51t-176 -136t-111.5 -194.5t-39 -228.5zM422 719q0 80 27.5 155.5t80 133t127 92.5t170.5 35q88 0 157 -25t118 -67t76.5 -98t38.5 -122h-152 q-18 76 -76.5 128.5t-161.5 52.5q-59 0 -107 -24t-81 -63.5t-50.5 -91t-17.5 -106.5q0 -57 18.5 -109.5t53.5 -91.5t85 -62.5t114 -23.5q78 0 137 40t82 101h156q-12 -59 -46 -109t-83.5 -87t-112 -57.5t-133.5 -20.5q-98 0 -177 34t-132.5 91t-82 134t-28.5 161z" />
<glyph unicode="&#xab;" horiz-adv-x="966" d="M82 530v132l401 335v-215l-223 -186l223 -186v-215zM483 530v132l402 335v-215l-223 -186l223 -186v-215z" />
<glyph unicode="&#xad;" horiz-adv-x="602" d="M61 483v199h480v-199h-480z" />
<glyph unicode="&#xae;" horiz-adv-x="1646" d="M82 717q0 145 51 281.5t146.5 240.5t233.5 166.5t310 62.5t310.5 -62.5t233.5 -166.5t146.5 -240.5t51.5 -281.5t-51.5 -281.5t-146.5 -241t-233.5 -167t-310.5 -62.5t-310 62.5t-233.5 167t-146.5 240.5t-51 282zM262 717q0 -119 39 -228.5t111.5 -194.5t176 -136.5 t234.5 -51.5t234.5 51.5t176.5 136.5t111.5 194.5t38.5 228.5t-38.5 228.5t-111.5 194.5t-176.5 136t-234.5 51t-234.5 -51t-176 -136t-111.5 -194.5t-39 -228.5zM545 322v833h340q68 0 121 -23.5t92 -63.5t59.5 -93t20.5 -113q0 -90 -46.5 -161.5t-130.5 -106.5l166 -272 h-176l-151 249h-138v-249h-157zM702 709h166q66 0 104 45t38 108t-38 109.5t-104 46.5h-166v-309z" />
<glyph unicode="&#xb4;" horiz-adv-x="1173" d="M164 1229l510 280l106 -174l-510 -280z" />
<glyph unicode="&#xb8;" horiz-adv-x="1136" d="M360 -303h132q18 -61 75 -62q35 0 56.5 23t21.5 61q0 35 -22.5 55.5t-53.5 20.5q-43 0 -63 -37h-111v242h144v-131q27 27 75 27q27 0 55.5 -11.5t52 -34t39 -55.5t15.5 -76q0 -35 -12 -70.5t-39 -64t-65.5 -46t-92.5 -17.5q-12 0 -42.5 4t-63.5 21.5t-62.5 53t-38.5 97.5 z" />
<glyph unicode="&#xbb;" horiz-adv-x="966" d="M82 195v215l223 186l-223 186v215l401 -335v-132zM483 195v215l224 186l-224 186v215l402 -335v-132z" />
<glyph unicode="&#x2c6;" horiz-adv-x="1007" d="M129 1427l369 297l368 -297l-139 -155l-229 184l-228 -182z" />
<glyph unicode="&#x2da;" horiz-adv-x="1161" d="M328 1458q0 51 19.5 97.5t54 81t80 54t98.5 19.5q51 0 97 -20.5t81 -54t54 -80t19 -97.5t-19 -97t-54 -80t-81 -54.5t-97 -20.5q-53 0 -98.5 20.5t-80 54.5t-54 80t-19.5 97zM489 1458q0 -35 27 -61.5t64 -26.5t63.5 26.5t26.5 63.5t-25.5 63.5t-64.5 26.5t-65 -27.5 t-26 -64.5z" />
<glyph unicode="&#x2dc;" horiz-adv-x="1079" d="M164 1356q45 29 78.5 45t58.5 23.5t42 8.5t32 1q20 0 61 -8.5t85 -19.5t83 -19.5t60 -8.5q16 0 30.5 2t31.5 8.5t41 16.5t60 29l88 -142q-80 -66 -138 -79t-85 -13q-23 0 -62.5 8.5t-83.5 18.5t-83 18t-60 8q-41 0 -73.5 -13t-69.5 -30z" />
<glyph unicode="&#x401;" horiz-adv-x="1116" d="M150 0v1434h827v-211h-592v-406h592v-211h-592v-395h592v-211h-827zM166 1751q0 70 48 118t116 48q70 0 118 -48t48 -118q0 -68 -48.5 -116t-117.5 -48q-68 0 -116 48t-48 116zM635 1751q0 70 48 118t116 48q70 0 118 -48t48 -118q0 -68 -48.5 -116t-117.5 -48 q-68 0 -116 48t-48 116z" />
<glyph unicode="&#x402;" horiz-adv-x="1419" d="M20 1223v211h947v-211h-357v-402q45 78 127 118t189 40q104 0 177 -35t114 -94q35 -53 50 -118.5t15 -164.5v-790q0 -123 -76 -199t-198 -76h-152v211h98q43 0 68 24.5t25 65.5v691q0 61 -10.5 114.5t-34 91t-63.5 60t-99 22.5q-117 0 -173.5 -83t-56.5 -205v-494h-235 v1223h-355z" />
<glyph unicode="&#x403;" horiz-adv-x="976" d="M150 0v1434h827v-211h-592v-1223h-235zM279 1669l509 281l107 -174l-510 -281z" />
<glyph unicode="&#x404;" horiz-adv-x="1509" d="M78 717q0 145 43 281.5t131 240.5t224 166.5t323 62.5q131 0 240.5 -37.5t191.5 -104t133 -156t68 -193.5h-258q-10 61 -42 112.5t-82.5 88t-114 58t-136.5 21.5q-111 0 -194 -34.5t-139 -94t-89 -138.5t-45 -167h643v-213h-643q12 -88 45 -166.5t89 -138t139 -94.5 t194 -35q74 0 138 21.5t114.5 59.5t82 90t42.5 114h256q-16 -104 -67.5 -194.5t-132.5 -158t-191.5 -105.5t-241.5 -38q-186 0 -322.5 62.5t-224.5 167t-131 240.5t-43 282z" />
<glyph unicode="&#x405;" d="M86 469h236q0 -141 77.5 -217t200.5 -76q49 0 92 15.5t75 43t50.5 66.5t18.5 88q0 55 -21.5 92t-55.5 62.5t-74 43t-77 29.5q-98 35 -184 71t-150.5 86t-101.5 122t-37 180q0 88 36 161t96.5 125t141 79.5t171.5 27.5q96 0 180 -32.5t145.5 -92t96 -141.5t34.5 -182h-235 q0 106 -57.5 171.5t-157.5 65.5q-88 0 -151.5 -45t-63.5 -137q0 -43 17.5 -76.5t47 -58.5t66.5 -43t78 -33q84 -31 171 -65.5t158.5 -85.5t116.5 -123t45 -174q0 -111 -39 -195t-106.5 -141t-156.5 -86t-189 -29q-98 0 -187.5 34t-157 98.5t-108.5 157.5t-41 214z" />
<glyph unicode="&#x406;" horiz-adv-x="542" d="M150 0v1434h243v-1434h-243z" />
<glyph unicode="&#x407;" horiz-adv-x="542" d="M-86 1751q0 70 48 118t116 48q70 0 118 -48t48 -118q0 -68 -48.5 -116t-117.5 -48q-68 0 -116 48t-48 116zM150 0v1434h243v-1434h-243zM301 1751q0 70 48 118t116 48q70 0 118 -48t48 -118q0 -68 -48 -116t-118 -48q-68 0 -116 48t-48 116z" />
<glyph unicode="&#x408;" horiz-adv-x="1097" d="M25 467h235q0 -129 56.5 -210t172.5 -81q117 0 175.5 80t58.5 209v969h235v-969q0 -104 -30.5 -195.5t-91 -159t-147.5 -106.5t-200 -39q-111 0 -197.5 39t-146 107.5t-90 159.5t-30.5 196z" />
<glyph unicode="&#x409;" horiz-adv-x="1898" d="M20 -25v211h99q47 0 74.5 25t27.5 65v1158h987v-603h209q94 0 172 -33.5t133.5 -90t85 -132t29.5 -159.5t-29.5 -160t-85 -133t-133.5 -90t-172 -33h-444v1223h-516v-973q0 -123 -76 -199t-199 -76h-162zM1208 209h209q84 0 134.5 60.5t50.5 146.5t-50.5 146.5 t-134.5 60.5h-209v-414z" />
<glyph unicode="&#x40a;" horiz-adv-x="1902" d="M150 0v1434h235v-603h592v603h235v-603h209q94 0 172 -33.5t133.5 -90t85 -132t29.5 -159.5t-29.5 -160t-85 -133t-133 -90t-172.5 -33h-444v621h-592v-621h-235zM1212 209h209q84 0 134.5 60.5t50.5 146.5t-50.5 146.5t-134.5 60.5h-209v-414z" />
<glyph unicode="&#x40b;" horiz-adv-x="1415" d="M20 1223v211h947v-211h-357v-402q45 78 127 118t189 40q104 0 177 -35t114 -94q35 -53 50 -118.5t15 -164.5v-567h-235v494q0 61 -10.5 114.5t-34 91t-63.5 60t-99 22.5q-117 0 -173.5 -83t-56.5 -205v-494h-235v1223h-355z" />
<glyph unicode="&#x40c;" horiz-adv-x="1239" d="M150 0v1434h235v-564h23q63 0 119.5 38t105.5 120l112 186q59 100 140.5 165t193.5 65h84v-211h-41q-45 0 -93 -21.5t-87 -89.5l-90 -157q-43 -78 -108.5 -134.5t-153.5 -76.5l618 -754h-301l-522 676v-676h-235zM328 1669l510 281l106 -174l-510 -281z" />
<glyph unicode="&#x40e;" horiz-adv-x="1253" d="M23 1434h272l383 -617l307 617h258l-711 -1434h-258l285 573zM215 1913h209q20 -68 70.5 -108t128.5 -40t128 40t70 108h209q-12 -68 -48 -126t-90 -101.5t-123 -68t-146 -24.5q-80 0 -150 24.5t-123 68t-88 101.5t-47 126z" />
<glyph unicode="&#x40f;" horiz-adv-x="1331" d="M150 0v1434h235v-1223h561v1223h236v-1434h-410v-186h-211v186h-411z" />
<glyph unicode="&#x410;" horiz-adv-x="1169" d="M6 0l496 1434h166l495 -1434h-248l-61 182h-539l-61 -182h-248zM387 393h395l-196 649z" />
<glyph unicode="&#x411;" horiz-adv-x="1193" d="M150 0v1434h858v-211h-623v-392h307q94 0 172 -33.5t133.5 -90t85 -132t29.5 -159.5t-29.5 -160t-85 -133t-133.5 -90t-172 -33h-542zM385 209h307q84 0 134.5 60.5t50.5 146.5t-50.5 146.5t-134.5 60.5h-307v-414z" />
<glyph unicode="&#x412;" horiz-adv-x="1224" d="M150 0v1434h489q147 0 237.5 -40t140.5 -98.5t66.5 -126t16.5 -122.5q0 -68 -22.5 -122.5t-58.5 -94t-81 -65.5t-90 -36q35 0 80 -20.5t86 -60.5t69.5 -100.5t28.5 -141.5q0 -55 -18.5 -126t-69.5 -133.5t-143.5 -104.5t-239.5 -42h-491zM385 211h266q72 0 116 19.5 t68.5 50t33 66.5t8.5 67q0 27 -9.5 62.5t-35 67t-68.5 54.5t-111 23h-268v-410zM385 831h254q72 0 116 20.5t68.5 50.5t32.5 63.5t8 60.5t-8 60.5t-32.5 64.5t-68.5 51.5t-116 20.5h-254v-392z" />
<glyph unicode="&#x413;" horiz-adv-x="976" d="M150 0v1434h827v-211h-592v-1223h-235z" />
<glyph unicode="&#x414;" horiz-adv-x="1445" d="M29 -186v397h20q84 0 152.5 28.5t117.5 86.5q49 57 77 142t28 202v764h844v-1223h96v-397h-211v186h-911v-186h-213zM432 211h598v1012h-375v-361q0 -119 -9 -225.5t-33.5 -192.5t-68.5 -146t-112 -87z" />
<glyph unicode="&#x415;" horiz-adv-x="1116" d="M150 0v1434h827v-211h-592v-406h592v-211h-592v-395h592v-211h-827z" />
<glyph unicode="&#x416;" horiz-adv-x="1789" d="M10 0l563 752q-74 20 -134 84.5t-101 138.5l-84 147q-39 68 -84 89.5t-90 21.5h-39v211h72q113 0 193.5 -63.5t139.5 -166.5l113 -196q47 -84 95 -131t106 -47h22v594h226v-594h22q57 0 105.5 47t95.5 131l112 196q59 102 140.5 166t193.5 64h72v-211h-39 q-45 0 -90 -21.5t-84 -89.5l-84 -147q-41 -74 -101.5 -138.5t-133.5 -84.5l563 -752h-301l-471 676v-676h-226v676l-471 -676h-301z" />
<glyph unicode="&#x417;" horiz-adv-x="1198" d="M90 479h236q0 -70 23.5 -124t62.5 -92t90 -57.5t108 -19.5t102.5 18.5t76 49.5t46 72t15.5 84q0 51 -14.5 91t-46 68.5t-85 44t-133.5 15.5h-86v209h88q74 0 122 17t77 47t41 67t12 75q0 84 -61.5 143.5t-169.5 59.5q-53 0 -101.5 -15t-83 -46t-55 -75t-20.5 -101h-236 q0 100 38 182t105.5 141.5t161 92t203.5 32.5q92 0 175 -24.5t144.5 -73.5t98.5 -123t37 -172q0 -123 -65.5 -206t-161.5 -109q51 -10 96 -37t79.5 -70t55 -101.5t20.5 -129.5q0 -98 -36.5 -178t-101 -137.5t-152.5 -89.5t-189 -32q-111 0 -206 34t-163.5 98.5t-107.5 157.5 t-39 214z" />
<glyph unicode="&#x418;" horiz-adv-x="1359" d="M150 0v1434h235v-992l590 893v99h235v-1434h-235v991l-590 -893v-98h-235z" />
<glyph unicode="&#x419;" horiz-adv-x="1359" d="M150 0v1434h235v-992l590 893v99h235v-1434h-235v991l-590 -893v-98h-235zM283 1913h209q20 -68 70 -108t128 -40t128 40t71 108h209q-12 -68 -48 -126t-90.5 -101.5t-123 -68t-146.5 -24.5q-80 0 -149.5 24.5t-122.5 68t-88 101.5t-47 126z" />
<glyph unicode="&#x41a;" horiz-adv-x="1239" d="M150 0v1434h235v-564h23q63 0 119.5 38t105.5 120l112 186q59 100 140.5 165t193.5 65h84v-211h-41q-45 0 -93 -21.5t-87 -89.5l-90 -157q-43 -78 -108.5 -134.5t-153.5 -76.5l618 -754h-301l-522 676v-676h-235z" />
<glyph unicode="&#x41b;" horiz-adv-x="1357" d="M20 -25v211h99q47 0 74.5 25t27.5 65v1158h987v-1434h-235v1223h-516v-973q0 -123 -76 -199t-199 -76h-162z" />
<glyph unicode="&#x41c;" horiz-adv-x="1665" d="M150 0v1434h225l459 -1067l456 1067h226v-1434h-236v887l-358 -887h-179l-358 887v-887h-235z" />
<glyph unicode="&#x41d;" horiz-adv-x="1361" d="M150 0v1434h235v-617h592v617h235v-1434h-235v606h-592v-606h-235z" />
<glyph unicode="&#x41e;" horiz-adv-x="1638" d="M78 717q0 145 51 281.5t146.5 240.5t233.5 166.5t310 62.5t310.5 -62.5t233.5 -166.5t146.5 -240.5t51.5 -281.5t-51.5 -281.5t-146.5 -241t-233.5 -167t-310.5 -62.5t-310 62.5t-233.5 167t-146.5 240.5t-51 282zM326 717q0 -104 33.5 -201.5t98 -173.5t155.5 -121 t206 -45t206 45t155.5 121t98.5 173t34 202q0 104 -34 201.5t-98.5 173t-155.5 120.5t-206 45t-206 -45t-155.5 -120.5t-98 -173t-33.5 -201.5z" />
<glyph unicode="&#x41f;" horiz-adv-x="1359" d="M150 0v1434h1060v-1434h-235v1223h-590v-1223h-235z" />
<glyph unicode="&#x420;" horiz-adv-x="1220" d="M150 0v1434h514q115 0 208 -40t159.5 -110t102 -161t35.5 -191q0 -102 -35.5 -192.5t-102 -160t-160 -109.5t-207.5 -40h-279v-430h-235zM385 641h279q61 0 111 23.5t85 63.5t54.5 92t19.5 112q0 59 -19.5 111.5t-54.5 92.5t-85 63.5t-111 23.5h-279v-582z" />
<glyph unicode="&#x421;" horiz-adv-x="1587" d="M78 719q0 145 50 280.5t145.5 239.5t229.5 166.5t304 62.5q160 0 283.5 -44t212 -118.5t140.5 -176t68 -218.5h-247q-12 74 -48 137.5t-90.5 109.5t-127 72.5t-160.5 26.5q-123 0 -220.5 -45t-163 -119.5t-100.5 -172t-35 -201.5q0 -111 36 -209t104.5 -173t170 -118 t232.5 -43q61 0 124 21.5t116 59.5t93 90t58 114h258q-25 -104 -84 -194.5t-147 -158t-202.5 -105.5t-246.5 -38q-176 0 -315 61.5t-236.5 165t-149.5 239.5t-52 288z" />
<glyph unicode="&#x422;" horiz-adv-x="987" d="M20 1223v211h947v-211h-357v-1223h-235v1223h-355z" />
<glyph unicode="&#x423;" horiz-adv-x="1253" d="M23 1434h272l383 -617l307 617h258l-711 -1434h-258l285 573z" />
<glyph unicode="&#x424;" horiz-adv-x="1587" d="M51 717q0 109 36 205t101.5 168.5t159.5 114.5t209 42h119v187h235v-187h119q115 0 208 -42t159.5 -114.5t102.5 -169t36 -204.5q0 -109 -36 -205t-102.5 -169t-159.5 -115t-208 -42h-119v-186h-235v186h-119q-115 0 -209 42t-159.5 115t-101.5 169t-36 205zM287 717 q0 -66 19.5 -124t54 -101t85 -69t111.5 -26h119v639h-119q-61 0 -111.5 -25.5t-85 -68.5t-54 -101.5t-19.5 -123.5zM911 397h119q61 0 111.5 26t85.5 69t54 101t19 124t-19 124t-54 101t-85 68.5t-112 25.5h-119v-639z" />
<glyph unicode="&#x425;" horiz-adv-x="1150" d="M16 0l426 717l-426 717h267l292 -514l293 514h267l-426 -717l426 -717h-267l-293 512l-292 -512h-267z" />
<glyph unicode="&#x426;" horiz-adv-x="1388" d="M150 0v1434h235v-1223h561v1223h236v-1223h186v-397h-211v186h-1007z" />
<glyph unicode="&#x427;" horiz-adv-x="1200" d="M72 891v543h235v-482q0 -147 76 -229t205 -82h227v793h236v-1434h-236v430h-272q-111 0 -198 37t-148.5 99.5t-93 146.5t-31.5 178z" />
<glyph unicode="&#x428;" horiz-adv-x="1853" d="M150 0v1434h235v-1223h424v1223h235v-1223h424v1223h236v-1434h-1554z" />
<glyph unicode="&#x429;" horiz-adv-x="1910" d="M150 0v1434h235v-1223h424v1223h235v-1223h424v1223h236v-1223h186v-397h-235v186h-1505z" />
<glyph unicode="&#x42a;" horiz-adv-x="1320" d="M20 1223v211h512v-603h308q94 0 172 -33.5t133 -90t85 -132t30 -159.5t-30 -160t-85 -133t-133 -90t-172 -33h-543v1223h-277zM532 209h308q84 0 134 60.5t50 146.5t-50 146.5t-134 60.5h-308v-414z" />
<glyph unicode="&#x42b;" horiz-adv-x="1550" d="M150 0v1434h235v-603h258q94 0 172 -33.5t133.5 -90t85 -132t29.5 -159.5t-29.5 -160t-85 -133t-133.5 -90t-172 -33h-493zM385 209h258q84 0 134 60.5t50 146.5t-50 146.5t-134 60.5h-258v-414zM1165 0v1434h236v-1434h-236z" />
<glyph unicode="&#x42c;" horiz-adv-x="1173" d="M150 0v1434h235v-603h307q94 0 172 -33.5t133.5 -90t85 -132t29.5 -159.5t-29.5 -160t-85 -133t-133.5 -90t-172 -33h-542zM385 209h307q84 0 134.5 60.5t50.5 146.5t-50.5 146.5t-134.5 60.5h-307v-414z" />
<glyph unicode="&#x42d;" horiz-adv-x="1527" d="M78 461h258q18 -61 60 -113.5t98.5 -90.5t122 -59.5t131.5 -21.5q199 0 313.5 117t140.5 315h-649v213h649q-12 96 -47 177t-91 138.5t-132 89t-170 31.5q-92 0 -167 -26.5t-129 -72.5t-89 -109.5t-49 -137.5h-248q18 117 68.5 218.5t135.5 176t206.5 118.5t281.5 44 q162 0 288 -58t213 -159.5t132 -237.5t45 -294q0 -164 -47 -301t-136 -238.5t-220.5 -158t-298.5 -56.5q-129 0 -242 38t-200 105.5t-145.5 157.5t-82.5 195z" />
<glyph unicode="&#x42e;" horiz-adv-x="2181" d="M150 0v1434h235v-617h242q16 131 73.5 249t151.5 207t223 142t287 53q172 0 310 -62.5t233.5 -166.5t146.5 -240.5t51 -281.5t-51 -281.5t-146.5 -241t-233.5 -167t-310 -62.5q-158 0 -285 51.5t-221 139.5t-152.5 204.5t-76.5 245.5h-242v-606h-235zM868 717 q0 -104 34 -201.5t98.5 -173.5t155.5 -121t206 -45t206 45t155.5 121t98 173t33.5 202q0 104 -33.5 201.5t-98 173t-155.5 120.5t-206 45t-206 -45t-155.5 -120.5t-98.5 -173t-34 -201.5z" />
<glyph unicode="&#x42f;" horiz-adv-x="1247" d="M78 932q0 100 36 191t101.5 161t159.5 110t209 40h514v-1434h-236v430h-235l-262 -430h-269l285 467q-72 29 -127 77t-95 108.5t-60.5 131t-20.5 148.5zM313 932q0 -59 19.5 -111.5t54.5 -92.5t85.5 -63.5t111.5 -23.5h278v582h-278q-61 0 -111.5 -23.5t-85.5 -63.5 t-54.5 -92.5t-19.5 -111.5z" />
<glyph unicode="&#x430;" horiz-adv-x="1234" d="M78 477q0 100 36 191.5t100.5 161t154.5 109.5t198 40q84 0 167 -41t128 -113v129h223v-954h-223v129q-45 -72 -128 -113t-167 -41q-109 0 -198.5 40t-154 110t-100.5 160t-36 192zM301 477q0 -61 19.5 -116.5t56.5 -96.5t88.5 -65.5t114.5 -24.5t115.5 24.5t89 65.5 t57 96.5t20.5 116.5t-20.5 116.5t-57 96.5t-89 65.5t-115.5 24.5t-114.5 -24.5t-88.5 -65.5t-56.5 -96t-19.5 -117z" />
<glyph unicode="&#x431;" horiz-adv-x="1191" d="M102 651q0 133 17.5 234.5t46.5 177.5t66.5 128t78.5 89q100 90 225.5 122t280.5 32h195v-215h-254q-92 0 -174 -20.5t-142 -80.5q-59 -61 -94 -155.5t-45 -214.5q20 57 57 100t85.5 72.5t101.5 44t104 14.5q111 0 197 -40t144.5 -109.5t88 -160.5t29.5 -192v-2 q0 -102 -36 -192t-100.5 -160t-154.5 -110t-198 -40q-244 0 -379 168q-68 86 -104 212t-36 298zM326 475q0 -66 19.5 -121t56 -96t88.5 -63.5t118 -22.5q63 0 114.5 24.5t88.5 65.5t56.5 96.5t19.5 116.5t-19.5 116.5t-56.5 96.5t-88 65.5t-115 24.5q-66 0 -118 -22.5 t-88.5 -63.5t-56 -96t-19.5 -121z" />
<glyph unicode="&#x432;" horiz-adv-x="1003" d="M150 0v954h438q102 0 163.5 -25.5t95.5 -64.5t45 -82t11 -80q0 -43 -17.5 -79.5t-48 -64.5t-70.5 -45t-85 -19q45 -2 89 -17.5t77 -44.5t53.5 -71t20.5 -97q0 -35 -13.5 -81t-52.5 -87t-106.5 -68.5t-176.5 -27.5h-423zM367 156h211q53 0 86.5 36.5t33.5 88.5 q0 51 -33.5 89t-86.5 38h-211v-252zM367 563h202q51 0 81 35t30 82q0 49 -29.5 84t-81.5 35h-202v-236z" />
<glyph unicode="&#x433;" horiz-adv-x="735" d="M150 0v954h585v-186h-362v-768h-223z" />
<glyph unicode="&#x434;" horiz-adv-x="1138" d="M20 174h21q57 0 100 21.5t70 60.5t40 91t13 112v495h740v-780h73v-387h-198v213h-660v-213h-199v387zM338 174h457v606h-322v-291q0 -115 -28.5 -197.5t-106.5 -117.5z" />
<glyph unicode="&#x435;" horiz-adv-x="1085" d="M80 477q0 106 31.5 198.5t91 160t147.5 105.5t201 38q92 0 173 -33t141.5 -91t94 -136t33.5 -170q0 -25 -1 -58.5t-9 -80.5h-682q4 -51 18.5 -96.5t44 -79t76.5 -53t117 -19.5q96 0 139 37t64 88h225q-10 -61 -44 -117.5t-89 -99.5t-129 -69t-166 -26q-121 0 -210 39 t-148.5 106.5t-89 160t-29.5 196.5zM301 575h475q0 111 -64.5 173.5t-166.5 62.5q-104 0 -174 -59.5t-70 -176.5z" />
<glyph unicode="&#x436;" horiz-adv-x="1380" d="M10 0l408 496q-45 4 -99.5 35.5t-85.5 84.5l-51 89q-45 80 -119 79h-43v181h78q70 0 129.5 -26t112.5 -114l98 -166q31 -51 59.5 -76.5t67.5 -25.5h21v397h209v-397h20q39 0 67.5 25.5t59.5 76.5l98 166q53 88 112.5 114t129.5 26h78v-181h-43q-74 0 -119 -79l-51 -89 q-31 -53 -85 -84.5t-99 -35.5l407 -496h-252l-323 434v-434h-209v434l-324 -434h-252z" />
<glyph unicode="&#x437;" horiz-adv-x="905" d="M61 295h218q0 -61 45 -99t137 -38q63 0 106 26.5t43 83.5t-40 94t-128 37h-108v156h96q90 0 125 35t35 94q0 51 -40 85t-108 34q-86 0 -118.5 -40t-32.5 -97h-217q0 141 100 227t270 86q166 0 262.5 -74t96.5 -190q0 -102 -54.5 -156.5t-140.5 -66.5q90 -10 152.5 -68.5 t62.5 -163.5q0 -68 -30.5 -121t-83 -89t-121 -55.5t-144.5 -19.5q-184 0 -283.5 87.5t-99.5 232.5z" />
<glyph unicode="&#x438;" horiz-adv-x="1169" d="M150 0v954h223v-624l424 538v86h223v-954h-223v614l-424 -534v-80h-223z" />
<glyph unicode="&#x439;" horiz-adv-x="1169" d="M150 0v954h223v-624l424 538v86h223v-954h-223v614l-424 -534v-80h-223zM193 1434h208q20 -68 70.5 -108t128.5 -40t128 40t71 108h209q-12 -68 -48 -126.5t-90.5 -101.5t-123 -67.5t-146.5 -24.5q-80 0 -149.5 24.5t-123 67.5t-88 101.5t-46.5 126.5z" />
<glyph unicode="&#x43a;" horiz-adv-x="1042" d="M150 0v954h223v-397h20q37 0 69 26.5t66 75.5l123 177q47 70 100.5 99.5t129.5 29.5h100v-181h-53q-33 0 -65 -12t-58 -51l-64 -94q-45 -68 -93 -90.5t-91 -32.5l444 -504h-264l-364 434v-434h-223z" />
<glyph unicode="&#x43b;" horiz-adv-x="1167" d="M41 -16v198h53q43 0 67.5 17.5t24.5 60.5v694h832v-954h-223v768h-385v-530q0 -117 -71 -185.5t-194 -68.5h-104z" />
<glyph unicode="&#x43c;" horiz-adv-x="1470" d="M150 0v954h323l262 -653l262 653h324v-954h-203v762l-307 -762h-152l-307 762v-762h-202z" />
<glyph unicode="&#x43d;" horiz-adv-x="1181" d="M150 0v954h223v-376h436v376h223v-954h-223v391h-436v-391h-223z" />
<glyph unicode="&#x43e;" horiz-adv-x="1163" d="M78 477q0 100 36 191.5t101.5 161t157.5 109.5t207 40t208 -40t159.5 -109.5t102 -160.5t35.5 -192q0 -102 -35.5 -192t-102 -160t-159.5 -110t-208 -40t-207 40t-157.5 110t-101.5 160t-36 192zM301 477q0 -61 19.5 -116.5t56.5 -96.5t88.5 -65.5t114.5 -24.5 t115.5 24.5t89 65.5t57 96.5t20.5 116.5t-20.5 116.5t-57 96.5t-89 65.5t-115.5 24.5t-114.5 -24.5t-88.5 -65.5t-56.5 -96t-19.5 -117z" />
<glyph unicode="&#x43f;" horiz-adv-x="1161" d="M150 0v954h862v-954h-224v768h-415v-768h-223z" />
<glyph unicode="&#x440;" horiz-adv-x="1239" d="M150 -479v1433h223v-129q45 72 128 113t167 41q109 0 198.5 -40t154 -109.5t100.5 -160.5t36 -192q0 -102 -36 -192t-100.5 -160t-154.5 -110t-198 -40q-84 0 -167 41t-128 113v-608h-223zM373 477q0 -61 19.5 -116.5t56 -96.5t89 -65.5t117.5 -24.5q63 0 114.5 24.5 t88.5 65.5t56.5 96.5t19.5 116.5t-19.5 116.5t-56.5 96.5t-88.5 65.5t-114.5 24.5q-66 0 -118 -24.5t-88.5 -65.5t-56 -96t-19.5 -117z" />
<glyph unicode="&#x441;" horiz-adv-x="1093" d="M82 477q0 96 30.5 187.5t91 161t148.5 111.5t205 42t200 -33t137 -85t82 -118.5t34 -136.5h-224q-10 78 -60 126t-165 48q-66 0 -113 -24.5t-79.5 -66.5t-48 -96t-15.5 -116q0 -61 15.5 -116.5t48 -96.5t84 -65.5t122.5 -24.5q98 0 144.5 41t68.5 113h224 q-12 -74 -45 -138.5t-89.5 -112.5t-135 -75t-183.5 -27q-117 0 -206 42t-149.5 112t-91 160t-30.5 188z" />
<glyph unicode="&#x442;" horiz-adv-x="813" d="M20 768v186h773v-186h-277v-768h-223v768h-273z" />
<glyph unicode="&#x443;" horiz-adv-x="1183" d="M133 -109h225q8 -104 73 -154t153 -50q51 0 94 10t73.5 36.5t48 69.5t17.5 111v219q-45 -78 -125 -118t-186 -40q-104 0 -175 35t-112 94q-35 53 -48 119t-13 164v567h223v-493q0 -61 10 -114.5t34 -91.5t63.5 -60.5t99.5 -22.5q117 0 173 83t56 206v493h223v-1040 q0 -207 -118 -313q-117 -103 -342 -103q-96 0 -177 24.5t-141 74.5q-59 49 -93 122.5t-36 171.5z" />
<glyph unicode="&#x444;" horiz-adv-x="1306" d="M78 477q0 96 36 183.5t99 155t151.5 110.5t192.5 51v457h193v-457q104 -8 192 -51t151.5 -110.5t99.5 -155t36 -183.5t-36 -183t-99.5 -154.5t-151.5 -110.5t-192 -52v-454h-193v454q-104 8 -192.5 50.5t-151.5 110t-99 155.5t-36 184zM295 477q0 -59 16.5 -115.5 t50 -100.5t82 -70.5t113.5 -26.5v627q-66 -4 -114 -31t-81.5 -70t-50 -98.5t-16.5 -114.5zM750 164q63 0 112 26.5t83 69.5t50.5 99.5t16.5 117.5t-16.5 115.5t-50.5 97.5t-83 69.5t-112 31.5v-627z" />
<glyph unicode="&#x445;" horiz-adv-x="913" d="M16 0l312 481l-305 473h258l176 -299l176 299h258l-305 -473l311 -481h-258l-182 307l-183 -307h-258z" />
<glyph unicode="&#x446;" horiz-adv-x="1216" d="M150 0v954h223v-768h405v768h223v-768h154v-340h-221v154h-784z" />
<glyph unicode="&#x447;" horiz-adv-x="1007" d="M82 596v358h223v-354q0 -139 144 -139h186v493h223v-954h-223v274h-221q-160 0 -246 80t-86 242z" />
<glyph unicode="&#x448;" horiz-adv-x="1603" d="M150 0v954h223v-768h317v768h223v-768h318v768h223v-954h-1304z" />
<glyph unicode="&#x449;" horiz-adv-x="1669" d="M150 0v954h223v-768h317v768h223v-768h318v768h223v-768h154v-340h-222v154h-1236z" />
<glyph unicode="&#x44a;" horiz-adv-x="1044" d="M31 768v186h383v-307h233q80 0 138.5 -25.5t98.5 -69.5t59.5 -102.5t19.5 -125.5q0 -66 -19.5 -124.5t-59.5 -103.5t-98.5 -70.5t-138.5 -25.5h-442v768h-174zM414 176h192q78 0 115 41t37 107t-37 106.5t-115 40.5h-192v-295z" />
<glyph unicode="&#x44b;" horiz-adv-x="1380" d="M150 0v954h208v-307h234q80 0 138 -25.5t98 -69.5t59.5 -102.5t19.5 -125.5q0 -66 -19.5 -124.5t-59.5 -103.5t-98 -70.5t-138 -25.5h-442zM358 176h193q78 0 114.5 41t36.5 107t-36.5 106.5t-114.5 40.5h-193v-295zM1010 0v954h221v-954h-221z" />
<glyph unicode="&#x44c;" horiz-adv-x="989" d="M150 0v954h208v-307h234q80 0 138 -25.5t98 -69.5t59.5 -102.5t19.5 -125.5q0 -66 -19.5 -124.5t-59.5 -103.5t-98 -70.5t-138 -25.5h-442zM358 176h193q78 0 114.5 41t36.5 107t-36.5 106.5t-114.5 40.5h-193v-295z" />
<glyph unicode="&#x44d;" horiz-adv-x="1110" d="M82 328h223q12 -68 70.5 -111t175.5 -43q125 0 184.5 59.5t69.5 159.5h-371v166h371q-10 98 -69.5 159.5t-184.5 61.5q-117 0 -174.5 -49t-69.5 -125h-223q2 78 35 145.5t92 119t143 80t187 28.5q127 0 219 -42t152.5 -111.5t90 -161t29.5 -187.5q0 -98 -29.5 -188 t-90 -160t-152.5 -112t-219 -42q-104 0 -188.5 28t-143.5 75t-92 111.5t-35 138.5z" />
<glyph unicode="&#x44e;" horiz-adv-x="1574" d="M150 0v954h223v-383h125q14 84 55 159t105.5 130t148.5 87t184 32q115 0 208 -40t159.5 -109.5t102.5 -160.5t36 -192q0 -102 -36 -192t-102.5 -160t-159.5 -110t-208 -40q-100 0 -184 32t-148.5 87.5t-105.5 130t-55 160.5h-125v-385h-223zM713 477q0 -61 19.5 -116.5 t56 -96.5t88 -65.5t114.5 -24.5t115.5 24.5t89.5 65.5t57.5 96.5t20.5 116.5t-20.5 116.5t-57.5 96.5t-89 65.5t-116 24.5q-63 0 -114.5 -24.5t-88 -65.5t-56 -96t-19.5 -117z" />
<glyph unicode="&#x44f;" horiz-adv-x="1062" d="M61 625q0 68 24 128t69 104t106.5 70.5t138.5 26.5h514v-954h-219v293h-192l-176 -293h-258l206 317q-98 35 -155.5 120t-57.5 188zM289 625q0 -59 43 -103.5t117 -44.5h245v297h-245q-74 0 -117 -45t-43 -104z" />
<glyph unicode="&#x451;" horiz-adv-x="1085" d="M80 477q0 106 31.5 198.5t91 160t147.5 105.5t201 38q92 0 173 -33t141.5 -91t94 -136t33.5 -170q0 -25 -1 -58.5t-9 -80.5h-682q4 -51 18.5 -96.5t44 -79t76.5 -53t117 -19.5q96 0 139 37t64 88h225q-10 -61 -44 -117.5t-89 -99.5t-129 -69t-166 -26q-121 0 -210 39 t-148.5 106.5t-89 160t-29.5 196.5zM160 1257q0 70 48 118t116 48q70 0 117.5 -48t47.5 -118q0 -68 -48 -115.5t-117 -47.5q-68 0 -116 47.5t-48 115.5zM301 575h475q0 111 -64.5 173.5t-166.5 62.5q-104 0 -174 -59.5t-70 -176.5zM629 1257q0 70 48 118t116 48 q70 0 117.5 -48t47.5 -118q0 -68 -48 -115.5t-117 -47.5q-68 0 -116 47.5t-48 115.5z" />
<glyph unicode="&#x452;" horiz-adv-x="1218" d="M41 1085v148h162v201h223v-201h219v-148h-219v-264q45 78 125 118t186 40q104 0 175 -35t112 -94q35 -53 48 -118.5t13 -164.5v-790q0 -123 -75.5 -199t-198.5 -76h-139v185h98q43 0 67.5 24.5t24.5 65.5v717q0 61 -10 114.5t-33.5 91t-63.5 60t-100 22.5 q-117 0 -173 -83t-56 -205v-494h-223v1085h-162z" />
<glyph unicode="&#x453;" horiz-adv-x="735" d="M131 1188l510 280l107 -174l-510 -280zM150 0v954h585v-186h-362v-768h-223z" />
<glyph unicode="&#x454;" horiz-adv-x="1120" d="M78 477q0 96 29.5 187.5t90 161t152.5 111.5t219 42q102 0 186.5 -28.5t143.5 -80t92 -119t35 -145.5h-223q-12 76 -69.5 125t-174.5 49q-125 0 -185.5 -61.5t-68.5 -159.5h371v-166h-371q8 -100 68.5 -159.5t185.5 -59.5q117 0 175.5 43t70.5 111h223 q-2 -74 -34.5 -138.5t-92 -111.5t-143.5 -75t-189 -28q-127 0 -219 42t-152.5 112t-90 160t-29.5 188z" />
<glyph unicode="&#x455;" horiz-adv-x="929" d="M74 322h217q0 -94 52 -132t132 -38q66 0 111 24.5t45 85.5q0 33 -18.5 53.5t-55.5 38t-92 36t-131 46.5q-49 18 -91 40t-73 50.5t-47.5 71.5t-16.5 104q0 68 29 119t78 87t113.5 53.5t138.5 17.5q76 0 142.5 -24.5t115.5 -67.5t77.5 -102.5t28.5 -129.5h-217 q0 68 -35.5 108t-117.5 40q-57 0 -97 -26.5t-40 -78.5q0 -31 16 -50t49 -34.5t82 -32.5t115 -42q49 -18 96 -39t84 -51.5t58.5 -73.5t21.5 -109q0 -74 -30 -129t-82 -91t-121.5 -53.5t-147.5 -17.5t-147.5 22.5t-124 67t-86 109t-31.5 148.5z" />
<glyph unicode="&#x456;" horiz-adv-x="522" d="M96 1303q0 70 48.5 117.5t115.5 47.5q70 0 118 -48t48 -117q0 -68 -48 -116t-118 -48q-68 0 -116 48t-48 116zM150 0v954h223v-954h-223z" />
<glyph unicode="&#x457;" horiz-adv-x="522" d="M-96 1303q0 70 48 117.5t116 47.5q70 0 117.5 -48t47.5 -117q0 -68 -48 -116t-117 -48q-68 0 -116 48t-48 116zM150 0v954h223v-954h-223zM291 1303q0 70 48 117.5t116 47.5q70 0 118 -48t48 -117q0 -68 -48.5 -116t-117.5 -48q-68 0 -116 48t-48 116z" />
<glyph unicode="&#x458;" horiz-adv-x="522" d="M0 -283q33 -4 48 -5t30 -1q72 0 72 101v1142h223v-1177q0 -80 -19.5 -133.5t-50.5 -85t-70.5 -45t-80.5 -13.5q-47 0 -89.5 6.5t-62.5 16.5v194zM96 1303q0 70 48.5 117.5t115.5 47.5q70 0 118 -48t48 -117q0 -68 -48 -116t-118 -48q-68 0 -116 48t-48 116z" />
<glyph unicode="&#x459;" horiz-adv-x="1648" d="M41 -16v198h53q43 0 67.5 21.5t24.5 56.5v694h832v-307h233q70 0 128.5 -25.5t99.5 -69.5t64.5 -102.5t23.5 -125.5q0 -66 -23.5 -124.5t-64.5 -103.5t-99.5 -70.5t-128.5 -25.5h-456v768h-385v-530q0 -117 -71 -185.5t-194 -68.5h-104zM1018 176h192q68 0 110 44t42 104 q0 61 -42 104t-110 43h-192v-295z" />
<glyph unicode="&#x45a;" horiz-adv-x="1636" d="M150 0v954h223v-307h409v307h224v-307h233q70 0 128 -25.5t99 -69.5t64.5 -102.5t23.5 -125.5q0 -66 -23.5 -124.5t-64.5 -103.5t-99 -70.5t-128 -25.5h-457v471h-409v-471h-223zM1006 176h192q68 0 110 44t42 104q0 61 -42 104t-110 43h-192v-295z" />
<glyph unicode="&#x45b;" horiz-adv-x="1218" d="M41 1085v148h162v201h223v-201h219v-148h-219v-264q45 78 125 118t186 40q104 0 175 -35t112 -94q35 -53 48 -118.5t13 -164.5v-567h-223v494q0 61 -10 114.5t-33.5 91t-63.5 60t-100 22.5q-117 0 -173 -83t-56 -205v-494h-223v1085h-162z" />
<glyph unicode="&#x45c;" horiz-adv-x="1042" d="M150 0v954h223v-397h20q37 0 69 26.5t66 75.5l123 177q47 70 100.5 99.5t129.5 29.5h100v-181h-53q-33 0 -65 -12t-58 -51l-64 -94q-45 -68 -93 -90.5t-91 -32.5l444 -504h-264l-364 434v-434h-223zM281 1188l510 280l106 -174l-510 -280z" />
<glyph unicode="&#x45e;" horiz-adv-x="1183" d="M133 -109h225q8 -104 73 -154t153 -50q51 0 94 10t73.5 36.5t48 69.5t17.5 111v219q-45 -78 -125 -118t-186 -40q-104 0 -175 35t-112 94q-35 53 -48 119t-13 164v567h223v-493q0 -61 10 -114.5t34 -91.5t63.5 -60.5t99.5 -22.5q117 0 173 83t56 206v493h223v-1040 q0 -207 -118 -313q-117 -103 -342 -103q-96 0 -177 24.5t-141 74.5q-59 49 -93 122.5t-36 171.5zM193 1434h208q20 -68 70.5 -108t128.5 -40t128 40t71 108h209q-12 -68 -48 -126.5t-90.5 -101.5t-123 -67.5t-146.5 -24.5q-80 0 -149.5 24.5t-123 67.5t-88 101.5 t-46.5 126.5z" />
<glyph unicode="&#x45f;" horiz-adv-x="1181" d="M150 0v954h223v-768h436v768h223v-954h-342v-154h-198v154h-342z" />
<glyph unicode="&#x462;" horiz-adv-x="1169" d="M20 1235v199h693v-199h-332v-404h307q94 0 172 -33.5t133.5 -90t85 -132t29.5 -159.5t-29.5 -160t-85 -133t-133.5 -90t-172 -33h-543v1235h-125zM381 209h307q84 0 134 60.5t50 146.5t-50 146.5t-134 60.5h-307v-414z" />
<glyph unicode="&#x463;" horiz-adv-x="995" d="M41 956v148h115v332h209v-332h204v-148h-204v-309h233q80 0 138.5 -25.5t98 -69.5t59 -102.5t19.5 -125.5q0 -66 -19.5 -124.5t-59 -103.5t-98 -70.5t-138.5 -25.5h-442v956h-115zM365 176h192q78 0 115 41t37 107t-37 106.5t-115 40.5h-192v-295z" />
<glyph unicode="&#x472;" horiz-adv-x="1638" d="M78 717q0 145 51 281.5t146.5 240.5t233.5 166.5t310 62.5t310.5 -62.5t233.5 -166.5t146.5 -240.5t51.5 -281.5t-51.5 -281.5t-146.5 -241t-233.5 -167t-310.5 -62.5t-310 62.5t-233.5 167t-146.5 240.5t-51 282zM330 645q10 -94 49 -179t101.5 -149.5t148.5 -102.5 t190 -38t189.5 38t149 102.5t101 149.5t50.5 179h-979zM330 793h979q-12 92 -51 177t-101.5 148.5t-148 101t-189.5 37.5t-189 -37.5t-148.5 -101t-101.5 -148.5t-50 -177z" />
<glyph unicode="&#x473;" horiz-adv-x="1163" d="M78 477q0 100 36 191.5t101.5 161t157.5 109.5t207 40t208 -40t159.5 -109.5t102 -160.5t35.5 -192q0 -102 -35.5 -192t-102 -160t-159.5 -110t-208 -40t-207 40t-157.5 110t-101.5 160t-36 192zM309 403q20 -98 91 -163.5t180 -65.5q111 0 181 65.5t93 163.5h-545z M309 551h545q-23 98 -93 163.5t-181 65.5q-109 0 -179.5 -65.5t-91.5 -163.5z" />
<glyph unicode="&#x474;" horiz-adv-x="1226" d="M4 1434h248l332 -1043l264 823q39 125 104.5 177.5t177.5 52.5h93v-211h-49q-45 0 -79 -18.5t-59 -92.5l-370 -1122h-166z" />
<glyph unicode="&#x475;" horiz-adv-x="1046" d="M2 954h240l262 -635l180 424q47 113 103.5 167.5t164.5 54.5h92v-211h-49q-23 0 -39 -4.5t-30.5 -16.5t-27.5 -33.5t-30 -56.5l-290 -643h-150z" />
<glyph unicode="&#x48a;" horiz-adv-x="1378" d="M150 0v1434h235v-992l590 893v99h235v-1223h127v-397h-235v186h-127v991l-590 -893v-98h-235zM283 1913h209q20 -68 70 -108t128 -40t128 40t71 108h209q-12 -68 -48 -126t-90.5 -101.5t-123 -68t-146.5 -24.5q-80 0 -149.5 24.5t-122.5 68t-88 101.5t-47 126z" />
<glyph unicode="&#x48b;" horiz-adv-x="1193" d="M150 0v954h223v-624l424 538v86h223v-768h154v-340h-222v154h-155v614l-424 -534v-80h-223zM193 1434h208q20 -68 70.5 -108t128.5 -40t128 40t71 108h209q-12 -68 -48 -126.5t-90.5 -101.5t-123 -67.5t-146.5 -24.5q-80 0 -149.5 24.5t-123 67.5t-88 101.5t-46.5 126.5z " />
<glyph unicode="&#x48c;" horiz-adv-x="1179" d="M41 1083v179h115v172h235v-172h342v-179h-342v-252h307q94 0 172 -33.5t133.5 -90t85 -132t29.5 -159.5t-29.5 -160t-85 -133t-133 -90t-172.5 -33h-542v1083h-115zM391 209h307q84 0 134.5 60.5t50.5 146.5t-50.5 146.5t-134.5 60.5h-307v-414z" />
<glyph unicode="&#x48d;" horiz-adv-x="989" d="M47 725v147h103v82h208v-82h217v-147h-217v-78h234q80 0 138 -25.5t98 -69.5t59.5 -102.5t19.5 -125.5q0 -66 -19.5 -124.5t-59.5 -103.5t-98 -70.5t-138 -25.5h-442v725h-103zM358 176h193q78 0 114.5 41t36.5 107t-36.5 106.5t-114.5 40.5h-193v-295z" />
<glyph unicode="&#x48e;" horiz-adv-x="1220" d="M150 0v1434h514q115 0 208 -40t159.5 -110t102 -161t35.5 -191q0 -123 -52 -229.5t-146 -176.5l119 -116l-105 -105l-151 152q-41 -12 -82 -19.5t-88 -7.5h-279v-430h-235zM385 641h262l-98 98l104 105l158 -160q59 41 91 105.5t32 142.5q0 59 -19.5 111.5t-54.5 92.5 t-85 63.5t-111 23.5h-279v-582z" />
<glyph unicode="&#x48f;" horiz-adv-x="1239" d="M150 -479v1433h223v-129q45 72 128 113t167 41q109 0 198.5 -40t154 -109.5t100.5 -160.5t36 -192q0 -106 -38 -199.5t-107 -162.5l131 -129l-105 -105l-147 146q-102 -51 -223 -52q-84 0 -167 41t-128 113v-608h-223zM373 477q0 -61 19.5 -116.5t56 -96.5t89 -65.5 t117.5 -24.5q37 0 78 10l-131 131l105 105l153 -154q74 86 74 211q0 61 -19.5 116.5t-56.5 96.5t-88 65.5t-115 24.5q-66 0 -118 -24.5t-88.5 -65.5t-56 -96t-19.5 -117z" />
<glyph unicode="&#x490;" horiz-adv-x="976" d="M150 0v1434h616v186h211v-397h-592v-1223h-235z" />
<glyph unicode="&#x491;" horiz-adv-x="786" d="M150 0v954h440v154h196v-340h-413v-768h-223z" />
<glyph unicode="&#x492;" horiz-adv-x="1091" d="M150 725v178h114v531h828v-211h-592v-320h178v-178h-178v-725h-236v725h-114z" />
<glyph unicode="&#x493;" horiz-adv-x="731" d="M31 428v147h114v379h586v-186h-362v-193h190v-147h-190v-428h-224v428h-114z" />
<glyph unicode="&#x494;" horiz-adv-x="1193" d="M150 0v1434h591v-211h-356v-402q45 78 127 118t188 40q104 0 177 -35t114 -94q35 -53 50.5 -118.5t15.5 -164.5v-790q0 -123 -76 -199t-199 -76h-151v211h98q43 0 67.5 24.5t24.5 65.5v691q0 61 -10 114.5t-33.5 91t-63.5 60t-100 22.5q-117 0 -173 -83t-56 -205v-494 h-235z" />
<glyph unicode="&#x495;" horiz-adv-x="1067" d="M150 0v954h223v-460q35 78 96 117.5t143 39.5q92 0 157 -34.5t99 -94.5q35 -53 48.5 -118.5t13.5 -163.5v-463q0 -123 -76 -199t-199 -76h-139v185h98q43 0 68 24.5t25 65.5v450q0 49 -7.5 90t-26 72t-48 48.5t-74.5 17.5q-92 0 -135 -64.5t-43 -163.5v-227h-223z" />
<glyph unicode="&#x496;" horiz-adv-x="1789" d="M10 0l563 752q-74 20 -134 84.5t-101 138.5l-84 147q-39 68 -84 89.5t-90 21.5h-39v211h72q113 0 193.5 -63.5t139.5 -166.5l113 -196q47 -84 95 -131t106 -47h22v594h226v-594h22q57 0 105.5 47t95.5 131l112 196q59 102 140.5 166t193.5 64h72v-211h-39 q-45 0 -90 -21.5t-84 -89.5l-84 -147q-41 -74 -101.5 -138.5t-133.5 -84.5l563 -752v-186h-211v186h-90l-471 676v-676h-226v676l-471 -676h-301z" />
<glyph unicode="&#x497;" horiz-adv-x="1380" d="M10 0l408 496q-45 4 -99.5 35.5t-85.5 84.5l-51 89q-45 80 -119 79h-43v181h78q70 0 129.5 -26t112.5 -114l98 -166q31 -51 59.5 -76.5t67.5 -25.5h21v397h209v-397h20q39 0 67.5 25.5t59.5 76.5l98 166q53 88 112.5 114t129.5 26h78v-181h-43q-74 0 -119 -79l-51 -89 q-31 -53 -85 -84.5t-99 -35.5l407 -496v-154h-160v154h-92l-323 434v-434h-209v434l-324 -434h-252z" />
<glyph unicode="&#x498;" horiz-adv-x="1198" d="M90 479h236q0 -70 23.5 -124t62.5 -92t90 -57.5t108 -19.5t102.5 18.5t76 49.5t46 72t15.5 84q0 51 -14.5 91t-46 68.5t-85 44t-133.5 15.5h-86v209h88q74 0 122 17t77 47t41 67t12 75q0 84 -61.5 143.5t-169.5 59.5q-53 0 -101.5 -15t-83 -46t-55 -75t-20.5 -101h-236 q0 100 38 182t105.5 141.5t161 92t203.5 32.5q92 0 175 -24.5t144.5 -73.5t98.5 -123t37 -172q0 -123 -65.5 -206t-161.5 -109q51 -10 96 -37t79.5 -70t55 -101.5t20.5 -129.5q0 -88 -29.5 -162t-83.5 -130.5t-127 -92t-159 -45.5v-103q31 27 86 27t103.5 -42t48.5 -124 q0 -35 -12.5 -67.5t-39 -60.5t-65.5 -44.5t-92 -16.5q-12 0 -43 4.5t-64 20.5t-62.5 49t-37.5 92h131q18 -51 76 -51q35 0 56.5 20.5t21.5 53.5q0 35 -21.5 55.5t-52.5 20.5q-45 0 -66 -37h-110v201q-98 8 -182.5 44.5t-143.5 100t-93 153t-34 201.5z" />
<glyph unicode="&#x499;" horiz-adv-x="905" d="M61 295h218q0 -61 45 -99t137 -38q63 0 106 26.5t43 83.5t-40 94t-128 37h-108v156h96q90 0 125 35t35 94q0 51 -40 85t-108 34q-86 0 -118.5 -40t-32.5 -97h-217q0 141 100 227t270 86q166 0 262.5 -74t96.5 -190q0 -102 -54.5 -156.5t-140.5 -66.5q90 -10 152.5 -68.5 t62.5 -163.5q0 -59 -24.5 -107.5t-65.5 -83t-96 -57t-119 -30.5v-103q31 27 86 27t103.5 -42t48.5 -124q0 -35 -12.5 -67.5t-39 -60.5t-65.5 -44.5t-92 -16.5q-12 0 -43 4.5t-63.5 20.5t-62.5 49t-38 92h131q18 -51 76 -51q35 0 56.5 20.5t21.5 53.5q0 35 -21.5 55.5 t-52.5 20.5q-45 0 -66 -37h-110v201q-152 16 -233 100t-81 215z" />
<glyph unicode="&#x49a;" horiz-adv-x="1239" d="M150 0v1434h235v-564h23q63 0 119.5 38t105.5 120l112 186q59 100 140.5 165t193.5 65h84v-211h-41q-45 0 -93 -21.5t-87 -89.5l-90 -157q-43 -78 -108.5 -134.5t-153.5 -76.5l618 -754v-186h-211v186h-90l-522 676v-676h-235z" />
<glyph unicode="&#x49b;" horiz-adv-x="1042" d="M150 0v954h223v-397h20q37 0 69 26.5t66 75.5l123 177q47 70 100.5 99.5t129.5 29.5h100v-181h-53q-33 0 -65 -12t-58 -51l-64 -94q-45 -68 -93 -90.5t-91 -32.5l444 -504v-154h-159v154h-105l-364 434v-434h-223z" />
<glyph unicode="&#x49c;" horiz-adv-x="1239" d="M150 0v1434h235v-586h47v285h41v-285h4q63 0 105.5 46t81.5 134l81 186q47 109 134.5 169.5t199.5 60.5h84v-211h-41q-23 0 -48 -4t-50 -15.5t-46.5 -33t-35.5 -58.5l-63 -157q-33 -82 -86.5 -136.5t-141.5 -74.5l557 -754h-301l-434 637v-240h-41v240h-47v-637h-235z " />
<glyph unicode="&#x49d;" horiz-adv-x="1042" d="M150 0v954h223v-397h30v186h37v-186h11q29 0 46 27.5t48 74.5l117 177q47 72 95 100.5t124 28.5h100v-181h-53q-33 0 -65 -12t-58 -51l-64 -94q-23 -33 -39 -54.5t-30.5 -35t-29.5 -21.5t-34 -12l393 -504h-264l-297 434v-211h-37v211h-30v-434h-223z" />
<glyph unicode="&#x49e;" horiz-adv-x="1245" d="M41 1104v158h115v172h235v-172h137v-158h-137v-234h23q63 0 119.5 38t105.5 120l113 186q59 100 140 165t193 65h84v-211h-41q-45 0 -93 -21.5t-87 -89.5l-90 -157q-43 -78 -108.5 -134.5t-153.5 -76.5l618 -754h-301l-522 676v-676h-235v1104h-115z" />
<glyph unicode="&#x49f;" horiz-adv-x="1038" d="M31 725v127h114v102h224v-102h129v-127h-129v-168h20q37 0 68.5 26.5t66.5 75.5l123 177q47 70 100.5 99.5t129.5 29.5h100v-181h-53q-33 0 -65 -12t-58 -51l-64 -94q-45 -68 -93 -90.5t-91 -32.5l444 -504h-264l-364 434v-434h-224v725h-114z" />
<glyph unicode="&#x4a0;" horiz-adv-x="1386" d="M20 1223v211h512v-564h23q63 0 119.5 38t105.5 120l113 186q59 100 140 165t194 65h84v-211h-41q-45 0 -93.5 -21.5t-86.5 -89.5l-91 -157q-43 -78 -108.5 -134.5t-153.5 -76.5l619 -754h-301l-523 676v-676h-235v1223h-277z" />
<glyph unicode="&#x4a1;" horiz-adv-x="1097" d="M31 768v186h397v-397h21q37 0 68.5 26.5t66.5 75.5l123 177q47 70 100 99.5t129 29.5h100v-181h-53q-33 0 -64.5 -12t-58.5 -51l-63 -94q-45 -68 -93.5 -90.5t-91.5 -32.5l445 -504h-264l-365 434v-434h-223v768h-174z" />
<glyph unicode="&#x4a2;" horiz-adv-x="1370" d="M150 0v1434h235v-617h592v617h235v-1223h127v-397h-235v186h-127v606h-592v-606h-235z" />
<glyph unicode="&#x4a3;" horiz-adv-x="1226" d="M150 0v954h223v-376h436v376h223v-768h154v-340h-221v154h-156v391h-436v-391h-223z" />
<glyph unicode="&#x4a4;" horiz-adv-x="1589" d="M150 0v1434h235v-617h592v617h592v-211h-357v-1223h-235v606h-592v-606h-235z" />
<glyph unicode="&#x4a5;" horiz-adv-x="1339" d="M150 0v954h223v-376h436v376h500v-186h-277v-768h-223v391h-436v-391h-223z" />
<glyph unicode="&#x4a6;" horiz-adv-x="1427" d="M150 0v1434h1060v-1223h187v-397h-236v186h-186v1223h-590v-1223h-235z" />
<glyph unicode="&#x4a7;" horiz-adv-x="1206" d="M150 0v954h862v-768h153v-340h-221v154h-156v768h-415v-768h-223z" />
<glyph unicode="&#x4a8;" horiz-adv-x="1665" d="M78 727q0 145 46 279.5t132 237t209 163.5t276 61v-211q-100 0 -177 -38.5t-130 -106.5t-80.5 -159t-27.5 -195q0 -117 32.5 -221.5t94 -183.5t148.5 -126t198 -51v852q0 141 33.5 227t89 134.5t124 64.5t136.5 16q76 0 145.5 -18t121.5 -66.5t83 -132.5t31 -215v-266 q0 -135 -38 -261t-108.5 -230.5t-172 -180t-230.5 -110.5v-185q0 -41 39 -65.5t94 -24.5h119v-211h-152q-68 0 -126 19.5t-100 56.5t-65.5 87t-23.5 112v188q-168 4 -302.5 63.5t-227.5 161t-142 238.5t-49 297zM1014 219q72 33 129 90.5t97 131t61.5 157.5t21.5 174v297 q0 39 -7 78t-24.5 69.5t-46 49t-69.5 18.5q-84 0 -123 -59.5t-39 -147.5v-858z" />
<glyph unicode="&#x4a9;" horiz-adv-x="1161" d="M78 502q0 92 28.5 177t83 151.5t135.5 105.5t185 39v-203q-53 0 -93 -21.5t-65.5 -58.5t-38 -86t-12.5 -104q0 -66 17.5 -124.5t49 -103.5t78 -71.5t103.5 -28.5v508q0 94 23.5 151.5t62.5 89t87 43t95 11.5q55 0 104.5 -12.5t86 -44t59.5 -88t23 -144.5v-186 q0 -86 -25 -167t-71 -146.5t-113.5 -115.5t-151.5 -75v-234q0 -37 20.5 -57t49.5 -20h75v-185h-110q-109 0 -162 72t-53 188v211q-111 2 -198 45t-148.5 116t-93 168t-31.5 200zM729 219q76 45 119 124t43 169v145q0 51 -18.5 92.5t-63.5 41.5t-62.5 -39t-17.5 -99v-434z " />
<glyph unicode="&#x4aa;" horiz-adv-x="1587" d="M78 719q0 145 50 280.5t145.5 239.5t229.5 166.5t304 62.5q160 0 283.5 -44t212 -118.5t140.5 -176t68 -218.5h-247q-12 74 -48 137.5t-90.5 109.5t-127 72.5t-160.5 26.5q-123 0 -220.5 -45t-163 -119.5t-100.5 -172t-35 -201.5q0 -111 36 -209t104.5 -173t170 -118 t232.5 -43q61 0 124 21.5t116 59.5t93 90t58 114h258q-23 -100 -79 -188.5t-140 -154t-190.5 -105.5t-231.5 -46v-88q31 27 86 27t103.5 -42t48.5 -124q0 -35 -12.5 -67.5t-39 -60.5t-65.5 -44.5t-92 -16.5q-12 0 -43 4.5t-63.5 20.5t-62.5 49t-38 92h131q18 -51 76 -51 q35 0 56.5 20.5t21.5 53.5q0 35 -21.5 55.5t-52.5 20.5q-45 0 -65 -37h-111v192q-154 18 -273.5 85t-203.5 167.5t-128 228.5t-44 267z" />
<glyph unicode="&#x4ab;" horiz-adv-x="1093" d="M82 477q0 96 30.5 187.5t91 161t148.5 111.5t205 42t200 -33t137 -85t82 -118.5t34 -136.5h-224q-10 78 -60 126t-165 48q-66 0 -113 -24.5t-79.5 -66.5t-48 -96t-15.5 -116q0 -61 15.5 -116.5t48 -96.5t84 -65.5t122.5 -24.5q98 0 144.5 41t68.5 113h224 q-12 -72 -43 -133.5t-81 -107.5t-122 -74.5t-166 -35.5v-98q31 27 86 27t103.5 -42t48.5 -124q0 -35 -12.5 -67.5t-39 -60.5t-65.5 -44.5t-92 -16.5q-12 0 -43 4.5t-64 20.5t-62.5 49t-37.5 92h131q18 -51 76 -51q35 0 56.5 20.5t21.5 53.5q0 35 -21.5 55.5t-52.5 20.5 q-45 0 -66 -37h-110v207q-92 18 -162 64t-118 112.5t-71.5 147.5t-23.5 167z" />
<glyph unicode="&#x4ac;" horiz-adv-x="987" d="M20 1223v211h947v-211h-357v-1012h127v-397h-235v186h-127v1223h-355z" />
<glyph unicode="&#x4ad;" horiz-adv-x="813" d="M20 768v186h773v-186h-277v-582h154v-340h-221v154h-156v768h-273z" />
<glyph unicode="&#x4ae;" horiz-adv-x="1329" d="M20 1434h273l371 -619l372 619h273l-527 -842v-592h-235v590z" />
<glyph unicode="&#x4af;" horiz-adv-x="1048" d="M20 954h240l262 -635l266 635h240l-395 -872v-563h-223v563z" />
<glyph unicode="&#x4b0;" horiz-adv-x="1329" d="M20 1434h273l371 -619l372 619h273l-527 -842v-98h228v-179h-228v-315h-235v315h-228v179h228v96z" />
<glyph unicode="&#x4b1;" horiz-adv-x="1048" d="M20 954h240l262 -635l266 635h240l-395 -872v-82h153v-147h-153v-334h-223v334h-152v147h152v82z" />
<glyph unicode="&#x4b2;" horiz-adv-x="1150" d="M16 0l426 717l-426 717h267l292 -514l293 514h267l-426 -717l426 -717v-154h-160v154h-107l-293 512l-292 -512h-267z" />
<glyph unicode="&#x4b3;" horiz-adv-x="913" d="M16 0l312 481l-305 473h258l176 -299l176 299h258l-305 -473l311 -481v-154h-160v154h-98l-182 307l-183 -307h-258z" />
<glyph unicode="&#x4b4;" horiz-adv-x="1613" d="M20 1223v211h947v-211h-357v-1012h561v1223h236v-1223h186v-397h-211v186h-1007v1223h-355z" />
<glyph unicode="&#x4b5;" horiz-adv-x="1318" d="M31 768v186h669v-186h-225v-582h406v768h223v-768h153v-340h-221v154h-784v768h-221z" />
<glyph unicode="&#x4b6;" horiz-adv-x="1267" d="M72 891v543h235v-482q0 -147 76 -229t205 -82h227v793h236v-1223h186v-397h-236v186h-186v430h-272q-111 0 -198 37t-148.5 99.5t-93 146.5t-31.5 178z" />
<glyph unicode="&#x4b7;" horiz-adv-x="1032" d="M61 596v358h224v-354q0 -139 143 -139h186v493h224v-768h153v-340h-221v154h-156v274h-221q-160 0 -246 80t-86 242z" />
<glyph unicode="&#x4b8;" horiz-adv-x="1200" d="M72 891v543h235v-482q0 -125 55.5 -202.5t151.5 -100.5v217h148v-225h153v793h236v-1434h-236v430h-153v-176h-148v176q-104 4 -186 43t-139.5 101.5t-87 144.5t-29.5 172z" />
<glyph unicode="&#x4b9;" horiz-adv-x="987" d="M61 596v358h224v-354q0 -127 114 -139v201h113v-201h102v493h224v-954h-224v274h-102v-174h-113v174h-6q-160 0 -246 80t-86 242z" />
<glyph unicode="&#x4ba;" horiz-adv-x="1261" d="M145 1434h236v-430h272q111 0 199 -37t149 -101q61 -63 94 -146t33 -177v-543h-235v481q0 147 -76 229.5t-205 82.5h-227v-793h-235z" />
<glyph unicode="&#x4bb;" d="M150 0v1434h223v-613q45 78 125 118t186 40q104 0 175 -35t112 -94q35 -53 48 -118.5t13 -164.5v-567h-223v494q0 61 -10.5 114.5t-34 91t-63 60t-99.5 22.5q-117 0 -173 -83t-56 -205v-494h-223z" />
<glyph unicode="&#x4bc;" horiz-adv-x="1898" d="M10 909v103h209v-99q0 -43 24.5 -69.5t65.5 -26.5h82q14 141 68.5 261t148.5 207t224.5 136t293.5 49q147 0 273.5 -51t220.5 -142t147.5 -214t53.5 -264v-166h-1149q8 -92 33.5 -172t78 -139.5t136.5 -94t206 -34.5q94 0 162 19t114 53t75.5 79t48.5 96h284 q-16 -92 -70 -176t-141.5 -148.5t-207 -102.5t-265.5 -38q-174 0 -306 50.5t-223 138.5t-142.5 208t-63.5 261h-108q-61 0 -111.5 20.5t-86.5 57.5t-55.5 88t-19.5 110zM672 817h901q0 102 -34 185t-93.5 140.5t-144.5 88.5t-185 31q-94 0 -175 -28t-141.5 -84t-94 -139 t-33.5 -194z" />
<glyph unicode="&#x4bd;" horiz-adv-x="1312" d="M10 666v100h191v-98q0 -43 24.5 -68t65.5 -25h37q12 88 49 162t96 128.5t139 84t181 29.5q92 0 173 -33t141 -91t94 -136t34 -170q0 -25 -1 -58.5t-9 -80.5h-682q4 -51 18 -96.5t44 -79t77 -53t117 -19.5q96 0 139 37t63 88h226q-10 -61 -44 -117.5t-89.5 -99.5t-129 -69 t-165.5 -26q-111 0 -196 33t-143.5 91.5t-92 138t-41.5 172.5h-41q-123 0 -199 69.5t-76 186.5zM543 575h475q0 111 -65 173.5t-167 62.5q-104 0 -173.5 -59.5t-69.5 -176.5z" />
<glyph unicode="&#x4be;" horiz-adv-x="1898" d="M10 909v103h209v-99q0 -43 24.5 -69.5t65.5 -26.5h82q14 141 68.5 261t148.5 207t224.5 136t293.5 49q147 0 273.5 -51t220.5 -142t147.5 -214t53.5 -264v-166h-1149q8 -92 33.5 -172t78 -139.5t136.5 -94t206 -34.5q94 0 162 19t114 53t75.5 79t48.5 96h284 q-16 -86 -65 -166.5t-128 -143t-187.5 -103.5t-239.5 -50q-23 -25 -36 -61.5t-13 -75.5q0 -43 24.5 -75.5t69.5 -32.5q25 0 55.5 6t59.5 18v-159q-33 -10 -83 -20.5t-104 -10.5q-117 0 -176 58.5t-59 139.5q0 59 24.5 118t69.5 100q-147 14 -261 69t-191.5 141.5t-123 199 t-55.5 241.5h-108q-61 0 -111.5 20.5t-86.5 57.5t-55.5 88t-19.5 110zM672 817h901q0 102 -34 185t-93.5 140.5t-144.5 88.5t-185 31q-94 0 -175 -28t-141.5 -84t-94 -139t-33.5 -194z" />
<glyph unicode="&#x4bf;" horiz-adv-x="1312" d="M10 666v100h191v-98q0 -43 24.5 -68t65.5 -25h37q12 88 49 162t96 128.5t139 84t181 29.5q92 0 173 -33t141 -91t94 -136t34 -170q0 -25 -1 -58.5t-9 -80.5h-682q4 -51 18 -96.5t44 -79t77 -53t117 -19.5q96 0 139 37t63 88h226q-10 -57 -40 -109.5t-77 -94.5 t-112.5 -69.5t-145.5 -36.5q-25 -27 -46.5 -64.5t-21.5 -72.5q0 -43 25 -75.5t70 -32.5q25 0 55.5 6t58.5 18v-159q-33 -10 -83 -20.5t-103 -10.5q-117 0 -176.5 58.5t-59.5 139.5q0 53 34 113t87 107q-86 14 -150.5 52t-110.5 94t-72.5 127t-32.5 153h-41q-123 0 -199 69.5 t-76 186.5zM543 575h475q0 111 -65 173.5t-167 62.5q-104 0 -173.5 -59.5t-69.5 -176.5z" />
<glyph unicode="&#x4c0;" horiz-adv-x="542" d="M150 0v1434h243v-1434h-243z" />
<glyph unicode="&#x4c3;" horiz-adv-x="1300" d="M150 0v1434h235l-2 -605h43q31 0 54.5 9.5t43 28t39 48t43.5 70.5l137 229q59 102 140.5 166t193.5 64h84v-211h-41q-45 0 -93 -22.5t-87 -88.5l-117 -198q-8 -14 -22.5 -30.5t-29.5 -31t-31.5 -24t-30.5 -9.5q193 -18 284 -108q94 -92 94 -277v-667q0 -61 -23.5 -111.5 t-65.5 -87.5t-100 -56.5t-126 -19.5h-151v211h98q55 0 94 24.5t39 65.5v559q0 150 -66.5 245t-203.5 95h-197v-702h-235z" />
<glyph unicode="&#x4c4;" horiz-adv-x="1118" d="M150 0v954h223v-407h20q37 0 68 29.5t67 82.5l123 177q47 70 100.5 99.5t129.5 29.5h100v-181h-53q-33 0 -65 -12t-58 -51l-55 -84q-25 -37 -54.5 -57.5t-66.5 -34.5q88 -10 148.5 -47t96.5 -88q39 -53 50.5 -119t11.5 -164v-350q0 -123 -84 -199t-221 -76h-139v185h98 q57 0 90 24.5t33 65.5v409q0 96 -44 161t-153 65h-143v-412h-223z" />
<glyph unicode="&#x4c5;" horiz-adv-x="1396" d="M20 -25v211h99q47 0 74.5 25t27.5 65v1158h987v-1223h158l-149 -397h-236l70 186h-78v1223h-516v-973q0 -123 -76 -199t-199 -76h-162z" />
<glyph unicode="&#x4c6;" horiz-adv-x="1181" d="M41 -16v198h53q43 0 67.5 17.5t24.5 60.5v694h832v-743h112l-149 -397h-215l70 186h-41v768h-385v-530q0 -117 -71 -185.5t-194 -68.5h-104z" />
<glyph unicode="&#x4c7;" horiz-adv-x="1349" d="M150 0v1434h235v-617h592v617h235v-1657q0 -123 -75.5 -199t-198.5 -76h-152v211h99q43 0 67.5 24.5t24.5 65.5v803h-592v-606h-235z" />
<glyph unicode="&#x4c8;" horiz-adv-x="1169" d="M150 0v954h223v-376h436v376h223v-1177q0 -80 -17.5 -133.5t-46 -85t-64.5 -45t-73 -13.5q-53 0 -101 6.5t-71 16.5v184q33 -8 48.5 -10t29.5 -2q35 0 53.5 21.5t18.5 74.5v600h-436v-391h-223z" />
<glyph unicode="&#x4c9;" horiz-adv-x="1380" d="M150 0v1434h235v-617h592v617h235v-1223h158l-149 -397h-236l70 186h-78v606h-592v-606h-235z" />
<glyph unicode="&#x4ca;" horiz-adv-x="1196" d="M150 0v954h223v-376h436v376h223v-743h113l-150 -397h-215l70 186h-41v391h-436v-391h-223z" />
<glyph unicode="&#x4cb;" horiz-adv-x="1200" d="M72 891v543h235v-482q0 -147 76 -229t205 -82h227v793h236v-1434h-127v-186h-236v397h127v219h-272q-111 0 -198 37t-148.5 99.5t-93 146.5t-31.5 178z" />
<glyph unicode="&#x4cc;" horiz-adv-x="1032" d="M61 596v358h224v-354q0 -139 143 -139h186v493h224v-768h153v-340h-221v154h-156v274h-221q-160 0 -246 80t-86 242z" />
<glyph unicode="&#x4cd;" horiz-adv-x="1703" d="M150 0v1434h225l459 -1067l456 1067h226v-1223h157l-149 -397h-236l70 186h-78v887l-358 -887h-179l-358 887v-887h-235z" />
<glyph unicode="&#x4ce;" horiz-adv-x="1484" d="M150 0v954h323l262 -653l262 653h324v-743h113l-150 -397h-194l69 186h-41v762l-307 -762h-152l-307 762v-762h-202z" />
<glyph unicode="&#x4d0;" horiz-adv-x="1169" d="M6 0l496 1434h166l495 -1434h-248l-61 182h-539l-61 -182h-248zM178 1913h209q20 -68 70.5 -108t128.5 -40t128 40t70 108h209q-12 -68 -48 -126t-90 -101.5t-122.5 -68t-146.5 -24.5q-80 0 -149.5 24.5t-123 68t-88.5 101.5t-47 126zM387 393h395l-196 649z" />
<glyph unicode="&#x4d1;" horiz-adv-x="1234" d="M78 477q0 100 36 191.5t100.5 161t154.5 109.5t198 40q84 0 167 -41t128 -113v129h223v-954h-223v129q-45 -72 -128 -113t-167 -41q-109 0 -198.5 40t-154 110t-100.5 160t-36 192zM168 1434h209q20 -68 70 -108t128 -40t128.5 40t70.5 108h209q-12 -68 -48 -126.5 t-90 -101.5t-123 -67.5t-147 -24.5q-80 0 -149.5 24.5t-122.5 67.5t-88 101.5t-47 126.5zM301 477q0 -61 19.5 -116.5t56.5 -96.5t88.5 -65.5t114.5 -24.5t115.5 24.5t89 65.5t57 96.5t20.5 116.5t-20.5 116.5t-57 96.5t-89 65.5t-115.5 24.5t-114.5 -24.5t-88.5 -65.5 t-56.5 -96t-19.5 -117z" />
<glyph unicode="&#x4d2;" horiz-adv-x="1169" d="M6 0l496 1434h166l495 -1434h-248l-61 182h-539l-61 -182h-248zM188 1751q0 70 48.5 118t115.5 48q70 0 118 -48t48 -118q0 -68 -48 -116t-118 -48q-68 0 -116 48t-48 116zM387 393h395l-196 649zM657 1751q0 70 48.5 118t115.5 48q70 0 118 -48t48 -118q0 -68 -48 -116 t-118 -48q-68 0 -116 48t-48 116z" />
<glyph unicode="&#x4d3;" horiz-adv-x="1234" d="M78 477q0 100 36 191.5t100.5 161t154.5 109.5t198 40q84 0 167 -41t128 -113v129h223v-954h-223v129q-45 -72 -128 -113t-167 -41q-109 0 -198.5 40t-154 110t-100.5 160t-36 192zM178 1257q0 70 48 118t116 48q70 0 118 -48t48 -118q0 -68 -48 -115.5t-118 -47.5 q-68 0 -116 48t-48 115zM301 477q0 -61 19.5 -116.5t56.5 -96.5t88.5 -65.5t114.5 -24.5t115.5 24.5t89 65.5t57 96.5t20.5 116.5t-20.5 116.5t-57 96.5t-89 65.5t-115.5 24.5t-114.5 -24.5t-88.5 -65.5t-56.5 -96t-19.5 -117zM647 1257q0 70 48 118t116 48q70 0 118 -48 t48 -118q0 -68 -48 -115.5t-118 -47.5q-68 0 -116 48t-48 115z" />
<glyph unicode="&#x4d4;" horiz-adv-x="1800" d="M6 0l696 1434h959v-211h-592v-406h592v-211h-592v-395h592v-211h-827v184h-486l-86 -184h-256zM449 395h385v817z" />
<glyph unicode="&#x4d5;" horiz-adv-x="1867" d="M78 477q0 100 36 191.5t100.5 161t154.5 109.5t198 40q84 0 167 -41t128 -113v129h223v-36q51 29 114 45t134 16q92 0 173 -33t141.5 -91t94.5 -136t34 -170q0 -25 -1 -58.5t-10 -80.5h-675q0 -51 14 -96.5t44 -79t77 -53t114 -19.5q47 0 81 10t57.5 26.5t39 40 t25.5 48.5h225q-12 -61 -45.5 -117.5t-88 -99.5t-128 -69t-166.5 -26q-78 0 -140 17.5t-114 46.5v-39h-223v129q-45 -72 -128 -113t-167 -41q-109 0 -198.5 40t-154 110t-100.5 160t-36 192zM301 477q0 -61 19.5 -116.5t56.5 -96.5t88.5 -65.5t114.5 -24.5t115.5 24.5 t89 65.5t57 96.5t20.5 116.5q0 63 -20.5 118.5t-57 96.5t-89 64.5t-115.5 23.5t-114.5 -24.5t-88.5 -65.5t-56.5 -96t-19.5 -117zM1092 575h467q0 98 -65 158t-167 60q-98 0 -166.5 -55.5t-68.5 -162.5z" />
<glyph unicode="&#x4d6;" horiz-adv-x="1116" d="M150 0v1434h827v-211h-592v-406h592v-211h-592v-395h592v-211h-827zM160 1913h209q20 -68 70 -108t128 -40t128 40t71 108h209q-12 -68 -48 -126t-90.5 -101.5t-123 -68t-146.5 -24.5q-80 0 -149.5 24.5t-122.5 68t-88 101.5t-47 126z" />
<glyph unicode="&#x4d7;" horiz-adv-x="1087" d="M82 477q0 106 31.5 198.5t91 160t147.5 105.5t201 38q92 0 173 -33t141.5 -91t94 -136t33.5 -170q0 -25 -1 -58.5t-9 -80.5h-682q4 -51 18.5 -96.5t44 -79t76.5 -53t117 -19.5q96 0 139 37t64 88h225q-10 -61 -44 -117.5t-89 -99.5t-129 -69t-166 -26q-121 0 -210 39 t-148.5 106.5t-89 160t-29.5 196.5zM141 1434h209q20 -68 70.5 -108t128.5 -40t128 40t71 108h208q-12 -68 -48 -126.5t-90 -101.5t-122.5 -67.5t-146.5 -24.5q-80 0 -149.5 24.5t-123 67.5t-88 101.5t-47.5 126.5zM303 575h475q0 111 -64.5 173.5t-166.5 62.5 q-104 0 -174 -59.5t-70 -176.5z" />
<glyph unicode="&#x4d8;" horiz-adv-x="1589" d="M78 657v166h1179q-8 88 -35.5 167t-83 137.5t-145.5 92t-221 33.5q-94 0 -161.5 -19.5t-113.5 -53t-76 -78.5t-48 -96h-285q16 92 70.5 176t141.5 148.5t207 102t265 37.5q186 0 325.5 -58t231.5 -158.5t137 -237.5t45 -293q0 -160 -49 -297t-143 -237.5t-231.5 -157 t-315.5 -56.5q-147 0 -273 52.5t-220.5 144.5t-147.5 216t-53 269zM326 639q0 -104 33.5 -189t93 -143.5t143.5 -90.5t186 -32q100 0 186.5 29t151 86t101 142t36.5 198h-931z" />
<glyph unicode="&#x4d9;" horiz-adv-x="1087" d="M92 406q0 25 1 58.5t9 80.5h682q-4 51 -18 96t-44 79t-77 53.5t-117 19.5q-96 0 -139 -37t-63 -88h-226q10 61 44 117.5t89.5 99.5t129 68.5t165.5 25.5q121 0 210 -39t148.5 -106.5t89.5 -159.5t30 -197q0 -109 -32 -200t-91.5 -158.5t-147.5 -105.5t-200 -38 q-92 0 -173 33t-141.5 91.5t-94.5 136t-34 170.5zM309 379q0 -111 65 -173.5t167 -62.5q104 0 173.5 59.5t69.5 176.5h-475z" />
<glyph unicode="&#x4da;" horiz-adv-x="1589" d="M78 657v166h1179q-8 88 -35.5 167t-83 137.5t-145.5 92t-221 33.5q-94 0 -161.5 -19.5t-113.5 -53t-76 -78.5t-48 -96h-285q16 92 70.5 176t141.5 148.5t207 102t265 37.5q186 0 325.5 -58t231.5 -158.5t137 -237.5t45 -293q0 -160 -49 -297t-143 -237.5t-231.5 -157 t-315.5 -56.5q-147 0 -273 52.5t-220.5 144.5t-147.5 216t-53 269zM326 639q0 -104 33.5 -189t93 -143.5t143.5 -90.5t186 -32q100 0 186.5 29t151 86t101 142t36.5 198h-931zM385 1751q0 70 48 118t116 48q70 0 118 -48t48 -118q0 -68 -48 -116t-118 -48q-68 0 -116 48 t-48 116zM854 1751q0 70 48 118t116 48q70 0 118 -48t48 -118q0 -68 -48.5 -116t-117.5 -48q-68 0 -116 48t-48 116z" />
<glyph unicode="&#x4db;" horiz-adv-x="1087" d="M92 406q0 25 1 58.5t9 80.5h682q-4 51 -18 96t-44 79t-77 53.5t-117 19.5q-96 0 -139 -37t-63 -88h-226q10 61 44 117.5t89.5 99.5t129 68.5t165.5 25.5q121 0 210 -39t148.5 -106.5t89.5 -159.5t30 -197q0 -109 -32 -200t-91.5 -158.5t-147.5 -105.5t-200 -38 q-92 0 -173 33t-141.5 91.5t-94.5 136t-34 170.5zM143 1257q0 70 48.5 118t117.5 48q68 0 116 -48t48 -118q0 -68 -48 -115.5t-116 -47.5q-70 0 -118 47.5t-48 115.5zM309 379q0 -111 65 -173.5t167 -62.5q104 0 173.5 59.5t69.5 176.5h-475zM612 1257q0 70 48.5 118 t117.5 48q68 0 116 -48t48 -118q0 -68 -48 -115.5t-116 -47.5q-70 0 -118 47.5t-48 115.5z" />
<glyph unicode="&#x4dc;" horiz-adv-x="1789" d="M10 0l563 752q-74 20 -134 84.5t-101 138.5l-84 147q-39 68 -84 89.5t-90 21.5h-39v211h72q113 0 193.5 -63.5t139.5 -166.5l113 -196q47 -84 95 -131t106 -47h22v594h226v-594h22q57 0 105.5 47t95.5 131l112 196q59 102 140.5 166t193.5 64h72v-211h-39 q-45 0 -90 -21.5t-84 -89.5l-84 -147q-41 -74 -101.5 -138.5t-133.5 -84.5l563 -752h-301l-471 676v-676h-226v676l-471 -676h-301zM496 1751q0 70 48 118t115 48q70 0 118 -48t48 -118q0 -68 -48 -116t-118 -48q-68 0 -115.5 48t-47.5 116zM965 1751q0 70 48 118t115 48 q70 0 118 -48t48 -118q0 -68 -48 -116t-118 -48q-68 0 -115.5 48t-47.5 116z" />
<glyph unicode="&#x4dd;" horiz-adv-x="1380" d="M10 0l408 496q-45 4 -99.5 35.5t-85.5 84.5l-51 89q-45 80 -119 79h-43v181h78q70 0 129.5 -26t112.5 -114l98 -166q31 -51 59.5 -76.5t67.5 -25.5h21v397h209v-397h20q39 0 67.5 25.5t59.5 76.5l98 166q53 88 112.5 114t129.5 26h78v-181h-43q-74 0 -119 -79l-51 -89 q-31 -53 -85 -84.5t-99 -35.5l407 -496h-252l-323 434v-434h-209v434l-324 -434h-252zM291 1257q0 70 48 118t116 48q70 0 118 -48t48 -118q0 -68 -48 -115.5t-118 -47.5q-68 0 -116 48t-48 115zM760 1257q0 70 48 118t116 48q70 0 118 -48t48 -118q0 -68 -48 -115.5 t-118 -47.5q-68 0 -116 48t-48 115z" />
<glyph unicode="&#x4de;" horiz-adv-x="1198" d="M90 479h236q0 -70 23.5 -124t62.5 -92t90 -57.5t108 -19.5t102.5 18.5t76 49.5t46 72t15.5 84q0 51 -14.5 91t-46 68.5t-85 44t-133.5 15.5h-86v209h88q74 0 122 17t77 47t41 67t12 75q0 84 -61.5 143.5t-169.5 59.5q-53 0 -101.5 -15t-83 -46t-55 -75t-20.5 -101h-236 q0 100 38 182t105.5 141.5t161 92t203.5 32.5q92 0 175 -24.5t144.5 -73.5t98.5 -123t37 -172q0 -123 -65.5 -206t-161.5 -109q51 -10 96 -37t79.5 -70t55 -101.5t20.5 -129.5q0 -98 -36.5 -178t-101 -137.5t-152.5 -89.5t-189 -32q-111 0 -206 34t-163.5 98.5t-107.5 157.5 t-39 214zM193 1751q0 70 48 118t115 48q70 0 118 -48t48 -118q0 -68 -48 -116t-118 -48q-68 0 -115.5 48t-47.5 116zM662 1751q0 70 48 118t115 48q70 0 118 -48t48 -118q0 -68 -48 -116t-118 -48q-68 0 -115.5 48t-47.5 116z" />
<glyph unicode="&#x4df;" horiz-adv-x="905" d="M61 295h218q0 -61 45 -99t137 -38q63 0 106 26.5t43 83.5t-40 94t-128 37h-108v156h96q90 0 125 35t35 94q0 51 -40 85t-108 34q-86 0 -118.5 -40t-32.5 -97h-217q0 141 100 227t270 86q166 0 262.5 -74t96.5 -190q0 -102 -54.5 -156.5t-140.5 -66.5q90 -10 152.5 -68.5 t62.5 -163.5q0 -68 -30.5 -121t-83 -89t-121 -55.5t-144.5 -19.5q-184 0 -283.5 87.5t-99.5 232.5zM80 1257q0 70 48 118t118 48q68 0 116 -48t48 -118q0 -68 -48 -115.5t-116 -47.5q-70 0 -118 48t-48 115zM467 1257q0 70 48 118t118 48q68 0 116 -48t48 -118 q0 -68 -48.5 -115.5t-115.5 -47.5q-70 0 -118 47.5t-48 115.5z" />
<glyph unicode="&#x4e0;" horiz-adv-x="1218" d="M82 469h235q0 -68 24 -120t62.5 -89t90 -55.5t108.5 -18.5t102.5 20.5t76 54.5t46 78t15.5 91q0 121 -58.5 190.5t-210.5 69.5h-192l352 533h-530v211h913l-403 -582q78 -6 144.5 -40t115.5 -87t76.5 -125t27.5 -158q0 -102 -36.5 -188t-101.5 -147.5t-153 -96.5 t-188 -35q-111 0 -206 33t-163.5 95.5t-107.5 154.5t-39 211z" />
<glyph unicode="&#x4e1;" horiz-adv-x="1030" d="M41 -109h217q2 -51 21.5 -90t48 -64.5t65.5 -37.5t76 -12q102 0 166.5 74.5t64.5 218.5q0 143 -93 223t-247 80h-131l379 473h-461v198h842l-438 -546q80 -10 147.5 -46t116.5 -91.5t78 -127t29 -149.5q0 -117 -34 -209t-94.5 -155.5t-144.5 -97.5t-184 -34 q-92 0 -169 24.5t-133.5 74t-88 123t-33.5 171.5z" />
<glyph unicode="&#x4e2;" horiz-adv-x="1359" d="M150 0v1434h235v-992l590 893v99h235v-1434h-235v991l-590 -893v-98h-235zM340 1645v198h733v-198h-733z" />
<glyph unicode="&#x4e3;" horiz-adv-x="1169" d="M150 0v954h223v-624l424 538v86h223v-954h-223v614l-424 -534v-80h-223zM225 1157v199h733v-199h-733z" />
<glyph unicode="&#x4e4;" horiz-adv-x="1359" d="M150 0v1434h235v-992l590 893v99h235v-1434h-235v991l-590 -893v-98h-235zM297 1751q0 70 48 118t116 48q70 0 118 -48t48 -118q0 -68 -48.5 -116t-117.5 -48q-68 0 -116 48t-48 116zM766 1751q0 70 48 118t116 48q70 0 118 -48t48 -118q0 -68 -48.5 -116t-117.5 -48 q-68 0 -116 48t-48 116z" />
<glyph unicode="&#x4e5;" horiz-adv-x="1169" d="M150 0v954h223v-624l424 538v86h223v-954h-223v614l-424 -534v-80h-223zM195 1257q0 70 48 118t115 48q70 0 118 -48t48 -118q0 -68 -48 -115.5t-118 -47.5q-68 0 -115.5 48t-47.5 115zM664 1257q0 70 48 118t115 48q70 0 118 -48t48 -118q0 -68 -48 -115.5t-118 -47.5 q-68 0 -115.5 48t-47.5 115z" />
<glyph unicode="&#x4e6;" horiz-adv-x="1638" d="M78 717q0 145 51 281.5t146.5 240.5t233.5 166.5t310 62.5t310.5 -62.5t233.5 -166.5t146.5 -240.5t51.5 -281.5t-51.5 -281.5t-146.5 -241t-233.5 -167t-310.5 -62.5t-310 62.5t-233.5 167t-146.5 240.5t-51 282zM326 717q0 -104 33.5 -201.5t98 -173.5t156 -121 t205.5 -45q115 0 206 45t155.5 121t98.5 173t34 202q0 104 -34 201.5t-98.5 173t-155.5 120.5t-206 45t-206 -45t-155.5 -120.5t-98 -173t-33.5 -201.5zM420 1751q0 70 48 118t116 48q70 0 118 -48t48 -118q0 -68 -48 -116t-118 -48q-68 0 -116 48t-48 116zM889 1751 q0 70 48 118t116 48q70 0 118 -48t48 -118q0 -68 -48.5 -116t-117.5 -48q-68 0 -116 48t-48 116z" />
<glyph unicode="&#x4e7;" horiz-adv-x="1163" d="M78 477q0 100 36 191.5t101.5 161t157.5 109.5t207 40t208 -40t159.5 -109.5t102 -160.5t35.5 -192q0 -102 -35.5 -192t-102 -160t-159.5 -110t-208 -40t-207 40t-157.5 110t-101.5 160t-36 192zM182 1257q0 70 48.5 118t115.5 48q70 0 118 -48t48 -118q0 -68 -48 -115.5 t-118 -47.5q-68 0 -116 48t-48 115zM301 477q0 -61 19.5 -116.5t56.5 -96.5t88.5 -65.5t114.5 -24.5t115.5 24.5t89 65.5t57 96.5t20.5 116.5t-20.5 116.5t-57 96.5t-89 65.5t-115.5 24.5t-114.5 -24.5t-88.5 -65.5t-56.5 -96t-19.5 -117zM651 1257q0 70 48.5 118t115.5 48 q70 0 118 -48t48 -118q0 -68 -48 -115.5t-118 -47.5q-68 0 -116 47.5t-48 115.5z" />
<glyph unicode="&#x4e8;" horiz-adv-x="1638" d="M78 717q0 145 51 281.5t146.5 240.5t233.5 166.5t310 62.5t310.5 -62.5t233.5 -166.5t146.5 -240.5t51.5 -281.5t-51.5 -281.5t-146.5 -241t-233.5 -167t-310.5 -62.5t-310 62.5t-233.5 167t-146.5 240.5t-51 282zM330 645q10 -94 49 -179t101.5 -149.5t148.5 -102.5 t190 -38t189.5 38t149 102.5t101 149.5t50.5 179h-979zM330 793h979q-12 92 -51 177t-101.5 148.5t-148 101t-189.5 37.5t-189 -37.5t-148.5 -101t-101.5 -148.5t-50 -177z" />
<glyph unicode="&#x4e9;" horiz-adv-x="1163" d="M78 477q0 100 36 191.5t101.5 161t157.5 109.5t207 40t208 -40t159.5 -109.5t102 -160.5t35.5 -192q0 -102 -35.5 -192t-102 -160t-159.5 -110t-208 -40t-207 40t-157.5 110t-101.5 160t-36 192zM309 403q20 -98 91 -163.5t180 -65.5q111 0 181 65.5t93 163.5h-545z M309 551h545q-23 98 -93 163.5t-181 65.5q-109 0 -179.5 -65.5t-91.5 -163.5z" />
<glyph unicode="&#x4ea;" horiz-adv-x="1638" d="M78 717q0 145 51 281.5t146.5 240.5t233.5 166.5t310 62.5t310.5 -62.5t233.5 -166.5t146.5 -240.5t51.5 -281.5t-51.5 -281.5t-146.5 -241t-233.5 -167t-310.5 -62.5t-310 62.5t-233.5 167t-146.5 240.5t-51 282zM330 645q10 -94 49 -179t101.5 -149.5t148.5 -102.5 t190 -38t189.5 38t149 102.5t101 149.5t50.5 179h-979zM330 793h979q-12 92 -51 177t-101.5 148.5t-148 101t-189.5 37.5t-189 -37.5t-148.5 -101t-101.5 -148.5t-50 -177zM428 1780q0 66 45 111.5t111 45.5t111.5 -46t45.5 -111q0 -66 -45.5 -111t-111.5 -45t-111 45 t-45 111zM897 1780q0 66 45 111.5t111 45.5t111.5 -46t45.5 -111q0 -66 -46 -111t-111 -45q-66 0 -111 45t-45 111z" />
<glyph unicode="&#x4eb;" horiz-adv-x="1163" d="M78 477q0 100 36 191.5t101.5 161t157.5 109.5t207 40t208 -40t159.5 -109.5t102 -160.5t35.5 -192q0 -102 -35.5 -192t-102 -160t-159.5 -110t-208 -40t-207 40t-157.5 110t-101.5 160t-36 192zM190 1300q0 66 45.5 112t110.5 46q66 0 112 -46t46 -112t-46 -110.5 t-112 -44.5t-111 45t-45 110zM309 403q20 -98 91 -163.5t180 -65.5q111 0 181 65.5t93 163.5h-545zM309 551h545q-23 98 -93 163.5t-181 65.5q-109 0 -179.5 -65.5t-91.5 -163.5zM659 1300q0 66 45.5 112t110.5 46q66 0 112 -46t46 -112t-46 -110.5t-112 -44.5t-111 44.5 t-45 110.5z" />
<glyph unicode="&#x4ec;" horiz-adv-x="1527" d="M78 461h258q18 -61 60 -113.5t98.5 -90.5t122 -59.5t131.5 -21.5q199 0 313.5 117t140.5 315h-649v213h649q-12 96 -47 177t-91 138.5t-132 89t-170 31.5q-92 0 -167 -26.5t-129 -72.5t-89 -109.5t-49 -137.5h-248q18 117 68.5 218.5t135.5 176t206.5 118.5t281.5 44 q162 0 288 -58t213 -159.5t132 -237.5t45 -294q0 -164 -47 -301t-136 -238.5t-220.5 -158t-298.5 -56.5q-129 0 -242 38t-200 105.5t-145.5 157.5t-82.5 195zM360 1751q0 70 48.5 118t115.5 48q70 0 118 -48t48 -118q0 -68 -48 -116t-118 -48q-68 0 -116 48t-48 116z M829 1751q0 70 48.5 118t115.5 48q70 0 118 -48t48 -118q0 -68 -48 -116t-118 -48q-68 0 -116 48t-48 116z" />
<glyph unicode="&#x4ed;" horiz-adv-x="1105" d="M78 328h223q12 -68 70.5 -111t175.5 -43q125 0 184.5 59.5t69.5 159.5h-371v166h371q-10 98 -69.5 159.5t-184.5 61.5q-117 0 -174.5 -49t-69.5 -125h-223q2 78 34.5 145.5t92 119t143.5 80t187 28.5q127 0 219 -42t152.5 -111.5t90 -161t29.5 -187.5q0 -98 -29.5 -188 t-90 -160t-152.5 -112t-219 -42q-104 0 -188.5 28t-144 75t-92 111.5t-34.5 138.5zM141 1257q0 70 48.5 118t117.5 48q68 0 116 -48t48 -118q0 -68 -48 -115.5t-116 -47.5q-70 0 -118 48t-48 115zM610 1257q0 70 48.5 118t117.5 48q68 0 116 -48t48 -118q0 -68 -48 -115.5 t-116 -47.5q-70 0 -118 47.5t-48 115.5z" />
<glyph unicode="&#x4ee;" horiz-adv-x="1253" d="M23 1434h272l383 -617l307 617h258l-711 -1434h-258l285 573zM311 1645v198h733v-198h-733z" />
<glyph unicode="&#x4ef;" horiz-adv-x="1183" d="M133 -109h225q8 -104 73 -154t153 -50q51 0 94 10t73.5 36.5t48 69.5t17.5 111v219q-45 -78 -125 -118t-186 -40q-104 0 -175 35t-112 94q-35 53 -48 119t-13 164v567h223v-493q0 -61 10 -114.5t34 -91.5t63.5 -60.5t99.5 -22.5q117 0 173 83t56 206v493h223v-1040 q0 -207 -118 -313q-117 -103 -342 -103q-96 0 -177 24.5t-141 74.5q-59 49 -93 122.5t-36 171.5zM242 1157v199h733v-199h-733z" />
<glyph unicode="&#x4f0;" horiz-adv-x="1253" d="M23 1434h272l383 -617l307 617h258l-711 -1434h-258l285 573zM287 1751q0 66 45 112t110 46q66 0 112 -46t46 -112t-46 -111t-112 -45t-110.5 45t-44.5 111zM756 1751q0 66 45 112t110 46q66 0 112 -46t46 -112t-46 -111t-112 -45t-110.5 45t-44.5 111z" />
<glyph unicode="&#x4f1;" horiz-adv-x="1183" d="M133 -109h225q8 -104 73 -154t153 -50q51 0 94 10t73.5 36.5t48 69.5t17.5 111v219q-45 -78 -125 -118t-186 -40q-104 0 -175 35t-112 94q-35 53 -48 119t-13 164v567h223v-493q0 -61 10 -114.5t34 -91.5t63.5 -60.5t99.5 -22.5q117 0 173 83t56 206v493h223v-1040 q0 -207 -118 -313q-117 -103 -342 -103q-96 0 -177 24.5t-141 74.5q-59 49 -93 122.5t-36 171.5zM221 1257q0 66 45 112t111 46t112 -46t46 -112t-46.5 -110.5t-111.5 -44.5q-66 0 -111 44.5t-45 110.5zM690 1257q0 66 45 112t111 46t112 -46t46 -112t-46.5 -110.5 t-111.5 -44.5q-66 0 -111 44.5t-45 110.5z" />
<glyph unicode="&#x4f2;" horiz-adv-x="1253" d="M23 1434h272l383 -617l307 617h258l-711 -1434h-258l285 573zM326 1642l256 340l196 -98l-346 -299zM725 1642l256 340l197 -98l-347 -299z" />
<glyph unicode="&#x4f3;" horiz-adv-x="1183" d="M133 -109h225q8 -104 73 -154t153 -50q51 0 94 10t73.5 36.5t48 69.5t17.5 111v219q-45 -78 -125 -118t-186 -40q-104 0 -175 35t-112 94q-35 53 -48 119t-13 164v567h223v-493q0 -61 10 -114.5t34 -91.5t63.5 -60.5t99.5 -22.5q117 0 173 83t56 206v493h223v-1040 q0 -207 -118 -313q-117 -103 -342 -103q-96 0 -177 24.5t-141 74.5q-59 49 -93 122.5t-36 171.5zM301 1149l256 340l197 -98l-346 -299zM700 1149l256 340l197 -98l-346 -299z" />
<glyph unicode="&#x4f4;" horiz-adv-x="1200" d="M72 891v543h235v-482q0 -147 76 -229t205 -82h227v793h236v-1434h-236v430h-272q-111 0 -198 37t-148.5 99.5t-93 146.5t-31.5 178zM178 1751q0 66 45 112t111 46t112 -46t46 -112t-46.5 -111t-111.5 -45q-66 0 -111 45t-45 111zM647 1751q0 66 45 112t111 46t112 -46 t46 -112t-46.5 -111t-111.5 -45q-66 0 -111 45t-45 111z" />
<glyph unicode="&#x4f5;" horiz-adv-x="991" d="M61 596v358h224v-354q0 -139 143 -139h186v493h224v-954h-224v274h-221q-160 0 -246 80t-86 242zM63 1257q0 70 48.5 118t117.5 48q68 0 116 -48t48 -118q0 -68 -48 -115.5t-116 -47.5q-70 0 -118 47.5t-48 115.5zM512 1257q0 70 48 118t118 48q68 0 116 -48t48 -118 q0 -68 -48.5 -115.5t-115.5 -47.5q-70 0 -118 47.5t-48 115.5z" />
<glyph unicode="&#x4f8;" horiz-adv-x="1550" d="M150 0v1434h235v-603h258q94 0 172 -33.5t133.5 -90t85 -132t29.5 -159.5t-29.5 -160t-85 -133t-133.5 -90t-172 -33h-493zM385 209h258q84 0 134 60.5t50 146.5t-50 146.5t-134 60.5h-258v-414zM434 1751q0 66 45 112t111 46t112 -46t46 -112t-46.5 -111t-111.5 -45 q-66 0 -111 45t-45 111zM903 1751q0 66 45 112t111 46t112 -46t46 -112t-46.5 -111t-111.5 -45q-66 0 -111 45t-45 111zM1165 0v1434h236v-1434h-236z" />
<glyph unicode="&#x4f9;" horiz-adv-x="1380" d="M150 0v954h208v-307h234q80 0 138 -25.5t98 -69.5t59.5 -102.5t19.5 -125.5q0 -66 -19.5 -124.5t-59.5 -103.5t-98 -70.5t-138 -25.5h-442zM295 1257q0 70 48 118t118 48q68 0 116 -48t48 -118q0 -68 -48.5 -115.5t-115.5 -47.5q-70 0 -118 47.5t-48 115.5zM358 176h193 q78 0 114.5 41t36.5 107t-36.5 106.5t-114.5 40.5h-193v-295zM764 1257q0 70 48 118t118 48q68 0 116 -48t48 -118q0 -68 -48.5 -115.5t-115.5 -47.5q-70 0 -118 47.5t-48 115.5zM1010 0v954h221v-954h-221z" />
<glyph unicode="&#x2000;" horiz-adv-x="991" />
<glyph unicode="&#x2001;" horiz-adv-x="1982" />
<glyph unicode="&#x2002;" horiz-adv-x="991" />
<glyph unicode="&#x2003;" horiz-adv-x="1982" />
<glyph unicode="&#x2004;" horiz-adv-x="660" />
<glyph unicode="&#x2005;" horiz-adv-x="495" />
<glyph unicode="&#x2006;" horiz-adv-x="330" />
<glyph unicode="&#x2007;" horiz-adv-x="330" />
<glyph unicode="&#x2008;" horiz-adv-x="247" />
<glyph unicode="&#x2009;" horiz-adv-x="396" />
<glyph unicode="&#x200a;" horiz-adv-x="110" />
<glyph unicode="&#x2010;" horiz-adv-x="602" d="M61 483v199h480v-199h-480z" />
<glyph unicode="&#x2011;" horiz-adv-x="602" d="M61 483v199h480v-199h-480z" />
<glyph unicode="&#x2012;" horiz-adv-x="602" d="M61 483v199h480v-199h-480z" />
<glyph unicode="&#x2013;" horiz-adv-x="1030" d="M102 483v199h826v-199h-826z" />
<glyph unicode="&#x2014;" horiz-adv-x="2060" d="M102 483v199h1856v-199h-1856z" />
<glyph unicode="&#x2018;" horiz-adv-x="579" d="M123 1188q0 180 85 252.5t241 75.5v-101q-94 0 -142 -41q-23 -16 -34 -39.5t-15 -46.5q4 4 16.5 7t24.5 3q72 0 115 -43.5t43 -109.5t-46 -113t-112 -47q-80 0 -128 55.5t-48 147.5z" />
<glyph unicode="&#x2019;" horiz-adv-x="579" d="M123 1356q0 66 46 113t112 47q80 0 128 -55.5t48 -147.5q0 -180 -85 -253t-241 -75v100q51 0 85 11.5t56 29.5q23 18 34 41t16 45q-4 -4 -16.5 -7t-24.5 -3q-72 0 -115 44t-43 110z" />
<glyph unicode="&#x201a;" horiz-adv-x="579" d="M123 129q0 66 46 113t112 47q80 0 128 -55.5t48 -147.5q0 -180 -85 -253t-241 -75v101q51 0 85 11t56 30q23 16 34 39.5t16 46.5q-4 -4 -16.5 -7.5t-24.5 -3.5q-72 0 -115 44t-43 110z" />
<glyph unicode="&#x201c;" horiz-adv-x="962" d="M123 1188q0 180 85 252.5t241 75.5v-101q-94 0 -142 -41q-23 -16 -34 -39.5t-15 -46.5q4 4 16.5 7t24.5 3q72 0 115 -43.5t43 -109.5t-46 -113t-112 -47q-80 0 -128 55.5t-48 147.5zM506 1188q0 180 85 252.5t240 75.5v-101q-94 0 -141 -41q-23 -16 -34 -39.5t-15 -46.5 q4 4 16.5 7t24.5 3q72 0 115 -43.5t43 -109.5t-46 -113t-112 -47q-80 0 -128 55.5t-48 147.5z" />
<glyph unicode="&#x201d;" horiz-adv-x="962" d="M123 1356q0 66 46 113t112 47q80 0 128 -55.5t48 -147.5q0 -180 -85 -253t-241 -75v100q51 0 85 11.5t56 29.5q23 18 34 41t16 45q-4 -4 -16.5 -7t-24.5 -3q-72 0 -115 44t-43 110zM506 1356q0 66 46 113t112 47q80 0 128 -55.5t48 -147.5q0 -180 -85 -253t-241 -75v100 q51 0 85 11.5t56 29.5q23 18 34 41t16 45q-4 -4 -16.5 -7t-24.5 -3q-72 0 -115 44t-43 110z" />
<glyph unicode="&#x201e;" horiz-adv-x="962" d="M123 129q0 66 46 113t112 47q80 0 128 -55.5t48 -147.5q0 -180 -85 -253t-241 -75v101q51 0 85 11t56 30q23 16 34 39.5t16 46.5q-4 -4 -16.5 -7.5t-24.5 -3.5q-72 0 -115 44t-43 110zM506 129q0 66 46 113t112 47q80 0 128 -55.5t48 -147.5q0 -180 -85 -253t-241 -75 v101q51 0 85 11t56 30q23 16 34 39.5t16 46.5q-4 -4 -16.5 -7.5t-24.5 -3.5q-72 0 -115 44t-43 110z" />
<glyph unicode="&#x2022;" horiz-adv-x="722" d="M123 639q0 49 18.5 93t51 77t75.5 51.5t92 18.5t93.5 -18.5t77 -51.5t51 -77t18.5 -93t-18.5 -92t-51 -76t-76.5 -51.5t-94 -18.5q-49 0 -92 18.5t-75.5 51.5t-51 76t-18.5 92z" />
<glyph unicode="&#x2026;" horiz-adv-x="1976" d="M123 152q0 70 48 117.5t116 47.5q70 0 118 -48t48 -117q0 -68 -48.5 -116t-117.5 -48q-68 0 -116 48t-48 116zM823 150q0 70 48.5 117.5t115.5 47.5q70 0 118 -48t48 -117q0 -68 -48 -116t-118 -48q-68 0 -116 48t-48 116zM1524 147q0 70 48 118t116 48q70 0 117.5 -48 t47.5 -118q0 -68 -48 -115.5t-117 -47.5q-68 0 -116 47.5t-48 115.5z" />
<glyph unicode="&#x202f;" horiz-adv-x="396" />
<glyph unicode="&#x2039;" horiz-adv-x="565" d="M82 530v132l401 335v-215l-223 -186l223 -186v-215z" />
<glyph unicode="&#x203a;" horiz-adv-x="565" d="M82 195v215l223 186l-223 186v215l401 -335v-132z" />
<glyph unicode="&#x205f;" horiz-adv-x="495" />
<glyph unicode="&#x20ac;" horiz-adv-x="1187" d="M0 479l41 168h86v139h-127l41 168h86q0 100 36 192.5t101.5 161t157.5 109.5t207 41q106 0 195 -34.5t154.5 -96t104.5 -143.5t50 -174h-238q-16 100 -86 168.5t-180 68.5q-61 0 -110.5 -23.5t-84.5 -63.5t-53.5 -93t-18.5 -113h426l-40 -168h-386v-139h426l-40 -168 h-386q0 -59 18.5 -112.5t53.5 -93.5t84 -63.5t111 -23.5q61 0 111.5 23.5t85 63.5t54 93.5t19.5 112.5h236q0 -102 -36 -193t-102.5 -161t-160 -110t-207.5 -40q-115 0 -207 41t-157.5 110t-101.5 160t-36 193h-127z" />
<glyph unicode="&#x2122;" horiz-adv-x="1673" d="M82 1286v148h549v-148h-193v-686h-166v686h-190zM741 600v834h279l168 -545l166 545h278v-834h-164v668l-208 -668h-146l-209 668v-668h-164z" />
<glyph unicode="&#x25fc;" horiz-adv-x="952" d="M0 0v952h952v-952h-952z" />
</font>
</defs>
</svg>
