<?xml version="1.0" standalone="no"?>
<!DOCTYPE svg PUBLIC "-//W3C//DTD SVG 1.1//EN" "http://www.w3.org/Graphics/SVG/1.1/DTD/svg11.dtd" >
<svg xmlns="http://www.w3.org/2000/svg" xmlns:xlink="http://www.w3.org/1999/xlink" version="1.1">
<metadata></metadata>
<defs>
<font id="gt_walsheim_problack" horiz-adv-x="1368" >
<font-face units-per-em="2048" ascent="1536" descent="-512" />
<missing-glyph horiz-adv-x="481" />
<glyph horiz-adv-x="0" />
<glyph unicode="&#xd;" horiz-adv-x="512" />
<glyph unicode=" "  horiz-adv-x="481" />
<glyph unicode="&#x09;" horiz-adv-x="481" />
<glyph unicode="&#xa0;" horiz-adv-x="481" />
<glyph unicode="!" horiz-adv-x="749" d="M123 217q0 51 19.5 96t53 79t80 53.5t99.5 19.5t99 -19.5t80 -53.5t53.5 -79t19.5 -96t-19.5 -97t-53.5 -80t-80 -53.5t-99 -19.5t-99.5 19.5t-80 53.5t-53 80t-19.5 97zM160 532v902h430v-902h-430z" />
<glyph unicode="&#x22;" horiz-adv-x="913" d="M76 1137v309h317v-309l-82 -324h-153zM522 1137v309h316v-309l-80 -324h-156z" />
<glyph unicode="#" horiz-adv-x="1292" d="M45 322v268h211l35 254h-185v268h222l45 322h274l-45 -322h211l45 322h277l-45 -322h157v-268h-194l-35 -254h168v-268h-207l-45 -322h-275l46 322h-213l-43 -322h-275l43 322h-172zM530 590h211l35 254h-211z" />
<glyph unicode="$" horiz-adv-x="1318" d="M96 483h426q0 -98 49.5 -150t130.5 -52q66 0 104 32.5t38 89.5q0 59 -52.5 93t-164.5 79q-98 39 -189.5 78t-160 92.5t-109.5 127t-41 184.5q0 96 38 168.5t100.5 123t146.5 79t176 38.5v220h194v-220q133 -12 223.5 -56t145.5 -108.5t78.5 -141.5t23.5 -154h-426 q0 178 -141 178q-53 0 -92 -27t-39 -86q0 -55 49 -92t148 -72q92 -33 185 -69.5t168 -90t121 -130t46 -187.5q0 -205 -129 -323.5t-361 -141.5v-217h-194v217q-229 25 -360.5 157t-131.5 361z" />
<glyph unicode="%" horiz-adv-x="1966" d="M129 913v252q0 59 22.5 111.5t65.5 92.5t105.5 62.5t140.5 22.5q76 0 138.5 -22.5t106.5 -62.5t67.5 -92t23.5 -112v-252q0 -59 -23.5 -111t-67.5 -92t-106.5 -62.5t-138.5 -22.5q-78 0 -140.5 22.5t-105.5 62.5t-65.5 92t-22.5 111zM387 913q0 -33 20.5 -57.5 t55.5 -24.5q37 0 57.5 25t20.5 57v252q0 33 -20.5 57.5t-57.5 24.5q-35 0 -55.5 -24.5t-20.5 -57.5v-252zM475 4l744 1546l251 -118l-741 -1547zM1165 268v252q0 59 22.5 111.5t65.5 92.5t105.5 62.5t140.5 22.5q76 0 138.5 -22.5t106.5 -62.5t67.5 -92t23.5 -112v-252 q0 -59 -23.5 -111.5t-67.5 -92t-106.5 -62t-138.5 -22.5q-78 0 -140.5 22.5t-105.5 62t-65.5 92t-22.5 111.5zM1423 268q0 -33 20.5 -57.5t55.5 -24.5q37 0 57.5 25t20.5 57v252q0 33 -20.5 57.5t-57.5 24.5q-35 0 -55.5 -24.5t-20.5 -57.5v-252z" />
<glyph unicode="&#x26;" d="M74 395q0 66 19.5 121t52 99t75.5 75t92 49q-43 14 -84 43t-72.5 70t-51 94t-19.5 115q0 111 45 188.5t121 126.5t174 70.5t205 21.5q168 0 277.5 -42t173 -107.5t88 -149.5t24.5 -165h-426q0 80 -27.5 129t-109.5 49q-57 0 -91 -33t-34 -105q0 -66 38 -103.5t128 -37.5 v-307q-92 0 -132 -40t-40 -118q0 -59 41 -107t121 -48q68 0 113.5 49t49.5 139h-102v305h596v-305h-82q-2 -106 -35 -198.5t-103.5 -161t-184 -107.5t-277.5 -39q-102 0 -203.5 25.5t-181.5 79t-129 134.5t-49 191z" />
<glyph unicode="'" horiz-adv-x="460" d="M72 1137v309h317v-309l-82 -324h-153z" />
<glyph unicode="(" horiz-adv-x="833" d="M96 186v732q0 129 46 243.5t132 199.5t211 135t283 50v-350q-63 0 -112.5 -21.5t-83 -59.5t-52 -89t-18.5 -108v-732q0 -57 18.5 -108t52 -89t83 -59.5t112.5 -21.5v-350q-158 0 -283 50t-211 135t-132 199.5t-46 243.5z" />
<glyph unicode=")" horiz-adv-x="833" d="M68 -92q61 0 110 21.5t83 59.5t52.5 89t18.5 108v732q0 57 -18.5 108t-52.5 89t-83 59.5t-110 21.5v350q156 0 280.5 -50t210.5 -135t132 -199.5t46 -243.5v-732q0 -129 -46 -243.5t-132 -199.5t-211 -135t-280 -50v350z" />
<glyph unicode="*" horiz-adv-x="962" d="M51 1077l72 207l264 -104l-16 288h221l-17 -288l265 104l71 -207l-262 -71l178 -228l-180 -131l-166 262l-166 -262l-180 131l178 228z" />
<glyph unicode="+" horiz-adv-x="1325" d="M201 432v301h307v311h309v-311h307v-301h-307v-311h-309v311h-307z" />
<glyph unicode="," horiz-adv-x="669" d="M68 219q0 51 18 96t51 79t77 53.5t95 19.5q61 0 112.5 -23.5t88.5 -64.5t57.5 -99.5t20.5 -127.5q0 -139 -35 -236.5t-100.5 -158t-159.5 -88t-213 -27.5v153q78 0 132 16.5t89 45.5t52.5 65.5t21.5 73.5q-4 -6 -23.5 -13.5t-42.5 -7.5q-55 0 -100 19.5t-77 52.5t-48 78 t-16 94z" />
<glyph unicode="-" horiz-adv-x="694" d="M68 483v303h559v-303h-559z" />
<glyph unicode="." horiz-adv-x="663" d="M82 221q0 51 19.5 95t52 78t77.5 53.5t99 19.5q53 0 99 -19.5t80 -53.5t53.5 -78t19.5 -95t-19.5 -95t-53.5 -78t-80 -53.5t-99 -19.5t-98.5 19.5t-78 53.5t-52 78t-19.5 95z" />
<glyph unicode="/" horiz-adv-x="1083" d="M35 -25l692 1610l301 -129l-692 -1610z" />
<glyph unicode="0" horiz-adv-x="1335" d="M78 487v459q0 106 40 200.5t116.5 166t185 113.5t248.5 42q135 0 243.5 -42t185.5 -113.5t118.5 -165.5t41.5 -201v-459q0 -106 -41.5 -200t-118.5 -166t-185.5 -114t-243.5 -42q-139 0 -248 42t-185.5 114t-116.5 166t-40 200zM504 487q0 -72 44 -124t120 -52 q74 0 118.5 52.5t44.5 123.5v459q0 72 -45 124t-118 52q-76 0 -120 -52t-44 -124v-459z" />
<glyph unicode="1" horiz-adv-x="907" d="M59 889v280q111 0 181.5 17.5t110.5 50.5t55.5 82t15.5 115h360v-1434h-428v889h-295z" />
<glyph unicode="2" horiz-adv-x="1286" d="M90 0q0 178 26.5 300t76 208t118 144.5t152.5 107.5q80 47 139.5 83t99 68.5t60 67.5t20.5 78q0 66 -35.5 95.5t-84.5 29.5q-63 0 -101.5 -40t-38.5 -138h-428q0 86 30 168.5t97.5 149.5t175 106.5t260.5 39.5q104 0 200.5 -23.5t172.5 -75.5t121 -135t45 -202 q0 -84 -29.5 -151.5t-80 -125t-116 -104.5t-136.5 -86q-70 -41 -118 -69.5t-78 -55t-43 -52.5t-13 -60h606v-328h-1098z" />
<glyph unicode="3" horiz-adv-x="1298" d="M63 485h426q0 -98 40 -150t118 -52q72 0 105.5 49t33.5 108q0 76 -37.5 116t-125.5 40h-162v307h160q96 0 128.5 38t32.5 103q0 72 -33.5 105t-91.5 33q-84 0 -110.5 -49.5t-26.5 -128.5h-426q0 82 24.5 165.5t88 149t172 107.5t276.5 42q106 0 206 -21.5t175.5 -70.5 t120.5 -127t45 -188q0 -61 -19.5 -114.5t-52 -95.5t-73.5 -70.5t-84 -41.5q49 -14 92 -44.5t77 -76t53 -103.5t19 -126q0 -106 -46 -186t-122.5 -132.5t-176 -79t-203.5 -26.5q-168 0 -284 41t-186.5 111.5t-101.5 165t-31 202.5z" />
<glyph unicode="4" horiz-adv-x="1357" d="M102 362v1072h426v-725h195v362h428v-362h149v-347h-149v-362h-428v362h-621z" />
<glyph unicode="5" horiz-adv-x="1357" d="M88 498h406q0 -80 50 -138.5t136 -58.5t136 58.5t50 144.5q0 39 -12 74.5t-35.5 63.5t-57.5 44t-77 16q-72 0 -112 -28.5t-64 -75.5h-381v836h1069v-308h-672v-241q41 53 115 81.5t162 28.5q123 0 212 -44t146.5 -114.5t85 -157.5t27.5 -175q0 -111 -39 -209t-115 -172 t-185.5 -116t-252.5 -42t-254 42t-185.5 115t-113.5 170t-39 206z" />
<glyph unicode="6" horiz-adv-x="1292" d="M51 506q0 82 20.5 157.5t63.5 141.5l420 629h473l-272 -402q80 -16 141 -49q80 -25 143.5 -72t107.5 -109.5t66.5 -138t22.5 -157.5q0 -111 -40 -208t-115.5 -170t-186.5 -116t-252 -43t-251.5 43t-186.5 116t-115 170t-39 208zM457 506q0 -84 50 -140.5t136 -56.5 t136 56.5t50 140.5t-50 140t-136 56t-136 -56t-50 -140z" />
<glyph unicode="7" horiz-adv-x="1193" d="M63 1085v349h1147l-610 -1434h-457l465 1085h-545z" />
<glyph unicode="8" horiz-adv-x="1318" d="M72 403q0 63 21.5 121t57 103t82 74.5t93.5 39.5q-43 14 -83 44t-70 71t-47 91t-17 106q0 86 36.5 161.5t106.5 132t172 89t235 32.5q131 0 234.5 -32.5t173.5 -89t106.5 -132t36.5 -161.5q0 -55 -17 -105.5t-47 -91.5t-70 -70.5t-83 -44.5q49 -12 94.5 -42.5t81 -74.5 t57 -100.5t21.5 -120.5q0 -90 -39 -169.5t-113.5 -139t-184.5 -94.5t-251 -35t-249.5 35t-184 94.5t-114.5 139t-39 169.5zM477 420q0 -68 48 -117t134 -49t133.5 50t47.5 116t-47.5 116t-133.5 50q-88 0 -135 -50.5t-47 -115.5zM504 1034q0 -59 40.5 -103t114.5 -44t115 44 t41 103q0 57 -41 101.5t-115 44.5t-114.5 -43t-40.5 -103z" />
<glyph unicode="9" horiz-adv-x="1292" d="M55 928q0 111 40 208t116 169.5t186.5 115.5t251.5 43t252 -43t186.5 -115.5t114.5 -170t39 -207.5q0 -170 -86 -299l-418 -629h-473l271 401q-113 14 -202 60.5t-150.5 117t-94.5 159.5t-33 190zM463 928q0 -84 50 -140.5t136 -56.5t136.5 56.5t50.5 140.5t-50.5 140 t-136.5 56t-136 -56t-50 -140z" />
<glyph unicode=":" horiz-adv-x="663" d="M82 860q0 51 19.5 95t52 78t77.5 53.5t99 19.5q53 0 99 -19.5t80 -53.5t53.5 -78t19.5 -95t-19.5 -95t-53.5 -78t-80 -53.5t-99 -19.5t-98.5 19.5t-78 53.5t-52 78t-19.5 95zM84 221q0 51 18.5 95t52 78t79 53.5t98.5 19.5t99 -19.5t80 -53.5t52.5 -78t18.5 -95 t-18.5 -95t-52.5 -78t-80 -53.5t-99 -19.5t-98.5 19.5t-79 53.5t-52 78t-18.5 95z" />
<glyph unicode=";" horiz-adv-x="669" d="M82 219q0 51 19.5 96t52 79t76.5 53.5t96 19.5q61 0 112 -23.5t87 -64.5t56.5 -99.5t20.5 -127.5q0 -139 -35 -236.5t-99.5 -158t-159.5 -88t-214 -27.5v153q78 0 132.5 16.5t88.5 45.5q35 29 52.5 65.5t21.5 73.5q-4 -6 -23.5 -13.5t-39.5 -7.5q-55 0 -100.5 19.5 t-77 52.5t-49 78t-17.5 94zM82 860q0 51 19.5 95t52 78t77.5 53.5t99 19.5q53 0 99 -19.5t80 -53.5t53.5 -78t19.5 -95t-19.5 -95t-53.5 -78t-80 -53.5t-99 -19.5t-98.5 19.5t-78 53.5t-52 78t-19.5 95z" />
<glyph unicode="&#x3c;" horiz-adv-x="1325" d="M94 414v334l1108 368v-358l-616 -176l616 -179v-356z" />
<glyph unicode="=" horiz-adv-x="1325" d="M201 217v303h923v-303h-923zM201 641v303h923v-303h-923z" />
<glyph unicode="&#x3e;" horiz-adv-x="1325" d="M121 47v356l618 179l-618 176v358l1110 -368v-334z" />
<glyph unicode="?" horiz-adv-x="1173" d="M31 1004q0 86 28.5 168.5t94 149.5t171 106.5t259.5 39.5q104 0 202.5 -23.5t174 -73.5t121.5 -127t46 -183q0 -84 -25.5 -143.5t-61 -101.5t-73.5 -69.5t-65 -48.5q-51 -41 -79.5 -79.5t-28.5 -108.5h-430q0 66 9 116t32.5 92t61.5 77.5t95 70.5q29 18 55.5 38t48 42.5 t34 52t12.5 66.5q0 59 -36 88t-91 29q-57 0 -96 -40t-39 -138h-420zM328 217q0 51 19.5 96t53 79t78.5 53.5t99 19.5q55 0 101 -19.5t80 -53.5t53 -79t19 -96t-19 -97t-53 -80t-80 -53.5t-101 -19.5q-53 0 -98.5 19.5t-79 53.5t-53 80t-19.5 97z" />
<glyph unicode="@" horiz-adv-x="1871" d="M41 498q0 205 73.5 366.5t197.5 275t286 174t340 60.5q195 0 361.5 -52t288.5 -150.5t191.5 -242t69.5 -325.5q0 -168 -34.5 -283.5t-94 -186.5t-142.5 -101.5t-177 -30.5q-129 0 -218 61.5t-124 165.5q-10 -25 -34 -50t-56.5 -44.5t-71.5 -33t-82 -13.5q-82 0 -152.5 31 t-122 85t-80 129t-28.5 165t30 164.5t82 129t121.5 85t149.5 30.5q43 0 82 -13t71.5 -32.5t56.5 -45t34 -50.5v121h291v-430q0 -119 24.5 -162t77.5 -43q25 0 45.5 18.5t34.5 60.5t22.5 111.5t8.5 173.5q0 119 -45 211.5t-127 157t-197 98t-256 33.5q-129 0 -240.5 -41 t-194.5 -119.5t-130 -193.5t-47 -264q0 -123 40 -237t121.5 -202t207.5 -141t298 -53q45 0 103.5 4t122 16.5t129 34t125.5 53.5l110 -221q-74 -41 -153.5 -67.5t-157.5 -43t-149.5 -23.5t-129.5 -7q-231 0 -408 72.5t-298 194.5t-183.5 283t-62.5 337zM741 498 q0 -70 44 -120t116 -50t117 50t45 120t-45 120t-117 50t-116 -50.5t-44 -119.5z" />
<glyph unicode="A" horiz-adv-x="1531" d="M8 0l529 1434h446l541 -1434h-475l-50 166h-481l-49 -166h-461zM608 475h303l-151 529z" />
<glyph unicode="B" d="M106 0v1434h703q147 0 238.5 -40t142.5 -98.5t68.5 -126t17.5 -122.5q0 -68 -23.5 -122.5t-60.5 -96.5t-81 -67.5t-85 -33.5q35 -4 80 -25.5t85 -61.5t67.5 -100.5t27.5 -140.5q0 -55 -18.5 -124.5t-68.5 -131t-142 -102.5t-240 -41h-711zM535 299h145q96 0 135 45 t39 102q0 20 -7 46t-26.5 48.5t-53.5 37t-87 14.5h-145v-293zM535 870h141q49 0 82 12.5t53 33t29.5 47t9.5 53.5q0 23 -7 47t-25.5 45.5t-52.5 36t-89 14.5h-141v-289z" />
<glyph unicode="C" horiz-adv-x="1640" d="M53 717q0 150 52.5 286t152.5 240.5t242.5 167t324.5 62.5q174 0 309.5 -49.5t230.5 -135.5t151.5 -200.5t70.5 -243.5h-446q-18 102 -94 171.5t-209 69.5q-86 0 -151.5 -30.5t-108.5 -80.5t-66 -116.5t-23 -140.5q0 -78 25 -145.5t71 -116.5t111.5 -78t149.5 -29 q119 0 196.5 63.5t98.5 153.5h450q-18 -123 -75.5 -233.5t-153.5 -192.5t-227 -130t-297 -48q-184 0 -331 61.5t-247 166t-153.5 241.5t-53.5 287z" />
<glyph unicode="D" horiz-adv-x="1513" d="M125 0v1434h586q178 0 317 -59.5t235.5 -159t146.5 -229.5t50 -269t-50 -269.5t-145.5 -229.5t-234.5 -158.5t-319 -59.5h-586zM551 360h129q80 0 144.5 30t108.5 79t67.5 113.5t23.5 134.5t-23.5 134t-67.5 113.5t-108.5 79t-144.5 29.5h-129v-713z" />
<glyph unicode="E" horiz-adv-x="1159" d="M125 0v1434h924v-320h-498v-250h498v-305h-498v-240h498v-319h-924z" />
<glyph unicode="F" horiz-adv-x="1148" d="M125 0v1434h924v-349h-498v-317h498v-336h-498v-432h-426z" />
<glyph unicode="G" horiz-adv-x="1701" d="M55 717q0 147 51.5 283.5t149.5 242t239.5 168t321.5 62.5q156 0 283 -43.5t219 -117t146.5 -171t64.5 -205.5h-471q-6 31 -23.5 61.5t-48.5 55t-75 40t-99 15.5q-86 0 -147.5 -34t-100.5 -89t-57.5 -127t-18.5 -147q0 -84 21.5 -157t66 -127t110 -85t153.5 -31 q121 0 187.5 58.5t82.5 144.5h-238v281h807v-281h-137q-20 -123 -76.5 -225.5t-146.5 -175t-216 -112.5t-284 -40q-184 0 -326.5 60.5t-239.5 163t-147.5 240.5t-50.5 292z" />
<glyph unicode="H" horiz-adv-x="1503" d="M125 0v1434h426v-545h399v545h428v-1434h-428v535h-399v-535h-426z" />
<glyph unicode="I" horiz-adv-x="679" d="M125 0v1434h430v-1434h-430z" />
<glyph unicode="J" horiz-adv-x="1288" d="M25 522h426q0 -86 37.5 -143t115.5 -57q72 0 113 50t41 148v914h428v-914q0 -150 -41 -255t-117 -171.5t-183.5 -97.5t-240.5 -31q-150 0 -258 43t-180 118t-106.5 176t-34.5 220z" />
<glyph unicode="K" horiz-adv-x="1454" d="M125 0v1434h426v-586l397 586h500l-526 -717l526 -717h-500l-397 584v-584h-426z" />
<glyph unicode="L" horiz-adv-x="976" d="M125 0v1434h426v-1069h375v-365h-801z" />
<glyph unicode="M" horiz-adv-x="1929" d="M125 0v1434h543l303 -926l305 926h528v-1434h-413v889l-261 -889h-315l-276 889v-889h-414z" />
<glyph unicode="N" horiz-adv-x="1579" d="M125 0v1434h434l467 -850v850h428v-1434h-434l-469 821v-821h-426z" />
<glyph unicode="O" horiz-adv-x="1660" d="M53 717q0 147 52.5 284.5t151.5 242t243.5 167t328.5 62.5t330 -62.5t245 -167t151.5 -242t52.5 -284.5t-52.5 -284.5t-151.5 -242t-245 -167t-330 -62.5t-328.5 62.5t-243.5 167t-151.5 241.5t-52.5 285zM483 717q0 -72 23.5 -138.5t67.5 -116.5t108.5 -81t146.5 -31 t146.5 31t108.5 81t68 116.5t24 138.5t-24 138.5t-68 116.5t-108.5 80.5t-146.5 30.5t-146.5 -30.5t-108.5 -80.5t-67.5 -117t-23.5 -138z" />
<glyph unicode="P" horiz-adv-x="1378" d="M125 0v1434h688q123 0 222.5 -43t170 -116t108.5 -170t38 -206t-38 -205t-108.5 -168.5t-170 -115.5t-222.5 -43h-262v-367h-426zM551 696h176q86 0 138.5 59.5t52.5 143.5t-51.5 143.5t-137.5 59.5h-178v-406z" />
<glyph unicode="Q" horiz-adv-x="1660" d="M53 717q0 147 52.5 284.5t151.5 242t243.5 167t328.5 62.5t330 -62.5t245 -167t151.5 -242t52.5 -284.5q0 -98 -23.5 -191.5t-69 -176.5t-111 -151.5t-151.5 -117.5l123 -160q-106 -55 -188 -96l-189 -94l-170 231q-184 0 -328.5 62.5t-243.5 167t-151.5 241.5t-52.5 285 zM483 717q0 -72 23.5 -138.5t67.5 -116.5t108.5 -81t146.5 -31t146.5 31t108.5 81t68 116.5t24 138.5t-24 138.5t-68 116.5t-108.5 80.5t-146.5 30.5t-146.5 -30.5t-108.5 -80.5t-67.5 -117t-23.5 -138z" />
<glyph unicode="R" horiz-adv-x="1429" d="M125 0v1434h688q123 0 222.5 -43t170 -116t108.5 -170t38 -206q0 -147 -70 -270t-192 -193l286 -436h-502l-243 367h-80v-367h-426zM551 696h176q86 0 138.5 59.5t52.5 143.5t-51.5 143.5t-137.5 59.5h-178v-406z" />
<glyph unicode="S" horiz-adv-x="1318" d="M70 483h426q0 -98 49 -150t131 -52q66 0 103.5 32.5t37.5 89.5q0 59 -52 93t-165 79q-98 39 -189.5 78t-160 92.5t-109.5 127t-41 184.5t48.5 189.5t128 128.5t181 74t210.5 24q158 0 264 -41t171.5 -108t94.5 -150.5t29 -167.5h-426q0 178 -142 178q-53 0 -92 -27 t-39 -86q0 -55 49.5 -92t147.5 -72q92 -33 185.5 -69.5t168 -90t120.5 -130t46 -187.5t-41 -199t-116.5 -147t-184 -91t-244.5 -32q-135 0 -243.5 35t-185 100.5t-118.5 162.5t-42 224z" />
<glyph unicode="T" horiz-adv-x="1097" d="M41 1069v365h1016v-365h-295v-1069h-426v1069h-295z" />
<glyph unicode="U" horiz-adv-x="1378" d="M90 498v936h426v-932q0 -74 49 -127t123 -53q78 0 126 53t48 127v932h426v-936q0 -117 -41 -215.5t-118.5 -170t-188.5 -111.5t-252 -40q-139 0 -249.5 40t-188.5 111.5t-119 170t-41 215.5z" />
<glyph unicode="V" horiz-adv-x="1474" d="M-20 1434h460l291 -981l289 981h475l-541 -1434h-446z" />
<glyph unicode="W" horiz-adv-x="2228" d="M-12 1434h450l254 -856l252 856h340l250 -856l256 856h451l-517 -1434h-372l-238 780l-240 -780h-370z" />
<glyph unicode="X" horiz-adv-x="1341" d="M-2 0l426 717l-426 717h467l207 -410l207 410h464l-425 -717l425 -717h-464l-207 410l-207 -410h-467z" />
<glyph unicode="Y" horiz-adv-x="1398" d="M-6 1434h500l231 -510l217 510h475l-710 -1434h-480l248 506z" />
<glyph unicode="Z" horiz-adv-x="1406" d="M41 0l661 1085h-587v349h1251l-659 -1086h620v-348h-1286z" />
<glyph unicode="[" horiz-adv-x="849" d="M125 -436v1984h643v-348h-242v-1288h242v-348h-643z" />
<glyph unicode="\" horiz-adv-x="1083" d="M35 1456l301 129l692 -1610l-301 -129z" />
<glyph unicode="]" horiz-adv-x="849" d="M82 -88h242v1288h-242v346h643v-1982h-643v348z" />
<glyph unicode="^" horiz-adv-x="1275" d="M47 567l492 969h200l490 -969h-359l-231 518l-233 -518h-359z" />
<glyph unicode="_" horiz-adv-x="1243" d="M27 -61h1187v-222h-1187v222z" />
<glyph unicode="`" horiz-adv-x="929" d="M96 1249l92 258l621 -243l-92 -258z" />
<glyph unicode="a" d="M63 508q0 119 35 218t97.5 169t149.5 108.5t192 38.5q55 0 105 -15t91 -40.5t71 -57.5t44 -63v152h401v-1018h-401v152q-14 -31 -44 -63t-71 -57.5t-91 -42t-105 -16.5q-104 0 -191.5 39t-150 108.5t-97.5 168t-35 219.5zM467 508q0 -82 52 -141.5t136 -59.5 q86 0 139.5 59.5t53.5 141.5q0 84 -53.5 142.5t-139.5 58.5q-84 0 -136 -58.5t-52 -142.5z" />
<glyph unicode="b" d="M119 0v1434h401v-568q14 31 44 63t71 57.5t91 40.5t103 15q104 0 191.5 -38.5t150 -108.5t97.5 -169t35 -218q0 -121 -35 -219.5t-97.5 -168t-149.5 -108.5t-192 -39q-53 0 -103 16.5t-91 42t-70.5 57.5t-44.5 63v-152h-401zM520 508q0 -82 52.5 -141.5t138.5 -59.5 t138 59.5t52 141.5q0 84 -52 142.5t-138 58.5t-138.5 -58.5t-52.5 -142.5z" />
<glyph unicode="c" horiz-adv-x="1263" d="M55 508q0 109 37 207t110.5 172t182.5 117t252 43q135 0 237.5 -37t173 -98.5t109.5 -143.5t49 -174h-401q-10 53 -50 87t-114 34q-47 0 -82 -17.5t-57.5 -46t-33.5 -65.5t-11 -78t11 -78t33.5 -65.5t59.5 -45t86 -16.5q66 0 102.5 28.5t53.5 80.5h403q-10 -92 -52 -173 t-112.5 -140.5t-172 -93.5t-230.5 -34q-143 0 -253 43t-183.5 117t-110.5 171t-37 206z" />
<glyph unicode="d" d="M63 508q0 119 35 218t97.5 169t149.5 108.5t192 38.5q55 0 105 -15t91 -40.5t71 -57.5t44 -63v568h401v-1434h-401v152q-14 -31 -44 -63t-71 -57.5t-91 -42t-105 -16.5q-104 0 -191.5 39t-150 108.5t-97.5 168t-35 219.5zM467 508q0 -82 52 -141.5t136 -59.5 q86 0 139.5 59.5t53.5 141.5q0 84 -53.5 142.5t-139.5 58.5q-84 0 -136 -58.5t-52 -142.5z" />
<glyph unicode="e" horiz-adv-x="1275" d="M55 508q0 111 37 209t109.5 171t181.5 116t254 43q139 0 245.5 -40t179.5 -105.5t110.5 -150.5t37.5 -176q0 -35 -2 -70.5t-10 -80.5h-741q2 -37 11 -71t29.5 -59.5t56.5 -41.5t89 -16q68 0 109 28.5t53 73.5h389q-12 -78 -55 -145.5t-113 -116.5t-166 -77t-215 -28 q-139 0 -247.5 38t-185.5 108.5t-117 169t-40 221.5zM457 618h352q0 84 -47 131.5t-127 47.5q-78 0 -128 -46t-50 -133z" />
<glyph unicode="f" horiz-adv-x="823" d="M27 737v281h159v55q0 131 35 209t91.5 118t128 52t147.5 12q70 0 122 -8t87 -20v-262q-25 6 -44.5 9t-50.5 3q-49 0 -81.5 -19.5t-32.5 -83.5v-65h209v-281h-209v-737h-402v737h-159z" />
<glyph unicode="g" horiz-adv-x="1363" d="M68 508q0 119 32.5 218t93 169t146.5 108.5t192 38.5t191.5 -45t126.5 -131v152h401v-961q0 -145 -42 -240.5t-130 -154.5q-72 -51 -171 -77.5t-255 -26.5q-160 0 -257 26.5t-163 79.5q-70 53 -114.5 129t-46.5 162h403q4 -49 49 -91t129 -42q90 0 143.5 45t53.5 141v158 q-37 -63 -118 -108.5t-189 -45.5q-104 0 -191.5 33t-151 96.5t-98 155.5t-34.5 211zM469 508q0 -82 52 -141.5t138 -59.5t138.5 59.5t52.5 141.5q0 84 -52.5 142.5t-138.5 58.5t-138 -58.5t-52 -142.5z" />
<glyph unicode="h" horiz-adv-x="1282" d="M119 0v1434h381v-566q41 76 123 125t202 49q172 0 254 -92q57 -59 76 -148t19 -204v-598h-381v516q0 92 -31 142.5t-109 50.5q-154 0 -153 -211v-498h-381z" />
<glyph unicode="i" horiz-adv-x="638" d="M82 1325q0 49 18.5 91t50 75t74.5 51.5t92 18.5q51 0 94.5 -18.5t75 -51.5t50 -75t18.5 -91q0 -47 -18.5 -89t-50 -74t-74.5 -50t-95 -18q-49 0 -92 18t-74.5 50t-50 74t-18.5 89zM119 0v1018h401v-1018h-401z" />
<glyph unicode="j" horiz-adv-x="638" d="M-59 -131q27 -4 44 -6t40 -2q94 0 94 100v1057h401v-1100q0 -113 -25.5 -183.5t-70.5 -109.5t-106.5 -53t-133.5 -14q-33 0 -67.5 2t-68.5 6t-61.5 9t-45.5 11v283zM82 1325q0 49 18.5 91t50 75t74.5 51.5t92 18.5q51 0 94.5 -18.5t75 -51.5t50 -75t18.5 -91 q0 -47 -18.5 -89t-50 -74t-74.5 -50t-95 -18q-49 0 -92 18t-74.5 50t-50 74t-18.5 89z" />
<glyph unicode="k" horiz-adv-x="1249" d="M119 0v1434h401v-826l258 410h467l-368 -510l368 -508h-469l-256 408v-408h-401z" />
<glyph unicode="l" horiz-adv-x="638" d="M119 0v1434h401v-1434h-401z" />
<glyph unicode="m" horiz-adv-x="1884" d="M119 0v1018h381v-150q35 72 111.5 123t191.5 51q129 0 198.5 -51t100.5 -133q43 82 125 133t198 51q109 0 177.5 -33.5t106.5 -92t52.5 -137.5t14.5 -169v-610h-383v530q0 178 -121 179q-59 0 -97 -44t-38 -157v-508h-381v530q0 88 -28 133.5t-93 45.5q-59 0 -97 -46.5 t-38 -166.5v-496h-381z" />
<glyph unicode="n" horiz-adv-x="1323" d="M119 0v1018h401v-150q41 80 127 127t209 47q88 0 156.5 -25.5t109.5 -70.5q57 -59 74.5 -144t17.5 -200v-602h-401v516q0 92 -30.5 142.5t-108.5 50.5q-154 0 -154 -211v-498h-401z" />
<glyph unicode="o" horiz-adv-x="1292" d="M53 508q0 111 39 209t115 172t186.5 116t251.5 42t252 -42t186.5 -116t115.5 -172.5t40 -208.5q0 -111 -40 -208t-115.5 -170t-186.5 -116t-252 -43t-251.5 43t-186.5 116t-115 170t-39 208zM455 508q0 -84 52 -142.5t138 -58.5q88 0 139.5 58.5t51.5 142.5 q0 86 -51.5 143.5t-139.5 57.5q-86 0 -138 -57.5t-52 -143.5z" />
<glyph unicode="p" d="M119 -416v1434h401v-150q14 31 44 63t71 56.5t91 39.5t103 15q104 0 191.5 -37.5t150 -108.5t97.5 -169t35 -217q0 -121 -35 -219t-97.5 -168t-149.5 -109t-192 -39q-53 0 -103 15.5t-91 41t-70.5 57.5t-44.5 63v-568h-401zM520 510q0 -82 52.5 -141.5t138.5 -59.5 t138 59.5t52 141.5t-52 141.5t-138 59.5t-138.5 -59.5t-52.5 -141.5z" />
<glyph unicode="q" d="M66 510q0 119 34.5 217t97 169t149.5 108.5t192 37.5q55 0 105 -15t91 -39.5t71 -56.5t42 -63v150h403v-1434h-403v568q-12 -31 -42 -63t-71 -57.5t-91 -41t-105 -15.5q-104 0 -191.5 39t-150 109t-97 168t-34.5 219zM467 510q0 -82 52 -141.5t138 -59.5t138.5 59.5 t52.5 141.5t-52.5 141.5t-138.5 59.5t-138 -59.5t-52 -141.5z" />
<glyph unicode="r" horiz-adv-x="935" d="M119 0v1018h401v-162q16 35 46 67.5t69 58.5t87 41t103 15q35 0 57.5 -3t47.5 -11v-367q-41 10 -68.5 14.5t-68.5 4.5q-57 0 -107.5 -15.5t-87.5 -51.5t-57.5 -97t-20.5 -154v-358h-401z" />
<glyph unicode="s" horiz-adv-x="1159" d="M59 340h402q0 -63 34.5 -93t96.5 -30q47 0 74.5 19.5t27.5 54.5q0 23 -12 38t-40 27.5t-72 25.5t-109 32q-74 18 -142.5 37.5t-122 53.5t-85 85t-31.5 133q0 174 129 249t383 75q137 0 231.5 -27t150.5 -73t80.5 -107.5t24.5 -132.5h-399q0 55 -29.5 81.5t-77.5 26.5 q-37 0 -65.5 -16.5t-28.5 -55.5q0 -45 60.5 -65t181.5 -53q80 -18 148.5 -40t117.5 -55.5t78 -85t29 -131.5q0 -100 -40 -165.5t-110 -104.5t-163 -55.5t-197 -16.5q-270 0 -397.5 97.5t-127.5 271.5z" />
<glyph unicode="t" horiz-adv-x="849" d="M27 737v281h149v297h404v-297h229v-281h-229v-307q0 -49 10 -78.5t28.5 -46t42 -23t50.5 -6.5q33 0 58.5 2t49.5 7v-285q-41 -8 -99 -14t-151 -6q-70 0 -140.5 9t-126.5 45t-91 107.5t-35 198.5v397h-149z" />
<glyph unicode="u" horiz-adv-x="1323" d="M106 416v602h404v-516q0 -92 30.5 -142.5t108.5 -50.5q154 0 154 211v498h401v-1018h-401v152q-41 -82 -127 -129.5t-209 -47.5q-88 0 -156.5 26t-109.5 71q-57 59 -76 144t-19 200z" />
<glyph unicode="v" horiz-adv-x="1247" d="M-10 1018h418l213 -606l219 606h417l-460 -1018h-353z" />
<glyph unicode="w" horiz-adv-x="1746" d="M-4 1018h405l162 -567l131 567h359l131 -567l162 567h405l-365 -1018h-358l-156 547l-153 -547h-359z" />
<glyph unicode="x" horiz-adv-x="1193" d="M-10 0l364 514l-358 504h465l135 -258l137 258h465l-360 -504l366 -514h-465l-143 268l-141 -268h-465z" />
<glyph unicode="y" horiz-adv-x="1335" d="M106 -45h404q4 -63 44 -100t110 -37q78 0 116.5 40t38.5 138v184q-41 -80 -122 -126t-197 -46q-96 0 -169 31t-114 76q-57 59 -75.5 138t-18.5 193v572h403v-516q0 -92 31 -142.5t109 -50.5q154 0 153 211v498h402v-979q0 -129 -43 -224.5t-111 -148.5q-37 -29 -77 -49 t-88 -33.5t-107.5 -19.5t-135.5 -6q-143 0 -240 22.5t-169 79.5q-59 49 -100 122t-44 173z" />
<glyph unicode="z" horiz-adv-x="1071" d="M29 0l417 686h-378v332h974l-413 -686h387v-332h-987z" />
<glyph unicode="{" horiz-adv-x="1009" d="M82 362v369q66 0 117 35t51 119v295q0 174 101.5 270t281.5 96h268v-336h-80q-47 0 -78.5 -15t-51 -41t-29 -58.5t-9.5 -65.5v-248q0 -66 -23.5 -109.5t-55 -70.5t-66.5 -39t-57 -14q23 -4 57.5 -15.5t66 -39t55 -72.5t23.5 -115v-225q0 -35 9.5 -66.5t29 -57.5t51 -41 t78.5 -15h80v-338h-268q-180 0 -281.5 97t-101.5 271v273q0 88 -51.5 122.5t-116.5 34.5z" />
<glyph unicode="|" horiz-adv-x="651" d="M164 -436v1982h325v-1982h-325z" />
<glyph unicode="}" horiz-adv-x="1009" d="M109 -98h81q45 0 77 15t52.5 41t29.5 57.5t9 66.5v225q0 70 22.5 115t55.5 72.5t68 39t57 15.5q-23 2 -57.5 14t-67.5 39t-55.5 71t-22.5 109v248q0 33 -9 65.5t-29.5 58.5t-52 41t-77.5 15h-81v336h268q180 0 281.5 -96t101.5 -270v-295q0 -84 51 -119t117 -35v-369 q-33 0 -62.5 -8t-53.5 -26.5t-38 -49t-14 -73.5v-273q0 -174 -101.5 -271t-281.5 -97h-268v338z" />
<glyph unicode="~" horiz-adv-x="1220" d="M63 395v299q59 68 134 94.5t139 26.5q66 0 139.5 -19.5t149.5 -45.5q72 -25 141.5 -49.5t122.5 -24.5q84 0 151.5 36t118.5 76v-299q-61 -68 -136 -94t-136 -26q-72 0 -136.5 19.5t-129.5 47.5q-61 29 -135 50.5t-164 21.5q-76 0 -142.5 -36t-116.5 -77z" />
<glyph unicode="&#xa2;" horiz-adv-x="1294" d="M68 588q0 98 30.5 188t92 162t151.5 120t211 62v232h195v-232q111 -12 194.5 -53t142 -101.5t91 -135t43.5 -156.5h-402q-10 53 -50 87t-114 34q-47 0 -81.5 -17.5t-57 -46.5t-34 -65.5t-11.5 -77.5t11.5 -78t34 -65.5t59 -45t85.5 -16.5q66 0 103 27.5t53 81.5h404 q-10 -84 -45 -159t-93.5 -132.5t-142.5 -95t-190 -50.5v-225h-195v227q-121 14 -211 61.5t-151.5 119t-92 161.5t-30.5 189z" />
<glyph unicode="&#xa3;" horiz-adv-x="1384" d="M57 602v197h146v184q0 102 41 190.5t115.5 154t180 103t234.5 37.5t234.5 -38.5t180.5 -107.5t116 -161t41 -196h-426q0 68 -37 112.5t-113 44.5q-66 0 -103.5 -39t-37.5 -100v-184h301v-197h-301q0 -25 -1 -63.5t-3 -59.5q-4 -49 -11.5 -89t-21.5 -62h678v-328h-1157 v276q37 37 57 83.5t25 115.5q4 23 5 63t3 64h-146z" />
<glyph unicode="&#xa5;" horiz-adv-x="1392" d="M-35 1434h502l229 -510l230 510h501l-469 -801h207v-193h-254v-102h254v-193h-254v-145h-417v145h-252v193h252v102h-252v193h192z" />
<glyph unicode="&#xa8;" horiz-adv-x="1167" d="M129 1225q0 45 17.5 84t46 68.5t68.5 47t87 17.5t88 -17.5t71 -47t46 -68.5t16 -84q0 -43 -16 -83t-46 -69t-71 -46t-88 -17t-87 17t-68.5 46t-46 69t-17.5 83zM647 1225q0 45 16.5 84t46 68.5t68.5 47t86 17.5t87 -17.5t70 -47t47 -68.5t17 -84q0 -43 -17 -83t-47 -69 t-70 -46t-87 -17t-86 17t-68.5 46t-46 69t-16.5 83z" />
<glyph unicode="&#xa9;" horiz-adv-x="1662" d="M55 717q0 147 52.5 284.5t151.5 242t243.5 167t328.5 62.5t329 -62.5t244 -167t151.5 -242t52.5 -284.5t-52.5 -284.5t-151.5 -242t-244 -167t-329 -62.5t-328.5 62.5t-243.5 167t-151.5 241.5t-52.5 285zM279 717q0 -111 36.5 -211t107.5 -178t174 -124t234 -46 t234.5 46t174.5 124t107.5 178t36.5 211t-36.5 211t-107.5 178t-174 124t-235 46q-131 0 -234 -46t-174 -124t-107.5 -178.5t-36.5 -210.5zM428 717q0 78 27.5 149.5t79 126t126 87t170.5 32.5q90 0 161 -26.5t120 -70.5t78 -103.5t37 -127.5h-234q-12 51 -51 87t-108 36 q-88 0 -132.5 -57t-44.5 -133q0 -80 47.5 -135.5t133.5 -55.5q66 0 104.5 32t50.5 79h236q-10 -66 -40 -123t-80 -100t-117.5 -67.5t-153.5 -24.5q-96 0 -173 32.5t-129.5 87t-80 126t-27.5 149.5z" />
<glyph unicode="&#xab;" horiz-adv-x="1128" d="M68 500v192l473 377v-332l-197 -141l197 -141v-332zM567 500v192l473 377v-332l-196 -141l196 -141v-332z" />
<glyph unicode="&#xad;" horiz-adv-x="694" d="M68 483v303h559v-303h-559z" />
<glyph unicode="&#xae;" horiz-adv-x="1662" d="M55 717q0 147 52.5 284.5t151.5 242t243.5 167t328.5 62.5t329 -62.5t244 -167t151.5 -242t52.5 -284.5t-52.5 -284.5t-151.5 -242t-244 -167t-329 -62.5t-328.5 62.5t-243.5 167t-151.5 241.5t-52.5 285zM279 717q0 -111 36.5 -211t107.5 -178t174 -124t234 -46 t234.5 46t174.5 124t107.5 178t36.5 211t-36.5 211t-107.5 178t-174 124t-235 46q-131 0 -234 -46t-174 -124t-107.5 -178.5t-36.5 -210.5zM522 348v776h381q66 0 120 -23.5t92 -63.5t58.5 -92t20.5 -109q0 -80 -38 -146.5t-105 -101.5l153 -240h-270l-133 201h-47v-201 h-232zM754 727h100q45 0 70.5 33t25.5 76t-25.5 74.5t-70.5 31.5h-100v-215z" />
<glyph unicode="&#xb4;" horiz-adv-x="927" d="M70 1264l620 243l92 -258l-620 -243z" />
<glyph unicode="&#xb8;" horiz-adv-x="800" d="M170 -258h172q4 -27 20.5 -43t43.5 -16q29 0 47 19t18 52q0 27 -17.5 45.5t-45.5 18.5q-43 0 -58 -33h-157v262h178v-141q10 14 33.5 25.5t62.5 11.5t71.5 -16.5t56 -43t36 -60.5t12.5 -69q0 -86 -59.5 -150.5t-177.5 -64.5q-45 0 -86 12.5t-74 38t-53.5 63.5t-22.5 89z " />
<glyph unicode="&#xbb;" horiz-adv-x="1128" d="M88 123v332l199 141l-199 141v332l473 -377v-192zM588 123v332l198 141l-198 141v332l473 -377v-192z" />
<glyph unicode="&#x2c6;" horiz-adv-x="991" d="M59 1376l435 348l434 -348l-187 -200l-247 196l-248 -196z" />
<glyph unicode="&#x2da;" horiz-adv-x="870" d="M137 1458q0 61 23.5 116.5t63.5 95.5t94.5 63.5t115.5 23.5t116.5 -23.5t95.5 -64.5t63.5 -95t23.5 -116q0 -61 -23.5 -115.5t-63.5 -95.5t-95 -64.5t-117 -23.5q-61 0 -115.5 23.5t-94.5 64.5t-63.5 95.5t-23.5 115.5zM342 1456q0 -35 27.5 -61.5t64.5 -26.5t65.5 27.5 t28.5 64.5t-26.5 64.5t-67.5 27.5q-39 0 -65.5 -27.5t-26.5 -68.5z" />
<glyph unicode="&#x2dc;" horiz-adv-x="1024" d="M84 1356q51 29 89 45t66.5 23.5t48 8.5t36.5 1q25 0 70.5 -8.5t95 -19.5t94.5 -19.5t67 -8.5q18 0 34.5 2t37 8.5t47.5 16.5t68 29l100 -226q-90 -66 -157.5 -79t-96.5 -13q-25 0 -71 8.5t-95 18.5t-94 18t-68 8q-47 0 -83.5 -13t-77.5 -30z" />
<glyph unicode="&#x401;" horiz-adv-x="1159" d="M109 1739q0 45 17 85t47 70.5t70 48t87 17.5t88 -17.5t71.5 -48t48 -70.5t17.5 -85q0 -43 -17.5 -83t-48 -70t-71.5 -47t-88 -17t-87 17t-70 47t-47 70t-17 83zM125 0v1434h924v-320h-498v-250h498v-305h-498v-240h498v-319h-924zM625 1739q0 45 17 85t47 70.5t70 48 t87 17.5t88 -17.5t70.5 -48t47 -70.5t17.5 -85q0 -43 -17.5 -83t-47 -70t-70.5 -47t-88 -17t-87 17t-70 47t-47 70t-17 83z" />
<glyph unicode="&#x402;" horiz-adv-x="1552" d="M41 1114v320h1016v-320h-295v-332q41 78 124 127t204 49q88 0 150.5 -24.5t102.5 -69.5q57 -59 77 -147t20 -203v-596q0 -106 -23.5 -176t-67.5 -111t-105.5 -57t-135.5 -16h-244v305h90q96 0 101 90v479q0 92 -31 142.5t-109 50.5q-150 0 -153 -199v-426h-426v1114h-295 z" />
<glyph unicode="&#x403;" horiz-adv-x="1019" d="M125 0v1434h889v-365h-463v-1069h-426zM227 1743l621 244l92 -258l-621 -244z" />
<glyph unicode="&#x404;" horiz-adv-x="1617" d="M53 717q0 156 51.5 293t150.5 240.5t245.5 163t337.5 59.5q160 0 287.5 -48.5t220 -130.5t146.5 -193.5t69 -236.5h-451q-16 94 -91 157.5t-204 63.5q-133 0 -211 -73.5t-96 -186.5h440v-229h-438q23 -117 99.5 -182.5t205.5 -65.5q133 0 209 63.5t92 153.5h449 q-16 -123 -70.5 -233.5t-146 -192.5t-218 -130t-288.5 -48q-193 0 -340.5 59.5t-246.5 163t-150.5 240.5t-51.5 293z" />
<glyph unicode="&#x405;" horiz-adv-x="1318" d="M70 483h426q0 -98 49 -150t131 -52q66 0 103.5 32.5t37.5 89.5q0 59 -52 93t-165 79q-98 39 -189.5 78t-160 92.5t-109.5 127t-41 184.5t48.5 189.5t128 128.5t181 74t210.5 24q158 0 264 -41t171.5 -108t94.5 -150.5t29 -167.5h-426q0 178 -142 178q-53 0 -92 -27 t-39 -86q0 -55 49.5 -92t147.5 -72q92 -33 185.5 -69.5t168 -90t120.5 -130t46 -187.5t-41 -199t-116.5 -147t-184 -91t-244.5 -32q-135 0 -243.5 35t-185 100.5t-118.5 162.5t-42 224z" />
<glyph unicode="&#x406;" horiz-adv-x="679" d="M125 0v1434h430v-1434h-430z" />
<glyph unicode="&#x407;" horiz-adv-x="679" d="M-123 1739q0 45 17.5 85t47 70.5t69.5 48t87 17.5t88 -17.5t72 -48t48.5 -70.5t17.5 -85q0 -43 -17.5 -83t-48.5 -70t-72 -47t-88 -17t-87 17t-69.5 47t-47 70t-17.5 83zM125 0v1434h430v-1434h-430zM367 1739q0 45 17 85t47 70.5t70 48t87 17.5t88 -17.5t70.5 -48 t47 -70.5t17.5 -85q0 -43 -17.5 -83t-47 -70t-70.5 -47t-88 -17t-87 17t-70 47t-47 70t-17 83z" />
<glyph unicode="&#x408;" horiz-adv-x="1288" d="M25 522h426q0 -86 37.5 -143t115.5 -57q72 0 113 50t41 148v914h428v-914q0 -150 -41 -255t-117 -171.5t-183.5 -97.5t-240.5 -31q-150 0 -258 43t-180 118t-106.5 176t-34.5 220z" />
<glyph unicode="&#x409;" horiz-adv-x="2189" d="M20 -35v359h95q100 0 100 82v1028h1221v-564h299q94 0 172 -33.5t133 -91t84.5 -134t29.5 -165.5q0 -90 -29.5 -170.5t-84.5 -142t-133 -97.5t-172 -36h-727v1077h-367v-753q0 -106 -29.5 -176t-84 -110t-127 -56.5t-158.5 -16.5h-222zM1436 297h127q78 0 118.5 43 t40.5 106q0 53 -35.5 99.5t-123.5 46.5h-127v-295z" />
<glyph unicode="&#x40a;" horiz-adv-x="2131" d="M125 0v1434h426v-539h399v539h428v-564h299q94 0 172 -33.5t133.5 -91t85 -134t29.5 -165.5q0 -90 -29.5 -170.5t-85 -142t-133 -97.5t-172.5 -36h-727v539h-399v-539h-426zM1378 297h127q78 0 119 43t41 106q0 53 -36 99.5t-124 46.5h-127v-295z" />
<glyph unicode="&#x40b;" horiz-adv-x="1548" d="M41 1114v320h1016v-320h-295v-332q41 78 124 127t204 49q88 0 150.5 -24.5t102.5 -69.5q57 -59 77 -147t20 -203v-514h-385v432q0 92 -31 142.5t-109 50.5q-150 0 -153 -199v-426h-426v1114h-295z" />
<glyph unicode="&#x40c;" horiz-adv-x="1462" d="M125 0v1434h426v-557h29q49 0 90 31.5t88 113.5l116 207q66 119 152 167t213 48h143v-371h-45q-53 0 -92 -19.5t-76 -78.5l-73 -115q-27 -43 -68 -83t-100 -62l516 -715h-500l-393 612v-612h-426zM375 1743l620 244l92 -258l-620 -244z" />
<glyph unicode="&#x40e;" horiz-adv-x="1398" d="M-6 1434h500l231 -510l217 510h475l-710 -1434h-480l248 506zM250 1937h293q16 -59 57 -102t119 -43t119 43t55 102h295q-14 -94 -56 -165.5t-104.5 -120.5t-141.5 -74t-167 -25q-90 0 -169 25t-141.5 74t-104.5 120.5t-54 165.5z" />
<glyph unicode="&#x40f;" horiz-adv-x="1476" d="M125 0v1434h426v-1078h373v1078h428v-1434h-422v-215h-385v215h-420z" />
<glyph unicode="&#x410;" horiz-adv-x="1531" d="M8 0l529 1434h446l541 -1434h-475l-50 166h-481l-49 -166h-461zM608 475h303l-151 529z" />
<glyph unicode="&#x411;" horiz-adv-x="1376" d="M125 0v1434h1061v-320h-635v-244h334q94 0 172 -33.5t133 -91t85 -134t30 -165.5q0 -90 -30 -170.5t-85 -142t-133 -97.5t-172 -36h-760zM551 297h160q78 0 118.5 43t40.5 106q0 27 -8 53.5t-26.5 47t-49 33t-75.5 12.5h-160v-295z" />
<glyph unicode="&#x412;" horiz-adv-x="1386" d="M125 0v1434h700q147 0 239.5 -40t142.5 -98.5t68.5 -126t18.5 -122.5q0 -68 -23.5 -122.5t-60 -96.5t-81 -67.5t-85.5 -33.5q35 -4 80 -25.5t85 -61.5t68 -100.5t28 -140.5q0 -55 -18.5 -124.5t-69 -131t-142.5 -102.5t-239 -41h-711zM551 299h147q96 0 134 45t38 102 q0 20 -7 46t-25.5 48.5t-52 37t-87.5 14.5h-147v-293zM551 870h143q49 0 82 12.5t52.5 33t28.5 47t9 53.5q0 23 -7 47t-25.5 45.5t-52 36t-87.5 14.5h-143v-289z" />
<glyph unicode="&#x413;" horiz-adv-x="1019" d="M125 0v1434h889v-365h-463v-1069h-426z" />
<glyph unicode="&#x414;" horiz-adv-x="1662" d="M25 -215v559h20q76 0 139.5 34t110.5 95t72.5 145t25.5 187v629h1065v-1090h150v-559h-385v215h-813v-215h-385zM559 344h508v746h-297v-119q0 -123 -8 -222.5t-31.5 -176t-64.5 -133t-107 -95.5z" />
<glyph unicode="&#x415;" horiz-adv-x="1159" d="M125 0v1434h924v-320h-498v-250h498v-305h-498v-240h498v-319h-924z" />
<glyph unicode="&#x416;" horiz-adv-x="2162" d="M10 0l512 719q-57 16 -99 53t-71 86l-67 127q-35 59 -75 80.5t-91 21.5h-43v357h127q127 0 224 -45t157 -164l104 -207q45 -90 81 -129t89 -39h16v574h414v-574h17q53 0 89 39t81 129l104 207q59 119 156.5 164t224.5 45h127v-357h-43q-51 0 -91 -21.5t-75 -80.5 l-68 -127q-29 -49 -70.5 -86t-99.5 -53l512 -719h-489l-375 612v-612h-414v612l-374 -612h-490z" />
<glyph unicode="&#x417;" horiz-adv-x="1339" d="M43 485h449q0 -92 41.5 -140t123.5 -48q78 0 113 44t35 99q0 80 -43 119t-141 39h-158v291h155q109 0 147 42t38 107q0 61 -38 95t-103 34q-80 0 -117 -43t-37 -120h-449q0 82 28 165.5t96.5 149t185 107.5t295.5 42q117 0 222 -20.5t187 -68.5t130 -125.5t48 -192.5 q0 -63 -22.5 -117.5t-58 -96.5t-81 -69.5t-92.5 -38.5q51 -12 99.5 -40.5t84.5 -73.5t57.5 -104.5t21.5 -131.5q0 -106 -50.5 -186t-132.5 -132.5t-187.5 -79t-217.5 -26.5q-178 0 -299 41t-195 111.5t-104.5 165t-30.5 202.5z" />
<glyph unicode="&#x418;" horiz-adv-x="1531" d="M125 0v1434h426v-795l430 696v99h426v-1434h-426v795l-430 -697v-98h-426z" />
<glyph unicode="&#x419;" horiz-adv-x="1531" d="M125 0v1434h426v-795l430 696v99h426v-1434h-426v795l-430 -697v-98h-426zM303 1937h293q16 -59 57 -102t119 -43t119 43t57 102h293q-14 -94 -56 -165.5t-104.5 -120.5t-141.5 -74t-167 -25q-90 0 -169 25t-141.5 74t-103.5 120.5t-55 165.5z" />
<glyph unicode="&#x41a;" horiz-adv-x="1462" d="M125 0v1434h426v-557h29q49 0 90 31.5t88 113.5l116 207q66 119 152 167t213 48h143v-371h-45q-53 0 -92 -19.5t-76 -78.5l-73 -115q-27 -43 -68 -83t-100 -62l516 -715h-500l-393 612v-612h-426z" />
<glyph unicode="&#x41b;" horiz-adv-x="1556" d="M20 -35v324h95q100 0 100 82v1063h1217v-1434h-426v1077h-365v-753q0 -106 -29.5 -176t-84 -110t-127 -56.5t-158.5 -16.5h-222z" />
<glyph unicode="&#x41c;" horiz-adv-x="1929" d="M125 0v1434h543l303 -926l305 926h528v-1434h-413v889l-261 -889h-315l-276 889v-889h-414z" />
<glyph unicode="&#x41d;" horiz-adv-x="1503" d="M125 0v1434h426v-545h399v545h428v-1434h-428v535h-399v-535h-426z" />
<glyph unicode="&#x41e;" horiz-adv-x="1660" d="M53 717q0 147 52.5 284.5t151.5 242t243.5 167t328.5 62.5t330 -62.5t245 -167t151.5 -242t52.5 -284.5t-52.5 -284.5t-151.5 -242t-245 -167t-330 -62.5t-328.5 62.5t-243.5 167t-151.5 241.5t-52.5 285zM483 717q0 -72 23.5 -138.5t67.5 -116.5t108.5 -81t146.5 -31 t146.5 31t108.5 81t68 116.5t24 138.5t-24 138.5t-68 116.5t-108.5 80.5t-146.5 30.5t-146.5 -30.5t-108.5 -80.5t-67.5 -117t-23.5 -138z" />
<glyph unicode="&#x41f;" horiz-adv-x="1501" d="M125 0v1434h1251v-1434h-426v1077h-399v-1077h-426z" />
<glyph unicode="&#x420;" horiz-adv-x="1378" d="M125 0v1434h688q123 0 222.5 -43t170 -116t108.5 -170t38 -206t-38 -205t-108.5 -168.5t-170 -115.5t-222.5 -43h-262v-367h-426zM551 696h176q86 0 138.5 59.5t52.5 143.5t-51.5 143.5t-137.5 59.5h-178v-406z" />
<glyph unicode="&#x421;" horiz-adv-x="1640" d="M53 717q0 150 52.5 286t152.5 240.5t242.5 167t324.5 62.5q174 0 309.5 -49.5t230.5 -135.5t151.5 -200.5t70.5 -243.5h-446q-18 102 -94 171.5t-209 69.5q-86 0 -151.5 -30.5t-108.5 -80.5t-66 -116.5t-23 -140.5q0 -78 25 -145.5t71 -116.5t111.5 -78t149.5 -29 q119 0 196.5 63.5t98.5 153.5h450q-18 -123 -75.5 -233.5t-153.5 -192.5t-227 -130t-297 -48q-184 0 -331 61.5t-247 166t-153.5 241.5t-53.5 287z" />
<glyph unicode="&#x422;" horiz-adv-x="1097" d="M41 1069v365h1016v-365h-295v-1069h-426v1069h-295z" />
<glyph unicode="&#x423;" horiz-adv-x="1398" d="M-6 1434h500l231 -510l217 510h475l-710 -1434h-480l248 506z" />
<glyph unicode="&#x424;" horiz-adv-x="1787" d="M45 721q0 115 40 221.5t118 189t191.5 132t258.5 49.5h49v121h383v-121h50q145 0 258.5 -49.5t191.5 -132t118 -189t40 -221.5q0 -117 -40 -224.5t-118 -191.5t-191.5 -134t-258.5 -50h-50v-121h-383v121h-49q-145 0 -258.5 50t-191.5 134t-118 191.5t-40 224.5zM453 721 q0 -111 53 -183.5t149 -72.5h47v504h-47q-96 0 -149 -70t-53 -178zM1085 465h48q96 0 149 72.5t53 183.5q0 109 -53 178.5t-149 69.5h-48v-504z" />
<glyph unicode="&#x425;" horiz-adv-x="1370" d="M12 0l426 717l-426 717h465l207 -410l207 410h467l-426 -717l426 -717h-467l-207 410l-207 -410h-465z" />
<glyph unicode="&#x426;" horiz-adv-x="1579" d="M125 0v1434h426v-1078h373v1078h426v-1078h194v-571h-385v215h-1034z" />
<glyph unicode="&#x427;" horiz-adv-x="1378" d="M45 858v576h426v-484q0 -135 58.5 -190t158.5 -55h137v729h428v-1434h-428v397h-297q-109 0 -196.5 35t-152 96.5t-99.5 145.5t-35 184z" />
<glyph unicode="&#x428;" horiz-adv-x="2191" d="M125 0v1434h422v-1078h338v1078h422v-1078h335v1078h424v-1434h-1941z" />
<glyph unicode="&#x429;" horiz-adv-x="2293" d="M125 0v1434h422v-1078h338v1078h422v-1078h335v1078h424v-1078h195v-571h-395v215h-1741z" />
<glyph unicode="&#x42a;" horiz-adv-x="1503" d="M20 1069v365h695v-543h334q94 0 171.5 -35t133 -95.5t85 -141t29.5 -173.5q0 -90 -29.5 -170.5t-85 -142t-133 -97.5t-171.5 -36h-760v1069h-269zM715 297h159q78 0 119 43t41 106q0 27 -8 53.5t-26.5 47t-49 33t-76.5 12.5h-159v-295z" />
<glyph unicode="&#x42b;" horiz-adv-x="1914" d="M125 0v1434h426v-543h317q94 0 172 -35t133.5 -95.5t85 -141t29.5 -173.5q0 -90 -29.5 -170.5t-85 -142t-133 -97.5t-172.5 -36h-743zM551 297h143q78 0 119 43t41 106q0 27 -8 53.5t-26.5 47t-49.5 33t-76 12.5h-143v-295zM1364 0v1434h426v-1434h-426z" />
<glyph unicode="&#x42c;" horiz-adv-x="1339" d="M125 0v1434h426v-543h334q94 0 172 -35t133 -95.5t85 -141t30 -173.5q0 -90 -30 -170.5t-85 -142t-133 -97.5t-172 -36h-760zM551 297h160q78 0 118.5 43t40.5 106q0 27 -8 53.5t-26.5 47t-49 33t-75.5 12.5h-160v-295z" />
<glyph unicode="&#x42d;" horiz-adv-x="1624" d="M53 565h449q23 -90 103.5 -153.5t209.5 -63.5q121 0 199 62.5t100 185.5h-440v227h444q-20 119 -98 190.5t-201 71.5q-141 0 -218 -69.5t-97 -171.5h-447q14 129 68.5 243.5t148 200.5t225.5 135.5t302 49.5q182 0 325.5 -58.5t241.5 -160t150.5 -239.5t52.5 -298 q0 -162 -52.5 -300t-152.5 -239.5t-245.5 -159t-332.5 -57.5q-162 0 -289.5 48t-221 130t-149.5 192.5t-75 233.5z" />
<glyph unicode="&#x42e;" horiz-adv-x="2275" d="M125 0v1434h426v-545h151q25 121 86.5 227.5t155.5 185t220 125t282 46.5q184 0 328.5 -62.5t244 -167t151.5 -242t52 -284.5t-52 -284.5t-151.5 -242t-244 -167t-328.5 -62.5q-154 0 -280 45t-219 123t-154.5 182.5t-87.5 223.5h-154v-535h-426zM1100 717 q0 -72 23.5 -138.5t67.5 -116.5t108.5 -81t146.5 -31t145.5 31t108.5 81t68.5 116.5t23.5 138.5t-23.5 138.5t-68.5 116.5t-108.5 80.5t-145.5 30.5t-146.5 -30.5t-108.5 -80.5t-67.5 -117t-23.5 -138z" />
<glyph unicode="&#x42f;" horiz-adv-x="1429" d="M53 0l289 436q-125 70 -194.5 193t-69.5 270q0 109 38 206t108.5 170t170 116t221.5 43h689v-1434h-426v367h-78l-246 -367h-502zM512 899q0 -84 52 -143.5t138 -59.5h177v406h-179q-86 0 -137 -59.5t-51 -143.5z" />
<glyph unicode="&#x430;" horiz-adv-x="1355" d="M53 508q0 119 35 218t97.5 169t149.5 108.5t191 38.5q55 0 105.5 -15t91.5 -40.5t70.5 -57.5t42.5 -63v152h403v-1018h-403v152q-12 -31 -42 -63t-71 -57.5t-91 -42t-106 -16.5q-104 0 -191 39t-149.5 108.5t-97.5 168t-35 219.5zM455 508q0 -82 52 -141.5t138 -59.5 t138.5 59.5t52.5 141.5q0 84 -52.5 142.5t-138.5 58.5t-138 -58.5t-52 -142.5z" />
<glyph unicode="&#x431;" horiz-adv-x="1312" d="M61 678q0 131 17.5 226t47.5 164t68.5 118t81.5 88q53 51 117 81.5t134.5 48t145.5 24t150 6.5h312v-340h-301q-104 0 -185.5 -23.5t-134.5 -73.5q-53 -51 -85 -128.5t-36 -166.5q45 129 141.5 199t249.5 70q115 0 203 -41t148.5 -108.5t92.5 -156t32 -184.5 q0 -104 -38 -197.5t-111 -162t-178.5 -109.5t-240.5 -41q-125 0 -230.5 34t-191.5 112q-94 84 -151.5 230.5t-57.5 330.5zM498 487q0 -86 52 -143t138 -57t138.5 58t52.5 142q0 86 -52.5 143.5t-138.5 57.5t-138 -56.5t-52 -144.5z" />
<glyph unicode="&#x432;" horiz-adv-x="1206" d="M119 0v1018h710q100 0 162 -27.5t96.5 -67.5t47 -85t12.5 -82q0 -104 -78 -165t-201 -67q145 -6 221 -68.5t76 -181.5q0 -37 -14 -85t-55 -90t-114 -70.5t-189 -28.5h-674zM506 207h131q55 0 86 30.5t31 77.5q0 49 -31 80t-86 31h-131v-219zM506 598h127q55 0 85 29.5 t30 77.5q0 47 -29 77.5t-84 30.5h-129v-215z" />
<glyph unicode="&#x433;" horiz-adv-x="839" d="M119 0v1018h706v-316h-327v-702h-379z" />
<glyph unicode="&#x434;" horiz-adv-x="1363" d="M35 -215v514h33q109 0 161 64.5t52 164.5v490h913v-719h109v-514h-334v215h-600v-215h-334zM508 299h354v422h-260v-180q0 -86 -17.5 -148.5t-76.5 -93.5z" />
<glyph unicode="&#x435;" horiz-adv-x="1275" d="M55 508q0 111 37 209t108.5 171t180 116t254.5 43q139 0 245.5 -40t179.5 -105.5t110.5 -150.5t37.5 -176q0 -35 -1 -70.5t-9 -80.5h-741q2 -37 11 -71t29.5 -59.5t55.5 -41.5t88 -16q68 0 110 28.5t52 73.5h389q-12 -78 -54 -145.5t-112 -116.5t-166 -77t-215 -28 q-139 0 -248.5 38t-185.5 108.5t-116 169t-40 221.5zM457 618h352q0 84 -48 131.5t-126 47.5q-80 0 -129 -46t-49 -133z" />
<glyph unicode="&#x436;" horiz-adv-x="1738" d="M10 0l369 510q-35 10 -65.5 32.5t-49.5 57.5l-35 57q-23 37 -49 54.5t-74 17.5h-47v299h127q55 0 100.5 -7t81 -24.5t65.5 -49.5t56 -81l82 -153q23 -41 45.5 -63.5t57.5 -22.5h14v391h363v-391h12q37 0 59.5 22.5t44.5 63.5l82 153q27 49 55.5 81t65.5 49.5t81 24.5 t101 7h127v-299h-47q-49 0 -75.5 -17.5t-49.5 -54.5l-32 -57q-20 -35 -51 -57.5t-66 -32.5l371 -510h-426l-252 412v-412h-363v412l-252 -412h-426z" />
<glyph unicode="&#x437;" horiz-adv-x="1124" d="M35 346h405q0 -59 28 -92t89 -33q43 0 69.5 22.5t26.5 63.5q0 113 -157 113h-111v203h104q86 0 124 28.5t38 79.5q0 41 -27.5 63.5t-70.5 22.5q-59 0 -81.5 -32.5t-22.5 -86.5h-400q0 61 22.5 124t81 113t159 81t255.5 31q98 0 186.5 -17.5t153 -52.5t102.5 -91.5 t38 -131.5q0 -59 -19.5 -102.5t-52.5 -71t-73 -42t-83 -18.5q49 -4 91 -19.5t75 -45t51.5 -73.5t18.5 -103q0 -78 -43 -137.5t-113 -98.5t-159 -58.5t-179 -19.5q-154 0 -256 31t-161.5 83t-84 120.5t-24.5 146.5z" />
<glyph unicode="&#x438;" horiz-adv-x="1341" d="M119 0v1018h379v-561l346 475v86h379v-1018h-379v543l-346 -473v-70h-379z" />
<glyph unicode="&#x439;" horiz-adv-x="1341" d="M119 0v1018h379v-561l346 475v86h379v-1018h-379v543l-346 -473v-70h-379zM211 1532h295q14 -59 55 -102.5t119 -43.5t119 43.5t57 102.5h293q-12 -94 -54 -166t-104.5 -121t-142.5 -73.5t-168 -24.5q-90 0 -169 24.5t-141.5 73.5t-103.5 121t-55 166z" />
<glyph unicode="&#x43a;" horiz-adv-x="1230" d="M119 0v1018h379v-406h18q39 0 65.5 27t63.5 88l88 147q51 88 123 121t186 33h113v-305h-37q-35 0 -65.5 -13.5t-57.5 -56.5l-41 -63q-23 -35 -53.5 -53.5t-66.5 -26.5l383 -510h-457l-262 412v-412h-379z" />
<glyph unicode="&#x43b;" horiz-adv-x="1327" d="M27 -33v320h57q90 0 90 82v649h1034v-1018h-379v702h-280v-376q0 -174 -86 -266.5t-297 -92.5h-139z" />
<glyph unicode="&#x43c;" horiz-adv-x="1806" d="M119 0v1018h586l202 -635l203 635h578v-1018h-371v752l-250 -752h-315l-263 752v-752h-370z" />
<glyph unicode="&#x43d;" horiz-adv-x="1296" d="M119 0v1018h379v-348h301v348h379v-1018h-379v354h-301v-354h-379z" />
<glyph unicode="&#x43e;" horiz-adv-x="1292" d="M53 508q0 111 39 209t115 172t186.5 116t251.5 42t252 -42t186.5 -116t115.5 -172.5t40 -208.5q0 -111 -40 -208t-115.5 -170t-186.5 -116t-252 -43t-251.5 43t-186.5 116t-115 170t-39 208zM455 508q0 -84 52 -142.5t138 -58.5q88 0 139.5 58.5t51.5 142.5 q0 86 -51.5 143.5t-139.5 57.5q-86 0 -138 -57.5t-52 -143.5z" />
<glyph unicode="&#x43f;" horiz-adv-x="1290" d="M119 0v1018h1052v-1018h-380v702h-293v-702h-379z" />
<glyph unicode="&#x440;" d="M119 -416v1434h401v-150q14 31 44 63t71 56.5t91 39.5t103 15q104 0 191.5 -37.5t150 -108.5t97.5 -169t35 -217q0 -121 -35 -219t-97.5 -168t-149.5 -109t-192 -39q-53 0 -103 15.5t-91 41t-70.5 57.5t-44.5 63v-568h-401zM520 510q0 -82 52.5 -141.5t138.5 -59.5 t138 59.5t52 141.5t-52 141.5t-138 59.5t-138.5 -59.5t-52.5 -141.5z" />
<glyph unicode="&#x441;" horiz-adv-x="1263" d="M55 508q0 109 37 207t110.5 172t182.5 117t252 43q135 0 237.5 -37t173 -98.5t109.5 -143.5t49 -174h-401q-10 53 -50 87t-114 34q-47 0 -82 -17.5t-57.5 -46t-33.5 -65.5t-11 -78t11 -78t33.5 -65.5t59.5 -45t86 -16.5q66 0 102.5 28.5t53.5 80.5h403q-10 -92 -52 -173 t-112.5 -140.5t-172 -93.5t-230.5 -34q-143 0 -253 43t-183.5 117t-110.5 171t-37 206z" />
<glyph unicode="&#x442;" horiz-adv-x="974" d="M20 702v316h934v-316h-276v-702h-381v702h-277z" />
<glyph unicode="&#x443;" horiz-adv-x="1335" d="M106 -45h404q4 -63 44 -100t110 -37q78 0 116.5 40t38.5 138v184q-41 -80 -122 -126t-197 -46q-96 0 -169 31t-114 76q-57 59 -75.5 138t-18.5 193v572h403v-516q0 -92 31 -142.5t109 -50.5q154 0 153 211v498h402v-979q0 -129 -43 -224.5t-111 -148.5q-37 -29 -77 -49 t-88 -33.5t-107.5 -19.5t-135.5 -6q-143 0 -240 22.5t-169 79.5q-59 49 -100 121t-44 174z" />
<glyph unicode="&#x444;" horiz-adv-x="1505" d="M53 508q0 106 37 201.5t108.5 169t176 117.5t239.5 48v390h277v-390q135 -4 239.5 -48t176 -117.5t108.5 -170t37 -200.5t-37 -199.5t-107.5 -169t-175 -118t-241.5 -46.5v-389h-277v389q-133 2 -237.5 46.5t-176 118t-109.5 168.5t-38 200zM414 508q0 -86 52 -148.5 t146 -62.5h2v422h-2q-94 -2 -146 -62.5t-52 -148.5zM891 297h4q92 0 144.5 62.5t52.5 148.5q0 88 -52.5 148.5t-144.5 62.5h-4v-422z" />
<glyph unicode="&#x445;" horiz-adv-x="1239" d="M12 0l367 514l-361 504h465l135 -258l138 258h465l-359 -504l365 -514h-465l-144 268l-141 -268h-465z" />
<glyph unicode="&#x446;" horiz-adv-x="1370" d="M119 0v1018h379v-703h290v703h379v-703h156v-510h-342v195h-862z" />
<glyph unicode="&#x447;" horiz-adv-x="1181" d="M55 623v395h379v-342q0 -139 144 -139h106v481h381v-1018h-381v268h-256q-178 0 -275.5 88t-97.5 267z" />
<glyph unicode="&#x448;" horiz-adv-x="1843" d="M119 0v1018h358v-703h266v703h357v-703h266v703h358v-1018h-1605z" />
<glyph unicode="&#x449;" horiz-adv-x="1927" d="M119 0v1018h358v-703h266v703h357v-703h266v703h358v-703h156v-510h-342v195h-1419z" />
<glyph unicode="&#x44a;" horiz-adv-x="1296" d="M25 729v289h608v-311h235q113 0 187.5 -31t120 -80t62.5 -112.5t17 -129.5q0 -57 -17 -119.5t-62.5 -114.5t-120 -86t-187.5 -34h-610v729h-233zM633 231h131q59 0 91 33t32 84t-32 84t-89 33h-133v-234z" />
<glyph unicode="&#x44b;" horiz-adv-x="1703" d="M119 0v1018h375v-311h235q113 0 187.5 -31t119.5 -80t62.5 -112.5t17.5 -129.5q0 -57 -17.5 -119.5t-62.5 -114.5t-119.5 -86t-187.5 -34h-610zM494 231h131q57 0 88.5 33t31.5 84t-30.5 84t-87.5 33h-133v-234zM1184 0v1018h401v-1018h-401z" />
<glyph unicode="&#x44c;" horiz-adv-x="1157" d="M119 0v1018h375v-311h235q113 0 187.5 -31t119.5 -80t62.5 -112.5t17.5 -129.5q0 -57 -17.5 -119.5t-62.5 -114.5t-119.5 -86t-187.5 -34h-610zM494 231h131q57 0 88.5 33t31.5 84t-30.5 84t-87.5 33h-133v-234z" />
<glyph unicode="&#x44d;" horiz-adv-x="1273" d="M55 412h404q12 -68 56 -109t130 -41q170 0 182 162h-274v164h274q-6 76 -49 122t-131 46t-133 -45t-57 -117h-402q8 98 51.5 182t118 143.5t177 93.5t231.5 34q150 0 260.5 -43t183 -117t108.5 -172.5t36 -206.5q0 -109 -36 -206t-108.5 -171t-183.5 -117t-260 -43 q-129 0 -232.5 32t-177 90.5t-117 139t-51.5 179.5z" />
<glyph unicode="&#x44e;" horiz-adv-x="1794" d="M119 0v1018h379v-350h98q23 82 69 150.5t115.5 119.5t160.5 80t206 29q141 0 251.5 -42t186.5 -116t116 -172.5t40 -208.5q0 -111 -40 -208t-116 -170t-186.5 -116t-251.5 -43q-115 0 -207 29t-160.5 80t-116 120.5t-67.5 151.5h-98v-352h-379zM956 508 q0 -84 52.5 -142.5t138.5 -58.5q88 0 139 58.5t51 142.5q0 86 -51 143.5t-139 57.5q-86 0 -138.5 -57.5t-52.5 -143.5z" />
<glyph unicode="&#x44f;" horiz-adv-x="1196" d="M29 0l231 319q-111 47 -161 132.5t-50 187.5q0 76 27.5 145.5t78 120.5t121 82t158.5 31h645v-1018h-389v262h-63l-172 -262h-426zM422 639q0 -53 33.5 -90t91.5 -37h143v254h-145q-55 0 -89 -38t-34 -89z" />
<glyph unicode="&#x451;" horiz-adv-x="1275" d="M55 508q0 111 37 209t108.5 171t180 116t254.5 43q139 0 245.5 -40t179.5 -105.5t110.5 -150.5t37.5 -176q0 -35 -1 -70.5t-9 -80.5h-741q2 -37 11 -71t29.5 -59.5t55.5 -41.5t88 -16q68 0 110 28.5t52 73.5h389q-12 -78 -54 -145.5t-112 -116.5t-166 -77t-215 -28 q-139 0 -248.5 38t-185.5 108.5t-116 169t-40 221.5zM164 1321q0 45 17.5 85t47 70.5t69.5 48t87 17.5t88 -17.5t71.5 -48t48 -70.5t17.5 -85q0 -43 -17.5 -83t-48 -69.5t-71.5 -47t-88 -17.5t-87 17.5t-69.5 47t-47 69.5t-17.5 83zM457 618h352q0 84 -48 131.5t-126 47.5 q-80 0 -129 -46t-49 -133zM680 1321q0 45 17.5 85t47 70.5t69.5 48t87 17.5t88 -17.5t71 -48t47 -70.5t17 -85q0 -43 -17 -83t-47 -69.5t-71 -47t-88 -17.5t-87 17.5t-69.5 47t-47 69.5t-17.5 83z" />
<glyph unicode="&#x452;" horiz-adv-x="1327" d="M14 1036v203h150v195h381v-195h229v-203h-229v-286q41 78 123 127t202 49q88 0 150.5 -24.5t103.5 -70.5q57 -59 76 -147t19 -203v-563q0 -106 -24 -176t-68 -111t-105 -57t-135 -16h-240v295h90q96 0 101 90v456q0 92 -31 142.5t-109 50.5q-154 0 -153 -211v-381h-381 v1036h-150z" />
<glyph unicode="&#x453;" horiz-adv-x="839" d="M100 1329l621 244l92 -258l-620 -244zM119 0v1018h706v-316h-327v-702h-379z" />
<glyph unicode="&#x454;" horiz-adv-x="1277" d="M53 508q0 109 36 207t108.5 172t183.5 117t260 43q129 0 231.5 -34t177 -93.5t117.5 -143.5t52 -182h-402q-12 72 -57 117t-133 45t-132 -46t-49 -122h275v-164h-275q4 -78 51.5 -120t131.5 -42q86 0 130 41t56 109h404q-8 -98 -51.5 -179t-117 -139.5t-177 -90.5 t-232.5 -32q-150 0 -260.5 43t-183 117t-108.5 171t-36 206z" />
<glyph unicode="&#x455;" horiz-adv-x="1159" d="M59 340h402q0 -63 34.5 -93t96.5 -30q47 0 74.5 19.5t27.5 54.5q0 23 -12 38t-40 27.5t-72 25.5t-109 32q-74 18 -142.5 37.5t-122 53.5t-85 85t-31.5 133q0 174 129 249t383 75q137 0 231.5 -27t150.5 -73t80.5 -107.5t24.5 -132.5h-399q0 55 -29.5 81.5t-77.5 26.5 q-37 0 -65.5 -16.5t-28.5 -55.5q0 -45 60.5 -65t181.5 -53q80 -18 148.5 -40t117.5 -55.5t78 -85t29 -131.5q0 -100 -40 -165.5t-110 -104.5t-163 -55.5t-197 -16.5q-270 0 -397.5 98.5t-127.5 270.5z" />
<glyph unicode="&#x456;" horiz-adv-x="638" d="M82 1325q0 49 18.5 91t50 75t74.5 51.5t92 18.5q51 0 94.5 -18.5t75 -51.5t50 -75t18.5 -91q0 -47 -18.5 -89t-50 -74t-74.5 -50t-95 -18q-49 0 -92 18t-74.5 50t-50 74t-18.5 89zM119 0v1018h401v-1018h-401z" />
<glyph unicode="&#x457;" horiz-adv-x="638" d="M-145 1337q0 45 17 85t47 70t70 47t87 17t88 -17t71.5 -47t48 -70t17.5 -85t-17.5 -84t-48 -68.5t-71.5 -47t-88 -17.5t-87 17.5t-70 47t-47 68.5t-17 84zM119 0v1018h401v-1018h-401zM344 1337q0 45 17.5 85t47 70t69.5 47t87 17t88 -17t71 -47t47 -70t17 -85t-17 -84 t-47 -68.5t-71 -47t-88 -17.5t-87 17.5t-69.5 47t-47 68.5t-17.5 84z" />
<glyph unicode="&#x458;" horiz-adv-x="638" d="M-59 -131q27 -4 44 -6t40 -2q94 0 94 100v1057h401v-1100q0 -113 -25.5 -183.5t-70.5 -109.5t-106.5 -53t-133.5 -14q-33 0 -67.5 2t-68.5 6t-61.5 9t-45.5 11v283zM82 1325q0 49 18.5 91t50 75t74.5 51.5t92 18.5q51 0 94.5 -18.5t75 -51.5t50 -75t18.5 -91 q0 -47 -18.5 -89t-50 -74t-74.5 -50t-95 -18q-49 0 -92 18t-74.5 50t-50 74t-18.5 89z" />
<glyph unicode="&#x459;" horiz-adv-x="1871" d="M27 -33v320h57q47 0 68.5 23.5t21.5 58.5v649h1034v-324h236q111 0 185.5 -29.5t118.5 -78.5t63.5 -111.5t19.5 -128.5q0 -55 -19.5 -116.5t-63.5 -112.5t-119 -84t-185 -33h-615v702h-280v-376q0 -174 -86 -266.5t-297 -92.5h-139zM1208 231h131q55 0 89 35t34 84 t-33.5 83t-87.5 34h-133v-236z" />
<glyph unicode="&#x45a;" horiz-adv-x="1832" d="M119 0v1018h379v-324h290v324h381v-324h236q111 0 185.5 -29.5t118.5 -78.5t63.5 -111.5t19.5 -128.5q0 -55 -19.5 -116.5t-63.5 -112.5t-118.5 -84t-185.5 -33h-617v381h-290v-381h-379zM1169 231h131q53 0 87 35t34 84t-32.5 83t-85.5 34h-134v-236z" />
<glyph unicode="&#x45b;" horiz-adv-x="1327" d="M14 1036v203h150v195h381v-195h229v-203h-229v-286q41 76 123 125t202 49q172 0 254 -93q57 -59 76 -148t19 -204v-479h-381v397q0 92 -31 142.5t-109 50.5q-154 0 -153 -211v-379h-381v1036h-150z" />
<glyph unicode="&#x45c;" horiz-adv-x="1236" d="M119 0v1018h379v-406h18q39 0 65.5 27t63.5 88l88 147q51 88 123 121t186 33h113v-305h-37q-35 0 -65.5 -13.5t-57.5 -56.5l-41 -63q-23 -35 -53.5 -53.5t-66.5 -26.5l383 -510h-457l-262 412v-412h-379zM287 1329l620 244l92 -258l-620 -244z" />
<glyph unicode="&#x45e;" horiz-adv-x="1335" d="M106 -45h404q4 -63 44 -100t110 -37q78 0 116.5 40t38.5 138v184q-41 -80 -122 -126t-197 -46q-96 0 -169 31t-114 76q-57 59 -75.5 138t-18.5 193v572h403v-516q0 -92 31 -142.5t109 -50.5q154 0 153 211v498h402v-979q0 -129 -43 -224.5t-111 -148.5q-37 -29 -77 -49 t-88 -33.5t-107.5 -19.5t-135.5 -6q-143 0 -240 22.5t-169 79.5q-59 49 -100 121t-44 174zM209 1532h293q16 -59 57 -102.5t119 -43.5t119 43.5t57 102.5h293q-14 -94 -56 -166t-104.5 -121t-141.5 -73.5t-167 -24.5q-90 0 -169 24.5t-141.5 73.5t-103.5 121t-55 166z" />
<glyph unicode="&#x45f;" horiz-adv-x="1296" d="M119 0v1018h379v-703h301v703h379v-1018h-363v-195h-334v195h-362z" />
<glyph unicode="&#x462;" horiz-adv-x="1390" d="M20 1118v316h957v-316h-373v-227h332q94 0 172 -35t133 -95.5t85 -141t30 -173.5q0 -90 -30 -170.5t-85 -142t-133 -97.5t-172 -36h-760v1118h-156zM604 297h160q78 0 119 43t41 106q0 53 -36 99.5t-124 46.5h-160v-295z" />
<glyph unicode="&#x463;" horiz-adv-x="1185" d="M14 993v203h133v238h375v-238h228v-203h-228v-286h236q113 0 187.5 -31t119.5 -80t62.5 -112.5t17.5 -129.5q0 -57 -17.5 -119.5t-62.5 -114.5t-120 -86t-187 -34h-611v993h-133zM522 231h131q59 0 91 33t32 84t-31.5 84t-89.5 33h-133v-234z" />
<glyph unicode="&#x472;" horiz-adv-x="1660" d="M53 717q0 147 52.5 284.5t151.5 242t243.5 167t328.5 62.5t330 -62.5t245 -167t151.5 -242t52.5 -284.5t-52.5 -284.5t-151.5 -242t-245 -167t-330 -62.5t-328.5 62.5t-243.5 167t-151.5 241.5t-52.5 285zM496 627q12 -57 39.5 -107.5t70.5 -88.5t99 -59.5t124 -21.5 t124.5 21.5t99.5 59.5t70.5 88t39.5 108h-667zM496 811h667q-12 55 -40.5 105.5t-70.5 87t-98.5 58t-124.5 21.5t-123 -21.5t-98 -58t-71.5 -87t-40.5 -105.5z" />
<glyph unicode="&#x473;" horiz-adv-x="1292" d="M53 508q0 111 39 209t115 172t186.5 116t251.5 42t252 -42t186.5 -116t115.5 -172.5t40 -208.5q0 -111 -40 -208t-115.5 -170t-186.5 -116t-252 -43t-251.5 43t-186.5 116t-115 170t-39 208zM463 449q16 -61 63 -101.5t119 -40.5t119 40t63 102h-364zM463 569h364 q-16 59 -63 99.5t-119 40.5t-119 -40t-63 -100z" />
<glyph unicode="&#x474;" horiz-adv-x="1558" d="M8 1434h461l291 -981l225 743q23 74 55.5 123t78.5 78.5t107.5 42t141.5 12.5h176v-356h-47q-59 0 -97 -22.5t-69 -104.5l-344 -969h-450z" />
<glyph unicode="&#x475;" horiz-adv-x="1269" d="M8 1018h416l215 -606l149 411q23 63 53.5 104.5t70.5 64t91.5 31.5t114.5 9h144v-315h-35q-41 0 -72 -17.5t-63 -87.5l-279 -612h-350z" />
<glyph unicode="&#x48a;" horiz-adv-x="1624" d="M125 0v1434h426v-795l430 696v99h426v-1078h176v-571h-393v215h-209v795l-430 -697v-98h-426zM303 1937h293q16 -59 57 -102t119 -43t119 43t57 102h293q-14 -94 -56 -165.5t-104.5 -120.5t-141.5 -74t-167 -25q-90 0 -169 25t-141.5 74t-103.5 120.5t-55 165.5z" />
<glyph unicode="&#x48b;" horiz-adv-x="1413" d="M119 0v1018h379v-561l346 475v86h379v-703h155v-510h-342v195h-192v543l-346 -473v-70h-379zM211 1532h295q14 -59 55 -102.5t119 -43.5t119 43.5t57 102.5h293q-12 -94 -54 -166t-104.5 -121t-142.5 -73.5t-168 -24.5q-90 0 -169 24.5t-141.5 73.5t-103.5 121t-55 166z " />
<glyph unicode="&#x48c;" horiz-adv-x="1374" d="M27 1036v211h135v187h426v-187h344v-211h-344v-145h334q94 0 171.5 -35t133 -95.5t85 -141t29.5 -173.5q0 -90 -29.5 -170.5t-85 -142t-133 -97.5t-171.5 -36h-760v1036h-135zM588 297h160q78 0 118.5 43t40.5 106q0 53 -35.5 99.5t-123.5 46.5h-160v-295z" />
<glyph unicode="&#x48d;" horiz-adv-x="1212" d="M29 760v203h131v55h375v-55h231v-203h-231v-53h235q113 0 187.5 -31t119.5 -80t62.5 -112.5t17.5 -129.5q0 -57 -17.5 -119.5t-62.5 -114.5t-119.5 -86t-187.5 -34h-610v760h-131zM535 231h131q57 0 88.5 33t31.5 84t-30.5 84t-87.5 33h-133v-234z" />
<glyph unicode="&#x48e;" horiz-adv-x="1378" d="M125 0v1434h688q123 0 222.5 -43t170 -116t108.5 -170t38 -206q0 -143 -66.5 -265t-189.5 -194l80 -100l-140 -102l-110 141q-55 -12 -113 -12h-262v-367h-426zM551 696h147l-65 86l139 105l94 -119q51 51 52 131q0 84 -51.5 143.5t-137.5 59.5h-178v-406z" />
<glyph unicode="&#x48f;" d="M119 -416v1434h401v-150q14 31 44 63t71 56.5t91 39.5t103 15q104 0 191.5 -37.5t150 -108.5t97.5 -169t35 -217q0 -150 -51.5 -263.5t-143.5 -178.5l80 -101l-139 -102l-103 131q-29 -10 -57.5 -15.5t-59.5 -5.5q-53 0 -103 15.5t-91 41t-70.5 57.5t-44.5 63v-568h-401z M520 510q0 -78 48 -136.5t128 -62.5h13.5t13.5 2l-78 99l139 102l86 -106q14 20 22.5 46.5t8.5 55.5q0 82 -52 141.5t-138 59.5t-138.5 -59.5t-52.5 -141.5z" />
<glyph unicode="&#x490;" horiz-adv-x="1013" d="M125 0v1434h577v215h312v-564h-463v-1085h-426z" />
<glyph unicode="&#x491;" horiz-adv-x="856" d="M119 0v1018h399v223h324v-539h-344v-702h-379z" />
<glyph unicode="&#x492;" horiz-adv-x="1058" d="M49 637v213h115v584h889v-365h-463v-219h192v-213h-192v-637h-426v637h-115z" />
<glyph unicode="&#x493;" horiz-adv-x="892" d="M45 340v203h115v475h706v-316h-327v-159h176v-203h-176v-340h-379v340h-115z" />
<glyph unicode="&#x494;" horiz-adv-x="1300" d="M125 0v1434h680v-297h-295v-334q41 76 124 125t204 49q172 0 254 -92q57 -59 77.5 -148.5t20.5 -204.5v-614q0 -106 -24.5 -176t-68.5 -111t-105.5 -57t-135.5 -16h-244v305h90q96 0 101 90v498q0 92 -31 142t-108 50q-154 0 -154 -211v-432h-385z" />
<glyph unicode="&#x495;" horiz-adv-x="1251" d="M119 0v1018h381v-461q35 78 112.5 127t190.5 49q84 0 143.5 -24.5t97.5 -69.5q57 -59 77 -147.5t20 -202.5v-371q0 -106 -24.5 -176t-70 -111t-107.5 -57t-138 -16q-23 0 -57.5 2t-68.5 5t-63.5 6t-44.5 7v281q16 -4 45 -5t45 -1q100 0 101 98v276q0 82 -28 127t-95 45 q-135 0 -135 -190v-209h-381z" />
<glyph unicode="&#x496;" horiz-adv-x="2162" d="M10 0l512 719q-57 16 -99 53t-71 86l-67 127q-35 59 -75 80.5t-91 21.5h-43v357h127q127 0 224 -45t157 -164l104 -207q45 -90 81 -129t89 -39h16v574h414v-574h17q53 0 89 39t81 129l104 207q59 119 156.5 164t224.5 45h127v-357h-43q-51 0 -91 -21.5t-75 -80.5 l-68 -127q-29 -49 -70.5 -86t-99.5 -53l512 -719v-215h-385v215h-104l-375 612v-612h-414v612l-374 -612h-490z" />
<glyph unicode="&#x497;" horiz-adv-x="1738" d="M10 0l369 510q-35 10 -65.5 32.5t-49.5 57.5l-35 57q-23 37 -49 54.5t-74 17.5h-47v299h127q55 0 100.5 -7t81 -24.5t65.5 -49.5t56 -81l82 -153q23 -41 45.5 -63.5t57.5 -22.5h14v391h363v-391h12q37 0 59.5 22.5t44.5 63.5l82 153q27 49 55.5 81t65.5 49.5t81 24.5 t101 7h127v-299h-47q-49 0 -75.5 -17.5t-49.5 -54.5l-32 -57q-20 -35 -51 -57.5t-66 -32.5l371 -510v-195h-322v195h-104l-252 412v-412h-363v412l-252 -412h-426z" />
<glyph unicode="&#x498;" horiz-adv-x="1339" d="M43 485h449q0 -92 41.5 -140t123.5 -48q78 0 113 44t35 99q0 80 -43 119t-141 39h-158v291h155q109 0 147 42t38 107q0 61 -38 95t-103 34q-80 0 -117 -43t-37 -120h-449q0 82 28 165.5t96.5 149t185 107.5t295.5 42q117 0 222 -20.5t187 -68.5t130 -125.5t48 -192.5 q0 -63 -22.5 -117.5t-58 -96.5t-81 -69.5t-92.5 -38.5q51 -12 99.5 -40.5t84.5 -73.5t57.5 -104.5t21.5 -131.5q0 -96 -41 -171t-110 -127t-160 -83t-189 -39v-78q12 14 35.5 25.5t64.5 11.5q39 0 72 -16t54.5 -42t33.5 -59.5t12 -68.5q0 -43 -15.5 -81t-45 -66.5t-73.5 -46 t-103 -17.5q-45 0 -86 13.5t-74 38t-53.5 62.5t-22.5 87h172q4 -25 20.5 -41.5t43.5 -16.5q29 0 47 19.5t18 48.5q0 27 -17.5 45t-43.5 18q-45 0 -60 -30h-157v194q-154 10 -256.5 54.5t-166 113t-90 157.5t-26.5 191z" />
<glyph unicode="&#x499;" horiz-adv-x="1124" d="M35 346h405q0 -59 28 -92t89 -33q43 0 69.5 22.5t26.5 63.5q0 113 -157 113h-111v203h104q86 0 124 28.5t38 79.5q0 41 -27.5 63.5t-70.5 22.5q-59 0 -81.5 -32.5t-22.5 -86.5h-400q0 61 22.5 124t81 113t159 81t255.5 31q98 0 186.5 -17.5t153 -52.5t102.5 -91.5 t38 -131.5q0 -59 -19.5 -102.5t-52.5 -71t-73 -42t-83 -18.5q49 -4 91 -19.5t75 -45t51.5 -73.5t18.5 -103q0 -70 -35 -124.5t-91.5 -93t-131 -61.5t-154.5 -31v-69q10 14 34.5 25.5t63.5 11.5q41 0 73 -16.5t54.5 -42t34.5 -59.5t12 -69q0 -43 -15 -81t-45 -66.5t-75 -46 t-102 -17.5q-45 0 -87 13.5t-74 38t-53.5 62.5t-23.5 87h172q4 -25 21.5 -41t44.5 -16q29 0 46 19t17 48q0 27 -16 45.5t-45 18.5q-43 0 -57 -31h-158v186q-125 8 -208 42t-132 84t-69.5 114.5t-20.5 136.5z" />
<glyph unicode="&#x49a;" horiz-adv-x="1462" d="M125 0v1434h426v-557h29q49 0 90 31.5t88 113.5l116 207q66 119 152 167t213 48h143v-371h-45q-53 0 -92 -19.5t-76 -78.5l-73 -115q-27 -43 -68 -83t-100 -62l516 -715v-215h-385v215h-115l-393 612v-612h-426z" />
<glyph unicode="&#x49b;" horiz-adv-x="1236" d="M119 0v1018h379v-406h18q39 0 65.5 27t63.5 88l88 147q51 88 123 121t186 33h113v-305h-37q-35 0 -65.5 -13.5t-57.5 -56.5l-41 -63q-23 -35 -53.5 -53.5t-66.5 -26.5l383 -510v-195h-320v195h-137l-262 412v-412h-379z" />
<glyph unicode="&#x49c;" horiz-adv-x="1462" d="M125 0v1434h426v-564h59v263h58v-263q43 0 76.5 35t70.5 117l92 207q55 123 144.5 169t214.5 46h116v-371h-24q-47 0 -87 -17.5t-69 -74.5l-55 -111q-23 -47 -55.5 -81.5t-81.5 -53.5l434 -735h-486l-290 600v-203h-58v203h-59v-600h-426z" />
<glyph unicode="&#x49d;" horiz-adv-x="1236" d="M119 0v1018h379v-406h43v131h51v-127h4q25 6 43 34t45 77l74 147q41 92 112.5 123t184.5 31h100v-311h-16q-35 0 -61.5 -9.5t-49.5 -39.5l-39 -64q-23 -35 -45 -56.5t-53 -29.5l326 -518h-424l-201 412v-189h-51v189h-43v-412h-379z" />
<glyph unicode="&#x49e;" horiz-adv-x="1497" d="M27 1042v205h135v187h426v-187h129v-205h-129v-165h28q47 0 88 31.5t89 113.5l116 207q66 119 152 167t215 48h143v-371h-47q-51 0 -90 -19.5t-78 -78.5l-71 -115q-27 -43 -68 -83t-100 -62l516 -715h-500l-393 612v-612h-426v1042h-135z" />
<glyph unicode="&#x49f;" horiz-adv-x="1277" d="M25 760v196h133v62h381v-62h102v-196h-102v-148h16q39 0 66.5 27t62.5 88l88 147q51 88 123 121t186 33h115v-305h-37q-37 0 -67.5 -13.5t-57.5 -56.5l-41 -63q-23 -35 -52.5 -53.5t-68.5 -26.5l385 -510h-458l-260 412v-412h-381v760h-133z" />
<glyph unicode="&#x4a0;" horiz-adv-x="1626" d="M20 1069v365h695l2 -557h28q47 0 88 31.5t89 113.5l116 207q66 119 152 167t215 48h143v-371h-47q-51 0 -90 -19.5t-78 -78.5l-71 -115q-27 -43 -68 -83t-100 -62l516 -715h-500l-393 612v-612h-428v1069h-269z" />
<glyph unicode="&#x4a1;" horiz-adv-x="1378" d="M25 729v289h614v-406h16q39 0 67 27t62 88l88 147q51 88 123 121t187 33h114v-305h-36q-37 0 -68 -13.5t-57 -56.5l-41 -63q-23 -35 -52.5 -53.5t-68.5 -26.5l385 -510h-459l-260 412v-412h-381v729h-233z" />
<glyph unicode="&#x4a2;" horiz-adv-x="1589" d="M125 0v1434h426v-545h399v545h428v-1078h174v-573h-393v217h-209v535h-399v-535h-426z" />
<glyph unicode="&#x4a3;" horiz-adv-x="1374" d="M119 0v1018h379v-348h301v348h379v-703h155v-510h-342v195h-192v354h-301v-354h-379z" />
<glyph unicode="&#x4a4;" horiz-adv-x="1693" d="M125 0v1434h426v-545h399v545h723v-365h-295v-1069h-428v535h-399v-535h-426z" />
<glyph unicode="&#x4a5;" horiz-adv-x="1470" d="M119 0v1018h379v-348h301v348h647v-289h-268v-729h-379v354h-301v-354h-379z" />
<glyph unicode="&#x4a6;" horiz-adv-x="1609" d="M125 0v1434h1251v-1078h195v-573h-393v217h-228v1077h-399v-1077h-426z" />
<glyph unicode="&#x4a7;" horiz-adv-x="1353" d="M119 0v1018h1052v-703h156v-510h-342v195h-194v702h-293v-702h-379z" />
<glyph unicode="&#x4a8;" horiz-adv-x="1716" d="M53 729q0 156 44 289t127 232.5t204 157.5t274 65v-390q-123 -8 -187 -102t-64 -240q0 -80 22.5 -150.5t65.5 -125.5t104.5 -92t138.5 -49v659q0 123 34 215t91.5 152.5t133 90t161.5 29.5q96 0 179 -23.5t143.5 -78.5t95.5 -148.5t35 -232.5v-252q0 -125 -36 -242.5 t-104.5 -216t-170 -171t-230.5 -109.5v-62q12 -72 113 -71h96v-303h-195q-76 0 -139 15t-108 55t-71 105.5t-28 168.5v61q-174 12 -309 78t-228 169t-142.5 236.5t-49.5 280.5zM1112 383q88 51 135 145t49 207v269q0 78 -20.5 118.5t-69.5 40.5q-94 0 -94 -155v-625z" />
<glyph unicode="&#x4a9;" horiz-adv-x="1318" d="M53 526q0 111 31 204t90 162t146.5 109.5t199.5 45.5v-328q-76 -10 -111.5 -67.5t-35.5 -143.5q0 -92 48 -158.5t142 -83.5v430q0 102 31 170t80 108t108.5 56.5t118.5 16.5q61 0 121.5 -16.5t110 -56.5t79 -106.5t29.5 -167.5v-182q0 -90 -27.5 -172t-80 -151.5 t-130 -120.5t-176.5 -78v-117q2 -74 80 -74h70v-247h-129q-61 0 -113.5 12t-90.5 46t-59.5 92.5t-21.5 150.5v116q-121 10 -216 58.5t-160.5 122t-99.5 170t-34 200.5zM827 315q51 35 79 88t28 119v113q0 92 -12.5 131t-40.5 39q-53 0 -54 -111v-379z" />
<glyph unicode="&#x4aa;" horiz-adv-x="1640" d="M53 717q0 150 52.5 286t152.5 240.5t242.5 167t324.5 62.5q174 0 309.5 -49.5t230.5 -135.5t151.5 -200.5t70.5 -243.5h-446q-18 102 -94 171.5t-209 69.5q-86 0 -151.5 -30.5t-108.5 -80.5t-66 -116.5t-23 -140.5q0 -78 25 -145.5t71 -116.5t111.5 -78t149.5 -29 q119 0 196.5 63.5t98.5 153.5h450q-16 -117 -68.5 -220t-137.5 -183t-200.5 -132.5t-260.5 -64.5v-74q12 14 35.5 25.5t64.5 11.5q39 0 71.5 -16t54 -42t34 -59.5t12.5 -68.5q0 -43 -15.5 -81t-45 -66.5t-73.5 -46t-104 -17.5q-45 0 -86 13.5t-73.5 38t-53 62.5t-22.5 87 h172q4 -25 20.5 -41.5t42.5 -16.5q29 0 47.5 19.5t18.5 48.5q0 27 -17.5 45t-43.5 18q-45 0 -60 -30h-158v190q-164 14 -292.5 82t-218 169t-135.5 230t-46 271z" />
<glyph unicode="&#x4ab;" horiz-adv-x="1263" d="M55 508q0 109 37 207t110.5 172t182.5 117t252 43q135 0 237.5 -37t173 -98.5t109.5 -143.5t49 -174h-401q-10 53 -50 87t-114 34q-47 0 -82 -17.5t-57.5 -46t-33.5 -65.5t-11 -78t11 -78t33.5 -65.5t59.5 -45t86 -16.5q66 0 102.5 28.5t53.5 80.5h403q-10 -88 -48 -165 t-102.5 -135.5t-155.5 -94t-208 -44.5v-73q10 14 35 25.5t64 11.5q41 0 72.5 -16.5t54 -42t35 -59.5t12.5 -69q0 -43 -15.5 -81t-45.5 -66.5t-75 -46t-102 -17.5q-45 0 -87 13.5t-73.5 38t-53 62.5t-24.5 87h173q4 -25 21 -41t44 -16q29 0 46.5 19t17.5 48q0 27 -16.5 45.5 t-45.5 18.5q-43 0 -57 -31h-158v199q-113 18 -199 66t-143 119t-87 158t-30 183z" />
<glyph unicode="&#x4ac;" horiz-adv-x="1097" d="M41 1069v365h1016v-365h-295v-713h174v-573h-393v217h-207v1069h-295z" />
<glyph unicode="&#x4ad;" horiz-adv-x="974" d="M20 702v316h934v-316h-276v-387h153v-510h-339v195h-195v702h-277z" />
<glyph unicode="&#x4ae;" horiz-adv-x="1464" d="M14 1434h480l237 -510l240 510h479l-506 -938v-496h-424v496z" />
<glyph unicode="&#x4af;" horiz-adv-x="1239" d="M14 1018h420l184 -549l189 549h420l-398 -946v-488h-421v488z" />
<glyph unicode="&#x4b0;" horiz-adv-x="1464" d="M14 1434h480l237 -510l240 510h479l-496 -918v-33h213v-211h-223v-272h-424v272h-223v211h211v33z" />
<glyph unicode="&#x4b1;" horiz-adv-x="1239" d="M14 1018h420l184 -549l189 549h420l-398 -946v-72h166v-203h-166v-213h-421v213h-164v203h164v72z" />
<glyph unicode="&#x4b2;" horiz-adv-x="1370" d="M12 0l426 717l-426 717h465l207 -410l207 410h467l-426 -717l426 -717v-205h-369v205h-98l-207 410l-207 -410h-465z" />
<glyph unicode="&#x4b3;" horiz-adv-x="1239" d="M12 0l367 514l-361 504h465l135 -258l138 258h465l-359 -504l365 -514v-195h-320v195h-145l-144 268l-141 -268h-465z" />
<glyph unicode="&#x4b4;" horiz-adv-x="1767" d="M20 1069v365h936v-365h-215v-713h371v1078h428v-1078h195v-571h-387v215h-1033v1069h-295z" />
<glyph unicode="&#x4b5;" horiz-adv-x="1525" d="M25 729v289h780v-289h-152v-414h291v703h379v-703h156v-510h-342v195h-863v729h-249z" />
<glyph unicode="&#x4b6;" horiz-adv-x="1484" d="M45 858v576h426v-484q0 -135 58.5 -190t158.5 -55h137v729h428v-1078h195v-573h-395v217h-228v397h-297q-109 0 -196.5 35t-152 96.5t-99.5 145.5t-35 184z" />
<glyph unicode="&#x4b7;" horiz-adv-x="1253" d="M47 623v395h381v-342q0 -139 143 -139h107v481h379v-703h155v-510h-342v195h-192v268h-258q-178 0 -275.5 88t-97.5 267z" />
<glyph unicode="&#x4b8;" horiz-adv-x="1378" d="M45 858v576h426v-484q0 -117 44 -173t122 -68v157h92v-161h96v729h428v-1434h-428v397h-96v-141h-92v141h-117q-106 2 -193 37t-149.5 96.5t-97.5 145.5t-35 182z" />
<glyph unicode="&#x4b9;" horiz-adv-x="1175" d="M47 623v395h381v-342q0 -121 102 -135v159h76v-163h72v481h379v-1018h-379v268h-72v-149h-76v149h-110q-178 0 -275.5 88t-97.5 267z" />
<glyph unicode="&#x4ba;" horiz-adv-x="1320" d="M125 0v1434h385v-383h211q158 0 245 -40t140 -100q53 -57 79.5 -147t26.5 -252v-512h-385v492q0 115 -47 168t-151 53h-119v-713h-385z" />
<glyph unicode="&#x4bb;" horiz-adv-x="1282" d="M119 0v1434h381v-566q41 76 123 125t202 49q172 0 254 -92q57 -59 76 -148t19 -204v-598h-381v516q0 92 -31 142.5t-109 50.5q-154 0 -153 -211v-498h-381z" />
<glyph unicode="&#x4bc;" horiz-adv-x="2004" d="M16 893v119h258v-80q0 -43 25 -69.5t66 -26.5h57q18 133 77.5 248.5t157 201.5t231.5 136.5t302 50.5q176 0 317.5 -58.5t239.5 -159t151.5 -233t53.5 -279.5v-27.5t-1 -37t-2 -36.5t-1 -26h-1088q18 -135 97 -211.5t229 -76.5q127 0 193.5 50t95.5 120h456 q-18 -98 -75.5 -194.5t-151.5 -171.5t-223 -121t-291 -46q-172 0 -308.5 51.5t-233.5 139.5t-154.5 206.5t-73.5 253.5h-131q-61 0 -111.5 20.5t-86.5 57.5t-55.5 88.5t-19.5 110.5zM864 836h643q-16 129 -102 202.5t-225 73.5q-127 0 -213 -70.5t-103 -205.5z" />
<glyph unicode="&#x4bd;" horiz-adv-x="1593" d="M16 694v119h252v-98q0 -43 24.5 -70t65.5 -27h29q16 92 60.5 170t116 135.5t169.5 90.5t225 33q139 0 246 -40t179.5 -105.5t110.5 -150.5t38 -176q0 -35 -2 -70.5t-10 -80.5h-742q2 -37 11.5 -71t30 -59.5t56 -41.5t89.5 -16q68 0 108.5 28.5t52.5 73.5h390 q-12 -78 -55.5 -145.5t-113 -116.5t-166 -77t-214.5 -28q-256 0 -406.5 121t-177.5 332h-92q-123 0 -199 75.5t-76 194.5zM778 618h352q0 84 -47 131.5t-127 47.5q-78 0 -128 -46t-50 -133z" />
<glyph unicode="&#x4be;" horiz-adv-x="2004" d="M16 893v119h258v-80q0 -43 25 -69.5t66 -26.5h57q18 133 77.5 248.5t157 201.5t231.5 136.5t302 50.5q176 0 317.5 -58.5t239.5 -159t151.5 -232.5t53.5 -280v-27.5t-1 -37t-2 -36.5t-1 -26h-1088q18 -135 97 -211.5t229 -76.5q127 0 193.5 50t95.5 120h456 q-16 -90 -65 -178.5t-130 -161t-192.5 -122.5t-249.5 -65q-27 -25 -42 -57.5t-15 -73.5q0 -43 24.5 -75.5t69.5 -32.5q25 0 55.5 6t59.5 18l-8 -159q-47 -16 -93.5 -23.5t-109.5 -7.5q-147 0 -214 58.5t-67 139.5q0 117 111 209q-145 18 -258 74.5t-195 141.5t-130 195 t-62 232h-131q-61 0 -111.5 20.5t-86.5 57.5t-55.5 88.5t-19.5 110.5zM864 836h643q-16 129 -102 202.5t-225 73.5q-127 0 -213 -70.5t-103 -205.5z" />
<glyph unicode="&#x4bf;" horiz-adv-x="1593" d="M16 694v119h252v-98q0 -43 24.5 -70t65.5 -27h29q16 92 60.5 170t116 135.5t169.5 90.5t225 33q139 0 246 -40t179.5 -105.5t110.5 -150.5t38 -176q0 -35 -2 -70.5t-10 -80.5h-742q2 -37 11.5 -71t30 -59.5t56 -41.5t89.5 -16q68 0 108.5 28.5t52.5 73.5h390 q-12 -72 -47 -133.5t-92.5 -108.5t-136.5 -78.5t-177 -42.5q-29 -25 -51.5 -58.5t-22.5 -76.5t24.5 -75.5t69.5 -32.5q25 0 55.5 6t59.5 18l-8 -159q-47 -16 -93 -23.5t-110 -7.5q-145 0 -211.5 58.5t-66.5 139.5q0 114 127 218q-197 29 -313.5 144.5t-139.5 297.5h-92 q-123 0 -199 75.5t-76 194.5zM778 618h352q0 84 -47 131.5t-127 47.5q-78 0 -128 -46t-50 -133z" />
<glyph unicode="&#x4c0;" horiz-adv-x="679" d="M125 0v1434h430v-1434h-430z" />
<glyph unicode="&#x4c3;" horiz-adv-x="1441" d="M125 0v1434h426v-611h35q49 0 86 29t78 115l124 262q57 123 146.5 169t218.5 46h143v-371h-45q-53 0 -92 -19.5t-76 -78.5l-82 -129q-16 -27 -47.5 -55.5t-70.5 -42.5q156 -25 241 -127q43 -51 63.5 -129t20.5 -207v-367q0 -106 -26.5 -176t-74.5 -111t-115.5 -57 t-149.5 -16q-23 0 -57.5 2t-69.5 5t-64.5 6t-44.5 7v289q14 -4 43 -4h47q47 0 74 23.5t27 72.5v381q0 117 -41 173t-142 56h-149v-569h-426z" />
<glyph unicode="&#x4c4;" horiz-adv-x="1255" d="M119 0v1018h379v-408h18q39 0 65.5 27t63.5 90l88 147q51 88 123 121t186 33h113v-305h-37q-35 0 -65.5 -13.5t-57.5 -56.5l-39 -59q-16 -25 -39.5 -42t-60.5 -28q70 -12 116 -38.5t81 -67.5q72 -80 71 -236v-266q0 -106 -24.5 -176t-69.5 -110t-108.5 -56t-141.5 -16 h-221v295h74q104 0 110 90v290q0 82 -32.5 127.5t-112.5 45.5h-100v-406h-379z" />
<glyph unicode="&#x4c5;" horiz-adv-x="1624" d="M20 -35v324h95q100 0 100 82v1063h1217v-1223h174l-150 -397h-391l70 186h-129v1077h-365v-753q0 -106 -29.5 -176t-84 -110t-127 -56.5t-158.5 -16.5h-222z" />
<glyph unicode="&#x4c6;" horiz-adv-x="1392" d="M27 -33v320h57q90 0 90 82v649h1034v-807h160l-149 -397h-345l70 186h-115v702h-280v-376q0 -174 -86 -266.5t-297 -92.5h-139z" />
<glyph unicode="&#x4c7;" horiz-adv-x="1501" d="M125 0v1434h426v-545h399v545h428v-1516q0 -106 -23.5 -176t-67.5 -111t-105.5 -57t-134.5 -16h-285v305h90q98 0 98 90v582h-399v-535h-426z" />
<glyph unicode="&#x4c8;" horiz-adv-x="1290" d="M119 0v1018h379v-348h301v348h379v-1100q0 -113 -24 -183.5t-64.5 -109.5t-97 -53t-122.5 -14q-10 0 -48 1t-82 2t-79.5 2t-39.5 3v295q6 -2 18 -3t25.5 -1h24.5h13q47 0 72 21.5t25 70.5v405h-301v-354h-379z" />
<glyph unicode="&#x4c9;" horiz-adv-x="1521" d="M125 0v1434h426v-545h399v545h428v-1223h174l-149 -397h-393l69 186h-129v535h-399v-535h-426z" />
<glyph unicode="&#x4ca;" d="M119 0v1018h379v-348h301v348h379v-807h159l-149 -397h-344l69 186h-114v354h-301v-354h-379z" />
<glyph unicode="&#x4cb;" horiz-adv-x="1378" d="M45 858v576h426v-484q0 -135 58.5 -190t158.5 -55h137v729h428v-1434h-209v-215h-393v426h174v186h-297q-109 0 -196.5 35t-152 96.5t-99.5 145.5t-35 184z" />
<glyph unicode="&#x4cc;" horiz-adv-x="1253" d="M47 623v395h381v-342q0 -139 143 -139h107v481h379v-703h155v-510h-342v195h-192v268h-258q-178 0 -275.5 88t-97.5 267z" />
<glyph unicode="&#x4cd;" horiz-adv-x="1996" d="M125 0v1434h543l303 -926l305 926h528v-1223h174l-149 -397h-391l69 186h-116v889l-261 -889h-315l-276 889v-889h-414z" />
<glyph unicode="&#x4ce;" horiz-adv-x="1814" d="M119 0v1018h540l213 -637l213 637h541v-807h158l-150 -397h-336l70 186h-117v662l-252 -662h-256l-249 662v-662h-375z" />
<glyph unicode="&#x4d0;" horiz-adv-x="1531" d="M8 0l529 1434h446l541 -1434h-475l-50 166h-481l-49 -166h-461zM291 1937h295q14 -59 55 -102t119 -43t119 43t57 102h293q-12 -94 -54 -165.5t-104.5 -120.5t-142.5 -74t-168 -25q-90 0 -169 25t-141.5 74t-103.5 120.5t-55 165.5zM608 475h303l-151 529z" />
<glyph unicode="&#x4d1;" horiz-adv-x="1355" d="M53 508q0 119 35 218t97.5 169t149.5 108.5t191 38.5q55 0 105.5 -15t91.5 -40.5t70.5 -57.5t42.5 -63v152h403v-1018h-403v152q-12 -31 -42 -63t-71 -57.5t-91 -42t-106 -16.5q-104 0 -191 39t-149.5 108.5t-97.5 168t-35 219.5zM211 1532h295q14 -59 55 -102.5 t119 -43.5t119 43.5t57 102.5h293q-12 -94 -54 -166t-104.5 -121t-142.5 -73.5t-168 -24.5q-90 0 -169 24.5t-141.5 73.5t-103.5 121t-55 166zM455 508q0 -82 52 -141.5t138 -59.5t138.5 59.5t52.5 141.5q0 84 -52.5 142.5t-138.5 58.5t-138 -58.5t-52 -142.5z" />
<glyph unicode="&#x4d2;" horiz-adv-x="1531" d="M8 0l529 1434h446l541 -1434h-475l-50 166h-481l-49 -166h-461zM281 1739q0 45 17 85t47 70.5t70 48t87 17.5t88 -17.5t70.5 -48t47 -70.5t17.5 -85q0 -43 -17.5 -83t-47 -70t-70.5 -47t-88 -17t-87 17t-70 47t-47 70t-17 83zM608 475h303l-151 529zM797 1739q0 45 17 85 t47 70.5t70 48t87 17.5t88 -17.5t70.5 -48t47 -70.5t17.5 -85q0 -43 -17.5 -83t-47 -70t-70.5 -47t-88 -17t-87 17t-70 47t-47 70t-17 83z" />
<glyph unicode="&#x4d3;" horiz-adv-x="1355" d="M53 508q0 119 35 218t97.5 169t149.5 108.5t191 38.5q55 0 105.5 -15t91.5 -40.5t70.5 -57.5t42.5 -63v152h403v-1018h-403v152q-12 -31 -42 -63t-71 -57.5t-91 -42t-106 -16.5q-104 0 -191 39t-149.5 108.5t-97.5 168t-35 219.5zM160 1321q0 45 17.5 85t47 70.5t69.5 48 t87 17.5t88 -17.5t70.5 -48t47 -70.5t17.5 -85q0 -43 -17.5 -83t-47 -69.5t-70.5 -47t-88 -17.5t-87 17.5t-69.5 47t-47 69.5t-17.5 83zM455 508q0 -82 52 -141.5t138 -59.5t138.5 59.5t52.5 141.5q0 84 -52.5 142.5t-138.5 58.5t-138 -58.5t-52 -142.5zM676 1321 q0 45 17.5 85t47 70.5t69.5 48t87 17.5t88 -17.5t70.5 -48t47 -70.5t17.5 -85q0 -43 -17.5 -83t-47 -69.5t-70.5 -47t-88 -17.5t-87 17.5t-69.5 47t-47 69.5t-17.5 83z" />
<glyph unicode="&#x4d4;" horiz-adv-x="1957" d="M8 0l678 1434h1161v-320h-495v-250h495v-305h-495v-240h495v-319h-921v166h-383l-70 -166h-465zM672 475h254v586z" />
<glyph unicode="&#x4d5;" horiz-adv-x="2066" d="M63 508q0 119 35 218t97.5 169t149.5 108.5t192 38.5q55 0 105 -15t91 -40.5t71 -57.5t44 -63v152h340v-12q106 41 239 41q139 0 246 -40t179.5 -105.5t110.5 -150.5t38 -176q0 -35 -2 -70.5t-10 -80.5h-738q0 -37 8.5 -71t30 -59.5t56 -41.5t88.5 -16q68 0 108.5 28.5 t52.5 73.5h390q-12 -78 -55.5 -145.5t-112 -116.5t-165 -77t-216.5 -28q-135 0 -246 41v-12h-342v152q-14 -31 -44 -63t-71 -57.5t-91 -42t-105 -16.5q-104 0 -191.5 39t-150 108.5t-97.5 168t-35 219.5zM467 508q0 -82 52 -141.5t136 -59.5q86 0 139.5 59.5t53.5 141.5 q0 86 -53.5 143.5t-139.5 57.5q-84 0 -136 -58.5t-52 -142.5zM1251 618h351q0 80 -48.5 126.5t-126.5 46.5t-126 -43t-50 -130z" />
<glyph unicode="&#x4d6;" horiz-adv-x="1159" d="M125 0v1434h924v-320h-498v-250h498v-305h-498v-240h498v-319h-924zM125 1937h295q14 -59 55 -102t119 -43t119 43t57 102h293q-12 -94 -54 -165.5t-104.5 -120.5t-142.5 -74t-168 -25q-90 0 -169 25t-141.5 74t-103.5 120.5t-55 165.5z" />
<glyph unicode="&#x4d7;" horiz-adv-x="1275" d="M55 508q0 111 37 209t109.5 171t181.5 116t254 43q139 0 245.5 -40t179.5 -105.5t110.5 -150.5t37.5 -176q0 -35 -2 -70.5t-10 -80.5h-741q2 -37 11 -71t29.5 -59.5t56.5 -41.5t89 -16q68 0 109 28.5t53 73.5h389q-12 -78 -55 -145.5t-113 -116.5t-166 -77t-215 -28 q-139 0 -247.5 38t-185.5 108.5t-117 169t-40 221.5zM174 1532h293q16 -59 57 -102.5t119 -43.5t119 43.5t57 102.5h293q-14 -94 -56 -166t-104.5 -121t-141.5 -73.5t-167 -24.5q-90 0 -169 24.5t-141.5 73.5t-103.5 121t-55 166zM457 618h352q0 84 -47 131.5t-127 47.5 q-78 0 -128 -46t-50 -133z" />
<glyph unicode="&#x4d8;" horiz-adv-x="1644" d="M53 696v26.5t1 38t2 37t1 27.5h1096q-16 133 -98 209t-236 76q-127 0 -193.5 -50t-95.5 -120h-456q18 98 75.5 194.5t151.5 171t223 121t291 46.5q188 0 333.5 -60.5t244 -164t148.5 -241t50 -288.5q0 -154 -51 -291t-150.5 -239.5t-244 -163t-330.5 -60.5 q-176 0 -317.5 59.5t-239.5 159t-151.5 232.5t-53.5 280zM498 606q16 -133 102 -206.5t225 -73.5q129 0 219.5 70.5t106.5 209.5h-653z" />
<glyph unicode="&#x4d9;" horiz-adv-x="1275" d="M66 442q0 35 2 71t10 81h741q-2 37 -11 70.5t-29.5 60.5t-56.5 42t-89 15q-68 0 -109 -27.5t-53 -72.5h-389q12 78 55 144.5t112.5 115.5t165 77t216.5 28q137 0 246.5 -38t186.5 -108t117 -169t40 -222q0 -111 -37 -208t-110 -171t-181.5 -117t-253.5 -43 q-139 0 -245.5 40t-179.5 105.5t-110.5 150.5t-37.5 175zM467 399q0 -84 47 -131t127 -47q78 0 128 46t50 132h-352z" />
<glyph unicode="&#x4da;" horiz-adv-x="1644" d="M53 696v26.5t1 38t2 37t1 27.5h1096q-16 133 -98 209t-236 76q-127 0 -193.5 -50t-95.5 -120h-456q18 98 75.5 194.5t151.5 171t223 121t291 46.5q188 0 333.5 -60.5t244 -164t148.5 -241t50 -288.5q0 -154 -51 -291t-150.5 -239.5t-244 -163t-330.5 -60.5 q-176 0 -317.5 59.5t-239.5 159t-151.5 232.5t-53.5 280zM346 1739q0 45 17.5 85t47 70.5t69.5 48t87 17.5t88 -17.5t71 -48t47.5 -70.5t17.5 -85q0 -43 -17.5 -83t-47.5 -70t-71 -47t-88 -17t-87 17t-69.5 47t-47 70t-17.5 83zM498 606q16 -133 102 -206.5t225 -73.5 q129 0 219.5 70.5t106.5 209.5h-653zM862 1739q0 45 17.5 85t47 70.5t69.5 48t87 17.5t88 -17.5t71 -48t47.5 -70.5t17.5 -85q0 -43 -17.5 -83t-47.5 -70t-71 -47t-88 -17t-87 17t-69.5 47t-47 70t-17.5 83z" />
<glyph unicode="&#x4db;" horiz-adv-x="1275" d="M66 442q0 35 2 71t10 81h741q-2 37 -11 70.5t-29.5 60.5t-56.5 42t-89 15q-68 0 -109 -27.5t-53 -72.5h-389q12 78 55 144.5t112.5 115.5t165 77t216.5 28q137 0 246.5 -38t186.5 -108t117 -169t40 -222q0 -111 -37 -208t-110 -171t-181.5 -117t-253.5 -43 q-139 0 -245.5 40t-179.5 105.5t-110.5 150.5t-37.5 175zM166 1321q0 45 17.5 85t47 70.5t69.5 48t87 17.5t88 -17.5t70.5 -48t47 -70.5t17.5 -85q0 -43 -17.5 -83t-47 -69.5t-70.5 -47t-88 -17.5t-87 17.5t-69.5 47t-47 69.5t-17.5 83zM467 399q0 -84 47 -131t127 -47 q78 0 128 46t50 132h-352zM682 1321q0 45 17.5 85t47 70.5t69.5 48t87 17.5t88 -17.5t71 -48t47 -70.5t17 -85q0 -43 -17 -83t-47 -69.5t-71 -47t-88 -17.5t-87 17.5t-69.5 47t-47 69.5t-17.5 83z" />
<glyph unicode="&#x4dc;" horiz-adv-x="2162" d="M10 0l512 719q-57 16 -99 53t-71 86l-67 127q-35 59 -75 80.5t-91 21.5h-43v357h127q127 0 224 -45t157 -164l104 -207q45 -90 81 -129t89 -39h16v574h414v-574h17q53 0 89 39t81 129l104 207q59 119 156.5 164t224.5 45h127v-357h-43q-51 0 -91 -21.5t-75 -80.5 l-68 -127q-29 -49 -70.5 -86t-99.5 -53l512 -719h-489l-375 612v-612h-414v612l-374 -612h-490zM602 1739q0 45 17.5 85t47 70.5t69.5 48t87 17.5t88 -17.5t72 -48t48.5 -70.5t17.5 -85q0 -43 -17.5 -83t-48.5 -70t-72 -47t-88 -17t-87 17t-69.5 47t-47 70t-17.5 83z M1118 1739q0 45 17.5 85t47 70.5t69.5 48t87 17.5t88 -17.5t71 -48t47.5 -70.5t17.5 -85q0 -43 -17.5 -83t-47.5 -70t-71 -47t-88 -17t-87 17t-69.5 47t-47 70t-17.5 83z" />
<glyph unicode="&#x4dd;" horiz-adv-x="1738" d="M10 0l369 510q-35 10 -65.5 32.5t-49.5 57.5l-35 57q-23 37 -49 54.5t-74 17.5h-47v299h127q55 0 100.5 -7t81 -24.5t65.5 -49.5t56 -81l82 -153q23 -41 45.5 -63.5t57.5 -22.5h14v391h363v-391h12q37 0 59.5 22.5t44.5 63.5l82 153q27 49 55.5 81t65.5 49.5t81 24.5 t101 7h127v-299h-47q-49 0 -75.5 -17.5t-49.5 -54.5l-32 -57q-20 -35 -51 -57.5t-66 -32.5l371 -510h-426l-252 412v-412h-363v412l-252 -412h-426zM391 1321q0 45 17.5 85t47 70.5t69.5 48t87 17.5t88 -17.5t71 -48t47.5 -70.5t17.5 -85q0 -43 -17.5 -83t-47.5 -69.5 t-71 -47t-88 -17.5t-87 17.5t-69.5 47t-47 69.5t-17.5 83zM907 1321q0 45 17.5 85t47 70.5t69.5 48t87 17.5t88 -17.5t71 -48t47.5 -70.5t17.5 -85q0 -43 -17.5 -83t-47.5 -69.5t-71 -47t-88 -17.5t-87 17.5t-69.5 47t-47 69.5t-17.5 83z" />
<glyph unicode="&#x4de;" horiz-adv-x="1339" d="M43 485h449q0 -92 41.5 -140t123.5 -48q78 0 113 44t35 99q0 80 -43 119t-141 39h-158v291h155q109 0 147 42t38 107q0 61 -38 95t-103 34q-80 0 -117 -43t-37 -120h-449q0 82 28 165.5t96.5 149t185 107.5t295.5 42q117 0 222 -20.5t187 -68.5t130 -125.5t48 -192.5 q0 -63 -22.5 -117.5t-58 -96.5t-81 -69.5t-92.5 -38.5q51 -12 99.5 -40.5t84.5 -73.5t57.5 -104.5t21.5 -131.5q0 -106 -50.5 -186t-132.5 -132.5t-187.5 -79t-217.5 -26.5q-178 0 -299 41t-195 111.5t-104.5 165t-30.5 202.5zM184 1755q0 45 17.5 85t47.5 71t69.5 48 t87.5 17q47 0 88 -17t71.5 -48t48 -71t17.5 -85q0 -43 -17.5 -83t-48 -69.5t-71.5 -47t-88 -17.5t-87 17.5t-70 47t-47.5 69.5t-17.5 83zM700 1755q0 45 17.5 85t47.5 71t69.5 48t87.5 17q47 0 88 -17t70.5 -48t47 -71t17.5 -85q0 -43 -17.5 -83t-47 -69.5t-70.5 -47 t-88 -17.5t-87 17.5t-70 47t-47.5 69.5t-17.5 83z" />
<glyph unicode="&#x4df;" horiz-adv-x="1124" d="M35 346h405q0 -59 28 -92t89 -33q43 0 69.5 22.5t26.5 63.5q0 113 -157 113h-111v203h104q86 0 124 28.5t38 79.5q0 41 -27.5 63.5t-70.5 22.5q-59 0 -81.5 -32.5t-22.5 -86.5h-400q0 61 22.5 124t81 113t159 81t255.5 31q98 0 186.5 -17.5t153 -52.5t102.5 -91.5 t38 -131.5q0 -59 -19.5 -102.5t-52.5 -71t-73 -42t-83 -18.5q49 -4 91 -19.5t75 -45t51.5 -73.5t18.5 -103q0 -78 -43 -137.5t-113 -98.5t-159 -58.5t-179 -19.5q-154 0 -256 31t-161.5 83t-84 120.5t-24.5 146.5zM96 1321q0 45 17.5 85t47 70.5t69.5 48t87 17.5t88 -17.5 t72 -48t48.5 -70.5t17.5 -85q0 -43 -17.5 -83t-48.5 -69.5t-72 -47t-88 -17.5t-87 17.5t-69.5 47t-47 69.5t-17.5 83zM586 1321q0 45 17.5 85t47 70.5t69.5 48t87 17.5t88 -17.5t70.5 -48t47 -70.5t17.5 -85q0 -43 -17.5 -83t-47 -69.5t-70.5 -47t-88 -17.5t-87 17.5 t-69.5 47t-47 69.5t-17.5 83z" />
<glyph unicode="&#x4e0;" horiz-adv-x="1347" d="M41 481h446q0 -78 44 -131t131 -53q82 0 117.5 48t35.5 108q0 84 -45 124.5t-149 40.5h-209l266 467h-520v349h1095l-338 -592q70 -12 132.5 -45t108.5 -84t72.5 -120t26.5 -153q0 -119 -49 -208t-131 -148t-187.5 -89t-217.5 -30q-174 0 -294 40t-195 108.5t-107.5 163 t-32.5 204.5z" />
<glyph unicode="&#x4e1;" horiz-adv-x="1265" d="M27 33h434q4 -68 40 -113t109 -45q78 0 115 53.5t37 139.5q0 104 -56.5 152t-154.5 48h-207l277 408h-482v342h1073l-356 -580q68 -12 127 -46t104.5 -86t71 -120.5t25.5 -150.5q0 -123 -47 -213t-125 -148.5t-178.5 -87t-208.5 -28.5q-168 0 -283 35.5t-184.5 99 t-100 150.5t-30.5 190z" />
<glyph unicode="&#x4e2;" horiz-adv-x="1531" d="M125 0v1434h426v-795l430 696v99h426v-1434h-426v795l-430 -697v-98h-426zM391 1608v270h774v-270h-774z" />
<glyph unicode="&#x4e3;" horiz-adv-x="1341" d="M119 0v1018h379v-561l346 475v86h379v-1018h-379v543l-346 -473v-70h-379zM281 1186v270h774v-270h-774z" />
<glyph unicode="&#x4e4;" horiz-adv-x="1531" d="M125 0v1434h426v-795l430 696v99h426v-1434h-426v795l-430 -697v-98h-426zM297 1739q0 45 17.5 85t47 70.5t69.5 48t87 17.5t88 -17.5t72 -48t48 -70.5t17 -85q0 -43 -17 -83t-48 -70t-72 -47t-88 -17t-87 17t-69.5 47t-47 70t-17.5 83zM813 1739q0 45 17.5 85t47 70.5 t69.5 48t87 17.5t88 -17.5t71 -48t47 -70.5t17 -85q0 -43 -17 -83t-47 -70t-71 -47t-88 -17t-87 17t-69.5 47t-47 70t-17.5 83z" />
<glyph unicode="&#x4e5;" horiz-adv-x="1341" d="M119 0v1018h379v-561l346 475v86h379v-1018h-379v543l-346 -473v-70h-379zM201 1321q0 45 17.5 85t47 70.5t69.5 48t87 17.5t88 -17.5t70.5 -48t47 -70.5t17.5 -85q0 -43 -17.5 -83t-47 -69.5t-70.5 -47t-88 -17.5t-87 17.5t-69.5 47t-47 69.5t-17.5 83zM717 1321 q0 45 17.5 85t47 70.5t69.5 48t87 17.5t88 -17.5t70.5 -48t47 -70.5t17.5 -85q0 -43 -17.5 -83t-47 -69.5t-70.5 -47t-88 -17.5t-87 17.5t-69.5 47t-47 69.5t-17.5 83z" />
<glyph unicode="&#x4e6;" horiz-adv-x="1660" d="M53 717q0 147 52.5 284.5t151.5 242t243.5 167t328.5 62.5t330 -62.5t245 -167t151.5 -242t52.5 -284.5t-52.5 -284.5t-151.5 -242t-245 -167t-330 -62.5t-328.5 62.5t-243.5 167t-151.5 241.5t-52.5 285zM342 1745q0 45 17.5 85t47 70.5t69.5 48t87 17.5t88 -17.5 t72 -48t48 -70.5t17 -85q0 -43 -17 -83t-48 -69.5t-72 -47t-88 -17.5t-87 17.5t-69.5 47t-47 69.5t-17.5 83zM483 717q0 -72 23.5 -138.5t67.5 -116.5t109 -81t146 -31q82 0 146.5 31t108.5 81t68 116.5t24 138.5t-24 138.5t-68 116.5t-108.5 80.5t-146.5 30.5t-146.5 -30.5 t-108.5 -80.5t-67.5 -116.5t-23.5 -138.5zM858 1745q0 45 17.5 85t47 70.5t69.5 48t87 17.5t88 -17.5t71 -48t47.5 -70.5t17.5 -85q0 -43 -17.5 -83t-47.5 -69.5t-71 -47t-88 -17.5t-87 17.5t-69.5 47t-47 69.5t-17.5 83z" />
<glyph unicode="&#x4e7;" horiz-adv-x="1292" d="M53 508q0 111 39 209t115 172t186.5 116t251.5 42t252 -42t186.5 -116t115.5 -172.5t40 -208.5q0 -111 -40 -208t-115.5 -170t-186.5 -116t-252 -43t-251.5 43t-186.5 116t-115 170t-39 208zM158 1321q0 45 17.5 85t47 70.5t69.5 48t87 17.5t88 -17.5t71.5 -48t48 -70.5 t17.5 -85q0 -43 -17.5 -83t-48 -69.5t-71.5 -47t-88 -17.5t-87 17.5t-69.5 47t-47 69.5t-17.5 83zM455 508q0 -84 52 -142.5t138 -58.5q88 0 139.5 58.5t51.5 142.5q0 86 -51.5 143.5t-139.5 57.5q-86 0 -138 -57.5t-52 -143.5zM674 1321q0 45 17.5 85t47 70.5t69.5 48 t87 17.5t88 -17.5t70.5 -48t47 -70.5t17.5 -85q0 -43 -17.5 -83t-47 -69.5t-70.5 -47t-88 -17.5t-87 17.5t-69.5 47t-47 69.5t-17.5 83z" />
<glyph unicode="&#x4e8;" horiz-adv-x="1660" d="M53 717q0 147 52.5 284.5t151.5 242t243.5 167t328.5 62.5t330 -62.5t245 -167t151.5 -242t52.5 -284.5t-52.5 -284.5t-151.5 -242t-245 -167t-330 -62.5t-328.5 62.5t-243.5 167t-151.5 241.5t-52.5 285zM496 627q12 -57 39.5 -107.5t70.5 -88.5t99 -59.5t124 -21.5 t124.5 21.5t99.5 59.5t70.5 88t39.5 108h-667zM496 811h667q-12 55 -40.5 105.5t-70.5 87t-98.5 58t-124.5 21.5t-123 -21.5t-98 -58t-71.5 -87t-40.5 -105.5z" />
<glyph unicode="&#x4e9;" horiz-adv-x="1292" d="M53 508q0 111 39 209t115 172t186.5 116t251.5 42t252 -42t186.5 -116t115.5 -172.5t40 -208.5q0 -111 -40 -208t-115.5 -170t-186.5 -116t-252 -43t-251.5 43t-186.5 116t-115 170t-39 208zM463 449q16 -61 63 -101.5t119 -40.5t119 40t63 102h-364zM463 569h364 q-16 59 -63 99.5t-119 40.5t-119 -40t-63 -100z" />
<glyph unicode="&#x4ea;" horiz-adv-x="1660" d="M53 717q0 147 52.5 284.5t151.5 242t243.5 167t328.5 62.5t330 -62.5t245 -167t151.5 -242t52.5 -284.5t-52.5 -284.5t-151.5 -242t-245 -167t-330 -62.5t-328.5 62.5t-243.5 167t-151.5 241.5t-52.5 285zM356 1749q0 45 17.5 84t46.5 68.5t68.5 47t86.5 17.5t88.5 -17.5 t71 -47t46 -68.5t16.5 -84q0 -43 -16.5 -83t-46 -68.5t-71 -46t-88.5 -17.5t-86.5 17.5t-68.5 46t-46.5 68.5t-17.5 83zM496 627q12 -57 39.5 -107.5t70.5 -88.5t99 -59.5t124 -21.5t124.5 21.5t99.5 59.5t70.5 88t39.5 108h-667zM496 811h667q-12 55 -40.5 105.5t-70.5 87 t-98.5 58t-124.5 21.5t-123 -21.5t-98 -58t-71.5 -87t-40.5 -105.5zM874 1749q0 45 16.5 84t46.5 68.5t68.5 47t86.5 17.5q47 0 87 -17.5t69.5 -47t47 -68.5t17.5 -84q0 -43 -17.5 -83t-47 -68.5t-69.5 -46t-87 -17.5t-86 17.5t-69 46t-46.5 68.5t-16.5 83z" />
<glyph unicode="&#x4eb;" horiz-adv-x="1292" d="M53 508q0 111 39 209t115 172t186.5 116t251.5 42t252 -42t186.5 -116t115.5 -172.5t40 -208.5q0 -111 -40 -208t-115.5 -170t-186.5 -116t-252 -43t-251.5 43t-186.5 116t-115 170t-39 208zM168 1335q0 45 16.5 85t46 70t68.5 47t86 17t88 -17t70.5 -47t47 -70t17.5 -85 q0 -43 -17.5 -82t-47 -67.5t-70.5 -46t-88 -17.5t-86 17.5t-68.5 46t-46 67.5t-16.5 82zM463 449q16 -61 63 -101.5t119 -40.5t119 40t63 102h-364zM463 569h364q-16 59 -63 99.5t-119 40.5t-119 -40t-63 -100zM684 1335q0 45 16.5 85t46 70t69.5 47t87 17t87 -17t70 -47 t46 -70t16 -85q0 -43 -16 -82t-46 -67.5t-70 -46t-87 -17.5t-87 17.5t-69.5 46t-46 67.5t-16.5 82z" />
<glyph unicode="&#x4ec;" horiz-adv-x="1624" d="M53 565h449q23 -90 103.5 -153.5t209.5 -63.5q121 0 199 62.5t100 185.5h-440v227h444q-20 119 -98 190.5t-201 71.5q-141 0 -218 -69.5t-97 -171.5h-447q14 129 68.5 243.5t148 200.5t225.5 135.5t302 49.5q182 0 325.5 -58.5t241.5 -160t150.5 -239.5t52.5 -298 q0 -162 -52.5 -300t-152.5 -239.5t-245.5 -159t-332.5 -57.5q-162 0 -289.5 48t-221 130t-149.5 192.5t-75 233.5zM324 1739q0 45 17 85t47 70.5t70 48t87 17.5t88 -17.5t71.5 -48t48 -70.5t17.5 -85q0 -43 -17.5 -83t-48 -70t-71.5 -47t-88 -17t-87 17t-70 47t-47 70 t-17 83zM840 1739q0 45 17 85t47 70.5t70 48t87 17.5t88 -17.5t70.5 -48t47 -70.5t17.5 -85q0 -43 -17.5 -83t-47 -70t-70.5 -47t-88 -17t-87 17t-70 47t-47 70t-17 83z" />
<glyph unicode="&#x4ed;" horiz-adv-x="1271" d="M53 412h404q12 -68 56 -109t130 -41q172 0 184 162h-276v164h276q-6 76 -49 122t-133 46q-88 0 -132 -45t-56 -117h-404q8 98 52.5 182t118 143.5t176 93.5t231.5 34q150 0 261.5 -43t183 -117t107.5 -172.5t36 -206.5q0 -109 -36 -206t-107.5 -171t-183.5 -117t-261 -43 q-129 0 -232.5 32t-177.5 90.5t-117 139t-51 179.5zM166 1321q0 45 17.5 85t47 70.5t69.5 48t87 17.5t88 -17.5t72 -48t48 -70.5t17 -85q0 -43 -17 -83t-48 -69.5t-72 -47t-88 -17.5t-87 17.5t-69.5 47t-47 69.5t-17.5 83zM682 1321q0 45 17.5 85t47 70.5t70.5 48t88 17.5 t87 -17.5t70 -48t47 -70.5t17 -85q0 -43 -17 -83t-47 -69.5t-70 -47t-87 -17.5t-88 17.5t-70.5 47t-47 69.5t-17.5 83z" />
<glyph unicode="&#x4ee;" horiz-adv-x="1398" d="M-6 1434h500l231 -510l217 510h475l-710 -1434h-480l248 506zM340 1608v270h774v-270h-774z" />
<glyph unicode="&#x4ef;" horiz-adv-x="1335" d="M106 -45h404q4 -63 44 -100t110 -37q78 0 116.5 40t38.5 138v184q-41 -80 -122 -126t-197 -46q-96 0 -169 31t-114 76q-57 59 -75.5 138t-18.5 193v572h403v-516q0 -92 31 -142.5t109 -50.5q154 0 153 211v498h402v-979q0 -129 -43 -224.5t-111 -148.5q-37 -29 -77 -49 t-88 -33.5t-107.5 -19.5t-135.5 -6q-143 0 -240 22.5t-169 79.5q-59 49 -100 121t-44 174zM301 1186v270h774v-270h-774z" />
<glyph unicode="&#x4f0;" horiz-adv-x="1398" d="M-6 1434h500l231 -510l217 510h475l-710 -1434h-480l248 506zM244 1739q0 45 16 84t46 68.5t69 47t86 17.5t88 -17.5t70.5 -47t47 -68.5t17.5 -84q0 -43 -17.5 -83t-47 -68.5t-70.5 -46t-88 -17.5t-86 17.5t-69 46t-46 68.5t-16 83zM760 1739q0 45 16.5 84t46 68.5 t69.5 47t87 17.5t87 -17.5t69.5 -47t46 -68.5t16.5 -84q0 -43 -16.5 -83t-46 -68.5t-69.5 -46t-87 -17.5t-87 17.5t-69.5 46t-46 68.5t-16.5 83z" />
<glyph unicode="&#x4f1;" horiz-adv-x="1335" d="M106 -45h404q4 -63 44 -100t110 -37q78 0 116.5 40t38.5 138v184q-41 -80 -122 -126t-197 -46q-96 0 -169 31t-114 76q-57 59 -75.5 138t-18.5 193v572h403v-516q0 -92 31 -142.5t109 -50.5q154 0 153 211v498h402v-979q0 -129 -43 -224.5t-111 -148.5q-37 -29 -77 -49 t-88 -33.5t-107.5 -19.5t-135.5 -6q-143 0 -240 22.5t-169 79.5q-59 49 -100 121t-44 174zM193 1321q0 45 17 85t46 69.5t69 47t87 17.5t87 -17.5t69.5 -47t47 -69.5t17.5 -85q0 -43 -17.5 -82t-47 -67.5t-69.5 -46t-87 -17.5t-87 17.5t-69 46t-46 67.5t-17 82zM709 1321 q0 45 16 85t46 69.5t70 47t87 17.5t87 -17.5t69.5 -47t47 -69.5t17.5 -85q0 -43 -17.5 -82t-47 -67.5t-69.5 -46t-87 -17.5t-87 17.5t-70 46t-46 67.5t-16 82z" />
<glyph unicode="&#x4f2;" horiz-adv-x="1398" d="M-6 1434h500l231 -510l217 510h475l-710 -1434h-480l248 506zM356 1628l256 393l238 -151l-346 -299zM756 1628l256 393l237 -151l-346 -299z" />
<glyph unicode="&#x4f3;" horiz-adv-x="1335" d="M106 -45h404q4 -63 44 -100t110 -37q78 0 116.5 40t38.5 138v184q-41 -80 -122 -126t-197 -46q-96 0 -169 31t-114 76q-57 59 -75.5 138t-18.5 193v572h403v-516q0 -92 31 -142.5t109 -50.5q154 0 153 211v498h402v-979q0 -129 -43 -224.5t-111 -148.5q-37 -29 -77 -49 t-88 -33.5t-107.5 -19.5t-135.5 -6q-143 0 -240 22.5t-169 79.5q-59 49 -100 121t-44 174zM336 1186l256 395l237 -154l-346 -299zM735 1186l256 395l238 -154l-346 -299z" />
<glyph unicode="&#x4f4;" horiz-adv-x="1378" d="M45 858v576h426v-484q0 -135 58.5 -190t158.5 -55h137v729h428v-1434h-428v397h-297q-109 0 -196.5 35t-152 96.5t-99.5 145.5t-35 184zM180 1739q0 45 17.5 84t46 68.5t68.5 47t87 17.5t88 -17.5t71 -47t46.5 -68.5t16.5 -84q0 -43 -16.5 -83t-46.5 -68.5t-71 -46 t-88 -17.5t-87 17.5t-68.5 46t-46 68.5t-17.5 83zM698 1739q0 45 16.5 84t46.5 68.5t68.5 47t85.5 17.5t87 -17.5t70 -47t47.5 -68.5t17.5 -84q0 -43 -17.5 -83t-47.5 -68.5t-69.5 -46t-87.5 -17.5q-47 0 -85.5 17.5t-68.5 46t-46.5 68.5t-16.5 83z" />
<glyph unicode="&#x4f5;" horiz-adv-x="1183" d="M55 623v395h379v-342q0 -139 144 -139h106v481h381v-1018h-381v268h-256q-178 0 -275.5 88t-97.5 267zM86 1321q0 45 17.5 85t47 70.5t70.5 48t88 17.5t88 -17.5t71 -48t47 -70.5t17 -85q0 -43 -17 -83t-47 -69.5t-71 -47t-88 -17.5t-88 17.5t-70.5 47t-47 69.5t-17.5 83 zM596 1321q0 45 17.5 85t47 70.5t70.5 48t88 17.5t87 -17.5t70 -48t47 -70.5t17 -85q0 -43 -17 -83t-47 -69.5t-70 -47t-87 -17.5t-88 17.5t-70.5 47t-47 69.5t-17.5 83z" />
<glyph unicode="&#x4f8;" horiz-adv-x="1914" d="M125 0v1434h426v-543h317q94 0 172 -35t133.5 -95.5t85 -141t29.5 -173.5q0 -90 -29.5 -170.5t-85 -142t-133 -97.5t-172.5 -36h-743zM498 1737q0 45 16 85t46 69.5t69 47t86 17.5t88 -17.5t70.5 -47t47 -69.5t17.5 -85q0 -43 -17.5 -82t-47 -67.5t-70.5 -46t-88 -17.5 t-86 17.5t-69 46t-46 67.5t-16 82zM551 297h143q78 0 119 43t41 106q0 27 -8 53.5t-26.5 47t-49.5 33t-76 12.5h-143v-295zM1014 1737q0 45 16.5 85t46 69.5t69.5 47t87 17.5t87 -17.5t69.5 -47t46 -69.5t16.5 -85q0 -43 -16.5 -82t-46 -67.5t-69.5 -46t-87 -17.5t-87 17.5 t-69.5 46t-46 67.5t-16.5 82zM1364 0v1434h426v-1434h-426z" />
<glyph unicode="&#x4f9;" horiz-adv-x="1703" d="M119 0v1018h375v-311h235q113 0 187.5 -31t119.5 -80t62.5 -112.5t17.5 -129.5q0 -57 -17.5 -119.5t-62.5 -114.5t-119.5 -86t-187.5 -34h-610zM365 1321q0 45 17 85t47 70.5t70 48t87 17.5t88 -17.5t71.5 -48t48 -70.5t17.5 -85q0 -43 -17.5 -83t-48 -69.5t-71.5 -47 t-88 -17.5t-87 17.5t-70 47t-47 69.5t-17 83zM494 231h131q57 0 88.5 33t31.5 84t-30.5 84t-87.5 33h-133v-234zM881 1321q0 45 17 85t47 70.5t71 48t88 17.5t87 -17.5t69.5 -48t47 -70.5t17.5 -85q0 -43 -17.5 -83t-47 -69.5t-69.5 -47t-87 -17.5t-88 17.5t-71 47t-47 69.5 t-17 83zM1184 0v1018h401v-1018h-401z" />
<glyph unicode="&#x2000;" horiz-adv-x="1010" />
<glyph unicode="&#x2001;" horiz-adv-x="2021" />
<glyph unicode="&#x2002;" horiz-adv-x="1010" />
<glyph unicode="&#x2003;" horiz-adv-x="2021" />
<glyph unicode="&#x2004;" horiz-adv-x="673" />
<glyph unicode="&#x2005;" horiz-adv-x="505" />
<glyph unicode="&#x2006;" horiz-adv-x="336" />
<glyph unicode="&#x2007;" horiz-adv-x="336" />
<glyph unicode="&#x2008;" horiz-adv-x="252" />
<glyph unicode="&#x2009;" horiz-adv-x="404" />
<glyph unicode="&#x200a;" horiz-adv-x="112" />
<glyph unicode="&#x2010;" horiz-adv-x="694" d="M68 483v303h559v-303h-559z" />
<glyph unicode="&#x2011;" horiz-adv-x="694" d="M68 483v303h559v-303h-559z" />
<glyph unicode="&#x2012;" horiz-adv-x="694" d="M68 483v303h559v-303h-559z" />
<glyph unicode="&#x2013;" horiz-adv-x="1030" d="M61 483v303h908v-303h-908z" />
<glyph unicode="&#x2014;" horiz-adv-x="2060" d="M82 483v303h1896v-303h-1896z" />
<glyph unicode="&#x2018;" horiz-adv-x="643" d="M82 1032q0 133 32.5 225.5t94 148.5t152 83t204.5 27v-144q-74 0 -125 -16.5t-86 -44.5q-33 -27 -49 -62t-20 -69q4 6 21.5 12t39.5 6q53 0 95 -18.5t72 -49t46 -72.5t16 -87q0 -49 -18 -92t-49 -76t-73 -51.5t-89 -18.5q-119 0 -191.5 83t-72.5 216z" />
<glyph unicode="&#x2019;" horiz-adv-x="643" d="M68 1280q0 49 18 91t49 75t73 51.5t89 18.5q119 0 191.5 -82t72.5 -217q0 -133 -32.5 -225.5t-95 -149t-153 -83t-202.5 -26.5v146q74 0 125 16t84 45q35 27 51 60.5t20 68.5q-4 -6 -22.5 -12t-38.5 -6q-106 0 -167.5 67.5t-61.5 161.5z" />
<glyph unicode="&#x201a;" horiz-adv-x="643" d="M68 180q0 49 18 91t49 75t73 51.5t89 18.5q119 0 191.5 -82t72.5 -217q0 -133 -32.5 -225.5t-95 -148.5t-153 -83t-202.5 -27v146q74 0 125 16.5t84 44.5q35 27 51 60.5t20 68.5q-4 -4 -22.5 -11t-38.5 -7q-106 0 -167.5 67.5t-61.5 161.5z" />
<glyph unicode="&#x201c;" horiz-adv-x="1179" d="M82 1032q0 133 32.5 225.5t94 148.5t152 83t204.5 27v-144q-74 0 -125 -16.5t-86 -44.5q-33 -27 -49 -62t-20 -69q4 6 21.5 12t39.5 6q53 0 95 -18.5t72 -49t46 -72.5t16 -87q0 -49 -18 -92t-49 -76t-73 -51.5t-89 -18.5q-119 0 -191.5 83t-72.5 216zM618 1032 q0 133 33 225.5t95.5 148.5t151.5 83t204 27v-144q-74 0 -125 -16.5t-84 -44.5q-35 -27 -51.5 -62t-20.5 -69q4 6 22.5 12t39.5 6q53 0 95 -18.5t71.5 -49t46 -72.5t16.5 -87q0 -49 -18.5 -92t-49 -76t-72.5 -51.5t-89 -18.5q-119 0 -192 83t-73 216z" />
<glyph unicode="&#x201d;" horiz-adv-x="1179" d="M68 1280q0 49 18 91t49 75t73 51.5t89 18.5q119 0 191.5 -82t72.5 -217q0 -133 -32.5 -225.5t-95 -149t-153 -83t-202.5 -26.5v146q74 0 125 16t84 45q35 27 51 60.5t20 68.5q-4 -4 -22.5 -11t-38.5 -7q-106 0 -167.5 67.5t-61.5 161.5zM604 1280q0 49 18.5 91t49 75 t72.5 51.5t90 18.5q119 0 191.5 -82t72.5 -217q0 -133 -33 -225.5t-94.5 -149t-151.5 -83t-205 -26.5v146q76 0 126.5 16t84.5 45q33 27 49.5 59.5t20.5 67.5q-4 -4 -22.5 -10t-38.5 -6q-106 0 -168 67.5t-62 161.5z" />
<glyph unicode="&#x201e;" horiz-adv-x="1179" d="M68 180q0 49 18 91t49 75t73 51.5t89 18.5q119 0 191.5 -82t72.5 -217q0 -133 -32.5 -225.5t-95 -148.5t-153 -83t-202.5 -27v146q74 0 125 16.5t84 44.5q35 27 51 60.5t20 68.5q-4 -4 -22.5 -11t-38.5 -7q-106 0 -167.5 67.5t-61.5 161.5zM604 180q0 49 18.5 91t49 75 t72.5 51.5t90 18.5q119 0 191.5 -82t72.5 -217q0 -133 -33 -225.5t-94.5 -148.5t-151.5 -83t-205 -27v146q76 0 126.5 16.5t84.5 44.5q33 27 49.5 60.5t20.5 68.5q-4 -4 -22.5 -11t-38.5 -7q-106 0 -168 67.5t-62 161.5z" />
<glyph unicode="&#x2022;" horiz-adv-x="763" d="M68 639q0 63 24.5 119.5t66.5 97.5t99 65.5t123 24.5q68 0 125 -24.5t100 -65.5t66.5 -97.5t23.5 -119.5t-23.5 -119.5t-66.5 -98.5t-100 -66.5t-125 -24.5q-66 0 -123 24.5t-99 66.5t-66.5 98.5t-24.5 119.5z" />
<glyph unicode="&#x2026;" horiz-adv-x="2064" d="M82 223q0 49 19.5 94t52 78t77.5 52.5t99 19.5q53 0 99 -19.5t80 -52.5t53.5 -78t19.5 -94q0 -51 -19.5 -95t-53.5 -78t-80 -53.5t-99 -19.5t-98.5 19.5t-78 53.5t-52 78t-19.5 95zM782 221q0 49 19.5 94t52.5 78t78 52.5t98 19.5t99.5 -19.5t80 -52.5t53 -78t19.5 -94 q0 -51 -19.5 -95t-53 -78t-80 -53.5t-99.5 -19.5t-98 19.5t-78 53.5t-52.5 78t-19.5 95zM1483 219q0 51 19.5 95t52 78t77.5 53.5t99 19.5q53 0 99 -19.5t80 -53.5t53 -78t19 -95t-19 -95t-53 -78t-80 -53.5t-99 -19.5t-98.5 19.5t-78 53.5t-52 78t-19.5 95z" />
<glyph unicode="&#x202f;" horiz-adv-x="404" />
<glyph unicode="&#x2039;" horiz-adv-x="628" d="M68 500v192l473 377v-332l-197 -141l197 -141v-332z" />
<glyph unicode="&#x203a;" horiz-adv-x="628" d="M88 123v332l199 141l-199 141v332l473 -377v-192z" />
<glyph unicode="&#x205f;" horiz-adv-x="505" />
<glyph unicode="&#x20ac;" horiz-adv-x="1390" d="M35 487l41 193h84v74h-125l41 192h84q0 106 40 200.5t116.5 166t185 113.5t248.5 42q131 0 238.5 -39.5t184 -108.5t119.5 -161t47 -194h-428q-4 66 -48 111.5t-113 45.5q-76 0 -120 -52t-44 -124h276l-41 -192h-235v-74h276l-41 -193h-235q0 -72 44 -124t120 -52 q74 0 118.5 52.5t44.5 123.5h426q0 -106 -42 -200t-118.5 -166t-185 -114t-243.5 -42q-139 0 -248 42t-185.5 114t-116.5 166t-40 200h-125z" />
<glyph unicode="&#x2122;" horiz-adv-x="1755" d="M49 1214v220h574v-220h-158v-614h-258v614h-158zM694 600v834h365l143 -514l141 514h359v-834h-250v567l-152 -567h-196l-160 567v-567h-250z" />
<glyph unicode="&#x25fc;" horiz-adv-x="1013" d="M0 0v1014h1014v-1014h-1014z" />
</font>
</defs>
</svg>
