<?xml version="1.0" standalone="no"?>
<!DOCTYPE svg PUBLIC "-//W3C//DTD SVG 1.1//EN" "http://www.w3.org/Graphics/SVG/1.1/DTD/svg11.dtd" >
<svg xmlns="http://www.w3.org/2000/svg" xmlns:xlink="http://www.w3.org/1999/xlink" version="1.1">
<metadata></metadata>
<defs>
<font id="gt_walsheim_proultra_bold" horiz-adv-x="1671" >
<font-face units-per-em="2048" ascent="1638" descent="-410" />
<missing-glyph horiz-adv-x="466" />
<glyph horiz-adv-x="0" />
<glyph unicode="&#xd;" horiz-adv-x="512" />
<glyph unicode=" "  horiz-adv-x="466" />
<glyph unicode="&#x09;" horiz-adv-x="466" />
<glyph unicode="&#xa0;" horiz-adv-x="466" />
<glyph unicode="!" horiz-adv-x="808" d="M113 236q0 55 22.5 105t61.5 88t91 59.5t113 21.5q63 0 116.5 -21.5t93.5 -59.5t62.5 -88t22.5 -105t-22.5 -104.5t-62.5 -86.5t-93 -58.5t-117 -21.5q-61 0 -113 21.5t-91 58.5t-61.5 86.5t-22.5 104.5zM143 571v863h523v-863h-523z" />
<glyph unicode="&#x22;" horiz-adv-x="972" d="M53 1073v361h369v-361l-94 -330h-181zM551 1073v361h369v-361l-95 -330h-180z" />
<glyph unicode="#" horiz-adv-x="1376" d="M39 272v318h211l35 254h-185v317h228l39 273h321l-39 -273h213l39 273h322l-39 -273h153v-317h-196l-35 -254h170v-318h-215l-37 -272h-322l37 272h-213l-37 -272h-321l37 272h-166zM571 590h213l35 254h-213z" />
<glyph unicode="$" horiz-adv-x="1394" d="M61 489h523q0 -74 34.5 -115.5t96.5 -41.5q47 0 70.5 21.5t23.5 56.5q0 18 -8 33.5t-32 30.5t-64.5 34.5t-108.5 46.5q-100 39 -192.5 80t-163 95t-113.5 131t-43 188q0 104 42 180t112.5 126t162 76.5t191.5 36.5v222h209v-220q160 -12 261 -60t159.5 -115.5t80 -145.5 t21.5 -150h-522q0 78 -22.5 113t-82.5 35q-35 0 -62.5 -18.5t-27.5 -59.5q0 -39 42 -70.5t151 -70.5q98 -35 193 -72t170 -92t122 -133t47 -195q0 -205 -134 -327.5t-396 -145.5v-219h-209v219q-256 23 -393.5 157t-137.5 369z" />
<glyph unicode="%" horiz-adv-x="1976" d="M111 915v248q0 59 23.5 112.5t68.5 93.5t110.5 63.5t149.5 23.5q80 0 145.5 -23.5t111.5 -63.5t70.5 -93t24.5 -113v-248q0 -59 -24.5 -112t-70.5 -93t-111.5 -63.5t-145.5 -23.5q-84 0 -149.5 23.5t-110.5 63.5t-68.5 93t-23.5 112zM408 915q0 -23 14 -41t41 -18 t41 18.5t14 40.5v248q0 23 -14.5 41.5t-40.5 18.5q-27 0 -41 -18.5t-14 -41.5v-248zM504 6l665 1548l291 -124l-665 -1549zM1159 270v248q0 59 23.5 112.5t68.5 93.5t110.5 63.5t149.5 23.5q80 0 145.5 -23.5t112 -63.5t71 -93t24.5 -113v-248q0 -59 -24.5 -112.5t-71 -93 t-112 -63.5t-145.5 -24q-84 0 -149.5 24t-110.5 63.5t-68.5 93t-23.5 112.5zM1456 270q0 -23 14.5 -41t40.5 -18q27 0 41.5 18.5t14.5 40.5v248q0 23 -14.5 41.5t-41.5 18.5t-41 -18.5t-14 -41.5v-248z" />
<glyph unicode="&#x26;" horiz-adv-x="1437" d="M66 377q0 68 20 128t54 106t78 79t93 45q-43 8 -87 38t-78.5 73t-57 98t-22.5 115q0 123 50 202.5t132 128t188.5 67t220.5 18.5q203 0 326 -46.5t188.5 -117t86 -154.5t20.5 -158h-522q0 68 -15.5 109t-76.5 41q-41 0 -63.5 -25.5t-22.5 -89.5q0 -53 34.5 -80.5 t96.5 -27.5v-355q-61 0 -91 -26.5t-30 -89.5q0 -47 26.5 -85t85.5 -38q53 0 83 34.5t34 100.5h-78v354h647v-354h-67q-2 -98 -30.5 -190.5t-100.5 -163t-198 -112.5t-324 -42q-109 0 -216.5 23.5t-192.5 73.5t-138 130t-53 191z" />
<glyph unicode="'" horiz-adv-x="462" d="M47 1073v361h369v-361l-94 -330h-181z" />
<glyph unicode="(" horiz-adv-x="851" d="M37 279v536q0 143 51 269t147.5 220.5t237.5 148.5t320 54v-422q-63 0 -112.5 -21.5t-83.5 -58t-51.5 -86t-17.5 -104.5v-536q0 -55 17.5 -104.5t51.5 -86.5t83 -58.5t113 -21.5v-422q-178 0 -319.5 54.5t-238 148.5t-147.5 220t-51 270z" />
<glyph unicode=")" horiz-adv-x="851" d="M59 8q63 0 112.5 21.5t83.5 58.5t51.5 86t17.5 105v536q0 55 -17.5 104.5t-51.5 86t-83 58t-113 21.5v422q178 0 319.5 -54t238 -148.5t147.5 -220.5t51 -269v-536q0 -143 -51 -269.5t-147.5 -220.5t-237.5 -148.5t-320 -54.5v422z" />
<glyph unicode="*" horiz-adv-x="970" d="M20 1040l84 242l265 -98l-11 284h256l-10 -284l262 98l84 -242l-248 -73l156 -215l-207 -150l-166 252l-166 -252l-206 150l155 215z" />
<glyph unicode="+" horiz-adv-x="1392" d="M211 406v354h309v307h354v-307h308v-354h-308v-310h-354v310h-309z" />
<glyph unicode="," horiz-adv-x="706" d="M39 252q0 59 21.5 112.5t60.5 92.5t90 61.5t111 22.5q72 0 131 -27t102 -75t66.5 -115.5t23.5 -149.5q0 -164 -40 -275.5t-116.5 -182t-186 -102.5t-249.5 -32v176q92 0 154.5 20.5t103.5 53.5q41 35 61.5 77t24.5 85q-6 -8 -28.5 -16.5t-46.5 -8.5q-66 0 -118 22.5 t-89 61.5t-56.5 90.5t-19.5 108.5z" />
<glyph unicode="-" horiz-adv-x="741" d="M72 483v355h598v-355h-598z" />
<glyph unicode="." horiz-adv-x="706" d="M61 256q0 57 22.5 109.5t61.5 91.5t92.5 61.5t114.5 22.5q63 0 116.5 -22.5t92.5 -61.5t61.5 -91.5t22.5 -109.5q0 -59 -22.5 -111.5t-61.5 -91.5t-92 -61.5t-117 -22.5q-61 0 -114.5 22.5t-92.5 61.5t-61.5 91.5t-22.5 111.5z" />
<glyph unicode="/" horiz-adv-x="1161" d="M53 -10l666 1548l350 -149l-666 -1549z" />
<glyph unicode="0" horiz-adv-x="1409" d="M72 492v450q0 109 43 205t123.5 169t198.5 116t268 43q145 0 261.5 -43t199.5 -116t127 -169t44 -205v-450q0 -109 -44 -205.5t-127 -169t-199.5 -115.5t-261.5 -43q-150 0 -268 43t-198.5 115.5t-123.5 169t-43 205.5zM594 492q0 -47 28.5 -82t82.5 -35q51 0 80.5 34.5 t29.5 82.5v450q0 47 -29.5 82t-80.5 35q-53 0 -82 -35t-29 -82v-450z" />
<glyph unicode="1" horiz-adv-x="987" d="M57 827v328q117 0 193 19.5t119 55.5t59 87t16 117h430v-1434h-522v827h-295z" />
<glyph unicode="2" horiz-adv-x="1388" d="M86 0q0 182 25.5 308t73.5 214t117 147.5t153 108.5q96 55 160.5 94t104.5 70t56.5 57.5t16.5 59.5q0 47 -24 68.5t-54 21.5q-47 0 -73 -32t-26 -118h-522q0 74 25.5 158t94.5 154.5t187.5 117t305.5 46.5q111 0 216 -21.5t188 -73t134 -136.5t51 -210q0 -150 -86 -258 t-266 -203q-66 -35 -113 -58t-79.5 -43.5t-48 -40t-15.5 -46.5h598v-385h-1200z" />
<glyph unicode="3" horiz-adv-x="1363" d="M61 487h523q0 -74 19.5 -114.5t78.5 -40.5q53 0 71.5 38t18.5 85q0 63 -28.5 89.5t-88.5 26.5h-194v355h190q78 0 104.5 27.5t26.5 80.5q0 63 -22.5 89t-63.5 26q-61 0 -76.5 -41t-15.5 -109h-522q0 74 20.5 158t86 154.5t188.5 117t325 46.5q113 0 220.5 -18.5 t189.5 -67t132 -128t50 -202.5q0 -59 -22.5 -114.5t-57 -98.5t-78.5 -73t-87 -38q49 -12 93 -45t77.5 -79t54 -106.5t20.5 -127.5q0 -111 -50 -191t-131 -130t-185.5 -73.5t-212.5 -23.5q-203 0 -331 44t-199.5 118t-97.5 169t-26 197z" />
<glyph unicode="4" horiz-adv-x="1464" d="M86 328v1106h522v-691h150v328h522v-328h127v-415h-127v-328h-522v328h-672z" />
<glyph unicode="5" horiz-adv-x="1417" d="M66 508h491q0 -61 39 -105.5t106 -44.5q68 0 107 46.5t39 113.5q0 57 -37 104.5t-102 47.5q-66 0 -95.5 -23.5t-46.5 -54.5h-454v842h1167v-355h-676v-164q37 35 100.5 63t159.5 28q127 0 217 -46.5t147.5 -118t84 -157.5t26.5 -166q0 -117 -41 -219t-120.5 -177 t-199.5 -119t-276 -44q-158 0 -276.5 43t-198.5 118t-120.5 175t-40.5 213z" />
<glyph unicode="6" horiz-adv-x="1355" d="M39 520q0 82 18.5 158t63.5 141l422 615h575l-258 -375q111 -25 197 -74q129 -76 192.5 -196.5t63.5 -268.5q0 -115 -41 -216t-122 -176t-199.5 -119t-274.5 -44t-274.5 44t-199.5 119t-122 176.5t-41 215.5zM530 520q0 -66 40 -107.5t106 -41.5t105.5 42t39.5 107 q0 66 -40 108t-105 42q-66 0 -106 -42t-40 -108z" />
<glyph unicode="7" horiz-adv-x="1300" d="M57 1018v416h1264l-610 -1434h-561l434 1018h-527z" />
<glyph unicode="8" horiz-adv-x="1374" d="M51 399q0 70 26.5 129.5t67.5 103.5t90.5 70.5t92.5 32.5q-41 10 -84 38t-77 70t-55.5 96t-21.5 116q0 88 39 164.5t116 133t187.5 89.5t255.5 33q143 0 255 -33t188.5 -89.5t115.5 -133t39 -164.5q0 -61 -21.5 -115.5t-55 -96.5t-76.5 -70t-84 -38q45 -10 93 -37.5 t88 -70.5t66.5 -101.5t26.5 -128.5q0 -92 -41 -172t-122 -139t-199.5 -93t-272.5 -34t-272.5 34t-199.5 94t-123 140t-42 172zM543 422q0 -53 37.5 -94t107.5 -41q68 0 105.5 41t37.5 94t-37.5 94t-105.5 41q-70 0 -107.5 -40t-37.5 -95zM563 1030q0 -47 33 -82t92 -35 t91 35t32 82t-31.5 82t-91.5 35q-59 0 -92 -35t-33 -82z" />
<glyph unicode="9" horiz-adv-x="1355" d="M43 913q0 115 41 216.5t122 176t199.5 118.5t274.5 44t274.5 -44t199.5 -118.5t122 -176t41 -216.5q0 -84 -19.5 -159.5t-62.5 -139.5l-422 -614h-575l256 375q-109 20 -193 71.5t-141.5 123t-87 159.5t-29.5 184zM535 913q0 -66 39.5 -107.5t105.5 -41.5t105.5 42 t39.5 107q0 66 -39.5 108t-105.5 42t-105.5 -42t-39.5 -108z" />
<glyph unicode=":" horiz-adv-x="708" d="M61 879q0 57 22.5 109t61.5 91t92.5 61.5t114.5 22.5q63 0 116.5 -22.5t92.5 -61.5t61.5 -91t22.5 -109q0 -59 -22.5 -111.5t-61.5 -91.5t-92 -61.5t-117 -22.5q-61 0 -114.5 22.5t-92.5 61.5t-61.5 91.5t-22.5 111.5zM63 256q0 57 23 109.5t61.5 91.5t92 61.5 t114.5 22.5q63 0 116.5 -22.5t92.5 -61.5t61.5 -91.5t22.5 -109.5q0 -59 -22.5 -111.5t-61.5 -91.5t-92 -61.5t-117 -22.5q-61 0 -114.5 22.5t-92 61.5t-61.5 91.5t-23 111.5z" />
<glyph unicode=";" horiz-adv-x="706" d="M61 252q0 59 21.5 112.5t60.5 92.5t90.5 61.5t110.5 22.5q72 0 131.5 -27t102.5 -75t66.5 -115.5t23.5 -149.5q0 -164 -40 -275.5t-117 -182t-186.5 -102.5t-248.5 -32v176q92 0 154.5 20.5t103.5 53.5q41 35 61.5 77t24.5 85q-6 -8 -28.5 -16.5t-47.5 -8.5 q-66 0 -118 22.5t-89 61.5t-56.5 90.5t-19.5 108.5zM61 879q0 57 22.5 109t61.5 91t92.5 61.5t114.5 22.5q63 0 116.5 -22.5t92.5 -61.5t61.5 -91t22.5 -109q0 -59 -22.5 -111.5t-61.5 -91.5t-92 -61.5t-117 -22.5q-61 0 -114.5 22.5t-92.5 61.5t-61.5 91.5t-22.5 111.5z " />
<glyph unicode="&#x3c;" horiz-adv-x="1392" d="M102 371v422l1145 370v-430l-571 -151l571 -152v-430z" />
<glyph unicode="=" horiz-adv-x="1392" d="M211 166v354h971v-354h-971zM211 641v354h971v-354h-971z" />
<glyph unicode="&#x3e;" horiz-adv-x="1392" d="M145 0v430l572 152l-572 151v430l1145 -370v-422z" />
<glyph unicode="?" horiz-adv-x="1236" d="M20 999q0 74 26 158t93.5 154.5t185 117t302.5 46.5q111 0 216 -21.5t188 -70t134.5 -127t51.5 -191.5q0 -90 -27 -150.5t-62.5 -101.5t-74.5 -66.5t-64 -44.5q-27 -23 -57.5 -54.5t-30.5 -76.5h-532q0 63 11 112.5t37.5 88.5t67.5 72t103 67q53 31 89 63t36 95 q0 41 -24.5 60.5t-59.5 19.5q-43 0 -70 -32t-27 -118h-512zM344 240q0 55 22.5 105t61.5 88t91 59.5t114 21.5q63 0 116.5 -21.5t93.5 -59.5t62.5 -88t22.5 -105t-22.5 -104.5t-62.5 -86.5t-93.5 -58.5t-116.5 -21.5q-61 0 -113.5 21.5t-91.5 58.5t-61.5 86.5t-22.5 104.5z " />
<glyph unicode="@" horiz-adv-x="1957" d="M41 535q0 209 74.5 375.5t200.5 283.5t291 178.5t343 61.5q203 0 380 -53.5t308 -155t206 -250t75 -338.5q0 -172 -39 -288t-106.5 -185.5t-155.5 -99t-186 -29.5q-137 0 -241.5 63.5t-139.5 180.5q-6 -23 -28 -48.5t-53.5 -47t-72.5 -37t-88 -15.5q-78 0 -145.5 28.5 t-117.5 82t-79 127t-29 166.5q0 92 31 166.5t82 127t117.5 81t140.5 28.5q47 0 88 -15.5t72.5 -37t53 -47t28.5 -45.5v127h342v-379q0 -66 6 -108t18.5 -65.5t29.5 -32.5t42 -9q49 0 72.5 74.5t23.5 254.5q0 115 -45 203t-128 148.5t-200.5 92t-261.5 31.5 q-123 0 -228.5 -37.5t-182 -113.5t-120.5 -186.5t-44 -257.5q0 -121 38 -233t116.5 -198t201.5 -137t293 -51q51 0 118.5 5t141.5 18.5t147.5 36t139.5 59.5l131 -258q-82 -45 -174 -76t-182.5 -49.5t-174.5 -25.5t-147 -7q-233 0 -416.5 74t-309.5 199.5t-191.5 291.5 t-65.5 351zM809 535q0 -53 35 -91t88 -38t89 37.5t36 91.5q0 53 -36 91t-89 38t-88 -38t-35 -91z" />
<glyph unicode="A" horiz-adv-x="1714" d="M10 0l545 1434h586l563 -1434h-588l-43 158h-452l-43 -158h-568zM719 516h256l-127 469z" />
<glyph unicode="B" horiz-adv-x="1439" d="M86 0v1434h807q147 0 239.5 -40t143.5 -98.5t69.5 -126t18.5 -122.5q0 -66 -23.5 -121.5t-60.5 -97.5t-81 -68.5t-83 -34.5q35 -4 79 -26.5t84 -63.5t67.5 -100.5t27.5 -139.5q0 -55 -18.5 -124.5t-68.5 -129t-142 -100.5t-240 -41h-819zM608 342h86q74 0 111 34t37 87 q0 18 -6.5 38.5t-22.5 38t-45 28t-74 10.5h-86v-236zM608 889h86q74 0 111 33.5t37 89.5q0 18 -6.5 38.5t-22.5 38t-45 27.5t-74 10h-86v-237z" />
<glyph unicode="C" horiz-adv-x="1667" d="M41 717q0 150 53 287t155.5 241.5t250 167t336.5 62.5q180 0 321 -53.5t240.5 -143.5t157 -211t69.5 -258h-545q-16 80 -73.5 135t-167.5 55q-68 0 -118 -23.5t-82 -62.5t-48.5 -90t-16.5 -106q0 -125 71 -204t194 -79q117 0 175 55.5t72 128.5h545 q-14 -133 -71.5 -252.5t-155.5 -209.5t-239.5 -143.5t-321.5 -53.5q-190 0 -339 62.5t-252.5 167t-156.5 241.5t-53 287z" />
<glyph unicode="D" horiz-adv-x="1552" d="M113 0v1434h647q178 0 317.5 -59.5t236.5 -158t147 -228.5t50 -271t-50 -271.5t-145 -228.5t-235.5 -157.5t-320.5 -59.5h-647zM635 436h78q61 0 110 22.5t84 61.5t53.5 90.5t18.5 106.5t-18.5 106t-53.5 90t-84 61.5t-110 22.5h-78v-561z" />
<glyph unicode="E" horiz-adv-x="1179" d="M113 0v1434h970v-375h-448v-170h448v-354h-448v-160h448v-375h-970z" />
<glyph unicode="F" horiz-adv-x="1173" d="M113 0v1434h970v-416h-448v-250h448v-397h-448v-371h-522z" />
<glyph unicode="G" horiz-adv-x="1695" d="M43 717q0 147 51 284.5t150.5 243t244 168t330.5 62.5q170 0 307.5 -46.5t234.5 -125t154.5 -182t67.5 -220.5h-588q-4 20 -15 43t-32.5 43.5t-54.5 33.5t-80 13q-72 0 -118 -27.5t-72.5 -73.5t-37 -104.5t-10.5 -119.5q0 -147 63.5 -238.5t199.5 -91.5q88 0 136 39 t58 98h-217v318h868v-318h-127q-18 -125 -73.5 -227.5t-148.5 -176t-222 -113.5t-291 -40q-188 0 -333.5 58.5t-244 161t-149.5 240.5t-51 298z" />
<glyph unicode="H" horiz-adv-x="1572" d="M113 0v1434h522v-508h303v508h522v-1434h-522v498h-303v-498h-522z" />
<glyph unicode="I" horiz-adv-x="747" d="M113 0v1434h522v-1434h-522z" />
<glyph unicode="J" horiz-adv-x="1384" d="M25 551h522q0 -63 28.5 -109.5t86.5 -46.5q51 0 82.5 34t31.5 120v885h522v-885q0 -172 -46 -285.5t-129 -179.5t-200.5 -92.5t-260.5 -26.5q-168 0 -288 44t-198 123t-114.5 185.5t-36.5 233.5z" />
<glyph unicode="K" horiz-adv-x="1560" d="M113 0v1434h522v-564l328 564h604l-488 -717l488 -717h-604l-328 561v-561h-522z" />
<glyph unicode="L" horiz-adv-x="1026" d="M113 0v1434h522v-994h340v-440h-862z" />
<glyph unicode="M" horiz-adv-x="2060" d="M113 0v1434h700l227 -856l228 856h680v-1434h-502v891l-211 -891h-383l-238 891v-891h-501z" />
<glyph unicode="N" horiz-adv-x="1687" d="M113 0v1434h522l418 -764v764h522v-1434h-522l-418 723v-723h-522z" />
<glyph unicode="O" d="M41 717q0 150 52 287t153.5 241.5t250 167t339.5 62.5q190 0 337.5 -62.5t249 -167t154.5 -242t53 -286.5q0 -150 -53 -287t-154.5 -241.5t-249 -167t-337.5 -62.5t-339 62.5t-250.5 167t-153.5 241.5t-52 287zM563 717q0 -55 18.5 -106.5t53.5 -89.5t85 -61.5t116 -23.5 t115.5 23.5t84.5 61.5t53.5 89.5t18.5 106.5t-18.5 106t-53.5 89t-85 61.5t-115 23.5q-66 0 -116 -23.5t-85 -61.5t-53.5 -89t-18.5 -106z" />
<glyph unicode="P" horiz-adv-x="1458" d="M113 0v1434h774q127 0 229.5 -44t175 -120t111.5 -176.5t39 -210.5q0 -111 -39 -210.5t-111.5 -175t-175 -119.5t-229.5 -44h-252v-334h-522zM635 723h125q68 0 108.5 47t40.5 113t-40 112.5t-107 46.5h-127v-319z" />
<glyph unicode="Q" d="M41 717q0 150 52 287t153.5 241.5t250 167t339.5 62.5q190 0 337.5 -62.5t249 -167t154.5 -241.5t53 -287q0 -178 -72.5 -335t-214.5 -265l123 -154q-129 -66 -229 -117q-43 -23 -85 -43t-75 -36q-37 -20 -71 -37l-170 229q-190 0 -339 62.5t-250.5 167t-153.5 241.5 t-52 287zM563 717q0 -55 18.5 -106.5t53.5 -89.5t85 -61.5t116 -23.5t115.5 23.5t84.5 61.5t53.5 89.5t18.5 106.5t-18.5 106t-53.5 89t-85 61.5t-115 23.5q-66 0 -116 -23.5t-85 -61.5t-53.5 -89t-18.5 -106z" />
<glyph unicode="R" horiz-adv-x="1521" d="M113 0v1434h776q127 0 229.5 -44t175 -120t111.5 -176.5t39 -210.5q0 -143 -63.5 -265t-180.5 -196l289 -422h-619l-235 334v-334h-522zM635 723h125q68 0 108.5 47t40.5 113t-40 112.5t-107 46.5h-127v-319z" />
<glyph unicode="S" horiz-adv-x="1394" d="M61 489h523q0 -74 34.5 -115.5t96.5 -41.5q47 0 70.5 21.5t23.5 56.5q0 18 -8 33.5t-32 30.5t-64.5 34.5t-108.5 46.5q-100 39 -192.5 80t-163 95t-113.5 131t-43 188q0 121 54.5 202.5t143.5 131t200.5 71t228.5 21.5q188 0 307 -46.5t186.5 -116t93 -153.5t25.5 -160 h-522q0 78 -22.5 113t-82.5 35q-35 0 -62.5 -18.5t-27.5 -59.5q0 -39 42 -70.5t151 -70.5q98 -35 193 -72t170 -92t122 -133t47 -195q0 -223 -160.5 -350t-472.5 -127q-305 0 -471 136t-166 394z" />
<glyph unicode="T" horiz-adv-x="1153" d="M51 993v441h1051v-441h-264v-993h-523v993h-264z" />
<glyph unicode="U" horiz-adv-x="1413" d="M66 508v926h522v-920q0 -49 34.5 -84t84.5 -35q49 0 83.5 35t34.5 84v920h523v-926q0 -123 -43 -224.5t-126 -173t-202 -111.5t-270 -40q-152 0 -271 40t-201.5 111.5t-125.5 173t-43 224.5z" />
<glyph unicode="V" horiz-adv-x="1628" d="M-33 1434h568l270 -951l268 951h588l-563 -1434h-586z" />
<glyph unicode="W" horiz-adv-x="2334" d="M-25 1434h553l217 -775l211 775h422l211 -775l217 775h553l-526 -1434h-473l-193 659l-192 -659h-473z" />
<glyph unicode="X" horiz-adv-x="1437" d="M-10 0l426 717l-426 717h565l164 -359l164 359h565l-426 -717l426 -717h-565l-164 358l-164 -358h-565z" />
<glyph unicode="Y" horiz-adv-x="1470" d="M-20 1434h614l154 -457l172 457h583l-710 -1434h-588l227 471z" />
<glyph unicode="Z" horiz-adv-x="1519" d="M49 0l619 1018h-531v416h1331l-618 -1018h561v-416h-1362z" />
<glyph unicode="[" horiz-adv-x="911" d="M113 -414v1921h757v-422h-266v-1077h266v-422h-757z" />
<glyph unicode="\" horiz-adv-x="1161" d="M53 1389l350 149l666 -1548l-350 -150z" />
<glyph unicode="]" horiz-adv-x="911" d="M41 8h266v1077h-266v422h758v-1921h-758v422z" />
<glyph unicode="^" horiz-adv-x="1251" d="M10 520l508 1016h223l500 -1016h-412l-200 481l-205 -481h-414z" />
<glyph unicode="_" horiz-adv-x="1290" d="M10 -41h1270v-256h-1270v256z" />
<glyph unicode="`" horiz-adv-x="806" d="M23 1206l83 301l676 -225l-84 -301z" />
<glyph unicode="a" horiz-adv-x="1433" d="M57 524q0 129 35 231.5t96.5 173t146.5 108.5t187 38q61 0 114.5 -18.5t95.5 -46t69.5 -61.5t38.5 -62v164h491v-1051h-491v162q-10 -29 -38 -62.5t-70 -61.5t-95 -46.5t-115 -18.5q-102 0 -187 38t-146.5 108.5t-96.5 173t-35 231.5zM549 524q0 -61 41 -105t104 -44 t104.5 44t41.5 105t-41 105.5t-105 44.5q-63 0 -104 -44t-41 -106z" />
<glyph unicode="b" horiz-adv-x="1433" d="M102 0v1434h492v-547q8 29 36.5 62.5t70.5 61t95.5 46t114.5 18.5q102 0 187.5 -38t147 -108.5t96 -173t34.5 -231.5t-34.5 -231.5t-96 -173t-146.5 -108.5t-188 -38q-61 0 -114.5 18.5t-95.5 46.5t-70.5 61.5t-36.5 62.5v-162h-492zM594 524q0 -61 41 -105t104 -44 t104.5 44t41.5 105t-41 105.5t-105 44.5q-63 0 -104 -44t-41 -106z" />
<glyph unicode="c" horiz-adv-x="1347" d="M41 524q0 115 41 216.5t121 177t198.5 119.5t276.5 44q143 0 254.5 -38.5t190.5 -105.5t124 -157t58 -192h-492q-10 41 -44 67.5t-89 26.5q-78 0 -113 -48t-35 -110q0 -61 37 -108t115 -47q98 0 127 86h494q-10 -102 -56.5 -190.5t-125.5 -154t-190.5 -103.5t-254.5 -38 q-158 0 -276.5 44t-198.5 120t-121 177.5t-41 213.5z" />
<glyph unicode="d" horiz-adv-x="1433" d="M57 524q0 129 35 231.5t96.5 173t146.5 108.5t187 38q61 0 114.5 -18.5t95.5 -46t69.5 -61.5t38.5 -62v547h491v-1434h-491v162q-10 -29 -38 -62.5t-70 -61.5t-95 -46.5t-115 -18.5q-102 0 -187 38t-146.5 108.5t-96.5 173t-35 231.5zM549 524q0 -61 41 -105t104 -44 t104.5 44t41.5 105t-41 105.5t-105 44.5q-63 0 -104 -44t-41 -106z" />
<glyph unicode="e" horiz-adv-x="1370" d="M43 524q0 111 39 212.5t118 178t198.5 121.5t279.5 45q162 0 281.5 -43t199.5 -113.5t119 -158.5t39 -176q0 -41 -2 -78t-10 -80h-770q0 -29 6 -57.5t23.5 -51t46 -37t73.5 -14.5q53 0 93 25t48 65h471q-14 -86 -60 -158.5t-123 -124.5t-183.5 -81t-241.5 -29 q-147 0 -266 38t-204 108.5t-130 174t-45 234.5zM535 641h290q0 70 -38.5 110t-106.5 40t-106.5 -40t-38.5 -110z" />
<glyph unicode="f" horiz-adv-x="866" d="M18 723v328h144v22q0 129 32.5 208t90 122t136.5 57.5t171 14.5q82 0 144.5 -8.5t105.5 -22.5v-299q-27 6 -43.5 8t-48.5 2q-98 0 -99 -78v-26h191v-328h-189v-723h-491v723h-144z" />
<glyph unicode="g" horiz-adv-x="1431" d="M61 -12h492q0 -35 38 -70t101 -35q66 0 109 39t43 115v147q-33 -59 -113 -106t-201 -47q-102 0 -188 29.5t-148.5 90t-97.5 153.5t-35 220q0 129 32 231.5t90.5 173t142.5 108.5t190 38q117 0 204 -48t124 -140v164h491v-940q0 -160 -46 -259.5t-144 -160.5 q-39 -25 -82 -44.5t-97.5 -32.5t-121 -20.5t-152.5 -7.5q-178 0 -281.5 24.5t-170.5 74.5q-74 53 -126.5 132t-52.5 171zM553 524q0 -61 41 -105t104 -44t104.5 44t41.5 105t-41.5 105.5t-104.5 44.5t-104 -44t-41 -106z" />
<glyph unicode="h" horiz-adv-x="1339" d="M102 0v1434h461v-543q37 76 121 130t213 54q80 0 137.5 -19.5t98.5 -56.5q68 -63 90 -162.5t22 -222.5v-614h-461v528q0 143 -106 144q-55 0 -85 -38t-30 -134v-500h-461z" />
<glyph unicode="i" horiz-adv-x="696" d="M74 1356q0 55 20.5 101t57 79t86 51.5t108.5 18.5t110.5 -18.5t88.5 -51.5t57.5 -79t20.5 -101q0 -125 -78 -186.5t-199 -61.5q-59 0 -108.5 18.5t-86 51t-57 78t-20.5 100.5zM102 0v1051h492v-1051h-492z" />
<glyph unicode="j" horiz-adv-x="696" d="M-88 -55q39 -8 86 -8q104 0 104 100v1014h492v-1063q0 -129 -28.5 -208t-80 -122t-124 -57.5t-160.5 -14.5q-37 0 -78 2t-81 7.5t-75 10.5t-55 11v328zM74 1356q0 55 20.5 101t57 79t86 51.5t108.5 18.5t110.5 -18.5t88.5 -51.5t57.5 -79t20.5 -101q0 -125 -78 -186.5 t-199 -61.5q-59 0 -108.5 18.5t-86 51t-57 78t-20.5 100.5z" />
<glyph unicode="k" horiz-adv-x="1361" d="M102 0v1434h492v-789l213 406h561l-356 -527l354 -524h-563l-209 401v-401h-492z" />
<glyph unicode="l" horiz-adv-x="696" d="M102 0v1434h492v-1434h-492z" />
<glyph unicode="m" horiz-adv-x="1970" d="M102 0v1051h461v-160q35 76 117 130t205 54q129 0 197.5 -53t99.5 -139q47 86 132 139t208 53q109 0 177 -33.5t107 -95t53.5 -146.5t14.5 -186v-614h-461v528q0 143 -94 144q-47 0 -73.5 -34t-26.5 -120v-518h-461v528q0 143 -94 144q-47 0 -74 -38t-27 -134v-500h-461z " />
<glyph unicode="n" horiz-adv-x="1400" d="M102 0v1051h492v-160q37 84 126 134t222 50q80 0 147.5 -21.5t108.5 -58.5q68 -63 88.5 -157.5t20.5 -216.5v-621h-492v528q0 143 -106 144q-55 0 -85 -38t-30 -134v-500h-492z" />
<glyph unicode="o" horiz-adv-x="1355" d="M41 524q0 117 41 218.5t122 176t199.5 118.5t274.5 44t274.5 -44t199.5 -118.5t122 -176t41 -218.5q0 -115 -41 -216t-122 -176t-199.5 -119t-274.5 -44t-274.5 44t-199.5 119t-122 176.5t-41 215.5zM532 524q0 -66 40 -107.5t106 -41.5t105.5 42t39.5 107q0 66 -40 108 t-105 42q-66 0 -106 -42t-40 -108z" />
<glyph unicode="p" horiz-adv-x="1433" d="M102 -383v1434h492v-162q8 29 36.5 61.5t70.5 60t95.5 46t114.5 18.5q102 0 187.5 -38t147 -108.5t96 -172t34.5 -230.5t-34.5 -231t-96 -173t-146.5 -109t-188 -38q-61 0 -114.5 18.5t-95.5 46.5t-70.5 61.5t-36.5 62.5v-547h-492zM594 526q0 -61 41 -105t104 -44 t104.5 44t41.5 105t-41.5 105.5t-104.5 44.5t-104 -44t-41 -106z" />
<glyph unicode="q" horiz-adv-x="1433" d="M57 526q0 129 35 230.5t96.5 172t146.5 108.5t187 38q61 0 114.5 -18.5t95.5 -46t69.5 -60t38.5 -61.5v162h491v-1434h-491v547q-10 -29 -38 -62.5t-70 -61.5t-95 -46.5t-115 -18.5q-102 0 -187 38t-146.5 109t-96.5 173t-35 231zM549 526q0 -61 41 -105t104 -44 t104.5 44t41.5 105t-41.5 105.5t-104.5 44.5t-104 -44t-41 -106z" />
<glyph unicode="r" horiz-adv-x="1015" d="M102 0v1051h492v-168q18 37 47 70.5t68 61t88 44t108 16.5q37 0 59.5 -3t51.5 -13v-447q-47 12 -80 17.5t-80 5.5q-51 0 -98 -12.5t-84 -46t-58.5 -92t-21.5 -152.5v-332h-492z" />
<glyph unicode="s" horiz-adv-x="1273" d="M53 348h492q0 -98 104 -98q39 0 57.5 16.5t18.5 38.5q0 33 -41 52.5t-160 43.5q-84 18 -167 38t-147.5 55.5t-104 92t-39.5 146.5q0 96 34.5 163t107.5 107.5t183.5 59t263.5 18.5q170 0 276.5 -27.5t167 -75.5t83 -111.5t22.5 -135.5h-491q0 49 -25.5 69.5t-56.5 20.5 q-29 0 -51.5 -11t-22.5 -44q0 -37 58 -56t173 -42q94 -18 174 -40t136.5 -57.5t88.5 -91t32 -141.5q0 -113 -45.5 -184.5t-124 -112.5t-183 -56.5t-223.5 -15.5q-164 0 -276.5 27t-182 76t-100.5 118.5t-31 157.5z" />
<glyph unicode="t" horiz-adv-x="915" d="M20 723v328h144v301h491v-301h236v-328h-236v-266q0 -41 11.5 -66.5t30 -41t41 -21.5t44.5 -6q35 0 57.5 1t51.5 5v-328q-51 -10 -116.5 -17.5t-176.5 -7.5q-84 0 -163 10.5t-139 47.5t-96 111.5t-36 203.5v375h-144z" />
<glyph unicode="u" horiz-adv-x="1400" d="M94 430v621h492v-529q0 -143 106 -143q55 0 85 38t30 134v500h491v-1051h-491v160q-37 -84 -126 -134.5t-222 -50.5q-80 0 -147.5 21.5t-108.5 58.5q-68 63 -88.5 157.5t-20.5 217.5z" />
<glyph unicode="v" horiz-adv-x="1363" d="M-16 1051h505l191 -592l194 592h506l-475 -1051h-452z" />
<glyph unicode="w" horiz-adv-x="1849" d="M-6 1051h489l138 -551l90 551h428l90 -551l137 551h489l-362 -1051h-463l-106 463l-105 -463h-463z" />
<glyph unicode="x" horiz-adv-x="1333" d="M-25 0l394 530l-387 521h569l115 -238l116 238h570l-387 -521l393 -530h-570l-122 248l-121 -248h-570z" />
<glyph unicode="y" horiz-adv-x="1411" d="M94 -12h492q0 -43 29.5 -74t89.5 -31q66 0 90 37t24 117v168q-37 -84 -119 -132t-204 -48q-92 0 -166 29.5t-115 66.5q-68 63 -88.5 147t-20.5 207v576h492v-529q0 -143 107 -143q55 0 84.5 38t29.5 134v500h492v-951q0 -139 -49.5 -243.5t-120.5 -157.5 q-41 -31 -83 -52.5t-93.5 -34.5t-116 -19.5t-148.5 -6.5q-168 0 -273 22.5t-183 84.5q-59 47 -104.5 118.5t-45.5 176.5z" />
<glyph unicode="z" horiz-adv-x="1157" d="M20 0l402 651h-348v400h1056l-397 -652h357v-399h-1070z" />
<glyph unicode="{" horiz-adv-x="1044" d="M41 315v463q74 0 116 32t42 110v178q0 190 106.5 299.5t327.5 109.5h330v-422h-76q-100 0 -148.5 -58t-48.5 -134v-113q0 -66 -23.5 -109.5t-55 -70.5t-66.5 -39t-58 -14q23 -2 58 -14.5t66.5 -39t55 -70.5t23.5 -110v-112q0 -76 48 -134.5t149 -58.5h76v-422h-330 q-221 0 -327.5 109.5t-106.5 300.5v178q0 78 -42 109.5t-116 31.5z" />
<glyph unicode="|" horiz-adv-x="716" d="M162 -414v1921h393v-1921h-393z" />
<glyph unicode="}" horiz-adv-x="1044" d="M82 8h76q100 0 148 58.5t48 134.5v112q0 66 22.5 110t55.5 70.5t68 39t57 14.5q-23 2 -57.5 14t-67.5 39t-55.5 71t-22.5 109v113q0 76 -48 134t-148 58h-76v422h330q221 0 327.5 -109.5t106.5 -299.5v-178q0 -78 42 -110t116 -32v-463q-74 0 -116 -31.5t-42 -109.5v-178 q0 -190 -106.5 -300t-327.5 -110h-330v422z" />
<glyph unicode="~" horiz-adv-x="1292" d="M53 395v355q66 68 147 94t148 26q72 0 152 -19.5t162 -45.5q78 -25 153.5 -49.5t132.5 -24.5q90 0 164 36t127 77v-355q-66 -68 -146.5 -94t-148.5 -26q-78 0 -146.5 19.5t-140.5 47.5q-68 29 -147.5 50.5t-175.5 21.5q-82 0 -155 -36t-126 -77z" />
<glyph unicode="&#xa2;" horiz-adv-x="1347" d="M41 524q0 104 34 197.5t101.5 167.5t166.5 123t230 63v238h209v-238q119 -14 211 -57t158 -107.5t104.5 -147.5t49.5 -175h-492q-10 41 -44 67.5t-89 26.5q-78 0 -113 -48t-35 -110q0 -61 37 -108t115 -47q98 0 127 86h494q-10 -92 -48 -174t-104 -145.5t-159 -105.5 t-212 -55v-231h-209v231q-131 14 -230 62.5t-166.5 122t-101.5 167t-34 197.5z" />
<glyph unicode="&#xa3;" horiz-adv-x="1482" d="M41 582v209h149v151q0 109 43 205t124 169t199 116t267 43q145 0 262 -43t200 -116t127 -169t44 -205h-522q0 47 -30 82t-81 35q-53 0 -81.5 -35t-28.5 -82v-151h305v-209h-305v-45q0 -47 -6.5 -85t-20.5 -67h713v-385h-1297v328q41 45 64.5 91t23.5 118v45h-149z" />
<glyph unicode="&#xa5;" horiz-adv-x="1495" d="M-20 1434h614l154 -457l153 457h615l-451 -795h178v-205h-225v-90h225v-205h-225v-139h-522v139h-226v205h226v90h-226v205h158z" />
<glyph unicode="&#xa8;" horiz-adv-x="1140" d="M94 1186q0 51 19.5 96t53.5 79t79 53.5t98 19.5q55 0 101.5 -19.5t80 -53.5t53 -79t19.5 -96q0 -49 -19.5 -93t-53 -78t-80 -53.5t-101.5 -19.5q-53 0 -98 19.5t-79 53.5t-53.5 78t-19.5 93zM635 1186q0 51 18.5 96t52 79t79.5 53.5t100 19.5q53 0 99 -19.5t80 -53.5 t53.5 -79t19.5 -96q0 -49 -19.5 -93t-53.5 -78t-80 -53.5t-99 -19.5t-99.5 19.5t-80 53.5t-52 78t-18.5 93z" />
<glyph unicode="&#xa9;" d="M41 717q0 150 52 287t153.5 241.5t250 167t339.5 62.5q190 0 337.5 -62.5t249 -167t154.5 -242t53 -286.5q0 -150 -53 -287t-154.5 -241.5t-249 -167t-337.5 -62.5t-339 62.5t-250.5 167t-153.5 241.5t-52 287zM287 717q0 -104 36.5 -200.5t106.5 -170.5t172.5 -118 t233.5 -44t233 44t172 118t106.5 170t36.5 201q0 104 -36.5 200.5t-106.5 170t-172 117.5t-233 44t-233.5 -44t-172.5 -117.5t-106.5 -170t-36.5 -200.5zM430 717q0 76 27.5 145.5t79 121.5t126 84t171.5 32q92 0 162.5 -26.5t120.5 -73t79 -108t35 -128.5h-275 q-10 41 -38.5 68.5t-81.5 27.5q-72 0 -104 -43t-32 -100q0 -63 36 -103.5t100 -40.5q57 0 86.5 29t35.5 66h277q-8 -68 -37 -128.5t-79 -106.5t-120.5 -72.5t-162.5 -26.5q-96 0 -171 31.5t-127.5 84t-80 122t-27.5 145.5z" />
<glyph unicode="&#xab;" horiz-adv-x="1210" d="M61 483v226l508 395v-389l-184 -119l184 -119v-389zM610 483v226l508 395v-389l-184 -119l184 -119v-389z" />
<glyph unicode="&#xad;" horiz-adv-x="741" d="M72 483v355h598v-355h-598z" />
<glyph unicode="&#xae;" d="M41 717q0 150 52 287t153.5 241.5t250 167t339.5 62.5q190 0 337.5 -62.5t249 -167t154.5 -242t53 -286.5q0 -150 -53 -287t-154.5 -241.5t-249 -167t-337.5 -62.5t-339 62.5t-250.5 167t-153.5 241.5t-52 287zM287 717q0 -104 36.5 -200.5t106.5 -170.5t172.5 -118 t233.5 -44t233 44t172 118t106.5 170t36.5 201q0 104 -36.5 200.5t-106.5 170t-172 117.5t-233 44t-233.5 -44t-172.5 -117.5t-106.5 -170t-36.5 -200.5zM510 362v746h403q66 0 119 -23.5t91 -62.5t58.5 -91t20.5 -110q0 -76 -33.5 -138t-93.5 -99l148 -222h-318l-125 175 v-175h-270zM780 737h68q35 0 54.5 25.5t19.5 58.5q0 35 -19.5 59.5t-54.5 24.5h-68v-168z" />
<glyph unicode="&#xb4;" horiz-adv-x="804" d="M23 1282l675 225l84 -301l-676 -225z" />
<glyph unicode="&#xb8;" horiz-adv-x="632" d="M74 -236h192q0 -25 16.5 -42t43.5 -17t42 18.5t15 47.5q0 23 -15.5 40t-39.5 17q-25 0 -38.5 -9t-17.5 -20h-180v273h195v-148q10 16 35.5 28.5t70.5 12.5q47 0 82 -18.5t57.5 -47t34 -63.5t11.5 -65q0 -94 -64.5 -159t-187.5 -65t-187.5 63.5t-64.5 153.5z" />
<glyph unicode="&#xbb;" horiz-adv-x="1210" d="M92 88v389l184 119l-184 119v389l508 -395v-226zM641 88v389l184 119l-184 119v389l508 -395v-226z" />
<glyph unicode="&#x2c6;" horiz-adv-x="983" d="M25 1352l467 372l466 -372l-208 -226l-258 205l-259 -205z" />
<glyph unicode="&#x2da;" horiz-adv-x="724" d="M41 1458q0 68 25.5 126t68.5 101.5t101 69t126 25.5t126.5 -25.5t101.5 -70t68.5 -102.5t25.5 -124t-25.5 -124t-68.5 -102t-101.5 -69.5t-126.5 -25.5t-126 25.5t-101 69.5t-68.5 102.5t-25.5 123.5zM268 1456q0 -35 29 -62.5t65 -27.5q37 0 66 28.5t29 65.5t-27 65.5 t-68 28.5t-67.5 -28.5t-26.5 -69.5z" />
<glyph unicode="&#x2dc;" horiz-adv-x="995" d="M45 1356q55 29 95 45t70 23.5t51.5 8.5t37.5 1q27 0 75 -8.5t100 -19.5t99.5 -19.5t71.5 -8.5q20 0 37.5 2t38 8.5t49.5 16.5t72 29l106 -269q-47 -33 -89 -51t-76.5 -27.5t-61.5 -11.5t-41 -2q-27 0 -76 8.5t-101 18.5t-98.5 18t-70.5 8q-51 0 -90 -13t-82 -30z" />
<glyph unicode="&#x401;" horiz-adv-x="1179" d="M80 1733q0 51 19.5 96t53 79t78.5 53t99 19q55 0 101 -19t80 -53t53.5 -79t19.5 -96q0 -49 -19.5 -93.5t-53.5 -78t-80 -53t-101 -19.5q-53 0 -98.5 19.5t-79 53t-53 78t-19.5 93.5zM113 0v1434h970v-375h-448v-170h448v-354h-448v-160h448v-375h-970zM621 1733 q0 51 18 96t52 79t80 53t99 19t99.5 -19t80 -53t53 -79t19.5 -96q0 -49 -19.5 -93.5t-53 -78t-79.5 -53t-100 -19.5q-53 0 -99 19.5t-80 53t-52 78t-18 93.5z" />
<glyph unicode="&#x402;" horiz-adv-x="1617" d="M51 1059v375h1051v-375h-264v-295q37 76 120.5 130t212.5 54q80 0 137.5 -19.5t98.5 -56.5q68 -63 90.5 -162.5t22.5 -222.5v-499q0 -129 -27 -208t-74 -122t-113.5 -57.5t-148.5 -14.5h-289v351h86q98 0 105 90v374q0 143 -107 144q-53 0 -81.5 -34t-32.5 -120v-391 h-523v1059h-264z" />
<glyph unicode="&#x403;" horiz-adv-x="1042" d="M113 0v1434h919v-441h-397v-993h-522zM203 1780l676 225l84 -301l-676 -225z" />
<glyph unicode="&#x404;" d="M41 717q0 162 54.5 300t158.5 239.5t256 160t346 58.5q176 0 313.5 -53.5t233.5 -143.5t152.5 -211t68.5 -258h-545q-16 80 -76.5 135t-179.5 55q-88 0 -149.5 -47t-77.5 -127h340v-235h-336q23 -86 82 -121t141 -35q125 0 186.5 55.5t75.5 128.5h545 q-14 -133 -69.5 -252.5t-151.5 -209.5t-233.5 -143.5t-313.5 -53.5q-197 0 -349.5 58.5t-256.5 160t-159.5 239.5t-55.5 300z" />
<glyph unicode="&#x405;" horiz-adv-x="1394" d="M61 489h523q0 -74 34.5 -115.5t96.5 -41.5q47 0 70.5 21.5t23.5 56.5q0 18 -8 33.5t-32 30.5t-64.5 34.5t-108.5 46.5q-100 39 -192.5 80t-163 95t-113.5 131t-43 188q0 121 54.5 202.5t143.5 131t200.5 71t228.5 21.5q188 0 307 -46.5t186.5 -116t93 -153.5t25.5 -160 h-522q0 78 -22.5 113t-82.5 35q-35 0 -62.5 -18.5t-27.5 -59.5q0 -39 42 -70.5t151 -70.5q98 -35 193 -72t170 -92t122 -133t47 -195q0 -223 -160.5 -350t-472.5 -127q-305 0 -471 136t-166 394z" />
<glyph unicode="&#x406;" horiz-adv-x="747" d="M113 0v1434h522v-1434h-522z" />
<glyph unicode="&#x407;" horiz-adv-x="747" d="M-141 1733q0 51 19.5 96t53 79t78.5 53t99 19q55 0 101 -19t80 -53t53 -79t19 -96q0 -49 -19 -93.5t-53 -78t-80 -53t-101 -19.5q-53 0 -98.5 19.5t-79 53t-53 78t-19.5 93.5zM113 0v1434h522v-1434h-522zM399 1733q0 51 18.5 96t52.5 79t80 53t99 19t99.5 -19t80 -53 t53 -79t19.5 -96q0 -49 -19.5 -93.5t-53 -78t-80 -53t-99.5 -19.5t-99 19.5t-80 53t-52.5 78t-18.5 93.5z" />
<glyph unicode="&#x408;" horiz-adv-x="1384" d="M25 551h522q0 -63 28.5 -109.5t86.5 -46.5q51 0 82.5 34t31.5 120v885h522v-885q0 -172 -46 -285.5t-129 -179.5t-200.5 -92.5t-260.5 -26.5q-168 0 -288 44t-198 123t-114.5 185.5t-36.5 233.5z" />
<glyph unicode="&#x409;" horiz-adv-x="2334" d="M20 -41v432h93q98 0 98 78v965h1337v-545h346q94 0 172 -34t133.5 -91t85 -136t29.5 -167q0 -94 -29.5 -178t-85 -146.5t-133 -99.5t-172.5 -37h-868v1006h-293v-646q0 -129 -34.5 -207.5t-97 -121.5t-147.5 -57.5t-184 -14.5h-250zM1548 342h86q74 0 111 34t37 87 q0 18 -6.5 38.5t-22.5 38t-45 28t-74 10.5h-86v-236z" />
<glyph unicode="&#x40a;" horiz-adv-x="2246" d="M113 0v1434h522v-508h303v508h522v-545h346q94 0 172 -34t133.5 -91t85 -136t29.5 -167q0 -94 -29.5 -178t-85 -146.5t-133 -99.5t-172.5 -37h-868v498h-303v-498h-522zM1460 342h86q74 0 111 34t37 87q0 18 -6.5 38.5t-22.5 38t-45 28t-74 10.5h-86v-236z" />
<glyph unicode="&#x40b;" horiz-adv-x="1613" d="M51 1059v375h1051v-375h-264v-295q37 76 120.5 130t212.5 54q80 0 137.5 -19.5t98.5 -56.5q68 -63 90.5 -162.5t22.5 -222.5v-487h-461v401q0 143 -107 144q-53 0 -81.5 -34t-32.5 -120v-391h-523v1059h-264z" />
<glyph unicode="&#x40c;" horiz-adv-x="1572" d="M113 0v1434h522v-553h31q41 0 74.5 27.5t78.5 109.5l119 219q35 63 73 103t84 62.5t101 32t123 9.5h174v-451h-49q-55 0 -90 -18.5t-72 -73.5l-63 -94q-18 -27 -47 -57.5t-74 -53.5l465 -696h-600l-328 582v-582h-522zM399 1780l676 225l84 -301l-676 -225z" />
<glyph unicode="&#x40e;" horiz-adv-x="1470" d="M-20 1434h614l154 -457l172 457h583l-710 -1434h-588l227 471zM266 1950h336q6 -27 17.5 -53.5t31 -47t48 -33t67.5 -12.5t67.5 12.5t48 33t31 47t17.5 53.5h336q-14 -106 -59.5 -185t-112 -130.5t-150.5 -77t-178 -25.5t-178 25.5t-150.5 77t-111.5 130t-60 185.5z" />
<glyph unicode="&#x40f;" horiz-adv-x="1548" d="M113 0v1434h522v-1006h278v1006h523v-1434h-426v-229h-473v229h-424z" />
<glyph unicode="&#x410;" horiz-adv-x="1714" d="M10 0l545 1434h586l563 -1434h-588l-43 158h-452l-43 -158h-568zM719 516h256l-127 469z" />
<glyph unicode="&#x411;" horiz-adv-x="1466" d="M113 0v1434h1163v-375h-641v-170h346q94 0 172 -34t133 -91t85 -136t30 -167q0 -94 -30 -178t-85 -146.5t-133 -99.5t-172 -37h-868zM635 342h86q74 0 110.5 34t36.5 87q0 18 -6 38.5t-22.5 38t-45 28t-73.5 10.5h-86v-236z" />
<glyph unicode="&#x412;" horiz-adv-x="1466" d="M113 0v1434h807q147 0 239 -40t143.5 -98.5t70 -126t18.5 -122.5q0 -66 -24 -121.5t-60.5 -97.5t-80.5 -68.5t-83 -34.5q35 -4 79 -26.5t84 -63.5t67.5 -100.5t27.5 -139.5q0 -55 -18.5 -124.5t-68.5 -129t-142.5 -100.5t-239.5 -41h-819zM635 342h86q74 0 110.5 34 t36.5 87q0 18 -6 38.5t-22.5 38t-45 28t-73.5 10.5h-86v-236zM635 889h86q74 0 110.5 33.5t36.5 89.5q0 18 -6 38.5t-22.5 38t-45 27.5t-73.5 10h-86v-237z" />
<glyph unicode="&#x413;" horiz-adv-x="1042" d="M113 0v1434h919v-441h-397v-993h-522z" />
<glyph unicode="&#x414;" horiz-adv-x="1771" d="M20 -231v639h23q72 0 133.5 36.5t106.5 100.5q45 63 69.5 147t24.5 180v562h1175v-1024h179v-639h-474v229h-763v-229zM621 408h462v614h-258q0 -127 -8 -221t-30.5 -167t-62.5 -127t-103 -99z" />
<glyph unicode="&#x415;" horiz-adv-x="1179" d="M113 0v1434h970v-375h-448v-170h448v-354h-448v-160h448v-375h-970z" />
<glyph unicode="&#x416;" horiz-adv-x="2349" d="M10 0l488 702q-49 16 -83 39t-55 60l-61 114q-31 57 -68.5 78t-91.5 21h-45v430h154q68 0 127 -7t111.5 -29t93.5 -60.5t71 -102.5l101 -211q45 -92 74.5 -128t80.5 -36h15v564h505v-564h15q51 0 80.5 36t74.5 128l101 211q31 63 71.5 102t93 61t112 29t126.5 7h154v-430 h-45q-53 0 -91 -20.5t-69 -78.5l-61 -114q-20 -37 -54 -59.5t-84 -39.5l488 -702h-584l-328 582v-582h-505v582l-328 -582h-584z" />
<glyph unicode="&#x417;" horiz-adv-x="1411" d="M20 487h553q0 -66 21.5 -100.5t87.5 -34.5q59 0 79.5 32t20.5 71q0 70 -34.5 98.5t-102.5 28.5h-194v333h190q90 0 121 31t31 88q0 51 -26 72.5t-71 21.5q-68 0 -85 -34.5t-17 -94.5h-553q0 74 21.5 158t91 154.5t197.5 117t341 46.5q127 0 245 -18.5t209 -67t145.5 -128 t54.5 -202.5q0 -63 -25 -118.5t-62.5 -98.5t-86 -71t-93.5 -36q53 -12 101.5 -42.5t85.5 -77t58.5 -106.5t21.5 -132q0 -111 -56.5 -191t-146.5 -130t-206 -73.5t-232 -23.5q-213 0 -346.5 44t-209 118t-102.5 169t-27 197z" />
<glyph unicode="&#x418;" horiz-adv-x="1617" d="M113 0v1434h522v-697l348 598v99h522v-1434h-522v696l-348 -598v-98h-522z" />
<glyph unicode="&#x419;" horiz-adv-x="1617" d="M113 0v1434h522v-697l348 598v99h522v-1434h-522v696l-348 -598v-98h-522zM313 1950h336q6 -27 17.5 -53.5t31 -47t48 -33t67.5 -12.5t67.5 12.5t48 33t31 47t17.5 53.5h336q-14 -106 -59.5 -185t-112 -130.5t-150.5 -77t-178 -25.5t-178 25.5t-150.5 77t-111.5 130 t-60 185.5z" />
<glyph unicode="&#x41a;" horiz-adv-x="1572" d="M113 0v1434h522v-553h31q41 0 74.5 27.5t78.5 109.5l119 219q35 63 73 103t84 62.5t101 32t123 9.5h174v-451h-49q-55 0 -90 -18.5t-72 -73.5l-63 -94q-18 -27 -47 -57.5t-74 -53.5l465 -696h-600l-328 582v-582h-522z" />
<glyph unicode="&#x41b;" horiz-adv-x="1656" d="M20 -41v381h93q98 0 98 78v1016h1333v-1434h-522v1006h-289v-646q0 -129 -34.5 -207.5t-97 -121.5t-147.5 -57.5t-184 -14.5h-250z" />
<glyph unicode="&#x41c;" horiz-adv-x="2060" d="M113 0v1434h700l227 -856l228 856h680v-1434h-502v891l-211 -891h-383l-238 891v-891h-501z" />
<glyph unicode="&#x41d;" horiz-adv-x="1572" d="M113 0v1434h522v-508h303v508h522v-1434h-522v498h-303v-498h-522z" />
<glyph unicode="&#x41e;" d="M41 717q0 150 52 287t153.5 241.5t250 167t339.5 62.5q190 0 337.5 -62.5t249 -167t154.5 -242t53 -286.5q0 -150 -53 -287t-154.5 -241.5t-249 -167t-337.5 -62.5t-339 62.5t-250.5 167t-153.5 241.5t-52 287zM563 717q0 -55 18.5 -106.5t53.5 -89.5t85 -61.5t116 -23.5 t115.5 23.5t84.5 61.5t53.5 89.5t18.5 106.5t-18.5 106t-53.5 89t-85 61.5t-115 23.5q-66 0 -116 -23.5t-85 -61.5t-53.5 -89t-18.5 -106z" />
<glyph unicode="&#x41f;" horiz-adv-x="1572" d="M113 0v1434h1347v-1434h-522v1006h-303v-1006h-522z" />
<glyph unicode="&#x420;" horiz-adv-x="1458" d="M113 0v1434h774q127 0 229.5 -44t175 -120t111.5 -176.5t39 -210.5q0 -111 -39 -210.5t-111.5 -175t-175 -119.5t-229.5 -44h-252v-334h-522zM635 723h125q68 0 108.5 47t40.5 113t-40 112.5t-107 46.5h-127v-319z" />
<glyph unicode="&#x421;" horiz-adv-x="1667" d="M41 717q0 150 53 287t155.5 241.5t250 167t336.5 62.5q180 0 321 -53.5t240.5 -143.5t157 -211t69.5 -258h-545q-16 80 -73.5 135t-167.5 55q-68 0 -118 -23.5t-82 -62.5t-48.5 -90t-16.5 -106q0 -125 71 -204t194 -79q117 0 175 55.5t72 128.5h545 q-14 -133 -71.5 -252.5t-155.5 -209.5t-239.5 -143.5t-321.5 -53.5q-190 0 -339 62.5t-252.5 167t-156.5 241.5t-53 287z" />
<glyph unicode="&#x422;" horiz-adv-x="1153" d="M51 993v441h1051v-441h-264v-993h-523v993h-264z" />
<glyph unicode="&#x423;" horiz-adv-x="1470" d="M-20 1434h614l154 -457l172 457h583l-710 -1434h-588l227 471z" />
<glyph unicode="&#x424;" horiz-adv-x="1888" d="M41 723q0 117 43 229.5t126 199.5t207 140.5t285 53.5h13v88h459v-88h12q162 0 285.5 -53.5t206.5 -140.5t126 -199.5t43 -229.5q0 -121 -43 -234.5t-126 -202.5t-206.5 -143.5t-285.5 -54.5h-12v-88h-459v88h-13q-162 0 -285.5 54.5t-206.5 143.5t-126 202.5t-43 234.5z M537 723q0 -100 43 -161.5t125 -61.5h10v434h-10q-82 0 -125 -57.5t-43 -153.5zM1174 500h10q82 0 125 61.5t43 161.5q0 96 -43 153.5t-125 57.5h-10v-434z" />
<glyph unicode="&#x425;" horiz-adv-x="1478" d="M10 0l426 717l-426 717h565l164 -359l164 359h565l-426 -717l426 -717h-565l-164 358l-164 -358h-565z" />
<glyph unicode="&#x426;" horiz-adv-x="1673" d="M113 0v1434h522v-1006h276v1006h523v-1006h198v-657h-473v229h-1046z" />
<glyph unicode="&#x427;" horiz-adv-x="1466" d="M31 842v592h522v-484q0 -127 50 -170t136 -43h92v697h523v-1434h-523v381h-309q-106 0 -196 34t-156 94t-102.5 145t-36.5 188z" />
<glyph unicode="&#x428;" horiz-adv-x="2359" d="M113 0v1434h516v-1006h293v1006h516v-1006h293v1006h516v-1434h-2134z" />
<glyph unicode="&#x429;" horiz-adv-x="2486" d="M113 0v1434h516v-1006h293v1006h516v-1006h293v1006h516v-1006h198v-657h-473v229h-1859z" />
<glyph unicode="&#x42a;" horiz-adv-x="1593" d="M20 993v441h787v-514h346q94 0 172 -36t133 -97.5t85 -145.5t30 -180q0 -94 -30 -178t-85 -146.5t-133 -99.5t-172 -37h-868v993h-265zM807 342h86q74 0 110.5 34t36.5 87q0 18 -6 38.5t-22.5 38t-45 28t-73.5 10.5h-86v-236z" />
<glyph unicode="&#x42b;" horiz-adv-x="2097" d="M113 0v1434h522v-514h346q94 0 172 -36t133 -97.5t85 -145.5t30 -180q0 -94 -30 -178t-85 -146.5t-133 -99.5t-172 -37h-868zM635 342h86q74 0 110.5 34t36.5 87q0 18 -6 38.5t-22.5 38t-45 28t-73.5 10.5h-86v-236zM1462 0v1434h523v-1434h-523z" />
<glyph unicode="&#x42c;" horiz-adv-x="1421" d="M113 0v1434h522v-514h346q94 0 172 -36t133 -97.5t85 -145.5t30 -180q0 -94 -30 -178t-85 -146.5t-133 -99.5t-172 -37h-868zM635 342h86q74 0 110.5 34t36.5 87q0 18 -6 38.5t-22.5 38t-45 28t-73.5 10.5h-86v-236z" />
<glyph unicode="&#x42d;" d="M41 618h545q14 -74 75.5 -129t186.5 -55q82 0 141.5 35t81.5 121h-336v235h340q-16 80 -77.5 127t-149.5 47q-119 0 -179.5 -55t-76.5 -135h-545q12 137 68.5 258t153 211t233.5 143.5t313 53.5q193 0 344.5 -58.5t256 -160t159.5 -239.5t55 -300t-55 -300t-159.5 -239.5 t-257 -160t-349.5 -58.5q-176 0 -313.5 53.5t-233.5 143.5t-151.5 209.5t-69.5 252.5z" />
<glyph unicode="&#x42e;" horiz-adv-x="2322" d="M113 0v1434h522v-508h104q31 115 93.5 215t156.5 174t219 117t279 43q190 0 337.5 -62.5t249 -167t154.5 -242t53 -286.5q0 -150 -53 -287t-154.5 -241.5t-249 -167t-337.5 -62.5q-154 0 -277 42t-217 113.5t-156.5 170t-93.5 213.5h-108v-498h-522zM1214 717 q0 -55 18.5 -106.5t53.5 -89.5t85 -61.5t116 -23.5t116 23.5t84.5 61.5t53 89.5t18.5 106.5t-18.5 106t-53 89t-85 61.5t-115.5 23.5q-66 0 -116 -23.5t-85 -61.5t-53.5 -89t-18.5 -106z" />
<glyph unicode="&#x42f;" horiz-adv-x="1521" d="M33 0l289 422q-117 74 -180.5 195.5t-63.5 265.5q0 111 39 211t111.5 176t175 120t229.5 44h776v-1434h-522v334l-236 -334h-618zM612 883q0 -66 41 -113t109 -47h125v319h-127q-68 0 -108 -47t-40 -112z" />
<glyph unicode="&#x430;" horiz-adv-x="1417" d="M41 524q0 129 35 231.5t96 173t146 108.5t188 38q61 0 114.5 -18.5t95.5 -46t69.5 -61.5t37.5 -62v164h492v-1051h-492v162q-10 -29 -37.5 -62.5t-69.5 -61.5t-95.5 -46.5t-114.5 -18.5q-102 0 -187.5 38t-146.5 108.5t-96 173t-35 231.5zM532 524q0 -61 41.5 -105 t104.5 -44t104 44t41 105t-41 105.5t-104 44.5t-104.5 -44t-41.5 -106z" />
<glyph unicode="&#x431;" horiz-adv-x="1374" d="M41 692q0 131 18.5 222.5t48 157t68.5 111.5t82 87q55 53 123 86t141.5 50t151.5 22.5t153 5.5h369v-404h-326q-111 0 -190.5 -24.5t-130.5 -69.5q-49 -45 -80 -114.5t-31 -141.5q25 68 58.5 121t83 90t116 56.5t154.5 19.5q117 0 207 -41t151.5 -108.5t93 -155 t31.5 -179.5q0 -106 -39 -199.5t-115.5 -163t-189 -110.5t-262.5 -41q-127 0 -238.5 30t-203.5 103q-53 41 -98.5 103.5t-77 139.5t-50 165t-18.5 182zM584 494q0 -66 39.5 -108t105.5 -42t105.5 42t39.5 108t-39.5 107.5t-105.5 41.5t-105.5 -42t-39.5 -107z" />
<glyph unicode="&#x432;" horiz-adv-x="1306" d="M102 0v1051h848q98 0 161 -28t98.5 -69t48 -88t12.5 -84q0 -115 -85 -175t-222 -68q172 -8 247.5 -72t75.5 -186q0 -39 -15.5 -88.5t-57.5 -92.5t-116.5 -71.5t-193.5 -28.5h-801zM575 231h91q57 0 86.5 28t29.5 75t-28.5 74.5t-85.5 27.5h-93v-205zM575 614h91 q57 0 86.5 28t29.5 75t-28.5 74.5t-85.5 27.5h-93v-205z" />
<glyph unicode="&#x433;" horiz-adv-x="890" d="M102 0v1051h768v-381h-309v-670h-459z" />
<glyph unicode="&#x434;" horiz-adv-x="1476" d="M41 -215v575h39q104 0 156.5 55.5t52.5 147.5v488h1001v-691h125v-575h-401v215h-572v-215h-401zM592 360h305v332h-229v-125q0 -72 -13.5 -125t-62.5 -82z" />
<glyph unicode="&#x435;" horiz-adv-x="1370" d="M43 524q0 111 39 212.5t118 178t198.5 121.5t279.5 45q162 0 281.5 -43t199.5 -113.5t119 -158.5t39 -176q0 -41 -2 -78t-10 -80h-770q0 -29 6 -57.5t23.5 -51t46 -37t73.5 -14.5q53 0 93 25t48 65h471q-14 -86 -60 -158.5t-123 -124.5t-183.5 -81t-241.5 -29 q-147 0 -266 38t-204 108.5t-130 174t-45 234.5zM535 641h290q0 70 -38.5 110t-106.5 40t-106.5 -40t-38.5 -110z" />
<glyph unicode="&#x436;" horiz-adv-x="1916" d="M10 0l350 518q-31 14 -49 31.5t-32 42.5l-25 41q-23 37 -48.5 53t-78.5 16h-49v359h151q68 0 119 -7t90 -27.5t69 -54.5t56 -85l74 -148q18 -37 37.5 -57t54.5 -20h10v389h439v-389h10q35 0 54.5 20t37.5 57l74 148q27 51 56.5 85t68.5 54.5t90 27.5t119 7h151v-359h-49 q-53 0 -78.5 -16t-48.5 -53l-25 -41q-14 -25 -32.5 -42.5t-49.5 -31.5l351 -518h-512l-217 401v-401h-439v401l-217 -401h-512z" />
<glyph unicode="&#x437;" horiz-adv-x="1234" d="M20 371h500q0 -59 18.5 -89t65.5 -30q35 0 52.5 21.5t17.5 52.5q0 59 -37 81.5t-115 22.5h-112v225h110q162 0 162 101q0 35 -21.5 52t-52.5 17q-47 0 -64.5 -28.5t-17.5 -81.5h-489q0 57 21.5 122.5t84 119t179 89t307.5 35.5q106 0 204.5 -15t173 -52t118.5 -95.5 t44 -144.5q0 -66 -22.5 -109.5t-58 -71.5t-78.5 -41t-84 -17q49 -4 94 -18.5t77.5 -44.5t52 -75t19.5 -108q0 -84 -49 -146.5t-128 -103.5t-177 -60.5t-197 -19.5q-184 0 -300.5 35t-183 91t-90.5 131t-24 155z" />
<glyph unicode="&#x438;" horiz-adv-x="1427" d="M102 0v1051h459v-531l305 443v88h459v-1051h-459v508l-305 -442v-66h-459z" />
<glyph unicode="&#x439;" horiz-adv-x="1427" d="M102 0v1051h459v-531l305 443v88h459v-1051h-459v508l-305 -442v-66h-459zM221 1581h336q6 -27 17.5 -53.5t31 -47t48 -32.5t67.5 -12t67.5 12t48 32.5t31 47t17.5 53.5h336q-14 -106 -59.5 -185t-112 -130.5t-150.5 -77t-178 -25.5t-178 25.5t-150.5 77t-111.5 130.5 t-60 185z" />
<glyph unicode="&#x43a;" horiz-adv-x="1325" d="M102 0v1051h459v-410h17q39 0 63.5 25.5t60.5 93.5l72 133q53 100 133 134t215 34h121v-369h-29q-39 0 -68.5 -13t-55.5 -58l-29 -50q-10 -18 -32.5 -34.5t-57.5 -22.5l354 -514h-555l-209 401v-401h-459z" />
<glyph unicode="&#x43b;" horiz-adv-x="1406" d="M20 -41v381h60q49 0 68.5 23.5t19.5 60.5v627h1137v-1051h-459v670h-228v-299q0 -102 -21.5 -179t-72.5 -128.5t-136 -78t-212 -26.5h-156z" />
<glyph unicode="&#x43c;" horiz-adv-x="1974" d="M102 0v1051h719l172 -627l174 627h705v-1051h-455v748l-221 -748h-399l-240 748v-748h-455z" />
<glyph unicode="&#x43d;" horiz-adv-x="1353" d="M102 0v1051h459v-334h232v334h458v-1051h-458v336h-232v-336h-459z" />
<glyph unicode="&#x43e;" horiz-adv-x="1355" d="M41 524q0 117 41 218.5t122 176t199.5 118.5t274.5 44t274.5 -44t199.5 -118.5t122 -176t41 -218.5q0 -115 -41 -216t-122 -176t-199.5 -119t-274.5 -44t-274.5 44t-199.5 119t-122 176.5t-41 215.5zM532 524q0 -66 40 -107.5t106 -41.5t105.5 42t39.5 107q0 66 -40 108 t-105 42q-66 0 -106 -42t-40 -108z" />
<glyph unicode="&#x43f;" horiz-adv-x="1353" d="M102 0v1051h1149v-1051h-458v670h-232v-670h-459z" />
<glyph unicode="&#x440;" horiz-adv-x="1433" d="M102 -383v1434h492v-162q8 29 36.5 61.5t70.5 60t95.5 46t114.5 18.5q102 0 187.5 -38t147 -108.5t96 -172t34.5 -230.5t-34.5 -231t-96 -173t-146.5 -109t-188 -38q-61 0 -114.5 18.5t-95.5 46.5t-70.5 61.5t-36.5 62.5v-547h-492zM594 526q0 -61 41 -105t104 -44 t104.5 44t41.5 105t-41.5 105.5t-104.5 44.5t-104 -44t-41 -106z" />
<glyph unicode="&#x441;" horiz-adv-x="1347" d="M41 524q0 115 41 216.5t121 177t198.5 119.5t276.5 44q143 0 254.5 -38.5t190.5 -105.5t124 -157t58 -192h-492q-10 41 -44 67.5t-89 26.5q-78 0 -113 -48t-35 -110q0 -61 37 -108t115 -47q98 0 127 86h494q-10 -102 -56.5 -190.5t-125.5 -154t-190.5 -103.5t-254.5 -38 q-158 0 -276.5 44t-198.5 120t-121 177.5t-41 213.5z" />
<glyph unicode="&#x442;" horiz-adv-x="1054" d="M20 670v381h1014v-381h-276v-670h-459v670h-279z" />
<glyph unicode="&#x443;" horiz-adv-x="1411" d="M94 -12h492q0 -43 29.5 -74t89.5 -31q66 0 90 37t24 117v168q-37 -84 -119 -132t-204 -48q-92 0 -166 29.5t-115 66.5q-68 63 -88.5 147t-20.5 207v576h492v-529q0 -143 107 -143q55 0 84.5 38t29.5 134v500h492v-951q0 -139 -49.5 -243.5t-120.5 -157.5 q-41 -31 -83 -52.5t-93.5 -34.5t-116 -19.5t-148.5 -6.5q-168 0 -273 22.5t-183 84.5q-59 47 -104.5 118.5t-45.5 176.5z" />
<glyph unicode="&#x444;" horiz-adv-x="1605" d="M41 524q0 111 38 210.5t113.5 176t188.5 121.5t262 45v357h320v-357q147 0 259.5 -45t188.5 -121.5t115 -176t39 -210.5q0 -109 -37 -209t-112 -176t-188.5 -121t-264.5 -45v-356h-320v356q-147 0 -260 45t-188.5 121t-114.5 176.5t-39 208.5zM473 524q0 -70 45 -114.5 t121 -44.5h4v319h-4q-76 0 -121 -44t-45 -116zM963 365h4q76 0 121 44.5t45 114.5q0 72 -45.5 116t-120.5 44h-4v-319z" />
<glyph unicode="&#x445;" horiz-adv-x="1402" d="M10 0l393 530l-387 521h570l114 -238l117 238h569l-387 -521l394 -530h-570l-123 248l-120 -248h-570z" />
<glyph unicode="&#x446;" horiz-adv-x="1447" d="M102 0v1051h459v-670h232v670h458v-670h156v-596h-401v215h-904z" />
<glyph unicode="&#x447;" horiz-adv-x="1269" d="M41 637v414h459v-336q0 -139 143 -140h66v476h458v-1051h-458v264h-275q-186 0 -289.5 93.5t-103.5 279.5z" />
<glyph unicode="&#x448;" horiz-adv-x="1961" d="M102 0v1051h426v-670h242v670h422v-670h242v670h426v-1051h-1758z" />
<glyph unicode="&#x449;" horiz-adv-x="2056" d="M102 0v1051h426v-670h242v670h422v-670h242v670h426v-670h155v-596h-401v215h-1512z" />
<glyph unicode="&#x44a;" horiz-adv-x="1423" d="M20 711v340h723v-314h236q131 0 214 -32.5t129 -86t63.5 -119t17.5 -130.5q0 -53 -17.5 -118t-63.5 -120t-129 -93t-214 -38h-694v711h-265zM743 258h101q47 0 76.5 29.5t29.5 72.5t-28.5 73t-75.5 30h-103v-205z" />
<glyph unicode="&#x44b;" horiz-adv-x="1865" d="M102 0v1051h459v-314h236q131 0 214 -32.5t129 -86t63.5 -119t17.5 -130.5q0 -53 -17.5 -118t-63.5 -120t-129 -93t-214 -38h-695zM561 258h101q47 0 76.5 29.5t29.5 72.5t-28.5 73t-75.5 30h-103v-205zM1272 0v1051h491v-1051h-491z" />
<glyph unicode="&#x44c;" horiz-adv-x="1241" d="M102 0v1051h459v-314h236q131 0 214 -32.5t129 -86t63.5 -119t17.5 -130.5q0 -53 -17.5 -118t-63.5 -120t-129 -93t-214 -38h-695zM561 258h101q47 0 76.5 29.5t29.5 72.5t-28.5 73t-75.5 30h-103v-205z" />
<glyph unicode="&#x44d;" horiz-adv-x="1355" d="M41 455h494q12 -70 49 -109t108 -39q63 0 103.5 32t44.5 99h-228v164h228q-4 66 -39 103.5t-107 37.5q-74 0 -111.5 -43t-50.5 -112h-491q12 111 60.5 201t130 155.5t193.5 101t253 35.5q162 0 281.5 -44t198.5 -119.5t118 -177t39 -216.5q0 -113 -39 -214t-118 -177 t-198.5 -120t-281.5 -44q-141 0 -254 35t-193.5 98.5t-129 152.5t-60.5 200z" />
<glyph unicode="&#x44e;" horiz-adv-x="1902" d="M102 0v1051h459v-334h84q27 80 75 146.5t120.5 114.5t168 75.5t216.5 27.5q156 0 274.5 -44t199.5 -118.5t122 -176t41 -218.5q0 -115 -41 -216t-122 -176t-200 -119t-274 -44q-121 0 -217.5 28t-168 77t-120.5 115.5t-74 146.5h-84v-336h-459zM1079 524q0 -66 40 -107.5 t106 -41.5t105.5 42t39.5 107q0 66 -40 108t-105 42q-66 0 -106 -42t-40 -108z" />
<glyph unicode="&#x44f;" horiz-adv-x="1263" d="M10 0l242 319q-115 53 -162 139.5t-47 186.5q0 82 28.5 155.5t82 129t129 88.5t168.5 33h710v-1051h-473v246l-170 -246h-508zM489 645q0 -47 30 -82t77 -35h92v234h-94q-47 0 -76 -35t-29 -82z" />
<glyph unicode="&#x451;" horiz-adv-x="1370" d="M43 524q0 111 39 212.5t118 178t198.5 121.5t279.5 45q162 0 281.5 -43t199.5 -113.5t119 -158.5t39 -176q0 -41 -2 -78t-10 -80h-770q0 -29 6 -57.5t23.5 -51t46 -37t73.5 -14.5q53 0 93 25t48 65h471q-14 -86 -60 -158.5t-123 -124.5t-183.5 -81t-241.5 -29 q-147 0 -266 38t-204 108.5t-130 174t-45 234.5zM166 1354q0 51 19.5 96t53 79t78.5 53.5t99 19.5q55 0 101 -19.5t80 -53.5t53.5 -79t19.5 -96q0 -49 -19.5 -93t-53.5 -78t-80 -53.5t-101 -19.5q-53 0 -98.5 19.5t-79 53.5t-53 78t-19.5 93zM535 641h290q0 70 -38.5 110 t-106.5 40t-106.5 -40t-38.5 -110zM707 1354q0 51 18 96t52 79t80 53.5t99 19.5t99.5 -19.5t80 -53.5t53 -79t19.5 -96q0 -49 -19.5 -93t-53 -78t-79.5 -53.5t-100 -19.5q-53 0 -99 19.5t-80 53.5t-52 78t-18 93z" />
<glyph unicode="&#x452;" horiz-adv-x="1380" d="M0 1012v229h143v193h461v-193h236v-229h-236v-297q37 76 121 130t213 54q80 0 137.5 -19.5t98.5 -56.5q68 -63 90 -162.5t22 -222.5v-450q0 -129 -26.5 -208t-73.5 -122t-113.5 -57.5t-148.5 -14.5h-289v351h86q98 0 104 90v325q0 143 -106 144q-55 0 -85 -38t-30 -134 v-324h-461v1012h-143z" />
<glyph unicode="&#x453;" horiz-adv-x="890" d="M86 1401l676 225l84 -301l-676 -225zM102 0v1051h768v-381h-309v-670h-459z" />
<glyph unicode="&#x454;" horiz-adv-x="1355" d="M41 524q0 115 39 216.5t117.5 177t198.5 119.5t282 44q141 0 252.5 -35.5t193.5 -101t130.5 -156t60.5 -200.5h-492q-12 70 -50 112.5t-111 42.5q-72 0 -107 -37.5t-39 -103.5h227v-164h-227q4 -68 44 -99.5t104 -31.5q72 0 108.5 39t48.5 109h494q-12 -111 -60.5 -200 t-129.5 -152.5t-193.5 -98.5t-253.5 -35q-162 0 -282 44t-198.5 120t-117.5 177.5t-39 213.5z" />
<glyph unicode="&#x455;" horiz-adv-x="1273" d="M53 350h492q0 -100 104 -100q39 0 57.5 16.5t18.5 38.5q0 33 -41 52.5t-160 43.5q-84 18 -167 38t-147.5 55.5t-104 92t-39.5 146.5q0 96 34.5 163t107.5 107.5t183.5 59t263.5 18.5q170 0 276.5 -27.5t167 -75.5t83 -111.5t22.5 -135.5h-491q0 49 -25.5 69.5t-56.5 20.5 q-29 0 -51.5 -11t-22.5 -44q0 -37 58 -56t173 -42q94 -18 174 -40t136.5 -57.5t88.5 -91t32 -141.5q0 -113 -45.5 -184.5t-124 -112.5t-183 -56.5t-223.5 -15.5q-164 0 -276.5 27t-182 76t-100.5 119.5t-31 158.5z" />
<glyph unicode="&#x456;" horiz-adv-x="696" d="M74 1356q0 55 20.5 101t57 79t86 51.5t108.5 18.5t110.5 -18.5t88.5 -51.5t57.5 -79t20.5 -101q0 -125 -78 -186.5t-199 -61.5q-59 0 -108.5 18.5t-86 51t-57 78t-20.5 100.5zM102 0v1051h492v-1051h-492z" />
<glyph unicode="&#x457;" horiz-adv-x="696" d="M-170 1354q0 51 19.5 96t53.5 79t79 53.5t98 19.5q55 0 101 -19.5t80 -53.5t53.5 -79t19.5 -96q0 -49 -19.5 -93t-53.5 -78t-80 -53.5t-101 -19.5q-53 0 -98 19.5t-79 53.5t-53.5 78t-19.5 93zM102 0v1051h492v-1051h-492zM371 1354q0 51 18.5 96t52 79t79.5 53.5 t100 19.5q53 0 99 -19.5t80 -53.5t53 -79t19 -96q0 -49 -19 -93t-53 -78t-80 -53.5t-99 -19.5t-99.5 19.5t-80 53.5t-52 78t-18.5 93z" />
<glyph unicode="&#x458;" horiz-adv-x="696" d="M-88 -55q39 -8 86 -8q104 0 104 100v1014h492v-1063q0 -129 -28.5 -208t-80 -122t-124 -57.5t-160.5 -14.5q-37 0 -78 2t-81 7.5t-75 10.5t-55 11v328zM74 1356q0 55 20.5 101t57 79t86 51.5t108.5 18.5t110.5 -18.5t88.5 -51.5t57.5 -79t20.5 -101q0 -125 -78 -186.5 t-199 -61.5q-59 0 -108.5 18.5t-86 51t-57 78t-20.5 100.5z" />
<glyph unicode="&#x459;" horiz-adv-x="1984" d="M20 -41v381h60q49 0 68.5 23.5t19.5 60.5v627h1137v-334h235q131 0 214 -32t129 -83t63.5 -115.5t17.5 -128.5q0 -51 -17.5 -113.5t-63.5 -116.5t-129 -91t-214 -37h-694v670h-228v-299q0 -102 -21.5 -179t-72.5 -128.5t-136 -78t-212 -26.5h-156zM1305 260h100 q47 0 76.5 29.5t29.5 72.5t-28.5 73t-75.5 30h-102v-205z" />
<glyph unicode="&#x45a;" horiz-adv-x="1931" d="M102 0v1051h459v-334h232v334h458v-334h236q131 0 214 -32t129 -83t63.5 -115.5t17.5 -128.5q0 -51 -17.5 -113.5t-63.5 -116.5t-129 -91t-214 -37h-694v336h-232v-336h-459zM1251 260h101q47 0 76.5 29.5t29.5 72.5t-28.5 73t-75.5 30h-103v-205z" />
<glyph unicode="&#x45b;" horiz-adv-x="1380" d="M0 1012v229h143v193h461v-193h236v-229h-236v-299q37 76 121 130t213 54q80 0 137.5 -19.5t98.5 -56.5q68 -63 90 -162.5t22 -222.5v-436h-461v350q0 143 -106 144q-55 0 -85 -38t-30 -134v-322h-461v1012h-143z" />
<glyph unicode="&#x45c;" horiz-adv-x="1335" d="M102 0v1051h459v-410h17q39 0 63.5 25.5t60.5 93.5l72 133q53 100 133 134t215 34h121v-369h-29q-39 0 -68.5 -13t-55.5 -58l-29 -50q-10 -18 -32.5 -34.5t-57.5 -22.5l354 -514h-555l-209 401v-401h-459zM291 1401l676 225l84 -301l-676 -225z" />
<glyph unicode="&#x45e;" horiz-adv-x="1411" d="M94 -12h492q0 -43 29.5 -74t89.5 -31q66 0 90 37t24 117v168q-37 -84 -119 -132t-204 -48q-92 0 -166 29.5t-115 66.5q-68 63 -88.5 147t-20.5 207v576h492v-529q0 -143 107 -143q55 0 84.5 38t29.5 134v500h492v-951q0 -139 -49.5 -243.5t-120.5 -157.5 q-41 -31 -83 -52.5t-93.5 -34.5t-116 -19.5t-148.5 -6.5q-168 0 -273 22.5t-183 84.5q-59 47 -104.5 118.5t-45.5 176.5zM217 1581h336q6 -27 17.5 -53.5t31 -47t48 -32.5t67.5 -12t67.5 12t48 32.5t30.5 47t18 53.5h336q-14 -106 -59.5 -185t-112 -130.5t-150.5 -77 t-178 -25.5t-178 25.5t-150.5 77t-112 130.5t-59.5 185z" />
<glyph unicode="&#x45f;" horiz-adv-x="1353" d="M102 0v1051h459v-670h232v670h458v-1051h-374v-215h-402v215h-373z" />
<glyph unicode="&#x462;" horiz-adv-x="1501" d="M20 1059v375h1090v-375h-395v-139h346q94 0 172 -36t133 -97.5t85 -145.5t30 -180q0 -94 -30 -178t-85 -146.5t-133 -99.5t-172 -37h-868v1059h-173zM715 342h86q74 0 110.5 34t36.5 87q0 18 -6 38.5t-22.5 38t-45 28t-73.5 10.5h-86v-236z" />
<glyph unicode="&#x463;" horiz-adv-x="1282" d="M0 1012v229h143v193h459v-193h238v-229h-238v-275h236q131 0 214 -32.5t129 -86t63.5 -119t17.5 -130.5q0 -53 -17.5 -118t-63.5 -120t-129 -93t-214 -38h-695v1012h-143zM602 258h100q47 0 77 29.5t30 72.5t-28.5 73t-75.5 30h-103v-205z" />
<glyph unicode="&#x472;" d="M41 717q0 150 52 287t153.5 241.5t250 167t339.5 62.5q190 0 337.5 -62.5t249 -167t154.5 -242t53 -286.5q0 -150 -53 -287t-154.5 -241.5t-249 -167t-337.5 -62.5t-339 62.5t-250.5 167t-153.5 241.5t-52 287zM578 618q27 -78 91.5 -130t166.5 -52q100 0 165.5 52.5 t90.5 129.5h-514zM580 819h512q-27 76 -92.5 127t-163.5 51q-100 0 -165 -51t-91 -127z" />
<glyph unicode="&#x473;" horiz-adv-x="1355" d="M41 524q0 117 41 218.5t122 176t199.5 118.5t274.5 44t274.5 -44t199.5 -118.5t122 -176t41 -218.5q0 -115 -41 -216t-122 -176t-199.5 -119t-274.5 -44t-274.5 44t-199.5 119t-122 176.5t-41 215.5zM539 578h276q-14 43 -50 69.5t-87 26.5q-53 0 -89 -26.5t-50 -69.5z M541 471q14 -43 49 -69.5t88 -26.5q51 0 87 26.5t50 69.5h-274z" />
<glyph unicode="&#x474;" horiz-adv-x="1724" d="M10 1434h568l270 -951l207 703q25 80 60.5 132t87.5 83t122 43t162 12h217v-430h-45q-35 0 -60.5 -5t-47 -19.5t-39 -41t-33.5 -69.5l-332 -891h-592z" />
<glyph unicode="&#x475;" horiz-adv-x="1380" d="M10 1051h506l191 -592l133 403q23 68 56.5 108t78.5 61.5t101.5 28.5t123.5 7h170v-369h-29q-39 0 -72.5 -15t-66.5 -85l-270 -598h-453z" />
<glyph unicode="&#x48a;" horiz-adv-x="1746" d="M113 0v1434h522v-697l348 598v99h522v-1006h201v-657h-473v229h-250v696l-348 -598v-98h-522zM313 1950h336q6 -27 17.5 -53.5t31 -47t48 -33t67.5 -12.5t67.5 12.5t48 33t31 47t17.5 53.5h336q-14 -106 -59.5 -185t-112 -130.5t-150.5 -77t-178 -25.5t-178 25.5 t-150.5 77t-111.5 130t-60 185.5z" />
<glyph unicode="&#x48b;" horiz-adv-x="1521" d="M102 0v1051h459v-531l305 443v88h459v-670h156v-596h-402v215h-213v508l-305 -442v-66h-459zM221 1581h336q6 -27 17.5 -53.5t31 -47t48 -32.5t67.5 -12t67.5 12t48 32.5t31 47t17.5 53.5h336q-14 -106 -59.5 -185t-112 -130.5t-150.5 -77t-178 -25.5t-178 25.5 t-150.5 77t-111.5 130.5t-60 185z" />
<glyph unicode="&#x48c;" horiz-adv-x="1472" d="M20 1012v229h144v193h522v-193h346v-229h-346v-92h346q94 0 172 -36t133.5 -97.5t85 -145.5t29.5 -180q0 -94 -29.5 -178t-85 -146.5t-133.5 -99.5t-172 -37h-868v1012h-144zM686 342h86q74 0 111 34t37 87q0 18 -6.5 38.5t-23 38t-45 28t-73.5 10.5h-86v-236z" />
<glyph unicode="&#x48d;" horiz-adv-x="1323" d="M20 778v230h144v43h459v-43h237v-230h-237v-41h235q131 0 214 -32.5t129 -86t63.5 -119t17.5 -130.5q0 -53 -17.5 -118t-63.5 -120t-129 -93t-214 -38h-694v778h-144zM623 258h100q47 0 76.5 29.5t29.5 72.5t-28.5 73t-75.5 30h-102v-205z" />
<glyph unicode="&#x48e;" horiz-adv-x="1458" d="M113 0v1434h774q127 0 229.5 -44t175 -120t111.5 -176.5t39 -210.5q0 -154 -74 -284t-209 -202l60 -92l-158 -102l-88 137q-43 -6 -86 -6h-252v-334h-522zM635 723h90l-51 82l157 102l62 -98q16 37 16 74q0 66 -40 112.5t-107 46.5h-127v-319z" />
<glyph unicode="&#x48f;" horiz-adv-x="1433" d="M102 -383v1434h492v-162q8 29 36.5 61.5t70.5 60t95.5 46t114.5 18.5q102 0 187.5 -38t147 -108.5t96 -172t34.5 -230.5q0 -172 -58 -294.5t-163 -188.5l55 -84l-157 -102l-80 123q-16 -2 -30.5 -3.5t-31.5 -1.5q-61 0 -114.5 18.5t-95.5 46.5t-70.5 61.5t-36.5 62.5 v-547h-492zM594 526q0 -57 34 -98t89 -49l-51 80l157 102l54 -84q4 10 6 22.5t2 26.5q0 61 -41 105.5t-105 44.5q-63 0 -104 -44t-41 -106z" />
<glyph unicode="&#x490;" horiz-adv-x="1032" d="M113 0v1434h559v229h360v-645h-397v-1018h-522z" />
<glyph unicode="&#x491;" horiz-adv-x="890" d="M102 0v1051h379v256h389v-637h-309v-670h-459z" />
<glyph unicode="&#x492;" horiz-adv-x="1042" d="M-2 594v229h115v611h919v-441h-397v-170h199v-229h-199v-594h-522v594h-115z" />
<glyph unicode="&#x493;" horiz-adv-x="974" d="M51 297v229h115v525h768v-381h-309v-144h168v-229h-168v-297h-459v297h-115z" />
<glyph unicode="&#x494;" horiz-adv-x="1353" d="M113 0v1434h723v-340h-263v-301q37 76 121 130t213 54q80 0 137.5 -19.5t98.5 -56.5q68 -63 90 -162.5t22 -222.5v-528q0 -129 -26.5 -208t-73.5 -122t-113.5 -57.5t-148.5 -14.5h-289v351h86q98 0 105 90v403q0 143 -107 143q-55 0 -85 -37.5t-30 -134.5v-401h-460z" />
<glyph unicode="&#x495;" horiz-adv-x="1343" d="M102 0v1051h461v-461q37 76 121 130t213 54q80 0 137.5 -19.5t98.5 -56.5q68 -63 90 -162.5t22 -222.5v-325q0 -129 -26.5 -208t-75.5 -122t-118 -57.5t-153 -14.5q-35 0 -74.5 2t-78.5 7.5t-72 10.5t-53 11v328q39 -8 86 -8q104 0 104 100v190q0 143 -106 144 q-55 0 -85 -38t-30 -134v-199h-461z" />
<glyph unicode="&#x496;" horiz-adv-x="2349" d="M10 0l488 702q-49 16 -83 39t-55 60l-61 114q-31 57 -68.5 78t-91.5 21h-45v430h154q68 0 127 -7t111.5 -29t93.5 -60.5t71 -102.5l101 -211q45 -92 74.5 -128t80.5 -36h15v564h505v-564h15q51 0 80.5 36t74.5 128l101 211q31 63 71.5 102t93 61t112 29t126.5 7h154v-430 h-45q-53 0 -91 -20.5t-69 -78.5l-61 -114q-20 -37 -54 -59.5t-84 -39.5l488 -702v-229h-473v229h-111l-328 582v-582h-505v582l-328 -582h-584z" />
<glyph unicode="&#x497;" horiz-adv-x="1916" d="M10 0l350 518q-31 14 -49 31.5t-32 42.5l-25 41q-23 37 -48.5 53t-78.5 16h-49v359h151q68 0 119 -7t90 -27.5t69 -54.5t56 -85l74 -148q18 -37 37.5 -57t54.5 -20h10v389h439v-389h10q35 0 54.5 20t37.5 57l74 148q27 51 56.5 85t68.5 54.5t90 27.5t119 7h151v-359h-49 q-53 0 -78.5 -16t-48.5 -53l-25 -41q-14 -25 -32.5 -42.5t-49.5 -31.5l351 -518v-215h-402v215h-110l-217 401v-401h-439v401l-217 -401h-512z" />
<glyph unicode="&#x498;" horiz-adv-x="1411" d="M20 487h553q0 -66 21.5 -100.5t87.5 -34.5q59 0 79.5 32t20.5 71q0 70 -34.5 98.5t-102.5 28.5h-194v333h190q90 0 121 31t31 88q0 51 -26 72.5t-71 21.5q-68 0 -85 -34.5t-17 -94.5h-553q0 74 21.5 158t91 154.5t197.5 117t341 46.5q127 0 245 -18.5t209 -67t145.5 -128 t54.5 -202.5q0 -63 -25 -118.5t-62.5 -98.5t-86 -71t-93.5 -36q53 -12 101.5 -42.5t85.5 -77t58.5 -106.5t21.5 -132q0 -100 -46.5 -174t-123 -125t-175 -79t-204.5 -36v-65q10 16 35.5 28.5t70.5 12.5q47 0 82 -18.5t57.5 -47.5t33.5 -63.5t11 -65.5q0 -94 -64.5 -158.5 t-186.5 -64.5q-123 0 -187.5 63.5t-64.5 153.5h192q0 -25 16.5 -42.5t43.5 -17.5t42 18.5t15 47.5q0 23 -15.5 40t-39.5 17q-25 0 -38.5 -9t-17.5 -19h-180v190q-180 10 -292.5 58.5t-177 120t-88.5 160.5t-24 185z" />
<glyph unicode="&#x499;" horiz-adv-x="1234" d="M20 371h500q0 -59 18.5 -89t65.5 -30q35 0 52.5 21.5t17.5 52.5q0 59 -37 81.5t-115 22.5h-112v225h110q162 0 162 101q0 35 -21.5 52t-52.5 17q-47 0 -64.5 -28.5t-17.5 -81.5h-489q0 57 21.5 122.5t84 119t179 89t307.5 35.5q106 0 204.5 -15t173 -52t118.5 -95.5 t44 -144.5q0 -66 -22.5 -109.5t-58 -71.5t-78.5 -41t-84 -17q49 -4 94 -18.5t77.5 -44.5t52 -75t19.5 -108q0 -76 -39.5 -133.5t-104 -97.5t-148.5 -63.5t-172 -31.5v-53q10 16 35.5 28.5t70.5 12.5q47 0 82 -18.5t57.5 -47t33.5 -63.5t11 -66q0 -94 -64.5 -158.5 t-187.5 -64.5t-187 63.5t-64 153.5h192q0 -25 16.5 -42t42.5 -17q27 0 42.5 18.5t15.5 46.5q0 23 -15.5 40.5t-40.5 17.5t-38 -9.5t-17 -19.5h-180v178q-152 10 -247 47t-148.5 92.5t-74 125t-20.5 143.5z" />
<glyph unicode="&#x49a;" horiz-adv-x="1572" d="M113 0v1434h522v-553h31q41 0 74.5 27.5t78.5 109.5l119 219q35 63 73 103t84 62.5t101 32t123 9.5h174v-451h-49q-55 0 -90 -18.5t-72 -73.5l-63 -94q-18 -27 -47 -57.5t-74 -53.5l465 -696v-229h-473v229h-127l-328 582v-582h-522z" />
<glyph unicode="&#x49b;" horiz-adv-x="1335" d="M102 0v1051h459v-410h17q39 0 63.5 25.5t60.5 93.5l72 133q53 100 133 134t215 34h121v-369h-29q-39 0 -68.5 -13t-55.5 -58l-29 -50q-10 -18 -32.5 -34.5t-57.5 -22.5l354 -514v-215h-401v215h-154l-209 401v-401h-459z" />
<glyph unicode="&#x49c;" horiz-adv-x="1572" d="M113 0v1434h522v-553h63v252h66v-252q33 2 62.5 30.5t64.5 106.5l98 219q29 66 66 105.5t83 62t101 31t121 8.5h133v-451h-18q-49 0 -81 -16t-61 -66l-53 -88q-18 -31 -39.5 -55.5t-50.5 -40.5l373 -727h-580l-219 582v-185h-66v185h-63v-582h-522z" />
<glyph unicode="&#x49d;" horiz-adv-x="1335" d="M102 0v1051h459v-410h49v102h58v-96q23 10 43 36t43 77l51 133q41 104 124 136t214 32h100v-379q-35 0 -57.5 -7t-44.5 -34l-29 -49q-12 -20 -31.5 -40t-48.5 -28l293 -524h-504l-153 401v-178h-58v178h-49v-401h-459z" />
<glyph unicode="&#x49e;" horiz-adv-x="1624" d="M20 1012v229h144v193h522v-193h125v-229h-125v-131h31q41 0 74.5 27.5t78.5 109.5l119 219q35 63 73 103t84 62.5t101.5 32t122.5 9.5h174v-451h-49q-55 0 -90 -18.5t-72 -73.5l-63 -94q-18 -27 -47 -57.5t-74 -53.5l465 -696h-600l-328 582v-582h-522v1012h-144z" />
<glyph unicode="&#x49f;" horiz-adv-x="1396" d="M20 778v230h144v43h459v-43h90v-230h-90v-137h16q39 0 63.5 25.5t61.5 93.5l72 133q53 100 133 134t215 34h121v-369h-29q-39 0 -68.5 -13t-56.5 -58l-29 -50q-10 -18 -32.5 -34.5t-57.5 -22.5l354 -514h-555l-208 401v-401h-459v778h-144z" />
<glyph unicode="&#x4a0;" horiz-adv-x="1746" d="M20 993v441h787l2 -553h31q41 0 74.5 27.5t78.5 109.5l119 219q35 63 73 103t84 62.5t101 32t123 9.5h174v-451h-49q-55 0 -90 -18.5t-72 -73.5l-63 -94q-18 -27 -47 -57.5t-74 -53.5l465 -696h-600l-328 582v-582h-524v993h-265z" />
<glyph unicode="&#x4a1;" horiz-adv-x="1517" d="M20 711v340h723v-410h17q39 0 63.5 25.5t61.5 93.5l71 133q53 100 133 134t216 34h120v-369h-28q-39 0 -69 -13t-56 -58l-29 -50q-10 -18 -32.5 -34.5t-57.5 -22.5l354 -514h-555l-209 401v-401h-458v711h-265z" />
<glyph unicode="&#x4a2;" horiz-adv-x="1699" d="M113 0v1434h522v-508h303v508h522v-1004h199v-661h-473v231h-248v498h-303v-498h-522z" />
<glyph unicode="&#x4a3;" horiz-adv-x="1447" d="M102 0v1051h459v-334h232v334h458v-670h156v-596h-401v215h-213v336h-232v-336h-459z" />
<glyph unicode="&#x4a4;" horiz-adv-x="1746" d="M113 0v1434h522v-508h303v508h788v-441h-264l-2 -993h-522v498h-303v-498h-522z" />
<glyph unicode="&#x4a5;" horiz-adv-x="1536" d="M102 0v1051h459v-334h232v334h723v-340h-265v-711h-458v336h-232v-336h-459z" />
<glyph unicode="&#x4a6;" horiz-adv-x="1699" d="M113 0v1434h1347v-1004h199v-661h-473v231h-248v1006h-303v-1006h-522z" />
<glyph unicode="&#x4a7;" horiz-adv-x="1427" d="M102 0v1051h1149v-670h156v-596h-401v215h-213v670h-232v-670h-459z" />
<glyph unicode="&#x4a8;" horiz-adv-x="1742" d="M41 731q0 162 43 294t124 229.5t200.5 153.5t273.5 67v-478q-86 -12 -128 -80.5t-42 -183.5q0 -121 67.5 -213t194.5 -123v564q0 115 34 209t92 160.5t138 103t174 36.5q106 0 195.5 -26.5t155 -86t102.5 -156.5t37 -240v-244q0 -121 -35 -233.5t-103.5 -208t-169 -167 t-229.5 -110.5q18 -61 101 -61h86v-351h-215q-80 0 -145.5 13.5t-114 54.5t-75 115.5t-28.5 195.5q-176 16 -312 85t-230.5 172.5t-142.5 234.5t-48 274zM1161 465q121 88 121 252v254q0 76 -14.5 103.5t-44.5 27.5q-27 0 -44.5 -27.5t-17.5 -101.5v-508z" />
<glyph unicode="&#x4a9;" horiz-adv-x="1398" d="M41 539q0 119 32.5 217t94 168.5t152 111.5t204.5 47v-391q-115 -31 -114 -180q0 -72 38.5 -124t120.5 -75v392q0 106 35 178.5t88 116.5t120 62.5t132 18.5q63 0 130 -18.5t121 -62.5t88 -115.5t34 -177.5v-181q0 -90 -28.5 -174t-85 -154.5t-138.5 -122.5t-188 -79v-59 q6 -72 84 -72h67v-279h-139q-66 0 -123 9.5t-101 43t-70 96t-26 171.5v69q-127 14 -225 64.5t-165.5 126.5t-102.5 172t-35 201zM877 362q79 62 79 164v97q0 111 -9 149.5t-32 38.5t-30.5 -20.5t-7.5 -75.5v-353z" />
<glyph unicode="&#x4aa;" horiz-adv-x="1667" d="M41 717q0 150 53 287t155.5 241.5t250 167t336.5 62.5q180 0 321 -53.5t240.5 -143.5t157 -211t69.5 -258h-545q-16 80 -73.5 135t-167.5 55q-68 0 -118 -23.5t-82 -62.5t-48.5 -90t-16.5 -106q0 -125 71 -204t194 -79q117 0 175 55.5t72 128.5h545q-14 -123 -63 -235.5 t-135 -199.5t-206 -145t-276 -73v-67q10 16 36 28.5t71 12.5q47 0 82 -18.5t57.5 -47.5t33.5 -63.5t11 -65.5q0 -94 -64.5 -158.5t-187.5 -64.5t-187.5 63.5t-64.5 153.5h193q0 -25 16.5 -42.5t42.5 -17.5q27 0 42.5 18.5t15.5 47.5q0 23 -15.5 40t-40.5 17t-38 -9t-17 -19 h-180v190q-170 14 -303.5 81t-224.5 169t-139 232t-48 272z" />
<glyph unicode="&#x4ab;" horiz-adv-x="1347" d="M41 524q0 115 41 216.5t121 177t198.5 119.5t276.5 44q143 0 254.5 -38.5t190.5 -105.5t124 -157t58 -192h-492q-10 41 -44 67.5t-89 26.5q-78 0 -113 -48t-35 -110q0 -61 37 -108t115 -47q98 0 127 86h494q-10 -96 -52.5 -181.5t-114 -150t-172 -104t-229.5 -48.5v-61 q10 16 36 28.5t71 12.5q47 0 82 -18.5t57.5 -47t33.5 -63.5t11 -66q0 -94 -64.5 -158.5t-187.5 -64.5t-187.5 63.5t-64.5 153.5h193q0 -25 16.5 -42t42.5 -17q27 0 42.5 18.5t15.5 46.5q0 23 -15.5 40.5t-40.5 17.5t-38 -9.5t-17 -19.5h-180v195q-123 18 -217.5 67t-158 122 t-95 164t-31.5 191z" />
<glyph unicode="&#x4ac;" horiz-adv-x="1153" d="M51 993v441h1051v-441h-264v-563h198v-661h-473v231h-248v993h-264z" />
<glyph unicode="&#x4ad;" horiz-adv-x="1054" d="M20 670v381h1014v-381h-276v-289h155v-596h-401v215h-213v670h-279z" />
<glyph unicode="&#x4ae;" horiz-adv-x="1531" d="M10 1434h584l172 -457l172 457h584l-496 -985v-449h-520v449z" />
<glyph unicode="&#x4af;" horiz-adv-x="1335" d="M10 1051h510l148 -506l147 506h510l-397 -985v-449h-520v449z" />
<glyph unicode="&#x4b0;" horiz-adv-x="1531" d="M10 1434h584l172 -457l172 457h584l-482 -955h207v-229h-221v-250h-520v250h-221v229h204z" />
<glyph unicode="&#x4b1;" horiz-adv-x="1335" d="M10 1051h510l148 -506l147 506h510l-397 -985v-66h172v-229h-172v-154h-520v154h-172v229h172v66z" />
<glyph unicode="&#x4b2;" horiz-adv-x="1478" d="M10 0l426 717l-426 717h565l164 -359l164 359h565l-426 -717l426 -717v-229h-473v229h-92l-164 358l-164 -358h-565z" />
<glyph unicode="&#x4b3;" horiz-adv-x="1402" d="M10 0l393 530l-387 521h570l114 -238l117 238h569l-387 -521l394 -530v-215h-402v215h-168l-123 248l-120 -248h-570z" />
<glyph unicode="&#x4b4;" horiz-adv-x="1845" d="M20 993v441h930v-441h-143v-565h276v1006h523v-1006h198v-657h-473v229h-1046v993h-265z" />
<glyph unicode="&#x4b5;" horiz-adv-x="1630" d="M20 711v340h836v-340h-113v-330h232v670h459v-670h155v-596h-401v215h-903v711h-265z" />
<glyph unicode="&#x4b6;" horiz-adv-x="1593" d="M31 842v592h522v-484q0 -127 50 -170t136 -43h92v697h523v-1004h198v-661h-473v231h-248v381h-309q-106 0 -196 34t-156 94t-102.5 145t-36.5 188z" />
<glyph unicode="&#x4b7;" horiz-adv-x="1363" d="M41 637v414h459v-336q0 -139 143 -140h66v476h458v-670h156v-596h-401v215h-213v264h-275q-186 0 -289.5 93.5t-103.5 279.5z" />
<glyph unicode="&#x4b8;" horiz-adv-x="1466" d="M31 842v592h522v-484q0 -113 39 -157.5t106 -53.5v127h66v-129h67v697h523v-1434h-523v381h-67v-125h-66v125h-176q-106 0 -196 34t-156 94t-102.5 145t-36.5 188z" />
<glyph unicode="&#x4b9;" horiz-adv-x="1269" d="M41 637v414h459v-336q0 -117 96 -135v141h57v-146h56v476h458v-1051h-458v264h-56v-137h-57v137h-162q-186 0 -289.5 93.5t-103.5 279.5z" />
<glyph unicode="&#x4ba;" horiz-adv-x="1349" d="M113 0v1434h460v-359h181q90 0 155.5 -11t111.5 -30.5t79 -45t57 -54.5q25 -27 43.5 -61.5t30.5 -86t18 -122t6 -168.5v-496h-460v496q0 98 -32 137t-126 39h-64v-672h-460z" />
<glyph unicode="&#x4bb;" horiz-adv-x="1339" d="M102 0v1434h461v-543q37 76 121 130t213 54q80 0 137.5 -19.5t98.5 -56.5q68 -63 90 -162.5t22 -222.5v-614h-461v528q0 143 -106 144q-55 0 -85 -38t-30 -134v-500h-461z" />
<glyph unicode="&#x4bc;" horiz-adv-x="2058" d="M20 885v127h283v-72q0 -43 24.5 -69.5t65.5 -26.5h45q20 129 81 243.5t161 200.5t236.5 136.5t306.5 50.5q190 0 337.5 -62.5t249 -167t154.5 -241.5t53 -287q0 -57 -6 -109h-1057q20 -111 91 -162t169 -51t154.5 39t81.5 92h541q-18 -102 -77 -203.5t-157 -182.5 t-232 -131t-302 -50q-172 0 -310.5 51t-239 140.5t-160.5 207t-79 250.5h-141q-61 0 -111.5 20.5t-86.5 57.5t-55.5 88t-19.5 111zM961 844h514q-27 92 -92 143t-171 51q-96 0 -162.5 -50t-88.5 -144z" />
<glyph unicode="&#x4bd;" horiz-adv-x="1732" d="M20 709v127h283v-99q0 -43 24.5 -69.5t65.5 -26.5h23q18 92 66 172t126 140.5t185.5 94t246.5 33.5q162 0 282 -43t200 -113.5t118.5 -158.5t38.5 -176q0 -41 -2 -78t-10 -80h-770q0 -29 6 -57.5t23.5 -51t46 -37t74.5 -14.5q53 0 93 25t48 65h471q-14 -86 -60.5 -158.5 t-123 -124.5t-183 -81t-241.5 -29q-270 0 -439.5 120t-199.5 343h-119q-61 0 -111.5 20.5t-86.5 57.5t-55.5 88t-19.5 111zM897 641h291q0 70 -39 110t-107 40t-106.5 -40t-38.5 -110z" />
<glyph unicode="&#x4be;" horiz-adv-x="2058" d="M20 885v127h283v-72q0 -43 24.5 -69.5t65.5 -26.5h45q20 129 81 243.5t161 200.5t236.5 136.5t306.5 50.5q190 0 337.5 -62.5t249 -167t154.5 -242t53 -286.5q0 -57 -6 -109h-1057q20 -111 91 -162t169 -51t154.5 39t81.5 92h541q-16 -92 -66.5 -184t-131.5 -169 t-192.5 -132t-252.5 -74q-29 -23 -46.5 -53.5t-17.5 -73.5t24.5 -75.5t69.5 -32.5q25 0 55.5 6t59.5 18l-12 -159q-55 -18 -99.5 -24.5t-111.5 -6.5q-80 0 -137.5 15.5t-94.5 43t-53 63.5t-16 76q-1 111 118 205q-143 18 -256.5 76.5t-196.5 143.5t-133 192.5t-67 226.5 h-141q-61 0 -111.5 20.5t-86.5 57.5t-55.5 88t-19.5 111zM961 844h514q-27 92 -92 143t-171 51q-96 0 -162.5 -50t-88.5 -144z" />
<glyph unicode="&#x4bf;" horiz-adv-x="1732" d="M20 709v127h283v-99q0 -43 24.5 -69.5t65.5 -26.5h23q18 92 66 172t126 140.5t185.5 94t246.5 33.5q162 0 282 -43t200 -113.5t118.5 -158.5t38.5 -176q0 -41 -2 -78t-10 -80h-770q0 -29 6 -57.5t23.5 -51t46 -37t74.5 -14.5q53 0 93 25t48 65h471q-25 -154 -150 -259 t-342 -128q-31 -25 -53 -56.5t-22 -78.5q0 -43 24.5 -75.5t69.5 -32.5q25 0 55.5 6t58.5 18l-12 -159q-55 -18 -99 -24.5t-112 -6.5q-80 0 -137 15.5t-94 43t-53.5 63.5t-16.5 76q0 59 32.5 111t98.5 105q-209 29 -339 144.5t-156 307.5h-119q-61 0 -111.5 20.5t-86.5 57.5 t-55.5 88t-19.5 111zM897 641h291q0 70 -39 110t-107 40t-106.5 -40t-38.5 -110z" />
<glyph unicode="&#x4c0;" horiz-adv-x="747" d="M113 0v1434h522v-1434h-522z" />
<glyph unicode="&#x4c3;" horiz-adv-x="1513" d="M113 0v1434h522v-615h31q41 0 78.5 25.5t74.5 111.5l119 281q27 66 64.5 106.5t86 63.5t105.5 30t125 7h174v-451h-49q-55 0 -90 -18.5t-72 -73.5l-63 -94q-16 -25 -46 -52.5t-75 -47.5q137 -29 221 -136q41 -53 60.5 -137t19.5 -229v-217q0 -129 -29 -208t-80 -122 t-123.5 -57.5t-160.5 -14.5q-35 0 -75 2t-79 7.5t-71.5 10.5t-53.5 11v328q39 -8 86 -8q84 0 84 100v291q0 98 -27.5 137t-109.5 39h-125v-504h-522z" />
<glyph unicode="&#x4c4;" horiz-adv-x="1325" d="M102 0v1051h459v-410h17q39 0 63.5 25.5t60.5 93.5l72 133q53 100 133 134t215 34h121v-369h-29q-39 0 -68.5 -13t-55.5 -58l-29 -50q-10 -18 -32.5 -34.5t-57.5 -22.5q59 -14 98 -35.5t74 -56.5t55.5 -88t20.5 -125v-223q0 -129 -27 -208t-74 -122t-113.5 -57.5 t-148.5 -14.5h-264v350h61q98 0 105 91v233q0 74 -26.5 108.5t-92.5 34.5h-78v-401h-459z" />
<glyph unicode="&#x4c5;" horiz-adv-x="1736" d="M20 -41v381h93q98 0 98 78v1016h1333v-1223h182l-149 -397h-471l70 186h-154v1006h-289v-646q0 -129 -34.5 -207.5t-97 -121.5t-147.5 -57.5t-184 -14.5h-250z" />
<glyph unicode="&#x4c6;" horiz-adv-x="1497" d="M20 -41v381h60q49 0 68.5 23.5t19.5 60.5v627h1137v-840h182l-150 -397h-407l69 186h-153v670h-228v-299q0 -102 -21.5 -179t-72.5 -128.5t-136 -78t-212 -26.5h-156z" />
<glyph unicode="&#x4c7;" horiz-adv-x="1576" d="M113 0v1434h522v-508h303v508h522v-1446q0 -129 -25.5 -208t-72.5 -122t-113.5 -57.5t-148.5 -14.5h-350v351h86q102 0 102 90v471h-303v-498h-522z" />
<glyph unicode="&#x4c8;" horiz-adv-x="1349" d="M102 0v1051h459v-334h232v334h458v-1063q0 -129 -26.5 -208t-73.5 -122t-113.5 -57.5t-148.5 -14.5h-289v351h86q106 0 107 90v309h-232v-336h-459z" />
<glyph unicode="&#x4c9;" horiz-adv-x="1601" d="M113 0v1434h522v-508h303v508h522v-1223h182l-149 -397h-471l70 186h-154v498h-303v-498h-522z" />
<glyph unicode="&#x4ca;" horiz-adv-x="1454" d="M102 0v1051h459v-334h232v334h458v-840h183l-150 -397h-407l69 186h-153v336h-232v-336h-459z" />
<glyph unicode="&#x4cb;" horiz-adv-x="1466" d="M31 842v592h522v-484q0 -127 50 -170t136 -43h92v697h523v-1434h-248v-229h-473v440h198v170h-309q-106 0 -196 34t-156 94t-102.5 145t-36.5 188z" />
<glyph unicode="&#x4cc;" horiz-adv-x="1363" d="M41 637v414h459v-336q0 -139 143 -140h66v476h458v-670h156v-596h-401v215h-213v264h-275q-186 0 -289.5 93.5t-103.5 279.5z" />
<glyph unicode="&#x4cd;" horiz-adv-x="2142" d="M113 0v1434h700l227 -856l228 856h680v-1223h184l-150 -397h-471l70 186h-135v891l-211 -891h-383l-238 891v-891h-501z" />
<glyph unicode="&#x4ce;" horiz-adv-x="1980" d="M102 0v1051h650l188 -629l188 629h650v-840h182l-150 -397h-407l70 186h-156v610l-223 -610h-308l-223 610v-610h-461z" />
<glyph unicode="&#x4d0;" horiz-adv-x="1714" d="M10 0l545 1434h586l563 -1434h-588l-43 158h-452l-43 -158h-568zM348 1950h336q6 -27 17.5 -53.5t31 -47t48 -33t67.5 -12.5t67.5 12.5t48 33t31 47t17.5 53.5h336q-14 -106 -59.5 -185t-112 -130.5t-150.5 -77t-178 -25.5t-178 25.5t-150.5 77t-112 130t-59.5 185.5z M719 516h256l-127 469z" />
<glyph unicode="&#x4d1;" horiz-adv-x="1417" d="M41 524q0 129 35 231.5t96 173t146 108.5t188 38q61 0 114.5 -18.5t95.5 -46t69.5 -61.5t37.5 -62v164h492v-1051h-492v162q-10 -29 -37.5 -62.5t-69.5 -61.5t-95.5 -46.5t-114.5 -18.5q-102 0 -187.5 38t-146.5 108.5t-96 173t-35 231.5zM233 1581h336q6 -27 17.5 -53.5 t31 -47t48 -32.5t67.5 -12t67.5 12t48 32.5t31 47t17.5 53.5h336q-14 -106 -59.5 -185t-112 -130.5t-150.5 -77t-178 -25.5t-178 25.5t-150.5 77t-111.5 130.5t-60 185zM532 524q0 -61 41.5 -105t104.5 -44t104 44t41 105t-41 105.5t-104 44.5t-104.5 -44t-41.5 -106z" />
<glyph unicode="&#x4d2;" horiz-adv-x="1714" d="M10 0l545 1434h586l563 -1434h-588l-43 158h-452l-43 -158h-568zM326 1733q0 51 19.5 96t53 79t78.5 53t98 19q55 0 101.5 -19t80.5 -53t53 -79t19 -96q0 -49 -19 -93.5t-53 -78t-80 -53t-102 -19.5q-53 0 -98 19.5t-78.5 53t-53 78t-19.5 93.5zM719 516h256l-127 469z M866 1733q0 51 18.5 96t52.5 79t80 53t99 19t99.5 -19t80 -53t53 -79t19.5 -96q0 -49 -19.5 -93.5t-53 -78t-80 -53t-99.5 -19.5t-99 19.5t-80 53t-52.5 78t-18.5 93.5z" />
<glyph unicode="&#x4d3;" horiz-adv-x="1417" d="M41 524q0 129 35 231.5t96 173t146 108.5t188 38q61 0 114.5 -18.5t95.5 -46t69.5 -61.5t37.5 -62v164h492v-1051h-492v162q-10 -29 -37.5 -62.5t-69.5 -61.5t-95.5 -46.5t-114.5 -18.5q-102 0 -187.5 38t-146.5 108.5t-96 173t-35 231.5zM150 1354q0 51 19 96t53 79 t79 53.5t98 19.5q55 0 101.5 -19.5t80 -53.5t53 -79t19.5 -96q0 -49 -19.5 -93t-53 -78t-80 -53.5t-101.5 -19.5q-53 0 -98 19.5t-79 53.5t-53 78t-19 93zM532 524q0 -61 41.5 -105t104.5 -44t104 44t41 105t-41 105.5t-104 44.5t-104.5 -44t-41.5 -106zM690 1354 q0 51 18.5 96t52.5 79t80 53.5t99 19.5t99 -19.5t80 -53.5t53.5 -79t19.5 -96q0 -49 -19.5 -93t-53.5 -78t-80 -53.5t-99 -19.5t-99 19.5t-80 53.5t-52.5 78t-18.5 93z" />
<glyph unicode="&#x4d4;" horiz-adv-x="2037" d="M10 0l668 1434h1264v-375h-449v-170h449v-354h-449v-160h449v-375h-971v158h-330l-63 -158h-568zM782 516h189v469z" />
<glyph unicode="&#x4d5;" horiz-adv-x="2166" d="M57 524q0 129 35 231.5t96.5 173t146.5 108.5t187 38q61 0 114.5 -18.5t95.5 -46t69.5 -61.5t38.5 -62v164h399q53 14 111.5 22t124.5 8q162 0 281.5 -43t199.5 -113.5t119 -158.5t39 -176q0 -41 -2.5 -78t-10.5 -80h-770q0 -29 6 -57.5t23.5 -51t46.5 -37t74 -14.5 q53 0 93 25t48 65h471q-14 -86 -60 -158.5t-123 -124.5t-183.5 -81t-241.5 -29q-133 0 -244 31h-401v162q-10 -29 -38 -62.5t-70 -61.5t-95 -46.5t-115 -18.5q-102 0 -187 38t-146.5 108.5t-96.5 173t-35 231.5zM549 524q0 -61 41 -105t104 -44t104.5 44t41.5 105t-41 105.5 t-105 44.5q-63 0 -104 -44t-41 -106zM1331 641h291q0 70 -38.5 110t-106.5 40q-66 0 -104 -39t-42 -111z" />
<glyph unicode="&#x4d6;" horiz-adv-x="1179" d="M109 1950h335q6 -27 17.5 -53.5t31 -47t48 -33t67.5 -12.5t68 12.5t48 33t30.5 47t17.5 53.5h336q-14 -106 -59 -185t-112 -130.5t-151 -77t-178 -25.5t-178 25.5t-150.5 77t-111.5 130t-59 185.5zM113 0v1434h970v-375h-448v-170h448v-354h-448v-160h448v-375h-970z" />
<glyph unicode="&#x4d7;" horiz-adv-x="1370" d="M43 524q0 111 39 212.5t118 178t198.5 121.5t279.5 45q162 0 281.5 -43t199.5 -113.5t119 -158.5t39 -176q0 -41 -2 -78t-10 -80h-770q0 -29 6 -57.5t23.5 -51t46 -37t73.5 -14.5q53 0 93 25t48 65h471q-14 -86 -60 -158.5t-123 -124.5t-183.5 -81t-241.5 -29 q-147 0 -266 38t-204 108.5t-130 174t-45 234.5zM190 1581h336q6 -27 17.5 -53.5t31 -47t48 -32.5t67.5 -12t67.5 12t48 32.5t31 47t17.5 53.5h336q-14 -106 -59.5 -185t-112 -130.5t-150.5 -77t-178 -25.5t-178 25.5t-150.5 77t-111.5 130.5t-60 185zM535 641h290 q0 70 -38.5 110t-106.5 40t-106.5 -40t-38.5 -110z" />
<glyph unicode="&#x4d8;" d="M41 717q0 55 6 108h1055q-18 111 -89 162t-169 51t-154.5 -38.5t-81.5 -92.5h-540q18 102 76.5 203.5t156.5 182.5t232.5 131.5t302.5 50.5q190 0 337.5 -62.5t249 -167t154.5 -242t53 -286.5q0 -150 -53 -287t-154.5 -241.5t-249 -167t-337.5 -62.5t-339 62.5 t-250.5 167t-153.5 241.5t-52 287zM584 590q27 -92 91.5 -143.5t170.5 -51.5q94 0 160.5 50.5t91.5 144.5h-514z" />
<glyph unicode="&#x4d9;" horiz-adv-x="1370" d="M53 461q0 41 2 77.5t11 79.5h770q0 29 -6.5 58t-24 51.5t-46 36.5t-73.5 14q-53 0 -93 -24.5t-48 -65.5h-471q14 86 60 159t123 125t183.5 80.5t241.5 28.5q147 0 266 -37.5t204 -108.5t130 -174.5t45 -234.5q0 -111 -39 -212t-117.5 -178t-198.5 -122t-280 -45 q-162 0 -281.5 43t-199.5 114t-119 158t-39 177zM545 410q0 -70 38.5 -110t106.5 -40t107 40t39 110h-291z" />
<glyph unicode="&#x4da;" d="M41 717q0 55 6 108h1055q-18 111 -89 162t-169 51t-154.5 -38.5t-81.5 -92.5h-540q18 102 76.5 203.5t156.5 182.5t232.5 131.5t302.5 50.5q190 0 337.5 -62.5t249 -167t154.5 -242t53 -286.5q0 -150 -53 -287t-154.5 -241.5t-249 -167t-337.5 -62.5t-339 62.5 t-250.5 167t-153.5 241.5t-52 287zM326 1733q0 51 19.5 96t53 79t78.5 53t98 19q55 0 101.5 -19t80.5 -53t53 -79t19 -96q0 -49 -19 -93.5t-53 -78t-80.5 -53t-101.5 -19.5q-53 0 -98 19.5t-78.5 53t-53 77.5t-19.5 94zM584 590q27 -92 91.5 -143.5t170.5 -51.5 q94 0 160.5 50.5t91.5 144.5h-514zM866 1733q0 51 18.5 96t52.5 79t80 53t99 19t99.5 -19t80 -53t53 -79t19.5 -96q0 -49 -19.5 -93.5t-53 -78t-80 -53t-99.5 -19.5t-99 19.5t-80 53t-52.5 78t-18.5 93.5z" />
<glyph unicode="&#x4db;" horiz-adv-x="1370" d="M53 461q0 41 2 77.5t11 79.5h770q0 29 -6.5 58t-24 51.5t-46 36.5t-73.5 14q-53 0 -93 -24.5t-48 -65.5h-471q14 86 60 159t123 125t183.5 80.5t241.5 28.5q147 0 266 -37.5t204 -108.5t130 -174.5t45 -234.5q0 -111 -39 -212t-117.5 -178t-198.5 -122t-280 -45 q-162 0 -281.5 43t-199.5 114t-119 158t-39 177zM176 1354q0 51 19.5 96t53.5 79t79 53.5t98 19.5q55 0 101 -19.5t80 -53.5t53.5 -79t19.5 -96q0 -49 -19.5 -93t-53.5 -78t-80 -53.5t-101 -19.5q-53 0 -98 19.5t-79 53.5t-53.5 78t-19.5 93zM545 410q0 -70 38.5 -110 t106.5 -40t107 40t39 110h-291zM717 1354q0 51 18.5 96t52 79t79.5 53.5t100 19.5q53 0 99 -19.5t80 -53.5t53.5 -79t19.5 -96q0 -49 -19.5 -93t-53.5 -78t-80 -53.5t-99 -19.5t-99.5 19.5t-80 53.5t-52 78t-18.5 93z" />
<glyph unicode="&#x4dc;" horiz-adv-x="2349" d="M10 0l488 702q-49 16 -83 39t-55 60l-61 114q-31 57 -68.5 78t-91.5 21h-45v430h154q68 0 127 -7t111.5 -29t93.5 -60.5t71 -102.5l101 -211q45 -92 74.5 -128t80.5 -36h15v564h505v-564h15q51 0 80.5 36t74.5 128l101 211q31 63 71.5 102t93 61t112 29t126.5 7h154v-430 h-45q-53 0 -91 -20.5t-69 -78.5l-61 -114q-20 -37 -54 -59.5t-84 -39.5l488 -702h-584l-328 582v-582h-505v582l-328 -582h-584zM655 1733q0 51 19.5 96t53.5 79t79 53t98 19q55 0 101.5 -19t80 -53t53 -79t19.5 -96q0 -49 -19.5 -93.5t-53 -78t-79.5 -53t-102 -19.5 q-53 0 -98 19.5t-79 53t-53.5 78t-19.5 93.5zM1196 1733q0 51 18.5 96t52 79t80 53t99.5 19t99 -19t80 -53t53.5 -79t19.5 -96q0 -49 -19.5 -93.5t-53.5 -78t-80 -53t-99 -19.5t-99.5 19.5t-80 53t-52 78t-18.5 93.5z" />
<glyph unicode="&#x4dd;" horiz-adv-x="1916" d="M10 0l350 518q-31 14 -49 31.5t-32 42.5l-25 41q-23 37 -48.5 53t-78.5 16h-49v359h151q68 0 119 -7t90 -27.5t69 -54.5t56 -85l74 -148q18 -37 37.5 -57t54.5 -20h10v389h439v-389h10q35 0 54.5 20t37.5 57l74 148q27 51 56.5 85t68.5 54.5t90 27.5t119 7h151v-359h-49 q-53 0 -78.5 -16t-48.5 -53l-25 -41q-14 -25 -32.5 -42.5t-49.5 -31.5l351 -518h-512l-217 401v-401h-439v401l-217 -401h-512zM440 1354q0 51 19.5 96t53.5 79t79 53.5t98 19.5q55 0 101.5 -19.5t80 -53.5t53 -79t19.5 -96q0 -49 -19.5 -93t-53 -78t-80 -53.5t-101.5 -19.5 q-53 0 -98 19.5t-79 53.5t-53.5 78t-19.5 93zM981 1354q0 51 18.5 96t52 79t80 53.5t99.5 19.5t99 -19.5t80 -53.5t53.5 -79t19.5 -96q0 -49 -19.5 -93t-53.5 -78t-80 -53.5t-99 -19.5t-99.5 19.5t-80 53.5t-52 78t-18.5 93z" />
<glyph unicode="&#x4de;" horiz-adv-x="1411" d="M20 487h553q0 -66 21.5 -100.5t87.5 -34.5q59 0 79.5 32t20.5 71q0 70 -34.5 98.5t-102.5 28.5h-194v333h190q90 0 121 31t31 88q0 51 -26 72.5t-71 21.5q-68 0 -85 -34.5t-17 -94.5h-553q0 74 21.5 158t91 154.5t197.5 117t341 46.5q127 0 245 -18.5t209 -67t145.5 -128 t54.5 -202.5q0 -63 -25 -118.5t-62.5 -98.5t-86 -71t-93.5 -36q53 -12 101.5 -42.5t85.5 -77t58.5 -106.5t21.5 -132q0 -111 -56.5 -191t-146.5 -130t-206 -73.5t-232 -23.5q-213 0 -346.5 44t-209 118t-102.5 169t-27 197zM180 1757q0 51 19.5 96t53.5 79t79 53.5t98 19.5 q55 0 101.5 -19.5t80 -53.5t53 -79t19.5 -96q0 -49 -19.5 -93t-53 -78t-80 -53.5t-101.5 -19.5q-53 0 -98 19.5t-79 53.5t-53.5 78t-19.5 93zM721 1757q0 51 18.5 96t52 79t80 53.5t99.5 19.5t99 -19.5t80 -53.5t53.5 -79t19.5 -96q0 -49 -19.5 -93t-53.5 -78t-80 -53.5 t-99 -19.5t-99.5 19.5t-80 53.5t-52 78t-18.5 93z" />
<glyph unicode="&#x4df;" horiz-adv-x="1234" d="M20 371h500q0 -59 18.5 -89t65.5 -30q35 0 52.5 21.5t17.5 52.5q0 59 -37 81.5t-115 22.5h-112v225h110q162 0 162 101q0 35 -21.5 52t-52.5 17q-47 0 -64.5 -28.5t-17.5 -81.5h-489q0 57 21.5 122.5t84 119t179 89t307.5 35.5q106 0 204.5 -15t173 -52t118.5 -95.5 t44 -144.5q0 -66 -22.5 -109.5t-58 -71.5t-78.5 -41t-84 -17q49 -4 94 -18.5t77.5 -44.5t52 -75t19.5 -108q0 -84 -49 -146.5t-128 -103.5t-177 -60.5t-197 -19.5q-184 0 -300.5 35t-183 91t-90.5 131t-24 155zM104 1354q0 51 19.5 96t53.5 79t79 53.5t98 19.5 q55 0 101.5 -19.5t80 -53.5t53 -79t19.5 -96q0 -49 -19.5 -93t-53 -78t-80 -53.5t-101.5 -19.5q-53 0 -98 19.5t-79 53.5t-53.5 78t-19.5 93zM645 1354q0 51 18.5 96t52.5 79t80 53.5t99 19.5t99 -19.5t80 -53.5t53.5 -79t19.5 -96q0 -49 -19.5 -93t-53.5 -78t-80 -53.5 t-99 -19.5t-99 19.5t-80 53.5t-52.5 78t-18.5 93z" />
<glyph unicode="&#x4e0;" horiz-adv-x="1411" d="M20 487h553q0 -51 22.5 -93t96.5 -42q63 0 87 35t24 78q0 63 -40 90t-118 27h-219l225 436h-516v416h1188l-305 -596q68 -14 127 -47t103 -84.5t71 -119t27 -149.5q0 -127 -56.5 -217t-146.5 -148.5t-206 -86t-232 -27.5q-207 0 -339.5 43t-209 115.5t-106.5 168 t-30 201.5z" />
<glyph unicode="&#x4e1;" horiz-adv-x="1384" d="M20 104h543q0 -51 22.5 -93t96.5 -42q63 0 87 43t24 101q0 82 -38 114.5t-110 32.5h-244l226 375h-492v416h1188l-315 -596q61 -14 117.5 -47t98.5 -84.5t66.5 -119t24.5 -149.5q0 -127 -53.5 -216t-139.5 -145t-195.5 -82t-221.5 -26q-207 0 -339.5 41t-209 112 t-106.5 165t-30 200z" />
<glyph unicode="&#x4e2;" horiz-adv-x="1617" d="M113 0v1434h522v-697l348 598v99h522v-1434h-522v696l-348 -598v-98h-522zM418 1589v307h794v-307h-794z" />
<glyph unicode="&#x4e3;" horiz-adv-x="1427" d="M102 0v1051h459v-531l305 443v88h459v-1051h-459v508l-305 -442v-66h-459zM307 1200v307h795v-307h-795z" />
<glyph unicode="&#x4e4;" horiz-adv-x="1617" d="M113 0v1434h522v-697l348 598v99h522v-1434h-522v696l-348 -598v-98h-522zM297 1733q0 51 19.5 96t53 79t79 53t98.5 19q55 0 101 -19t80 -53t53.5 -79t19.5 -96q0 -49 -19.5 -93.5t-53.5 -78t-80 -53t-101 -19.5q-53 0 -98.5 19.5t-79 53t-53 78t-19.5 93.5zM838 1733 q0 51 18 96t52 79t80 53t99 19t99.5 -19t80 -53t53 -79t19.5 -96q0 -49 -19.5 -93.5t-53 -78t-79.5 -53t-100 -19.5q-53 0 -99 19.5t-80 53t-52 78t-18 93.5z" />
<glyph unicode="&#x4e5;" horiz-adv-x="1427" d="M102 0v1051h459v-531l305 443v88h459v-1051h-459v508l-305 -442v-66h-459zM203 1354q0 51 19.5 96t53 79t78.5 53.5t99 19.5q55 0 101 -19.5t80 -53.5t53.5 -79t19.5 -96q0 -49 -19.5 -93t-53.5 -78t-80 -53.5t-101 -19.5q-53 0 -98.5 19.5t-79 53.5t-53 78t-19.5 93z M743 1354q0 51 18.5 96t52.5 79t80 53.5t99 19.5t99.5 -19.5t80 -53.5t53 -79t19.5 -96q0 -49 -19.5 -93t-53 -78t-80 -53.5t-99.5 -19.5t-99 19.5t-80 53.5t-52.5 78t-18.5 93z" />
<glyph unicode="&#x4e6;" d="M41 717q0 150 52 287t153.5 241.5t250 167t339.5 62.5q190 0 337.5 -62.5t249 -167t154.5 -242t53 -286.5q0 -150 -53 -287t-154.5 -241.5t-249 -167t-337.5 -62.5t-339 62.5t-250.5 167t-153.5 241.5t-52 287zM303 1743q0 51 19.5 96t53.5 79t79 53.5t98 19.5 q55 0 101 -19.5t80 -53.5t53.5 -79t19.5 -96q0 -49 -19.5 -93t-53.5 -78t-80 -53.5t-101 -19.5q-53 0 -98 19.5t-79 53.5t-53.5 78t-19.5 93zM563 717q0 -55 18.5 -106.5t53.5 -89.5t85 -61.5t116 -23.5t115.5 23.5t84.5 61.5t53.5 89.5t18.5 106.5t-18.5 106t-53.5 89 t-85 61.5t-115 23.5q-66 0 -116 -23.5t-85 -61.5t-53.5 -89t-18.5 -106zM844 1743q0 51 18.5 96t52 79t79.5 53.5t100 19.5q53 0 99 -19.5t80 -53.5t53.5 -79t19.5 -96q0 -49 -19.5 -93t-53.5 -78t-80 -53.5t-99 -19.5t-99.5 19.5t-80 53.5t-52 78t-18.5 93z" />
<glyph unicode="&#x4e7;" horiz-adv-x="1355" d="M41 524q0 117 41 218.5t122 176t199.5 118.5t274.5 44t274.5 -44t199.5 -118.5t122 -176t41 -218.5q0 -115 -41 -216t-122 -176t-199.5 -119t-274.5 -44t-274.5 44t-199.5 119t-122 176.5t-41 215.5zM145 1354q0 51 19.5 96t53.5 79t79 53.5t98 19.5q55 0 101.5 -19.5 t80 -53.5t53 -79t19.5 -96q0 -49 -19.5 -93t-53 -78t-80 -53.5t-101.5 -19.5q-53 0 -98 19.5t-79 53.5t-53.5 78t-19.5 93zM532 524q0 -66 40 -107.5t106 -41.5t105.5 42t39.5 107q0 66 -40 108t-105 42q-66 0 -106 -42t-40 -108zM686 1354q0 51 18.5 96t52.5 79t80 53.5 t99 19.5t99 -19.5t80 -53.5t53.5 -79t19.5 -96q0 -49 -19.5 -93t-53.5 -78t-80 -53.5t-99 -19.5t-99 19.5t-80 53.5t-52.5 78t-18.5 93z" />
<glyph unicode="&#x4e8;" d="M41 717q0 150 52 287t153.5 241.5t250 167t339.5 62.5q190 0 337.5 -62.5t249 -167t154.5 -242t53 -286.5q0 -150 -53 -287t-154.5 -241.5t-249 -167t-337.5 -62.5t-339 62.5t-250.5 167t-153.5 241.5t-52 287zM578 618q27 -78 91.5 -130t166.5 -52q100 0 165.5 52.5 t90.5 129.5h-514zM580 819h512q-27 76 -92.5 127t-163.5 51q-100 0 -165 -51t-91 -127z" />
<glyph unicode="&#x4e9;" horiz-adv-x="1355" d="M41 524q0 117 41 218.5t122 176t199.5 118.5t274.5 44t274.5 -44t199.5 -118.5t122 -176t41 -218.5q0 -115 -41 -216t-122 -176t-199.5 -119t-274.5 -44t-274.5 44t-199.5 119t-122 176.5t-41 215.5zM539 578h276q-14 43 -50 69.5t-87 26.5q-53 0 -89 -26.5t-50 -69.5z M541 471q14 -43 49 -69.5t88 -26.5q51 0 87 26.5t50 69.5h-274z" />
<glyph unicode="&#x4ea;" d="M41 717q0 150 52 287t153.5 241.5t250 167t339.5 62.5q190 0 337.5 -62.5t249 -167t154.5 -242t53 -286.5q0 -150 -53 -287t-154.5 -241.5t-249 -167t-337.5 -62.5t-339 62.5t-250.5 167t-153.5 241.5t-52 287zM322 1733q0 51 19 96t53 79t79 53t98 19q55 0 101.5 -19 t80 -53t53 -79t19.5 -96q0 -49 -19.5 -93.5t-53 -78t-80 -53t-101.5 -19.5q-53 0 -98 19.5t-79 53t-53 77.5t-19 94zM578 618q27 -78 91.5 -130t166.5 -52q100 0 165.5 52.5t90.5 129.5h-514zM580 819h512q-27 76 -92.5 127t-163.5 51q-100 0 -165 -51t-91 -127zM862 1733 q0 51 18.5 96t52.5 79t80 53t99 19t99 -19t80 -53t53.5 -79t19.5 -96q0 -49 -19.5 -93.5t-53.5 -78t-80 -53t-99 -19.5t-99 19.5t-80 53t-52.5 78t-18.5 93.5z" />
<glyph unicode="&#x4eb;" horiz-adv-x="1355" d="M41 524q0 117 41 218.5t122 176t199.5 118.5t274.5 44t274.5 -44t199.5 -118.5t122 -176t41 -218.5q0 -115 -41 -216t-122 -176t-199.5 -119t-274.5 -44t-274.5 44t-199.5 119t-122 176.5t-41 215.5zM156 1354q0 51 19.5 96t53 79t78.5 53.5t99 19.5q55 0 101 -19.5 t80 -53.5t53 -79t19 -96q0 -49 -19 -93t-53 -78t-80 -53.5t-101 -19.5q-53 0 -98.5 19.5t-79 53.5t-53 78t-19.5 93zM539 578h276q-14 43 -50 69.5t-87 26.5q-53 0 -89 -26.5t-50 -69.5zM541 471q14 -43 49 -69.5t88 -26.5q51 0 87 26.5t50 69.5h-274zM696 1354 q0 51 18.5 96t52.5 79t80 53.5t99 19.5t99.5 -19.5t80 -53.5t53 -79t19.5 -96q0 -49 -19.5 -93t-53 -78t-80 -53.5t-99.5 -19.5t-99 19.5t-80 53.5t-52.5 78t-18.5 93z" />
<glyph unicode="&#x4ec;" d="M41 618h545q14 -74 75.5 -129t186.5 -55q82 0 141.5 35t81.5 121h-336v235h340q-16 80 -77.5 127t-149.5 47q-119 0 -179.5 -55t-76.5 -135h-545q12 137 68.5 258t153 211t233.5 143.5t313 53.5q193 0 344.5 -58.5t256 -160t159.5 -239.5t55 -300t-55 -300t-159.5 -239.5 t-257 -160t-349.5 -58.5q-176 0 -313.5 53.5t-233.5 143.5t-151.5 209.5t-69.5 252.5zM305 1733q0 51 19.5 96t53.5 79t79 53t98 19q55 0 101 -19t80 -53t53.5 -79t19.5 -96q0 -49 -19.5 -93.5t-53.5 -78t-80 -53t-101 -19.5q-53 0 -98 19.5t-79 53t-53.5 77.5t-19.5 94z M846 1733q0 51 18.5 96t52 79t79.5 53t100 19q53 0 99 -19t80 -53t53.5 -79t19.5 -96q0 -49 -19.5 -93.5t-53.5 -78t-80 -53t-99 -19.5t-99.5 19.5t-80 53t-52 78t-18.5 93.5z" />
<glyph unicode="&#x4ed;" horiz-adv-x="1355" d="M41 455h494q12 -70 49 -109t108 -39q63 0 103.5 32t44.5 99h-228v164h228q-4 66 -39 103.5t-107 37.5q-74 0 -111.5 -43t-50.5 -112h-491q12 111 60.5 201t130 155.5t193.5 101t253 35.5q162 0 281.5 -44t198.5 -119.5t118 -177t39 -216.5q0 -113 -39 -214t-118 -177 t-198.5 -120t-281.5 -44q-141 0 -254 35t-193.5 98.5t-129 152.5t-60.5 200zM178 1354q0 51 19.5 96t53.5 79t79 53.5t98 19.5q55 0 101 -19.5t80 -53.5t53.5 -79t19.5 -96q0 -49 -19.5 -93t-53.5 -78t-80 -53.5t-101 -19.5q-53 0 -98 19.5t-79 53.5t-53.5 78t-19.5 93z M719 1354q0 51 18.5 96t52 79t79.5 53.5t100 19.5q53 0 99 -19.5t80 -53.5t53.5 -79t19.5 -96q0 -49 -19.5 -93t-53.5 -78t-80 -53.5t-99 -19.5t-99.5 19.5t-80 53.5t-52 78t-18.5 93z" />
<glyph unicode="&#x4ee;" horiz-adv-x="1470" d="M-20 1434h614l154 -457l172 457h583l-710 -1434h-588l227 471zM354 1589v307h795v-307h-795z" />
<glyph unicode="&#x4ef;" horiz-adv-x="1411" d="M94 -12h492q0 -43 29.5 -74t89.5 -31q66 0 90 37t24 117v168q-37 -84 -119 -132t-204 -48q-92 0 -166 29.5t-115 66.5q-68 63 -88.5 147t-20.5 207v576h492v-529q0 -143 107 -143q55 0 84.5 38t29.5 134v500h492v-951q0 -139 -49.5 -243.5t-120.5 -157.5 q-41 -31 -83 -52.5t-93.5 -34.5t-116 -19.5t-148.5 -6.5q-168 0 -273 22.5t-183 84.5q-59 47 -104.5 118.5t-45.5 176.5zM332 1200v307h794v-307h-794z" />
<glyph unicode="&#x4f0;" horiz-adv-x="1470" d="M-20 1434h614l154 -457l172 457h583l-710 -1434h-588l227 471zM221 1733q0 51 19.5 96t53.5 79t79 53t98 19q55 0 101 -19t80 -53t53.5 -79t19.5 -96q0 -49 -19.5 -93.5t-53.5 -78t-80 -53t-101 -19.5q-53 0 -98 19.5t-79 53t-53.5 78t-19.5 93.5zM762 1733q0 51 18.5 96 t52 79t79.5 53t100 19q53 0 99 -19t80 -53t53.5 -79t19.5 -96q0 -49 -19.5 -93.5t-53.5 -78t-80 -53t-99 -19.5t-99.5 19.5t-80 53t-52 78t-18.5 93.5z" />
<glyph unicode="&#x4f1;" horiz-adv-x="1411" d="M94 -12h492q0 -43 29.5 -74t89.5 -31q66 0 90 37t24 117v168q-37 -84 -119 -132t-204 -48q-92 0 -166 29.5t-115 66.5q-68 63 -88.5 147t-20.5 207v576h492v-529q0 -143 107 -143q55 0 84.5 38t29.5 134v500h492v-951q0 -139 -49.5 -243.5t-120.5 -157.5 q-41 -31 -83 -52.5t-93.5 -34.5t-116 -19.5t-148.5 -6.5q-168 0 -273 22.5t-183 84.5q-59 47 -104.5 118.5t-45.5 176.5zM178 1354q0 51 19.5 96t53.5 79t79 53.5t98 19.5q55 0 101 -19.5t80 -53.5t53.5 -79t19.5 -96q0 -49 -19.5 -93t-53.5 -78t-80 -53.5t-101 -19.5 q-53 0 -98 19.5t-79 53.5t-53.5 78t-19.5 93zM719 1354q0 51 18.5 96t52 79t79.5 53.5t100 19.5q53 0 99 -19.5t80 -53.5t53.5 -79t19.5 -96q0 -49 -19.5 -93t-53.5 -78t-80 -53.5t-99 -19.5t-99.5 19.5t-80 53.5t-52 78t-18.5 93z" />
<glyph unicode="&#x4f2;" horiz-adv-x="1470" d="M-20 1434h614l154 -457l172 457h583l-710 -1434h-588l227 471zM373 1620l256 422l258 -180l-346 -299zM772 1620l256 422l258 -180l-346 -299z" />
<glyph unicode="&#x4f3;" horiz-adv-x="1411" d="M94 -12h492q0 -43 29.5 -74t89.5 -31q66 0 90 37t24 117v168q-37 -84 -119 -132t-204 -48q-92 0 -166 29.5t-115 66.5q-68 63 -88.5 147t-20.5 207v576h492v-529q0 -143 107 -143q55 0 84.5 38t29.5 134v500h492v-951q0 -139 -49.5 -243.5t-120.5 -157.5 q-41 -31 -83 -52.5t-93.5 -34.5t-116 -19.5t-148.5 -6.5q-168 0 -273 22.5t-183 84.5q-59 47 -104.5 118.5t-45.5 176.5zM354 1204l256 422l258 -180l-346 -299zM754 1204l256 422l258 -180l-346 -299z" />
<glyph unicode="&#x4f4;" horiz-adv-x="1466" d="M31 842v592h522v-484q0 -127 50 -170t136 -43h92v697h523v-1434h-523v381h-309q-106 0 -196 34t-156 94t-102.5 145t-36.5 188zM182 1733q0 51 19.5 96t53.5 79t79 53t98 19q55 0 101.5 -19t80 -53t53 -79t19.5 -96q0 -49 -19.5 -93.5t-53 -78t-80 -53t-101.5 -19.5 q-53 0 -98 19.5t-79 53t-53.5 78t-19.5 93.5zM723 1733q0 51 18.5 96t52 79t80 53t99.5 19t99 -19t80 -53t53.5 -79t19.5 -96q0 -49 -19.5 -93.5t-53.5 -78t-80 -53t-99 -19.5t-99.5 19.5t-80 53t-52 78t-18.5 93.5z" />
<glyph unicode="&#x4f5;" horiz-adv-x="1269" d="M41 637v414h459v-336q0 -139 143 -140h66v476h458v-1051h-458v264h-275q-186 0 -289.5 93.5t-103.5 279.5zM88 1354q0 51 19.5 96t53.5 79t79 53.5t98 19.5q55 0 101 -19.5t80 -53.5t53.5 -79t19.5 -96q0 -49 -19.5 -93t-53.5 -78t-80 -53.5t-101 -19.5q-53 0 -98 19.5 t-79 53.5t-53.5 78t-19.5 93zM629 1354q0 51 18.5 96t52 79t79.5 53.5t100 19.5q53 0 99 -19.5t80 -53.5t53 -79t19 -96q0 -49 -19 -93t-53 -78t-80 -53.5t-99 -19.5t-99.5 19.5t-80 53.5t-52 78t-18.5 93z" />
<glyph unicode="&#x4f8;" horiz-adv-x="2097" d="M113 0v1434h522v-514h346q94 0 172 -36t133 -97.5t85 -145.5t30 -180q0 -94 -30 -178t-85 -146.5t-133 -99.5t-172 -37h-868zM528 1731q0 51 19.5 96t53.5 78.5t79 53t98 19.5q55 0 101.5 -19.5t80 -53t53 -78.5t19.5 -96q0 -49 -19.5 -93.5t-53 -78t-79.5 -53 t-102 -19.5q-53 0 -98 19.5t-79 53t-53.5 78t-19.5 93.5zM635 342h86q74 0 110.5 34t36.5 87q0 18 -6 38.5t-22.5 38t-45 28t-73.5 10.5h-86v-236zM1069 1731q0 51 18.5 96t52.5 78.5t80 53t99 19.5t99 -19.5t80 -53t53.5 -78.5t19.5 -96q0 -49 -19.5 -93.5t-53.5 -78 t-80 -53t-99 -19.5t-99 19.5t-80 53t-52.5 78t-18.5 93.5zM1462 0v1434h523v-1434h-523z" />
<glyph unicode="&#x4f9;" horiz-adv-x="1865" d="M102 0v1051h459v-314h236q131 0 214 -32.5t129 -86t63.5 -119t17.5 -130.5q0 -53 -17.5 -118t-63.5 -120t-129 -93t-214 -38h-695zM399 1354q0 51 19.5 96t53.5 79t79 53.5t98 19.5q55 0 101.5 -19.5t80 -53.5t53 -79t19.5 -96q0 -49 -19.5 -93t-53 -78t-79.5 -53.5 t-102 -19.5q-53 0 -98 19.5t-79 53.5t-53.5 78t-19.5 93zM561 258h101q47 0 76.5 29.5t29.5 72.5t-28.5 73t-75.5 30h-103v-205zM940 1354q0 51 18.5 96t52 79t80 53.5t99.5 19.5t99 -19.5t80 -53.5t53.5 -79t19.5 -96q0 -49 -19.5 -93t-53.5 -78t-80 -53.5t-99 -19.5 t-99.5 19.5t-80 53.5t-52 78t-18.5 93zM1272 0v1051h491v-1051h-491z" />
<glyph unicode="&#x2000;" horiz-adv-x="1021" />
<glyph unicode="&#x2001;" horiz-adv-x="2042" />
<glyph unicode="&#x2002;" horiz-adv-x="1021" />
<glyph unicode="&#x2003;" horiz-adv-x="2042" />
<glyph unicode="&#x2004;" horiz-adv-x="680" />
<glyph unicode="&#x2005;" horiz-adv-x="510" />
<glyph unicode="&#x2006;" horiz-adv-x="340" />
<glyph unicode="&#x2007;" horiz-adv-x="340" />
<glyph unicode="&#x2008;" horiz-adv-x="255" />
<glyph unicode="&#x2009;" horiz-adv-x="408" />
<glyph unicode="&#x200a;" horiz-adv-x="113" />
<glyph unicode="&#x2010;" horiz-adv-x="741" d="M72 483v355h598v-355h-598z" />
<glyph unicode="&#x2011;" horiz-adv-x="741" d="M72 483v355h598v-355h-598z" />
<glyph unicode="&#x2012;" horiz-adv-x="741" d="M72 483v355h598v-355h-598z" />
<glyph unicode="&#x2013;" horiz-adv-x="1030" d="M41 483v355h948v-355h-948z" />
<glyph unicode="&#x2014;" horiz-adv-x="2060" d="M72 483v355h1917v-355h-1917z" />
<glyph unicode="&#x2018;" horiz-adv-x="673" d="M61 954q0 154 38 261.5t111 173t176 96.5t237 31v-166q-86 0 -145.5 -19.5t-98.5 -52.5q-39 -31 -58.5 -71t-23.5 -81q4 6 25.5 14.5t46.5 8.5q61 0 110 -21.5t84 -58.5t53.5 -85t18.5 -101q0 -57 -20.5 -107.5t-57.5 -87.5t-85 -58.5t-103 -21.5q-68 0 -125.5 25.5 t-97.5 71t-62.5 109t-22.5 140.5z" />
<glyph unicode="&#x2019;" horiz-adv-x="673" d="M39 1241q0 57 20.5 107.5t57.5 87.5t85 58.5t103 21.5q68 0 125 -26t97 -71t62.5 -109.5t22.5 -140.5q0 -154 -37.5 -261t-110.5 -172.5t-177.5 -96.5t-235.5 -31v166q86 0 145.5 19.5t98.5 52.5q39 31 58.5 70.5t23.5 80.5q-6 -8 -26.5 -15t-45.5 -7q-61 0 -110.5 21.5 t-84 58.5t-53 85t-18.5 101z" />
<glyph unicode="&#x201a;" horiz-adv-x="673" d="M39 205q0 57 20.5 107t57.5 87t85 58.5t103 21.5q68 0 125 -25.5t97 -70.5t62.5 -109.5t22.5 -140.5q0 -154 -37.5 -261.5t-110.5 -173t-177.5 -96t-235.5 -30.5v166q86 0 145.5 19.5t98.5 52.5q39 31 58.5 70.5t23.5 80.5q-4 -6 -25.5 -14t-46.5 -8q-61 0 -110.5 21.5 t-84 58t-53 85t-18.5 101.5z" />
<glyph unicode="&#x201c;" horiz-adv-x="1288" d="M61 954q0 154 38 261.5t111 173t176 96.5t237 31v-166q-86 0 -145.5 -19.5t-98.5 -52.5q-39 -31 -58.5 -71t-23.5 -81q4 6 25.5 14.5t46.5 8.5q61 0 110 -21.5t84 -58.5t53.5 -85t18.5 -101q0 -57 -20.5 -107.5t-57.5 -87.5t-85 -58.5t-103 -21.5q-68 0 -125.5 25.5 t-97.5 71t-62.5 109t-22.5 140.5zM676 954q0 154 38 261.5t110.5 173t176 96.5t236.5 31v-166q-86 0 -145.5 -19.5t-98.5 -52.5q-39 -31 -58.5 -71t-23.5 -81q4 6 25.5 14.5t46.5 8.5q61 0 110.5 -21.5t84 -58.5t53 -85t18.5 -101q0 -57 -20.5 -107.5t-57 -87.5t-85 -58.5 t-103.5 -21.5q-68 0 -125 25.5t-97 71t-62.5 109t-22.5 140.5z" />
<glyph unicode="&#x201d;" horiz-adv-x="1288" d="M39 1241q0 57 20.5 107.5t57.5 87.5t85 58.5t103 21.5q68 0 125 -26t97 -71t62.5 -109.5t22.5 -140.5q0 -154 -37.5 -261t-110.5 -172.5t-177.5 -96.5t-235.5 -31v166q86 0 145.5 19.5t98.5 52.5q39 31 58.5 70.5t23.5 80.5q-4 -6 -25.5 -14t-46.5 -8q-61 0 -110.5 21.5 t-84 58.5t-53 85t-18.5 101zM653 1241q0 57 20.5 107.5t57.5 87.5t85 58.5t104 21.5q68 0 125 -26t97 -71t62.5 -109.5t22.5 -140.5q0 -154 -38 -261t-110.5 -172.5t-177 -96.5t-235.5 -31v166q86 0 145 19.5t98 52.5q39 31 58.5 70.5t23.5 80.5q-4 -6 -25.5 -14t-45.5 -8 q-61 0 -110.5 21.5t-84.5 58.5t-53.5 85t-18.5 101z" />
<glyph unicode="&#x201e;" horiz-adv-x="1288" d="M39 205q0 57 20.5 107t57.5 87t85 58.5t103 21.5q68 0 125 -25.5t97 -70.5t62.5 -109.5t22.5 -140.5q0 -154 -37.5 -261.5t-110.5 -173t-177.5 -96t-235.5 -30.5v166q86 0 145.5 19.5t98.5 52.5q39 31 58.5 70.5t23.5 80.5q-4 -6 -25.5 -14t-46.5 -8q-61 0 -110.5 21.5 t-84 58t-53 85t-18.5 101.5zM653 205q0 57 20.5 107t57.5 87t85 58.5t104 21.5q68 0 125 -25.5t97 -70.5t62.5 -109.5t22.5 -140.5q0 -154 -38 -261.5t-110.5 -173t-177 -96t-235.5 -30.5v166q86 0 145 19.5t98 52.5q39 31 58.5 70.5t23.5 80.5q-4 -6 -25.5 -14t-45.5 -8 q-61 0 -110.5 21.5t-84.5 58t-53.5 85t-18.5 101.5z" />
<glyph unicode="&#x2022;" horiz-adv-x="784" d="M41 639q0 70 26.5 132.5t73.5 109.5t111.5 73.5t138.5 26.5q76 0 140.5 -26.5t111.5 -73.5t73.5 -109.5t26.5 -132.5q0 -72 -26.5 -134.5t-73.5 -108.5t-111.5 -73.5t-140.5 -27.5q-74 0 -138.5 27.5t-111.5 73.5t-73.5 108.5t-26.5 134.5z" />
<glyph unicode="&#x2026;" horiz-adv-x="2107" d="M61 258q0 57 22.5 109.5t61.5 91.5t92.5 61.5t114.5 22.5q63 0 116.5 -22.5t92.5 -61.5t61.5 -91.5t22.5 -109.5q0 -59 -22.5 -111.5t-61.5 -91.5t-92 -61.5t-117 -22.5q-61 0 -114.5 22.5t-92.5 61.5t-61.5 91.5t-22.5 111.5zM762 256q0 57 22.5 109.5t61.5 91.5 t92 61.5t115 22.5q63 0 116.5 -22.5t92 -61.5t61.5 -91.5t23 -109.5q0 -59 -23 -111.5t-61.5 -91.5t-92 -61.5t-116.5 -22.5q-61 0 -114.5 22.5t-92.5 61.5t-61.5 91.5t-22.5 111.5zM1462 256q0 57 22.5 109.5t61.5 91.5t92.5 61.5t114.5 22.5q63 0 116.5 -22.5t92.5 -61.5 t61.5 -91.5t22.5 -109.5q0 -59 -22.5 -111.5t-61.5 -91.5t-92 -61.5t-117 -22.5q-61 0 -114.5 22.5t-92.5 61.5t-61.5 91.5t-22.5 111.5z" />
<glyph unicode="&#x202f;" horiz-adv-x="408" />
<glyph unicode="&#x2039;" horiz-adv-x="661" d="M61 483v226l508 395v-389l-184 -119l184 -119v-389z" />
<glyph unicode="&#x203a;" horiz-adv-x="661" d="M92 88v389l184 119l-184 119v389l508 -395v-226z" />
<glyph unicode="&#x205f;" horiz-adv-x="510" />
<glyph unicode="&#x20ac;" horiz-adv-x="1492" d="M51 492l41 204h84v41h-125l41 205h84q0 109 43 205t124 169t198.5 116t267.5 43q145 0 262 -43t200 -116t127 -169t44 -205h-522q0 47 -30 82t-81 35q-53 0 -82 -35t-29 -82h201l-41 -205h-160v-41h201l-41 -204h-160q0 -47 29 -82t82 -35q51 0 81 34.5t30 82.5h522 q0 -109 -44 -205.5t-127 -169t-200 -115.5t-262 -43q-150 0 -267.5 43t-198.5 115.5t-124 169t-43 205.5h-125z" />
<glyph unicode="&#x2122;" horiz-adv-x="1796" d="M33 1178v256h585v-256h-141v-578h-303v578h-141zM670 600v834h407l131 -500l131 500h398v-834h-293v518l-123 -518h-221l-137 518v-518h-293z" />
<glyph unicode="&#x25fc;" horiz-adv-x="1054" d="M0 0v1055h1055v-1055h-1055z" />
</font>
</defs>
</svg>
