<?xml version="1.0" standalone="no"?>
<!DOCTYPE svg PUBLIC "-//W3C//DTD SVG 1.1//EN" "http://www.w3.org/Graphics/SVG/1.1/DTD/svg11.dtd" >
<svg xmlns="http://www.w3.org/2000/svg" xmlns:xlink="http://www.w3.org/1999/xlink" version="1.1">
<metadata></metadata>
<defs>
<font id="gt_walsheim_prolight" horiz-adv-x="1167" >
<font-face units-per-em="2048" ascent="1495" descent="-553" />
<missing-glyph horiz-adv-x="522" />
<glyph horiz-adv-x="0" />
<glyph horiz-adv-x="0" />
<glyph unicode="&#xd;" horiz-adv-x="512" />
<glyph unicode=" "  horiz-adv-x="522" />
<glyph unicode="&#x09;" horiz-adv-x="522" />
<glyph unicode="&#xa0;" horiz-adv-x="522" />
<glyph unicode="!" horiz-adv-x="579" d="M164 104q0 53 36 90t89 37t91 -36.5t38 -90.5q0 -53 -38 -90t-91 -37t-89 37t-36 90zM217 416v1034h145v-1034h-145z" />
<glyph unicode="&#x22;" horiz-adv-x="655" d="M123 1364v104h127v-104l-27 -410h-73zM406 1364v104h126v-104l-26 -410h-74z" />
<glyph unicode="#" horiz-adv-x="1126" d="M59 438v107h224l47 344h-209v106h225l60 439h112l-59 -439h307l59 439h113l-59 -439h188v-106h-205l-47 -344h191v-107h-205l-62 -438h-112l61 438h-307l-62 -438h-112l61 438h-209zM395 545h307l48 344h-308z" />
<glyph unicode="$" horiz-adv-x="1171" d="M137 444h139q0 -158 98.5 -253t270.5 -95q150 0 241 73t91 200q0 76 -28.5 125t-74 80.5t-102.5 51t-113 33.5q-94 27 -179 56.5t-149.5 76t-102.5 118t-38 182.5q0 74 27 137t78 112.5t122.5 81t164.5 39.5v207h106v-209q180 -16 286.5 -127.5t110.5 -298.5h-141 q-2 141 -81 222t-220 81q-150 0 -231.5 -67.5t-81.5 -177.5q0 -72 26.5 -120t71.5 -80t103.5 -51.5t119.5 -35.5q82 -23 166 -52.5t149.5 -75.5t107.5 -117t42 -177q0 -92 -30.5 -166t-88 -126t-136.5 -81.5t-173 -38.5v-207h-106v207q-98 8 -180.5 45t-140.5 98.5 t-91 145.5t-33 184z" />
<glyph unicode="%" horiz-adv-x="1808" d="M135 895v293q0 53 19.5 100t55.5 83t87 56.5t113 20.5q63 0 114 -21.5t88 -58.5t56.5 -85t19.5 -103v-293q0 -53 -19.5 -100.5t-56.5 -82t-88 -55t-114 -20.5t-113.5 21.5t-86.5 57t-55.5 84t-19.5 103.5zM248 895q0 -70 44 -121t118 -51q78 0 121.5 51t43.5 121v285 q0 70 -44 121t-121 51q-74 0 -118 -51.5t-44 -120.5v-285zM408 -2l895 1542l106 -63l-895 -1543zM1118 250v295q0 51 19.5 98t56.5 83t88 56.5t113 20.5q63 0 114.5 -21.5t87 -58.5t55 -85t19.5 -101v-295q0 -53 -19.5 -99.5t-56 -82t-88 -56t-112.5 -20.5 q-63 0 -114.5 21.5t-87.5 58t-55.5 85t-19.5 101.5zM1231 250q0 -70 44 -120t120 -50t120 50t44 120v287q0 70 -44.5 120t-119.5 50q-76 0 -120 -50.5t-44 -119.5v-287z" />
<glyph unicode="&#x26;" horiz-adv-x="1226" d="M102 401q0 131 75 217.5t202 124.5q-119 35 -184.5 117t-65.5 211q0 86 34 157.5t93 122t140 78t175 27.5q98 0 179 -29.5t139.5 -84t90.5 -130t32 -168.5h-142q0 127 -76.5 205t-228.5 78q-135 0 -215 -67.5t-80 -188.5q0 -115 74 -189.5t231 -74.5h60v-125h-60 q-166 0 -249.5 -82t-83.5 -211q0 -59 23.5 -110.5t66.5 -90t105.5 -60.5t142.5 -22q82 0 143 28t102 78t61.5 118.5t20.5 148.5h-188v127h465v-127h-135q0 -111 -33 -203t-93.5 -158.5t-146.5 -103.5t-196 -37q-100 0 -187.5 30t-152 85t-101.5 133t-37 176z" />
<glyph unicode="'" horiz-adv-x="372" d="M123 1364v104h127v-104l-27 -410h-73z" />
<glyph unicode="(" horiz-adv-x="708" d="M203 -16v1167q0 96 33.5 183t96 151.5t149.5 102.5t196 38v-127q-76 0 -138.5 -27.5t-106.5 -74.5t-67.5 -110.5t-23.5 -135.5v-1167q0 -72 23.5 -134.5t67.5 -109.5t106.5 -74.5t138.5 -27.5v-130q-109 0 -196 38t-149.5 103.5t-96 151.5t-33.5 183z" />
<glyph unicode=")" horiz-adv-x="708" d="M31 -362q76 0 138 27.5t106 74.5t68 109.5t24 134.5v1167q0 72 -24 135.5t-68 110.5t-106.5 74.5t-137.5 27.5v127q109 0 196.5 -38t149 -102.5t95.5 -151.5t34 -183v-1167q0 -96 -34 -182.5t-95.5 -152t-149.5 -103.5t-196 -38v130z" />
<glyph unicode="*" horiz-adv-x="929" d="M98 1165l29 90l307 -118l-16 331h96l-16 -331l305 118l31 -90l-318 -88l217 -272l-82 -60l-184 289l-188 -289l-82 60l217 272z" />
<glyph unicode="+" d="M180 522v121h336v344h133v-344h338v-121h-338v-342h-133v342h-336z" />
<glyph unicode="," horiz-adv-x="512" d="M113 111q0 53 35.5 89t91.5 36q74 0 116.5 -57.5t42.5 -145.5q0 -147 -73.5 -208t-198.5 -63v74q119 0 145 84q12 29 13.5 49.5t-0.5 36.5q-8 -8 -22.5 -12t-29.5 -4q-53 0 -86.5 35t-33.5 86z" />
<glyph unicode="-" horiz-adv-x="602" d="M61 522v121h480v-121h-480z" />
<glyph unicode="." horiz-adv-x="471" d="M113 113q0 53 34.5 88t85.5 35q53 0 89 -35t36 -88q0 -51 -35.5 -87t-89.5 -36q-51 0 -85.5 36t-34.5 87z" />
<glyph unicode="/" horiz-adv-x="860" d="M20 -96l746 1732l123 -53l-746 -1730z" />
<glyph unicode="0" horiz-adv-x="1183" d="M115 449v534q0 96 33.5 183t95 151.5t149.5 102.5t197 38t198 -38t151 -102.5t96 -151.5t34 -183v-534q0 -96 -34 -182.5t-96 -151t-151.5 -102.5t-197.5 -38q-109 0 -197 38t-149.5 102.5t-95 150.5t-33.5 183zM254 449q0 -72 23.5 -134.5t67.5 -109.5t105.5 -75 t139.5 -28t140.5 28t106.5 75t67.5 109.5t23.5 134.5v534q0 72 -23.5 135.5t-67.5 110.5t-106.5 74.5t-140.5 27.5t-139.5 -27.5t-105.5 -74.5t-67.5 -110.5t-23.5 -135.5v-534z" />
<glyph unicode="1" horiz-adv-x="665" d="M66 1081v115q94 0 152 13.5t90 41t43 72.5t11 111h134v-1434h-144v1081h-286z" />
<glyph unicode="2" horiz-adv-x="1077" d="M96 0q0 168 27 282.5t80 193.5t133 131t184 100q63 27 122.5 56.5t105 69t72 95t26.5 133.5q0 123 -78 194.5t-217 71.5q-72 0 -129 -22.5t-99 -64.5t-64.5 -100.5t-22.5 -131.5h-140q0 100 35 183t95.5 142.5t143.5 91t181 31.5t179 -27.5t137.5 -80t87 -128 t30.5 -169.5q0 -100 -39 -174t-97 -127.5t-127 -89t-128 -60.5q-100 -47 -166 -92t-104.5 -98.5t-54 -122t-15.5 -160.5h737v-127h-895z" />
<glyph unicode="3" horiz-adv-x="1124" d="M68 426h139q0 -74 25.5 -132t70.5 -100t107.5 -65t136.5 -23t134 22t102 60.5t64.5 91t22.5 111.5q0 127 -80.5 209t-242.5 82h-109v125h109q150 0 223.5 73.5t73.5 190.5q0 121 -81 188.5t-216 67.5q-152 0 -228.5 -78t-76.5 -205h-140q0 92 32 168t89.5 130.5t137 84 t178.5 29.5q96 0 177 -27.5t140 -78t93 -122t34 -157.5q0 -127 -66.5 -213t-183.5 -115q127 -31 202 -122t75 -228q0 -92 -35 -169t-98.5 -131t-149.5 -85t-186 -31q-98 0 -185.5 31t-151 89.5t-100 141.5t-36.5 187z" />
<glyph unicode="4" horiz-adv-x="1118" d="M143 492v942h140v-816h405v453h139v-453h234v-126h-234v-492h-139v492h-545z" />
<glyph unicode="5" horiz-adv-x="1208" d="M141 453h142q0 -72 23.5 -134.5t67.5 -109.5t105.5 -75t136.5 -28q78 0 141.5 28t107.5 75t67.5 109.5t23.5 134.5q0 70 -23.5 133t-67.5 109t-107.5 74t-141.5 28q-104 0 -179 -47.5t-115 -139.5h-148v824h819v-127h-690v-559q23 43 59.5 75.5t81.5 54t95.5 33 t97.5 11.5q111 0 196 -37t143 -100.5t89 -149.5t31 -182t-34 -182.5t-96.5 -152t-150.5 -103.5t-199 -38q-109 0 -195.5 38t-149 103.5t-96.5 151.5t-34 183z" />
<glyph unicode="6" horiz-adv-x="1112" d="M76 453q0 76 21.5 144.5t58.5 127.5l440 709h162l-352 -551q23 23 63.5 34t81.5 11q109 0 198 -38t151.5 -102.5t96 -151.5t33.5 -183t-33.5 -182.5t-96 -152t-151.5 -103.5t-198 -38t-196 38t-149.5 103.5t-96 151.5t-33.5 183zM215 453q0 -72 23.5 -134.5t67.5 -109.5 t106.5 -75t138.5 -28q78 0 140.5 28t107.5 75t68.5 109.5t23.5 134.5q0 70 -23.5 133t-68.5 111t-107.5 76t-140.5 28q-76 0 -138.5 -28t-106.5 -76t-67.5 -111.5t-23.5 -132.5z" />
<glyph unicode="7" horiz-adv-x="929" d="M78 1307v127h862l-661 -1434h-150l610 1307h-661z" />
<glyph unicode="8" horiz-adv-x="1169" d="M113 393q0 59 16 116.5t50 105t83 81t117 49.5q-123 35 -180.5 123t-57.5 197q0 82 31 153.5t88 125t139 83t187 29.5q102 0 184 -30.5t139.5 -83t88 -124t30.5 -153.5q0 -109 -57.5 -197t-179.5 -123q68 -16 116.5 -49.5t82.5 -82t50.5 -104.5t16.5 -116 q0 -86 -33 -161.5t-94.5 -132t-148 -89.5t-195.5 -33q-111 0 -198 32t-148.5 88.5t-94 132t-32.5 163.5zM252 393q0 -61 23.5 -113.5t66.5 -91t104.5 -60.5t139.5 -22q76 0 137 23t104 60.5t67 90t24 113.5q0 59 -23 111.5t-66 91.5t-104 61.5t-139 22.5q-80 0 -141.5 -22.5 t-104.5 -60.5t-65.5 -90t-22.5 -114zM283 1059q0 -113 80 -188.5t223 -75.5t223 75.5t80 188.5q0 115 -81 191.5t-222 76.5t-222 -75.5t-81 -192.5z" />
<glyph unicode="9" horiz-adv-x="1112" d="M82 981q0 96 34 182t96 151.5t151 103.5t198 38q106 0 194.5 -38t151 -103.5t96 -151.5t33.5 -182q0 -76 -21.5 -144.5t-58.5 -127.5l-440 -709h-162l353 551q-20 -23 -57.5 -34t-71.5 -11q-113 0 -205 37t-156.5 100.5t-99.5 150.5t-35 187zM221 981q0 -72 23.5 -134.5 t68.5 -110.5t107.5 -75.5t140.5 -27.5q76 0 138.5 27.5t106.5 75.5t67.5 110.5t23.5 134.5q0 70 -23.5 133.5t-67.5 110.5t-106.5 74.5t-138.5 27.5q-78 0 -140.5 -27.5t-107.5 -74.5t-68.5 -110.5t-23.5 -133.5z" />
<glyph unicode=":" horiz-adv-x="471" d="M113 111q0 53 34.5 89t85.5 36q53 0 89 -36t36 -89q0 -51 -35.5 -86t-89.5 -35q-51 0 -85.5 35t-34.5 86zM113 807q0 51 34.5 87t85.5 36q53 0 89 -36t36 -87q0 -53 -35.5 -88t-89.5 -35q-51 0 -85.5 35t-34.5 88z" />
<glyph unicode=";" horiz-adv-x="481" d="M113 111q0 53 35.5 89t91.5 36q74 0 116.5 -57.5t42.5 -145.5q0 -147 -73.5 -208t-198.5 -63v74q119 0 145 84q12 29 13.5 49.5t-0.5 36.5q-8 -8 -22.5 -12t-29.5 -4q-53 0 -86.5 35t-33.5 86zM113 807q0 53 34.5 89t85.5 36q53 0 89 -36t36 -89q0 -51 -35.5 -86 t-89.5 -35q-51 0 -85.5 35t-34.5 86z" />
<glyph unicode="&#x3c;" d="M63 530v101l1039 379v-129l-842 -299l842 -301v-129z" />
<glyph unicode="=" d="M170 348v121h827v-121h-827zM170 692v121h827v-121h-827z" />
<glyph unicode="&#x3e;" d="M66 152v129l841 301l-841 299v129l1038 -379v-101z" />
<glyph unicode="?" horiz-adv-x="1017" d="M45 1010q0 102 34 185t94 141.5t143 90t182 31.5q98 0 179 -26.5t137 -76.5t88 -122t32 -162q0 -80 -23.5 -138.5t-59.5 -101.5t-75 -72.5t-69 -49.5q-49 -33 -83 -60.5t-56.5 -62.5t-33 -82t-10.5 -119h-135q0 78 12.5 136.5t36 102.5t60.5 79.5t88 68.5q31 18 66.5 44 t67.5 60.5t52.5 83t20.5 111.5q0 127 -77 193.5t-218 66.5q-70 0 -127.5 -22.5t-99.5 -64.5t-64.5 -101.5t-22.5 -132.5h-139zM332 104q0 53 35.5 90t89.5 37q53 0 90 -36.5t37 -90.5q0 -53 -37 -90t-90 -37t-89 37t-36 90z" />
<glyph unicode="@" horiz-adv-x="1796" d="M66 422q0 193 68.5 348.5t185 263t269 165.5t322.5 58q193 0 345.5 -49t258 -143t162 -231.5t56.5 -313.5q0 -164 -19.5 -281.5t-58.5 -193.5t-99.5 -110.5t-142.5 -34.5q-100 0 -160.5 62.5t-74.5 162.5v70q-41 -86 -125 -139.5t-193 -53.5q-92 0 -169 34t-132 91 t-85 134t-30 161q0 86 30 161.5t85 134t132 92.5t169 34q109 0 193 -53.5t125 -139.5v174h112v-620q0 -100 40 -149.5t102 -49.5q43 0 77.5 26.5t59 86t37 158t12.5 243.5q0 152 -48 269.5t-139.5 197.5t-222.5 122t-297 42q-145 0 -277 -50t-233.5 -144.5t-161 -229.5 t-59.5 -305q0 -137 49.5 -267t145.5 -230.5t241.5 -162t339.5 -61.5q102 0 228.5 22.5t251.5 92.5l45 -92q-137 -78 -275.5 -104t-249.5 -26q-223 0 -390 71t-278.5 186.5t-166.5 264t-55 306.5zM559 422q0 -63 22.5 -120.5t62.5 -100.5t96 -69t124 -26q72 0 129.5 26 t98.5 69t63.5 100t22.5 121q0 63 -22.5 121.5t-63.5 101.5t-98.5 68.5t-129.5 25.5q-68 0 -124 -25.5t-96 -68.5t-62.5 -101.5t-22.5 -121.5z" />
<glyph unicode="A" horiz-adv-x="1118" d="M12 0l494 1434h106l494 -1434h-148l-88 256h-622l-88 -256h-148zM291 383h536l-268 827z" />
<glyph unicode="B" horiz-adv-x="1193" d="M170 0v1434h489q113 0 191 -35t127 -89.5t71.5 -122t22.5 -132.5q0 -63 -20.5 -119.5t-55 -99.5t-82 -73t-100.5 -40q47 -6 95 -32.5t86 -71t62.5 -103.5t24.5 -129q0 -66 -23.5 -134.5t-74.5 -124.5t-131 -92t-193 -36h-489zM309 127h357q70 0 122 22.5t85.5 60.5t50 85 t16.5 96q0 45 -16.5 93t-50 86t-84 62.5t-117.5 24.5h-363v-530zM309 784h357q68 0 118 23.5t82.5 61.5t49 84t16.5 91q0 47 -16.5 94.5t-50.5 84.5t-85 60.5t-121 23.5h-350v-523z" />
<glyph unicode="C" horiz-adv-x="1587" d="M88 719q0 145 50 279.5t143.5 237.5t227.5 165.5t302 62.5q152 0 270.5 -40t204.5 -108.5t139.5 -162.5t75.5 -203h-145q-20 82 -63.5 153t-110 123t-155.5 81.5t-200 29.5q-141 0 -251.5 -51t-187.5 -137t-117 -197.5t-40 -232.5q0 -127 42 -239.5t122 -197.5 t196 -135.5t263 -50.5q84 0 163 24.5t143.5 67.5t113.5 102.5t74 131.5h153q-29 -96 -89 -179t-146 -143.5t-194.5 -95.5t-233.5 -35q-176 0 -314.5 60.5t-236 164t-148.5 238.5t-51 287z" />
<glyph unicode="D" horiz-adv-x="1421" d="M170 0v1434h420q178 0 316 -61.5t233.5 -162t144.5 -229.5t49 -264t-49 -264t-144.5 -229.5t-233.5 -162t-316 -61.5h-420zM309 127h281q143 0 254.5 50t188.5 133t117 188.5t40 218.5t-40 218t-117 188t-188.5 133.5t-254.5 50.5h-281v-1180z" />
<glyph unicode="E" horiz-adv-x="1112" d="M170 0v1434h782v-127h-643v-531h643v-127h-643v-522h643v-127h-782z" />
<glyph unicode="F" horiz-adv-x="1101" d="M170 0v1434h782v-127h-643v-568h643v-127h-643v-612h-139z" />
<glyph unicode="G" horiz-adv-x="1705" d="M88 717q0 145 50 280.5t145.5 238.5t231.5 165.5t306 62.5q117 0 217.5 -31.5t177 -86t128 -127t69.5 -156.5h-143q-16 57 -57.5 107.5t-99.5 87t-132 58t-160 21.5q-139 0 -247.5 -52t-185.5 -138t-117 -197.5t-40 -232.5t38 -232.5t115 -197.5t189.5 -138.5 t264.5 -52.5q117 0 207 34t154.5 92.5t101 139t49.5 175.5h-402v127h701v-127h-152q-18 -127 -69.5 -231.5t-135.5 -179.5t-202.5 -116t-268.5 -41q-176 0 -313 62.5t-230.5 166t-141.5 238.5t-48 281z" />
<glyph unicode="H" horiz-adv-x="1357" d="M170 0v1434h139v-658h738v658h141v-1434h-141v649h-738v-649h-139z" />
<glyph unicode="I" horiz-adv-x="483" d="M170 0v1434h143v-1434h-143z" />
<glyph unicode="J" horiz-adv-x="1097" d="M33 444h139q0 -80 24.5 -144t67.5 -109.5t102.5 -70t129.5 -24.5q143 0 227 93.5t84 252.5v992h141v-992q0 -104 -31.5 -191t-91 -149.5t-142.5 -97.5t-187 -35q-102 0 -187.5 35t-147 97.5t-95 150.5t-33.5 192z" />
<glyph unicode="K" horiz-adv-x="1175" d="M170 0v1434h139v-674l668 674h180l-704 -717l704 -717h-180l-668 672v-672h-139z" />
<glyph unicode="L" horiz-adv-x="864" d="M170 0v1434h139v-1307h494v-127h-633z" />
<glyph unicode="M" horiz-adv-x="1658" d="M170 0v1434h135l524 -1223l525 1223h135v-1434h-139v1108l-465 -1108h-111l-465 1108v-1108h-139z" />
<glyph unicode="N" horiz-adv-x="1355" d="M170 0v1434h156l718 -1192v1192h142v-1434h-156l-721 1192v-1192h-139z" />
<glyph unicode="O" horiz-adv-x="1650" d="M88 717q0 145 50 280.5t145.5 238.5t232.5 165.5t309 62.5t308.5 -62.5t231.5 -165.5t146.5 -238.5t51.5 -280.5t-51.5 -280.5t-146.5 -239t-231.5 -166t-308.5 -62.5t-309 62.5t-232.5 166t-145.5 238.5t-50 281zM233 717q0 -121 41 -232.5t117 -197.5t185.5 -138.5 t248.5 -52.5q137 0 247 52.5t186.5 138.5t117.5 197.5t41 232.5t-41 232.5t-117.5 197.5t-186 138t-247.5 52q-139 0 -248.5 -52t-185.5 -138t-117 -197.5t-41 -232.5z" />
<glyph unicode="P" horiz-adv-x="1220" d="M170 0v1434h494q109 0 197.5 -38t151 -103.5t96.5 -151.5t34 -183q0 -96 -34 -182t-96.5 -151.5t-151.5 -103.5t-197 -38h-355v-483h-139zM309 610h355q78 0 140 28t106 76t67.5 110.5t23.5 133.5q0 70 -23.5 133.5t-67.5 111.5t-106.5 76t-139.5 28h-355v-697z" />
<glyph unicode="Q" horiz-adv-x="1650" d="M88 717q0 145 50 280.5t145.5 238.5t232.5 165.5t309 62.5t308.5 -62.5t231.5 -165.5t146.5 -238.5t51.5 -280.5q0 -139 -43 -262t-122 -218.5t-186.5 -159t-236.5 -85.5l131 -185l-123 -61l-160 223q-172 0 -308 62.5t-231.5 167t-145.5 238.5t-50 280zM233 717 q0 -121 41 -232.5t117 -197.5t185.5 -138.5t248.5 -52.5q137 0 247 52.5t186.5 138.5t117.5 197.5t41 232.5t-41 232.5t-117.5 197.5t-186 138t-247.5 52q-139 0 -248.5 -52t-185.5 -138t-117 -197.5t-41 -232.5z" />
<glyph unicode="R" horiz-adv-x="1232" d="M170 0v1434h494q109 0 197.5 -38t151 -103.5t96.5 -151.5t34 -183q0 -80 -23.5 -151.5t-66.5 -132t-105.5 -104.5t-140.5 -64l321 -506h-161l-305 483h-353v-483h-139zM309 610h355q78 0 140 28t106 76t67.5 110.5t23.5 133.5q0 70 -23.5 133.5t-67.5 111.5t-106.5 76 t-139.5 28h-355v-697z" />
<glyph unicode="S" horiz-adv-x="1171" d="M96 444h140q0 -158 99 -253t269 -95q150 0 241 73t91 200q0 76 -28.5 125t-74 80.5t-102.5 51t-113 33.5q-94 27 -179 56.5t-149.5 76t-102 118t-37.5 182.5q0 80 31.5 148.5t90 118.5t141.5 77.5t185 27.5q98 0 180 -30.5t140.5 -86t91 -135t34.5 -178.5h-139 q-4 141 -83 222t-220 81q-147 0 -229 -67.5t-82 -177.5q0 -72 26.5 -120t70.5 -80t102.5 -51.5t119.5 -35.5q82 -23 166 -52.5t149.5 -75.5t107.5 -117t42 -177q0 -100 -35.5 -177t-99 -129t-153 -80t-193.5 -28q-109 0 -200 34t-157.5 95.5t-103.5 149.5t-37 196z" />
<glyph unicode="T" horiz-adv-x="970" d="M29 1307v127h913v-127h-389v-1307h-139v1307h-385z" />
<glyph unicode="U" horiz-adv-x="1265" d="M150 451v983h139v-983q0 -72 24.5 -136.5t68.5 -112.5t107.5 -77t141.5 -29q80 0 143.5 29t108.5 77t69.5 112.5t24.5 136.5v983h139v-983q0 -98 -34.5 -185.5t-97 -153t-153 -104.5t-200.5 -39q-109 0 -198 39t-152.5 104.5t-97 152.5t-33.5 186z" />
<glyph unicode="V" horiz-adv-x="1140" d="M10 1434h148l413 -1209l412 1209h147l-507 -1434h-105z" />
<glyph unicode="W" horiz-adv-x="1937" d="M12 1434h148l389 -1198l364 1198h111l362 -1198l392 1198h147l-485 -1434h-109l-362 1196l-363 -1196h-108z" />
<glyph unicode="X" horiz-adv-x="1093" d="M23 0l444 717l-444 717h157l367 -596l366 596h160l-446 -717l446 -717h-160l-366 594l-367 -594h-157z" />
<glyph unicode="Y" d="M18 1434h162l455 -723l371 723h153l-731 -1434h-154l289 567z" />
<glyph unicode="Z" horiz-adv-x="1130" d="M31 0l848 1307h-805v127h1042l-848 -1307h867v-127h-1104z" />
<glyph unicode="[" horiz-adv-x="647" d="M170 -479v2107h393v-123h-260v-1863h260v-121h-393z" />
<glyph unicode="\" horiz-adv-x="860" d="M-18 1583l120 53l746 -1732l-121 -51z" />
<glyph unicode="]" horiz-adv-x="647" d="M84 -358h260v1863h-260v121h393v-2105h-393v121z" />
<glyph unicode="^" horiz-adv-x="1286" d="M123 662l467 874h100l473 -874h-149l-373 708l-371 -708h-147z" />
<glyph unicode="_" horiz-adv-x="1146" d="M61 -102h1024v-99h-1024v99z" />
<glyph unicode="`" horiz-adv-x="858" d="M123 1384l65 107l510 -281l-65 -106z" />
<glyph unicode="a" horiz-adv-x="1212" d="M88 453q0 96 34 183t95.5 151.5t148.5 102.5t191 38q119 0 213 -57.5t139 -155.5v192h133v-907h-133v190q-45 -96 -139 -154.5t-213 -58.5q-104 0 -191 38t-148.5 103.5t-95.5 151.5t-34 183zM221 453q0 -72 24.5 -135.5t68.5 -111.5t107.5 -77t141.5 -29q80 0 143.5 29 t108.5 77t69.5 111.5t24.5 135.5t-24.5 136t-69.5 112.5t-108.5 77t-143.5 28.5q-78 0 -141.5 -28.5t-107.5 -77t-68.5 -113t-24.5 -135.5z" />
<glyph unicode="b" horiz-adv-x="1214" d="M170 0v1434h133v-719q45 98 139.5 155.5t212.5 57.5q104 0 191.5 -38t149 -102.5t95 -151.5t33.5 -183t-33.5 -182.5t-95 -152t-148.5 -103.5t-192 -38q-119 0 -213 58.5t-139 154.5v-190h-133zM303 453q0 -72 24.5 -135.5t69.5 -111.5t108.5 -77t143.5 -29 q78 0 141.5 29t107.5 77t68.5 111.5t24.5 135.5t-24.5 136t-68.5 112.5t-107.5 77t-141.5 28.5q-80 0 -143.5 -28.5t-108.5 -77t-69.5 -113t-24.5 -135.5z" />
<glyph unicode="c" horiz-adv-x="1073" d="M94 455q0 92 30 178t86 151.5t141 105.5t196 40q109 0 186.5 -31t128.5 -81t77 -113.5t32 -129.5h-133q-6 47 -24.5 90.5t-52.5 75t-86 50t-126 18.5q-80 0 -139.5 -29.5t-99.5 -79t-60.5 -113t-20.5 -132.5q0 -72 19.5 -135.5t60.5 -112.5t101.5 -78t144.5 -29 q133 0 198.5 59.5t88.5 151.5h133q-10 -70 -42 -131t-84 -106t-128 -71t-174 -26q-111 0 -196 40t-141 105.5t-86 152.5t-30 180z" />
<glyph unicode="d" horiz-adv-x="1212" d="M88 453q0 96 34 183t95.5 151.5t148.5 102.5t191 38q119 0 213 -57.5t139 -155.5v719h133v-1434h-133v190q-45 -96 -139 -154.5t-213 -58.5q-104 0 -191 38t-148.5 103.5t-95.5 151.5t-34 183zM221 453q0 -72 24.5 -135.5t68.5 -111.5t107.5 -77t141.5 -29q80 0 143.5 29 t108.5 77t69.5 111.5t24.5 135.5t-24.5 136t-69.5 112.5t-108.5 77t-143.5 28.5q-78 0 -141.5 -28.5t-107.5 -77t-68.5 -113t-24.5 -135.5z" />
<glyph unicode="e" horiz-adv-x="1062" d="M94 455q0 100 30 187t87 150.5t140 99.5t190 36q88 0 164.5 -31t133 -86t89.5 -129t33 -160q0 -18 -1.5 -41.5t-5.5 -56.5h-727q2 -66 20.5 -126t57.5 -105.5t98.5 -72t143.5 -26.5q113 0 178.5 49.5t87.5 116.5h135q-12 -55 -45 -106.5t-84 -90t-119.5 -62.5t-152.5 -24 q-115 0 -200 38t-141 103.5t-84 152.5t-28 184zM229 528h600q0 68 -22.5 122.5t-62 92t-93 59t-114.5 21.5q-135 0 -218 -78.5t-90 -216.5z" />
<glyph unicode="f" horiz-adv-x="686" d="M45 793v114h207v203q0 117 29.5 183.5t73.5 100t94.5 43t91.5 9.5q45 0 74.5 -7t52.5 -18v-114q-25 10 -49.5 14t-61.5 4q-31 0 -61.5 -5t-55 -25.5t-40 -61.5t-15.5 -111v-215h283v-114h-283v-793h-133v793h-207z" />
<glyph unicode="g" horiz-adv-x="1208" d="M88 455q0 96 34 182t95.5 150.5t148.5 102.5t191 38q119 0 213 -57.5t139 -155.5v192h133v-977q0 -129 -32.5 -220t-96 -148.5t-153.5 -83t-203 -25.5q-119 0 -204 35t-140 92.5t-83 133t-32 157.5h135q4 -59 23.5 -112.5t58.5 -94.5t98.5 -65.5t143.5 -24.5 q82 0 147.5 19.5t110.5 61.5t69.5 109.5t24.5 165.5v263q-45 -98 -139 -157t-213 -59q-104 0 -191 38t-148.5 103.5t-95.5 152.5t-34 184zM221 455q0 -72 24.5 -136.5t68.5 -112.5t107.5 -77t141.5 -29q80 0 143.5 29t108.5 77t69.5 112.5t24.5 136.5t-24.5 135t-69.5 111.5 t-108.5 77t-143.5 28.5q-78 0 -141.5 -28.5t-107.5 -77t-68.5 -112t-24.5 -134.5z" />
<glyph unicode="h" horiz-adv-x="1150" d="M170 0v1434h133v-723q39 92 127 154.5t217 62.5q92 0 161 -30t112 -83q41 -51 60 -118.5t19 -164.5v-532h-133v494q0 68 -14 125t-47 99t-83 66.5t-120 24.5q-76 0 -132 -29.5t-93 -79t-55.5 -111t-18.5 -124.5v-465h-133z" />
<glyph unicode="i" horiz-adv-x="473" d="M115 1262q0 53 34.5 88.5t86.5 35.5q53 0 88.5 -35.5t35.5 -88.5q0 -51 -35.5 -86t-88.5 -35q-51 0 -86 35t-35 86zM170 0v907h133v-907h-133z" />
<glyph unicode="j" horiz-adv-x="473" d="M-49 -395q31 -10 52.5 -14.5t51.5 -4.5q53 0 84 41t31 115v1165h133v-1183q0 -139 -62.5 -203t-148.5 -64q-90 0 -141 25v123zM115 1262q0 53 35.5 88.5t87.5 35.5q51 0 86.5 -35.5t35.5 -88.5q0 -51 -35.5 -86t-86.5 -35t-87 35t-36 86z" />
<glyph unicode="k" horiz-adv-x="931" d="M170 0v1434h133v-953l426 426h174l-448 -454l448 -453h-174l-426 424v-424h-133z" />
<glyph unicode="l" horiz-adv-x="473" d="M170 0v1434h133v-1434h-133z" />
<glyph unicode="m" horiz-adv-x="1662" d="M170 0v907h133v-198q12 43 37 82.5t61.5 69.5t83.5 48.5t103 18.5q127 0 199.5 -58.5t95.5 -167.5q12 45 39.5 86t67.5 72t89 49.5t109 18.5q160 0 240.5 -91.5t80.5 -265.5v-571h-135v535q0 143 -59.5 208.5t-155.5 65.5q-121 0 -186.5 -96.5t-65.5 -251.5v-461h-135 v510q0 84 -16.5 141.5t-45 92t-67.5 50t-86 15.5q-119 0 -186.5 -96.5t-67.5 -251.5v-461h-133z" />
<glyph unicode="n" horiz-adv-x="1150" d="M170 0v907h133v-196q39 92 127 154.5t217 62.5q92 0 161 -30t112 -83q41 -51 60 -118.5t19 -164.5v-532h-133v494q0 68 -14 125t-47 99t-83 66.5t-120 24.5q-76 0 -132 -29.5t-93 -79t-55.5 -111t-18.5 -124.5v-465h-133z" />
<glyph unicode="o" horiz-adv-x="1130" d="M88 453q0 96 34 183t96.5 151.5t149.5 102.5t195 38q109 0 198 -38t151.5 -102.5t96 -151.5t33.5 -183t-33.5 -182.5t-96 -152t-151.5 -103.5t-198 -38t-195.5 38t-149 103.5t-96.5 151.5t-34 183zM221 453q0 -72 24.5 -135.5t68.5 -111.5t107.5 -77t141.5 -29 q80 0 143.5 29t108.5 77t69.5 111.5t24.5 135.5t-24.5 136t-69.5 112.5t-108.5 77t-143.5 28.5q-78 0 -141.5 -28.5t-107.5 -77t-68.5 -113t-24.5 -135.5z" />
<glyph unicode="p" horiz-adv-x="1214" d="M170 -526v1433h133v-192q45 98 139.5 155.5t212.5 57.5q104 0 191.5 -38t149 -102.5t95 -150.5t33.5 -182t-33.5 -183.5t-95 -153t-148.5 -103.5t-192 -38q-119 0 -213 58.5t-139 157.5v-719h-133zM303 455q0 -72 24.5 -136.5t69.5 -112.5t108.5 -77t143.5 -29 q78 0 141.5 29t107.5 77t68.5 112.5t24.5 136.5t-24.5 135t-68.5 111.5t-107.5 77t-141.5 28.5q-80 0 -143.5 -28.5t-108.5 -77t-69.5 -112t-24.5 -134.5z" />
<glyph unicode="q" horiz-adv-x="1214" d="M90 455q0 96 34 182t95.5 150.5t148.5 102.5t191 38q119 0 213 -57.5t139 -155.5v192h133v-1433h-133v719q-45 -98 -139 -157t-213 -59q-104 0 -191 38t-148.5 103.5t-95.5 152.5t-34 184zM223 455q0 -72 24.5 -136.5t68.5 -112.5t107.5 -77t141.5 -29q80 0 143.5 29 t108.5 77t69.5 112.5t24.5 136.5t-24.5 135t-69.5 111.5t-108.5 77t-143.5 28.5q-78 0 -141.5 -28.5t-107.5 -77t-68.5 -112t-24.5 -134.5z" />
<glyph unicode="r" horiz-adv-x="722" d="M170 0v907h133v-213q41 111 130 168.5t194 57.5q25 0 47 -3.5t39 -11.5v-123q-27 8 -44.5 10.5t-41.5 2.5q-84 0 -144.5 -32t-100.5 -85t-59.5 -124t-19.5 -151v-403h-133z" />
<glyph unicode="s" horiz-adv-x="921" d="M90 307h131q0 -61 19.5 -102t53.5 -67.5t81 -38t100 -11.5q102 0 159.5 39t57.5 115q0 45 -22.5 71.5t-62.5 45t-94 33t-120 32.5q-55 14 -105 30.5t-88 43t-59.5 67.5t-21.5 105q0 63 25.5 111t70.5 81t106.5 49.5t133.5 16.5q74 0 138 -20.5t111.5 -59.5t74 -95.5 t26.5 -125.5h-131q0 94 -58.5 143t-162.5 49q-90 0 -146.5 -40t-56.5 -111q0 -41 18.5 -67t53 -43t85.5 -30.5t117 -31.5q55 -14 108.5 -29.5t95.5 -43.5t66.5 -70t24.5 -109q0 -131 -95 -199t-255 -68q-78 0 -146.5 19.5t-119.5 60.5t-82 102.5t-31 147.5z" />
<glyph unicode="t" horiz-adv-x="673" d="M41 793v114h182v336h135v-336h263v-114h-263v-463q0 -74 12.5 -117t35 -65.5t53 -29.5t67.5 -7q29 0 66 3t61 7v-121q-27 -4 -69.5 -8t-83.5 -4q-45 0 -93.5 8t-89.5 40t-67.5 95.5t-26.5 171.5v490h-182z" />
<glyph unicode="u" horiz-adv-x="1146" d="M147 375v532h136v-493q0 -68 14 -125.5t46 -99.5t81 -66.5t121 -24.5q76 0 132 30t93 79t55.5 110.5t18.5 124.5v465h133v-907h-133v197q-39 -92 -127 -156t-217 -64q-92 0 -161 31t-112 84q-41 51 -60.5 119t-19.5 164z" />
<glyph unicode="v" horiz-adv-x="962" d="M14 907h146l319 -719l324 719h145l-422 -907h-96z" />
<glyph unicode="w" horiz-adv-x="1464" d="M16 907h144l254 -704l252 704h133l250 -704l256 704h143l-350 -907h-97l-270 758l-268 -758h-96z" />
<glyph unicode="x" horiz-adv-x="888" d="M47 0l320 455l-318 452h156l239 -348l240 348h154l-316 -452l320 -455h-156l-242 352l-241 -352h-156z" />
<glyph unicode="y" horiz-adv-x="1163" d="M154 -133h135q8 -147 77.5 -223t211.5 -76q70 0 123 16.5t89.5 55t56 100t19.5 154.5v303q-39 -92 -125 -156t-215 -64q-102 0 -166.5 29t-111.5 82q-43 51 -60.5 119.5t-17.5 177.5v522h135v-483q0 -74 12.5 -134.5t43 -102.5t81 -65.5t127.5 -23.5q76 0 131.5 30t92 79 t55 110.5t18.5 124.5v465h133v-1013q0 -233 -107.5 -337t-316.5 -104q-412 0 -421 414z" />
<glyph unicode="z" horiz-adv-x="882" d="M53 0l543 786h-522v121h753l-542 -786h544v-121h-776z" />
<glyph unicode="{" horiz-adv-x="780" d="M113 494v112q25 0 57.5 10.5t61 33t49 57t20.5 84.5v550q0 72 25.5 125.5t65.5 89t90 53t100 17.5h127v-106h-99q-80 0 -127 -55.5t-47 -141.5v-549q0 -55 -18.5 -95t-46 -65.5t-59 -41t-58.5 -21.5q27 -6 58.5 -21.5t59 -43t46 -70.5t18.5 -107v-485q0 -86 47 -141.5 t127 -55.5h99v-106h-127q-49 0 -99.5 17.5t-90.5 52t-65.5 89t-25.5 125.5v490q0 53 -20.5 91t-49 61.5t-61.5 35t-57 11.5z" />
<glyph unicode="|" horiz-adv-x="473" d="M178 -479v2105h119v-2105h-119z" />
<glyph unicode="}" horiz-adv-x="780" d="M74 -373h96q80 0 127 55.5t47 141.5v485q0 63 18.5 106.5t46 71t59.5 43t58 21.5q-27 6 -58.5 21.5t-59 41t-46 65.5t-18.5 95v549q0 86 -47 141.5t-127 55.5h-96v106h125q49 0 99 -17.5t90 -53t65.5 -89t25.5 -125.5v-550q0 -49 20.5 -84t49.5 -57.5t61.5 -33 t57.5 -10.5v-112q-25 0 -57.5 -11.5t-61.5 -35t-49.5 -61.5t-20.5 -91v-490q0 -72 -25.5 -126t-65.5 -88.5t-90 -52t-99 -17.5h-125v106z" />
<glyph unicode="~" horiz-adv-x="1044" d="M70 479v125q47 57 104 80t107 23q55 0 116.5 -19.5t124.5 -46.5q59 -25 118.5 -49.5t102.5 -24.5q70 0 127.5 36t98.5 75v-123q-47 -53 -107.5 -81t-120.5 -28q-49 0 -104 20.5t-125 51.5q-53 27 -114.5 47.5t-123.5 20.5q-53 0 -108 -30t-96 -77z" />
<glyph unicode="&#xa2;" horiz-adv-x="1122" d="M115 575q0 86 25.5 167t76.5 145.5t125 107.5t172 52v223h107v-223q94 -8 160.5 -41t111.5 -81t67.5 -107.5t28.5 -121.5h-133q-6 47 -24.5 90t-52.5 75t-86 50.5t-126 18.5q-80 0 -139 -30t-99 -79t-60.5 -112.5t-20.5 -133.5q0 -72 19.5 -135t60.5 -112t101 -78 t144 -29q133 0 199 59.5t88 151.5h133q-20 -131 -110 -223t-262 -109v-221h-107v223q-98 8 -173 51.5t-125 108t-75.5 145t-25.5 168.5z" />
<glyph unicode="&#xa3;" horiz-adv-x="1220" d="M74 729v107h139v44.5t-1 59.5t-1 56.5v35.5q0 90 35 167t94 133.5t141 88t178 31.5q100 0 183.5 -34t144 -94t93 -142t32.5 -178h-141q0 68 -20.5 126t-60.5 102t-98.5 68.5t-136.5 24.5q-123 0 -203 -65.5t-96 -176.5q-4 -14 -5 -41.5t-1 -62.5t1 -72t1 -69h389v-107 h-389q0 -18 -1 -67.5t-2 -103.5t-2 -101t-3 -62q-4 -104 -19.5 -166.5t-45.5 -103.5h716v-127h-876v109q37 45 56.5 107.5t25.5 172.5q2 16 4 63.5t3 102.5t3 104.5t2 69.5h-139z" />
<glyph unicode="&#xa5;" horiz-adv-x="1239" d="M-29 1434h162l490 -736l481 736h162l-557 -850h329v-103h-352v-188h352v-107h-352v-186h-127v186h-348v107h348v188h-348v103h326z" />
<glyph unicode="&#xa8;" horiz-adv-x="1060" d="M168 1329q0 49 34 84t85 35q49 0 84 -35t35 -84t-35 -84t-84 -35q-51 0 -85 35t-34 84zM639 1329q0 49 34 84t85 35q49 0 84 -35t35 -84t-35 -84t-84 -35q-51 0 -85 35t-34 84z" />
<glyph unicode="&#xa9;" horiz-adv-x="1652" d="M90 717q0 145 50 281.5t145.5 240.5t231.5 166.5t308 62.5t308.5 -62.5t231.5 -166.5t146.5 -240.5t51.5 -281.5t-51.5 -281.5t-146.5 -241t-231.5 -167t-308.5 -62.5t-308 62.5t-231.5 167t-145.5 240.5t-50 282zM203 717q0 -129 43 -248t123 -210t195.5 -146.5 t260.5 -55.5t261 55.5t197 146.5t124 210t43 248t-43 247.5t-124 210t-196.5 146.5t-261.5 55q-145 0 -260.5 -55t-195.5 -146.5t-123 -210t-43 -247.5zM403 719q0 84 29 161.5t83 137t131 95.5t175 36q88 0 157 -22.5t118 -62.5t79.5 -94.5t43.5 -117.5h-97 q-25 90 -99.5 150.5t-201.5 60.5q-76 0 -135 -28.5t-101 -77t-63.5 -110t-21.5 -128.5q0 -70 22.5 -132.5t66.5 -110.5t106.5 -75.5t142.5 -27.5q100 0 173.5 48t106.5 124h101q-16 -55 -51 -102.5t-84.5 -83t-112 -55t-133.5 -19.5q-102 0 -183.5 34.5t-136.5 94t-85 138.5 t-30 167z" />
<glyph unicode="&#xab;" horiz-adv-x="966" d="M82 553v86l401 348v-137l-290 -254l290 -254v-137zM483 553v86l402 348v-137l-291 -254l291 -254v-137z" />
<glyph unicode="&#xad;" horiz-adv-x="602" d="M61 522v121h480v-121h-480z" />
<glyph unicode="&#xae;" horiz-adv-x="1662" d="M90 717q0 145 51.5 281.5t146.5 240.5t233 166.5t310 62.5t310.5 -62.5t233.5 -166.5t146.5 -240.5t51.5 -281.5t-51.5 -281.5t-146.5 -241t-233.5 -167t-310.5 -62.5t-310 62.5t-233 167t-146.5 240.5t-51.5 282zM203 717q0 -129 43 -248t125 -210t197.5 -146.5 t262.5 -55.5t263 55.5t198 146.5t125 210t43 248t-43 247.5t-125 210t-197.5 146.5t-263.5 55q-147 0 -262.5 -55t-197.5 -146.5t-125 -210t-43 -247.5zM575 326v833h310q61 0 112.5 -22.5t87 -60.5t55 -89t19.5 -106q0 -92 -51 -164t-141 -96l186 -295h-113l-180 282h-184 v-282h-101zM676 698h198q84 0 132.5 53.5t48.5 129.5q0 78 -48.5 133t-132.5 55h-198v-371z" />
<glyph unicode="&#xb4;" horiz-adv-x="858" d="M84 1210l510 281l65 -107l-509 -280z" />
<glyph unicode="&#xb8;" horiz-adv-x="827" d="M236 -297h86q4 -45 32.5 -74.5t75.5 -29.5q53 0 83 33.5t30 82.5q0 47 -31 78t-80 31q-27 0 -51.5 -11.5t-44.5 -54.5h-76v242h92v-158q16 27 44 40.5t59 13.5q72 0 124 -49.5t52 -131.5q0 -37 -13.5 -71.5t-38 -62t-62.5 -44t-87 -16.5q-27 0 -58.5 9t-60 30.5t-50 56.5 t-25.5 86z" />
<glyph unicode="&#xbb;" horiz-adv-x="966" d="M82 205v137l291 254l-291 254v137l401 -348v-86zM483 205v137l291 254l-291 254v137l402 -348v-86z" />
<glyph unicode="&#x2c6;" horiz-adv-x="913" d="M86 1427l369 297l368 -297l-84 -94l-284 230l-285 -230z" />
<glyph unicode="&#x2da;" horiz-adv-x="925" d="M211 1458q0 51 19.5 97.5t54 81t80 54t98.5 19.5q51 0 97 -20.5t81 -54t54.5 -80t19.5 -97.5t-19.5 -97t-54.5 -80t-81 -54.5t-97 -20.5q-53 0 -98.5 20.5t-80 54.5t-54 80t-19.5 97zM313 1458q0 -59 44 -103t106 -44q61 0 105 44t44 105q0 59 -43 104.5t-106 45.5 t-106.5 -45t-43.5 -107z" />
<glyph unicode="&#x2dc;" horiz-adv-x="960" d="M137 1356q45 29 79 45t58.5 23.5t42 8.5t31.5 1q20 0 61.5 -8.5t85.5 -19.5t82.5 -19.5t59.5 -8.5q16 0 30.5 2t32 8.5t41 16.5t60.5 29l55 -91q-80 -53 -125 -64t-80 -11q-29 0 -66.5 8t-77.5 18.5t-78 18.5t-67 8q-33 0 -68.5 -10.5t-94.5 -44.5z" />
<glyph unicode="&#x401;" horiz-adv-x="1112" d="M170 0v1434h782v-127h-643v-531h643v-127h-643v-522h643v-127h-782zM201 1702q0 53 34.5 89t88.5 36q51 0 86.5 -36t35.5 -89q0 -51 -35.5 -86t-86.5 -35q-53 0 -88 35t-35 86zM672 1702q0 53 34.5 89t88.5 36q51 0 87 -36t36 -89q0 -51 -36 -86t-87 -35q-53 0 -88 35 t-35 86z" />
<glyph unicode="&#x402;" horiz-adv-x="1388" d="M29 1307v127h913v-127h-389v-596q41 92 129 154.5t217 62.5q92 0 161.5 -30t113.5 -83q41 -51 61 -118.5t20 -164.5v-808q0 -121 -64.5 -193t-172.5 -72h-30.5t-42 2t-41 4.5t-27.5 6.5v131q8 -4 22 -7.5t30.5 -5.5t33 -3t28.5 -1q59 0 92 40t33 112v756q0 68 -14.5 125 t-46 99t-81.5 66.5t-120 24.5q-76 0 -132 -29.5t-94 -79t-56.5 -111t-18.5 -124.5v-465h-139v1307h-385z" />
<glyph unicode="&#x403;" horiz-adv-x="970" d="M170 0v1434h782v-127h-643v-1307h-139zM299 1622l510 281l65 -107l-509 -280z" />
<glyph unicode="&#x404;" horiz-adv-x="1546" d="M88 717q0 145 46 280.5t136 238.5t224.5 165.5t312.5 62.5q137 0 248.5 -36.5t194.5 -101t135.5 -153t74.5 -190.5h-151q-16 76 -58.5 140.5t-107 112.5t-149.5 74.5t-187 26.5q-133 0 -236.5 -46t-175 -122.5t-111.5 -178t-46 -212.5h768v-129h-768q8 -113 49 -213 t114.5 -176t179 -120t240.5 -44q90 0 170 24.5t143.5 67.5t107.5 102.5t67 131.5h151q-25 -96 -81 -179t-139 -143.5t-188.5 -95.5t-230.5 -35q-180 0 -317 61.5t-229.5 165t-139.5 238.5t-47 283z" />
<glyph unicode="&#x405;" horiz-adv-x="1171" d="M96 444h140q0 -158 99 -253t269 -95q150 0 241 73t91 200q0 76 -28.5 125t-74 80.5t-102.5 51t-113 33.5q-94 27 -179 56.5t-149.5 76t-102 118t-37.5 182.5q0 80 31.5 148.5t90 118.5t141.5 77.5t185 27.5q98 0 180 -30.5t140.5 -86t91 -135t34.5 -178.5h-139 q-4 141 -83 222t-220 81q-147 0 -229 -67.5t-82 -177.5q0 -72 26.5 -120t70.5 -80t102.5 -51.5t119.5 -35.5q82 -23 166 -52.5t149.5 -75.5t107.5 -117t42 -177q0 -100 -35.5 -177t-99 -129t-153 -80t-193.5 -28q-109 0 -200 34t-157.5 95.5t-103.5 149.5t-37 196z" />
<glyph unicode="&#x406;" horiz-adv-x="483" d="M170 0v1434h143v-1434h-143z" />
<glyph unicode="&#x407;" horiz-adv-x="483" d="M-94 1702q0 53 34.5 89t86.5 36q53 0 89 -36t36 -89q0 -51 -36 -86t-89 -35q-51 0 -86 35t-35 86zM170 0v1434h143v-1434h-143zM336 1702q0 53 35 89t86 36q53 0 88 -36t35 -89q0 -51 -35 -86t-88 -35q-51 0 -86 35t-35 86z" />
<glyph unicode="&#x408;" horiz-adv-x="1097" d="M33 444h139q0 -80 24.5 -144t67.5 -109.5t102.5 -70t129.5 -24.5q143 0 227 93.5t84 252.5v992h141v-992q0 -104 -31.5 -191t-91 -149.5t-142.5 -97.5t-187 -35q-102 0 -187.5 35t-147 97.5t-95 150.5t-33.5 192z" />
<glyph unicode="&#x409;" horiz-adv-x="1966" d="M20 -25v127h89q66 0 101.5 31t35.5 117v1184h928v-629h331q84 0 156 -32t124 -86t80.5 -127t28.5 -157t-29.5 -156.5t-81.5 -128t-125 -87t-159 -31.5h-465v1307h-647v-1076q0 -137 -70.5 -196.5t-175.5 -59.5h-121zM1174 127h325q55 0 101.5 21.5t81 59.5t54 88 t19.5 107q0 55 -18.5 105.5t-52 88.5t-79.5 60.5t-100 22.5h-331v-553z" />
<glyph unicode="&#x40a;" horiz-adv-x="1980" d="M170 0v1434h139v-629h738v629h141v-629h332q84 0 154.5 -32t122.5 -86t82 -127t30 -157t-30 -156.5t-82 -128t-125 -87t-159 -31.5h-466v678h-738v-678h-139zM1188 127h325q55 0 101.5 21.5t81.5 59.5t54 88t19 107q0 55 -19 105.5t-53 88.5t-79 60.5t-98 22.5h-332v-553 z" />
<glyph unicode="&#x40b;" horiz-adv-x="1406" d="M29 1307v127h913v-127h-389v-596q41 92 129 154.5t217 62.5q92 0 161.5 -30t113.5 -83q41 -51 61 -118.5t20 -164.5v-532h-139v494q0 68 -14.5 125t-46 99t-81.5 66.5t-120 24.5q-76 0 -132 -29.5t-94 -79t-56.5 -111t-18.5 -124.5v-465h-139v1307h-385z" />
<glyph unicode="&#x40c;" horiz-adv-x="1191" d="M170 0v1434h139v-617h45q70 0 139.5 33t131.5 137l141 242q55 94 123.5 152.5t173.5 58.5h90v-129h-68q-68 0 -115.5 -34t-92.5 -114l-132 -227q-53 -96 -130.5 -140t-170.5 -55l711 -741h-184l-662 700v-700h-139zM336 1622l510 281l65 -107l-510 -280z" />
<glyph unicode="&#x40e;" d="M18 1434h162l455 -723l371 723h153l-731 -1434h-154l289 567zM209 1880h127q23 -92 91.5 -142t166.5 -50q100 0 167.5 50t90.5 142h127q-12 -68 -46 -122t-85 -94t-115.5 -61.5t-138.5 -21.5t-139.5 21.5t-115.5 61.5t-84 94t-46 122z" />
<glyph unicode="&#x40f;" horiz-adv-x="1298" d="M170 0v1434h139v-1307h680v1307h139v-1434h-415v-211h-127v211h-416z" />
<glyph unicode="&#x410;" horiz-adv-x="1118" d="M12 0l494 1434h106l494 -1434h-148l-88 256h-622l-88 -256h-148zM291 383h536l-268 827z" />
<glyph unicode="&#x411;" horiz-adv-x="1179" d="M170 0v1434h803v-127h-664v-502h383q84 0 155 -32t123 -86t81.5 -127t29.5 -157t-29.5 -156.5t-81.5 -128t-125 -87t-159 -31.5h-516zM309 127h377q55 0 101.5 21.5t80 59.5t53 88t19.5 107q0 55 -18.5 105.5t-52 88.5t-79 60.5t-98.5 22.5h-383v-553z" />
<glyph unicode="&#x412;" horiz-adv-x="1193" d="M170 0v1434h489q113 0 191 -35t127 -89.5t71.5 -122t22.5 -132.5q0 -63 -20.5 -119.5t-55 -99.5t-82 -73t-100.5 -40q47 -6 95 -32.5t86 -71t62.5 -103.5t24.5 -129q0 -66 -23.5 -134.5t-74.5 -124.5t-131 -92t-193 -36h-489zM309 127h357q70 0 122 22.5t85.5 60.5t50 85 t16.5 96q0 45 -16.5 93t-50 86t-84 62.5t-117.5 24.5h-363v-530zM309 784h357q68 0 118 23.5t82.5 61.5t49 84t16.5 91q0 47 -16.5 94.5t-50.5 84.5t-85 60.5t-121 23.5h-350v-523z" />
<glyph unicode="&#x413;" horiz-adv-x="970" d="M170 0v1434h782v-127h-643v-1307h-139z" />
<glyph unicode="&#x414;" horiz-adv-x="1411" d="M25 127h24q92 0 167 35t122 110q39 61 60.5 145.5t21.5 215.5v801h782v-1307h137v-338h-127v211h-1058v-211h-129v338zM324 127h737v1180h-504v-549q0 -125 -10 -230.5t-37 -186.5t-72 -135t-114 -79z" />
<glyph unicode="&#x415;" horiz-adv-x="1112" d="M170 0v1434h782v-127h-643v-531h643v-127h-643v-522h643v-127h-782z" />
<glyph unicode="&#x416;" horiz-adv-x="1771" d="M18 0l660 729q-190 20 -285 205l-108 215q-41 82 -86 122t-111 40h-65v129h81q104 0 171 -62.5t118 -163.5l125 -241q53 -102 112.5 -142t141.5 -40h47v643h133v-643h47q82 0 141.5 39.5t112.5 142.5l125 241q51 100 119 163t172 63h80v-129h-66q-66 0 -110.5 -40 t-85.5 -122l-109 -215q-94 -184 -282 -205l657 -729h-180l-621 702v-702h-133v702l-620 -702h-181z" />
<glyph unicode="&#x417;" horiz-adv-x="1146" d="M86 426h139q0 -74 25.5 -134.5t72 -102.5t110 -64.5t136.5 -22.5q76 0 136.5 22.5t102.5 60.5t64.5 91.5t22.5 114.5q0 129 -83 207t-253 78h-102v125h102q80 0 138.5 21.5t97.5 57t58 84t19 103.5q0 115 -81.5 189.5t-223.5 74.5q-74 0 -134 -19.5t-105 -56t-70 -90 t-25 -121.5h-139q0 92 35 168t98.5 131.5t151.5 85t194 29.5q94 0 175 -25.5t139.5 -74.5t91.5 -120t33 -161q0 -127 -72 -216t-195 -113q129 -20 209 -115.5t80 -239.5q0 -94 -34.5 -171t-96 -132t-147.5 -85t-189 -30q-106 0 -194 31t-151.5 89.5t-99.5 142.5t-36 188z " />
<glyph unicode="&#x418;" horiz-adv-x="1355" d="M170 0v1434h139v-1133l735 1038v95h142v-1434h-142v1133l-735 -1039v-94h-139z" />
<glyph unicode="&#x419;" horiz-adv-x="1355" d="M170 0v1434h139v-1133l735 1038v95h142v-1434h-142v1133l-735 -1039v-94h-139zM307 1880h127q23 -92 91.5 -142t166.5 -50t167 50t91 142h127q-12 -68 -46 -122t-85 -94t-115.5 -61.5t-138.5 -21.5t-139.5 21.5t-116.5 61.5t-84 94t-45 122z" />
<glyph unicode="&#x41a;" horiz-adv-x="1191" d="M170 0v1434h139v-617h45q70 0 139.5 33t131.5 137l141 242q55 94 123.5 152.5t173.5 58.5h90v-129h-68q-68 0 -115.5 -34t-92.5 -114l-132 -227q-53 -96 -130.5 -140t-170.5 -55l711 -741h-184l-662 700v-700h-139z" />
<glyph unicode="&#x41b;" horiz-adv-x="1396" d="M20 -25v127h74q72 0 112 35t40 133v1164h981v-1434h-140v1307h-700v-1057q0 -74 -19.5 -126t-54 -85t-83 -48.5t-105.5 -15.5h-105z" />
<glyph unicode="&#x41c;" horiz-adv-x="1658" d="M170 0v1434h135l524 -1223l525 1223h135v-1434h-139v1108l-465 -1108h-111l-465 1108v-1108h-139z" />
<glyph unicode="&#x41d;" horiz-adv-x="1357" d="M170 0v1434h139v-658h738v658h141v-1434h-141v649h-738v-649h-139z" />
<glyph unicode="&#x41e;" horiz-adv-x="1650" d="M88 717q0 145 50 280.5t145.5 238.5t232.5 165.5t309 62.5t308.5 -62.5t231.5 -165.5t146.5 -238.5t51.5 -280.5t-51.5 -280.5t-146.5 -239t-231.5 -166t-308.5 -62.5t-309 62.5t-232.5 166t-145.5 238.5t-50 281zM233 717q0 -121 41 -232.5t117 -197.5t185.5 -138.5 t248.5 -52.5q137 0 247 52.5t186.5 138.5t117.5 197.5t41 232.5t-41 232.5t-117.5 197.5t-186 138t-247.5 52q-139 0 -248.5 -52t-185.5 -138t-117 -197.5t-41 -232.5z" />
<glyph unicode="&#x41f;" horiz-adv-x="1368" d="M170 0v1434h1028v-1434h-139v1307h-750v-1307h-139z" />
<glyph unicode="&#x420;" horiz-adv-x="1220" d="M170 0v1434h494q109 0 197.5 -38t151 -103.5t96.5 -151.5t34 -183q0 -96 -34 -182t-96.5 -151.5t-151.5 -103.5t-197 -38h-355v-483h-139zM309 610h355q78 0 140 28t106 76t67.5 110.5t23.5 133.5q0 70 -23.5 133.5t-67.5 111.5t-106.5 76t-139.5 28h-355v-697z" />
<glyph unicode="&#x421;" horiz-adv-x="1587" d="M88 719q0 145 50 279.5t143.5 237.5t227.5 165.5t302 62.5q152 0 270.5 -40t204.5 -108.5t139.5 -162.5t75.5 -203h-145q-20 82 -63.5 153t-110 123t-155.5 81.5t-200 29.5q-141 0 -251.5 -51t-187.5 -137t-117 -197.5t-40 -232.5q0 -127 42 -239.5t122 -197.5 t196 -135.5t263 -50.5q84 0 163 24.5t143.5 67.5t113.5 102.5t74 131.5h153q-29 -96 -89 -179t-146 -143.5t-194.5 -95.5t-233.5 -35q-176 0 -314.5 60.5t-236 164t-148.5 238.5t-51 287z" />
<glyph unicode="&#x422;" horiz-adv-x="970" d="M29 1307v127h913v-127h-389v-1307h-139v1307h-385z" />
<glyph unicode="&#x423;" d="M18 1434h162l455 -723l371 723h153l-731 -1434h-154l289 567z" />
<glyph unicode="&#x424;" horiz-adv-x="1564" d="M74 717q0 106 34.5 199.5t99 164t157 111.5t204.5 41h144v201h139v-201h143q113 0 204 -41t155.5 -111.5t99.5 -164t35 -199.5q0 -104 -35 -198.5t-99.5 -164t-155.5 -110.5t-204 -41h-143v-203h-139v203h-144q-113 0 -205 41t-156.5 110.5t-99 163.5t-34.5 199zM215 717 q0 -80 24.5 -150.5t70.5 -123t111.5 -83t147.5 -30.5h144v774h-144q-82 0 -147.5 -31t-111.5 -83t-70.5 -122.5t-24.5 -150.5zM852 330h143q80 0 145.5 30.5t111.5 83t72 123t26 150.5t-26 150.5t-72 122.5t-111.5 83t-145.5 31h-143v-774z" />
<glyph unicode="&#x425;" horiz-adv-x="1093" d="M23 0l444 717l-444 717h157l367 -596l366 596h160l-446 -717l446 -717h-160l-366 594l-367 -594h-157z" />
<glyph unicode="&#x426;" horiz-adv-x="1351" d="M170 0v1434h139v-1307h680v1307h139v-1307h183v-338h-127v211h-1014z" />
<glyph unicode="&#x427;" horiz-adv-x="1171" d="M88 940v494h139v-461q0 -168 85 -267.5t274 -99.5h276v828h139v-1434h-139v479h-301q-121 0 -210 34t-147.5 94.5t-87 145.5t-28.5 187z" />
<glyph unicode="&#x428;" horiz-adv-x="1869" d="M170 0v1434h139v-1307h557v1307h140v-1307h555v1307h141v-1434h-1532z" />
<glyph unicode="&#x429;" horiz-adv-x="1925" d="M170 0v1434h139v-1307h557v1307h140v-1307h555v1307h141v-1307h182v-338h-139v211h-1575z" />
<glyph unicode="&#x42a;" horiz-adv-x="1312" d="M29 1307v127h440v-629h383q84 0 154.5 -32t123 -86t82 -127t29.5 -157t-29.5 -156.5t-82 -128t-125 -87t-158.5 -31.5h-516v1307h-301zM469 127h377q55 0 101 21.5t80 59.5t53.5 88t19.5 107q0 55 -18.5 105.5t-52.5 88.5t-79 60.5t-98 22.5h-383v-553z" />
<glyph unicode="&#x42b;" horiz-adv-x="1503" d="M170 0v1434h139v-629h359q84 0 154.5 -32t122.5 -86t82 -127t30 -157t-30 -156.5t-82 -128t-124.5 -87t-158.5 -31.5h-492zM309 127h353q55 0 101 21.5t80 59.5t53 88t19 107q0 55 -18 105.5t-52 88.5t-79 60.5t-98 22.5h-359v-553zM1194 0v1434h139v-1434h-139z" />
<glyph unicode="&#x42c;" horiz-adv-x="1153" d="M170 0v1434h139v-629h383q84 0 155 -32t123 -86t81.5 -127t29.5 -157t-29.5 -156.5t-81.5 -128t-125 -87t-159 -31.5h-516zM309 127h377q55 0 101.5 21.5t80 59.5t53 88t19.5 107q0 55 -18.5 105.5t-52 88.5t-79 60.5t-98.5 22.5h-383v-553z" />
<glyph unicode="&#x42d;" horiz-adv-x="1556" d="M86 422h154q25 -72 75 -131.5t116.5 -102.5t147 -67.5t166.5 -24.5q129 0 231.5 42t176.5 117t117 176t53 218h-772v127h772q-8 115 -49 217.5t-112.5 179t-171 120.5t-224.5 44q-115 0 -204 -29.5t-155.5 -81.5t-109.5 -123t-64 -153h-147q23 109 76 203t138 162.5 t203 108.5t269 40q164 0 293 -59t219 -161.5t137 -238t47 -286.5q0 -158 -49 -294t-142 -237.5t-227.5 -160t-304.5 -58.5q-125 0 -232 35t-192 95.5t-145.5 143.5t-89.5 179z" />
<glyph unicode="&#x42e;" horiz-adv-x="2217" d="M170 0v1434h139v-658h348q10 135 64.5 260t150 220.5t226.5 151.5t295 56q172 0 308 -62.5t231.5 -165.5t146.5 -238.5t51 -280.5t-51 -280.5t-146.5 -239t-231.5 -166t-308 -62.5q-162 0 -293 55.5t-225.5 148.5t-149.5 217t-68 259h-348v-649h-139zM801 717 q0 -121 41 -232.5t116.5 -197.5t185.5 -138.5t249 -52.5q137 0 246.5 52.5t185.5 138.5t116.5 197.5t40.5 232.5t-40.5 232.5t-116.5 197.5t-185.5 138t-246.5 52q-139 0 -249 -52t-185.5 -138t-116.5 -197.5t-41 -232.5z" />
<glyph unicode="&#x42f;" horiz-adv-x="1232" d="M90 958q0 96 34 182.5t97.5 152t151.5 103.5t198 38h492v-1434h-139v483h-353l-305 -483h-162l322 506q-78 20 -140.5 64t-105.5 104.5t-66.5 132.5t-23.5 151zM231 958q0 -72 24 -134t68 -110t107 -76t141 -28h353v697h-353q-78 0 -141 -28t-107 -76t-68 -111.5 t-24 -133.5z" />
<glyph unicode="&#x430;" horiz-adv-x="1212" d="M88 453q0 96 34 183t95.5 151.5t148.5 102.5t191 38q119 0 213 -57.5t139 -155.5v192h133v-907h-133v190q-45 -96 -139 -154.5t-213 -58.5q-104 0 -191 38t-148.5 103.5t-95.5 151.5t-34 183zM221 453q0 -72 24.5 -135.5t68.5 -111.5t107.5 -77t141.5 -29q80 0 143.5 29 t108.5 77t69.5 111.5t24.5 135.5t-24.5 136t-69.5 112.5t-108.5 77t-143.5 28.5q-78 0 -141.5 -28.5t-107.5 -77t-68.5 -113t-24.5 -135.5z" />
<glyph unicode="&#x431;" horiz-adv-x="1169" d="M106 653q0 219 53.5 362.5t137.5 231.5q94 98 218 142.5t284 44.5h176v-129h-217q-242 0 -373 -142q-86 -94 -122 -229t-32 -301q18 72 56.5 127t90.5 92t115.5 56.5t131.5 19.5q106 0 191 -38t143.5 -102.5t89 -151.5t30.5 -183t-33.5 -182.5t-96 -152t-149.5 -103.5 t-194 -38q-139 0 -234.5 54.5t-153.5 146.5t-85 215t-27 260zM256 453q0 -70 23.5 -133.5t67.5 -112.5t108.5 -78t144.5 -29q78 0 142.5 29t109.5 77t69.5 111.5t24.5 135.5t-24.5 136t-69.5 112.5t-109.5 77t-142.5 28.5q-80 0 -143.5 -26.5t-107.5 -75t-68.5 -113 t-24.5 -139.5z" />
<glyph unicode="&#x432;" horiz-adv-x="987" d="M170 0v907h422q76 0 129 -21.5t85 -55t46 -75.5t14 -83q0 -37 -15 -72t-41 -62.5t-62.5 -46t-79.5 -24.5q43 -2 81.5 -20.5t67.5 -48t45.5 -69.5t16.5 -85q0 -41 -15.5 -84t-51.5 -79t-91 -58.5t-135 -22.5h-416zM301 98h287q66 0 111.5 46t45.5 108q0 66 -45 114 t-110 48h-289v-316zM301 512h285q66 0 106.5 45t40.5 105q0 59 -43 102t-108 43h-281v-295z" />
<glyph unicode="&#x433;" horiz-adv-x="724" d="M170 0v907h535v-114h-402v-793h-133z" />
<glyph unicode="&#x434;" horiz-adv-x="1122" d="M25 109h45q111 0 174 88t63 252v458h637v-798h111v-322h-121v213h-787v-213h-122v322zM274 109h543v690h-383v-312q0 -313 -160 -378z" />
<glyph unicode="&#x435;" horiz-adv-x="1062" d="M94 455q0 100 30 187t86 150.5t139 99.5t192 36q88 0 163.5 -31t132 -86t89 -129t32.5 -160q0 -18 -1 -41.5t-5 -56.5h-725q2 -66 20.5 -126t57.5 -105.5t98.5 -72t143.5 -26.5q113 0 177 49.5t89 116.5h135q-12 -55 -45 -106.5t-84 -90t-119.5 -62.5t-152.5 -24 q-115 0 -200 38t-141 103.5t-84 152.5t-28 184zM227 528h602q0 68 -22.5 122.5t-62 92t-93 59t-114.5 21.5q-135 0 -218 -78.5t-92 -216.5z" />
<glyph unicode="&#x436;" horiz-adv-x="1353" d="M45 0l457 469q-78 2 -131.5 30.5t-85.5 94.5l-54 104q-23 47 -53.5 77t-71.5 30h-57v110h74q63 0 112.5 -32.5t90.5 -110.5l75 -143q33 -63 69 -88t101 -25h43v391h125v-391h43q66 0 102 24.5t68 88.5l78 143q41 78 89 110.5t112 32.5h74v-110h-56q-41 0 -71.5 -30 t-53.5 -77l-53 -104q-35 -66 -88 -94.5t-131 -30.5l457 -469h-158l-412 440v-440h-125v440l-411 -440h-158z" />
<glyph unicode="&#x437;" horiz-adv-x="849" d="M72 258h131q0 -78 57 -123t162 -45q90 0 144.5 40t54.5 114q0 72 -52.5 117t-150.5 45h-92v100h86q98 0 145 45t47 117q0 66 -50 108.5t-136 42.5q-100 0 -149.5 -45t-49.5 -117h-131q0 121 90 196t240 75q143 0 229 -68.5t86 -177.5q0 -90 -52 -147.5t-140 -71.5 q92 -10 150.5 -68.5t58.5 -154.5q0 -59 -27 -108.5t-72 -83.5t-106.5 -52.5t-130.5 -18.5q-160 0 -251 77t-91 204z" />
<glyph unicode="&#x438;" horiz-adv-x="1142" d="M170 0v907h133v-682l537 609v73h133v-907h-133v676l-537 -606v-70h-133z" />
<glyph unicode="&#x439;" horiz-adv-x="1142" d="M170 0v907h133v-682l537 609v73h133v-907h-133v676l-537 -606v-70h-133zM205 1434h127q23 -92 88.5 -142.5t161.5 -50.5q94 0 159.5 50t87.5 143h127q-12 -68 -44.5 -122.5t-83 -94t-114 -61t-132.5 -21.5q-72 0 -135.5 21.5t-113.5 61t-83 94t-45 122.5z" />
<glyph unicode="&#x43a;" horiz-adv-x="983" d="M170 0v907h133v-403h35q43 0 83 23.5t81 86.5l116 177q41 59 84 91.5t111 32.5h88v-110h-57q-47 0 -76 -20.5t-57 -63.5l-88 -135q-43 -68 -89.5 -92.5t-105.5 -28.5l496 -465h-168l-453 432v-432h-133z" />
<glyph unicode="&#x43b;" horiz-adv-x="1128" d="M31 -20v120h45q27 0 50.5 5.5t38.5 19.5t24.5 41t9.5 70v671h759v-907h-133v793h-493v-574q0 -68 -17.5 -114t-48 -73.5t-72.5 -39.5t-92 -12h-71z" />
<glyph unicode="&#x43c;" horiz-adv-x="1402" d="M170 0v907h199l333 -727l334 727h197v-907h-123v793l-362 -793h-91l-364 793v-793h-123z" />
<glyph unicode="&#x43d;" horiz-adv-x="1155" d="M170 0v907h133v-393h549v393h133v-907h-133v397h-549v-397h-133z" />
<glyph unicode="&#x43e;" horiz-adv-x="1130" d="M88 453q0 96 34 183t96.5 151.5t149.5 102.5t195 38q109 0 198 -38t151.5 -102.5t96 -151.5t33.5 -183t-33.5 -182.5t-96 -152t-151.5 -103.5t-198 -38t-195.5 38t-149 103.5t-96.5 151.5t-34 183zM221 453q0 -72 24.5 -135.5t68.5 -111.5t107.5 -77t141.5 -29 q80 0 143.5 29t108.5 77t69.5 111.5t24.5 135.5t-24.5 136t-69.5 112.5t-108.5 77t-143.5 28.5q-78 0 -141.5 -28.5t-107.5 -77t-68.5 -113t-24.5 -135.5z" />
<glyph unicode="&#x43f;" horiz-adv-x="1161" d="M170 0v907h821v-907h-133v793h-555v-793h-133z" />
<glyph unicode="&#x440;" horiz-adv-x="1214" d="M170 -526v1433h133v-192q45 98 139.5 155.5t212.5 57.5q104 0 191.5 -38t149 -102.5t95 -150.5t33.5 -182t-33.5 -183.5t-95 -153t-148.5 -103.5t-192 -38q-119 0 -213 58.5t-139 157.5v-719h-133zM303 455q0 -72 24.5 -136.5t69.5 -112.5t108.5 -77t143.5 -29 q78 0 141.5 29t107.5 77t68.5 112.5t24.5 136.5t-24.5 135t-68.5 111.5t-107.5 77t-141.5 28.5q-80 0 -143.5 -28.5t-108.5 -77t-69.5 -112t-24.5 -134.5z" />
<glyph unicode="&#x441;" horiz-adv-x="1073" d="M94 455q0 92 30 178t86 151.5t141 105.5t196 40q109 0 186.5 -31t128.5 -81t77 -113.5t32 -129.5h-133q-6 47 -24.5 90.5t-52.5 75t-86 50t-126 18.5q-80 0 -139.5 -29.5t-99.5 -79t-60.5 -113t-20.5 -132.5q0 -72 19.5 -135.5t60.5 -112.5t101.5 -78t144.5 -29 q133 0 198.5 59.5t88.5 151.5h133q-10 -70 -42 -131t-84 -106t-128 -71t-174 -26q-111 0 -196 40t-141 105.5t-86 152.5t-30 180z" />
<glyph unicode="&#x442;" horiz-adv-x="761" d="M31 793v114h700v-114h-285v-793h-133v793h-282z" />
<glyph unicode="&#x443;" horiz-adv-x="1163" d="M154 -133h135q8 -147 77.5 -223t211.5 -76q70 0 123 16.5t89.5 55t56 100t19.5 154.5v303q-39 -92 -125 -156t-215 -64q-102 0 -166.5 29t-111.5 82q-43 51 -60.5 119.5t-17.5 177.5v522h135v-483q0 -74 12.5 -134.5t43 -102.5t81 -65.5t127.5 -23.5q76 0 131.5 30t92 79 t55 110.5t18.5 124.5v465h133v-1013q0 -233 -107.5 -337t-316.5 -104q-412 0 -421 414z" />
<glyph unicode="&#x444;" horiz-adv-x="1234" d="M88 453q0 96 34 180t96.5 148.5t148.5 103.5t190 43v506h119v-506q104 -4 191 -43t149.5 -103.5t96.5 -148.5t34 -180t-34 -180.5t-96.5 -148t-149.5 -102t-191 -42.5v-506h-117v506q-104 4 -191 42.5t-149.5 102t-96.5 147.5t-34 181zM219 453q0 -74 23.5 -138.5 t66.5 -113.5t106.5 -79t143.5 -30l-2 723q-80 -2 -142.5 -31.5t-105.5 -79t-66.5 -113.5t-23.5 -138zM676 92q80 0 143.5 29t106.5 78t66.5 114.5t23.5 139.5t-23.5 138t-66.5 113.5t-106.5 79t-143.5 31.5v-723z" />
<glyph unicode="&#x445;" horiz-adv-x="888" d="M47 0l320 455l-318 452h156l239 -348l240 348h154l-316 -452l320 -455h-156l-242 352l-241 -352h-156z" />
<glyph unicode="&#x446;" horiz-adv-x="1185" d="M170 0v907h133v-792h535v792h133v-792h153v-297h-133v182h-821z" />
<glyph unicode="&#x447;" horiz-adv-x="950" d="M92 608v299h135v-297q0 -98 50.5 -150t154.5 -52h215v499h135v-907h-135v293h-233q-154 0 -238 80t-84 235z" />
<glyph unicode="&#x448;" horiz-adv-x="1615" d="M170 0v907h133v-792h438v792h133v-792h439v792h133v-907h-1276z" />
<glyph unicode="&#x449;" horiz-adv-x="1660" d="M170 0v907h133v-792h438v792h133v-792h439v792h133v-792h153v-297h-133v182h-1296z" />
<glyph unicode="&#x44a;" horiz-adv-x="980" d="M35 793v114h313v-338h266q63 0 114.5 -22.5t86.5 -60t54.5 -90t19.5 -111.5t-19.5 -110.5t-55.5 -90.5t-87 -61.5t-117 -22.5h-389v793h-186zM348 111h242q80 0 127 50t47 124q0 72 -46 123t-124 51h-246v-348z" />
<glyph unicode="&#x44b;" horiz-adv-x="1255" d="M170 0v907h127v-338h266q63 0 113.5 -22.5t86.5 -60t54.5 -90t18.5 -111.5t-19.5 -110.5t-54.5 -90.5t-87 -61.5t-116 -22.5h-389zM297 111h242q78 0 125 50t47 124q0 72 -45 123t-123 51h-246v-348zM952 0v907h133v-907h-133z" />
<glyph unicode="&#x44c;" horiz-adv-x="927" d="M170 0v907h127v-338h266q63 0 113.5 -22.5t86.5 -60t54.5 -90t18.5 -111.5t-19.5 -110.5t-54.5 -90.5t-87 -61.5t-116 -22.5h-389zM297 111h242q78 0 125 50t47 124q0 72 -45 123t-123 51h-246v-348z" />
<glyph unicode="&#x44d;" horiz-adv-x="1081" d="M98 311h135q16 -92 88 -151.5t214 -59.5q76 0 133 23.5t97 63.5t62.5 94.5t26.5 117.5h-412v105h412q-4 63 -25.5 118.5t-61.5 96.5t-98.5 65.5t-133.5 24.5q-74 0 -127.5 -18.5t-90 -51t-56 -74.5t-25.5 -90h-134q4 70 33 134.5t83 113.5t132 78t180 29q115 0 201 -40 t143.5 -105.5t86 -151.5t28.5 -178t-28.5 -179.5t-86 -153t-143.5 -105.5t-201 -40q-100 0 -178 26t-132 71t-85 106.5t-37 130.5z" />
<glyph unicode="&#x44e;" horiz-adv-x="1515" d="M170 0v907h133v-397h174q8 86 45 162t98.5 133t143.5 90t182 33q111 0 199 -38t151.5 -102.5t97 -151.5t33.5 -183t-33.5 -182.5t-97 -152t-151.5 -103.5t-199 -38q-98 0 -181 33t-143.5 89.5t-98.5 133t-46 162.5h-174v-395h-133zM606 453q0 -72 24.5 -135.5 t68.5 -111.5t106.5 -77t140.5 -29q80 0 144.5 29t108.5 77t68.5 111.5t24.5 135.5t-24.5 136t-68.5 112.5t-108.5 77t-144.5 28.5q-78 0 -140.5 -28.5t-106.5 -77t-68.5 -113t-24.5 -135.5z" />
<glyph unicode="&#x44f;" horiz-adv-x="1003" d="M72 608q0 61 22.5 115.5t62.5 95.5t97 64.5t129 23.5h451v-907h-132v307h-256l-206 -307h-156l223 322q-51 8 -94 35.5t-75 66.5t-49 87t-17 97zM207 608q0 -76 54 -131t147 -55h294v373h-294q-92 0 -146.5 -56.5t-54.5 -130.5z" />
<glyph unicode="&#x451;" horiz-adv-x="1062" d="M94 455q0 100 30 187t86 150.5t139 99.5t192 36q88 0 163.5 -31t132 -86t89 -129t32.5 -160q0 -18 -1 -41.5t-5 -56.5h-725q2 -66 20.5 -126t57.5 -105.5t98.5 -72t143.5 -26.5q113 0 177 49.5t89 116.5h135q-12 -55 -45 -106.5t-84 -90t-119.5 -62.5t-152.5 -24 q-115 0 -200 38t-141 103.5t-84 152.5t-28 184zM184 1239q0 51 35 87t88 36q51 0 87 -36t36 -87q0 -53 -36 -88t-87 -35q-53 0 -88 35t-35 88zM227 528h602q0 68 -22.5 122.5t-62 92t-93 59t-114.5 21.5q-135 0 -218 -78.5t-92 -216.5zM655 1239q0 51 35 87t88 36 q51 0 87 -36t36 -87q0 -53 -36 -88t-87 -35q-53 0 -88 35t-35 88z" />
<glyph unicode="&#x452;" horiz-adv-x="1204" d="M41 1094v96h182v244h135v-244h263v-96h-263v-383q39 92 126 154.5t216 62.5q92 0 161 -30t112 -83q41 -51 60.5 -118.5t19.5 -164.5v-808q0 -121 -64.5 -193t-173.5 -72h-29.5t-40 2t-39 4.5t-26.5 6.5v116q8 -4 22.5 -7t31 -5t32.5 -3t29 -1q59 0 92 40t33 112v770 q0 68 -14.5 125t-46.5 99t-82 66.5t-120 24.5q-76 0 -132 -29.5t-93 -79t-55.5 -111t-18.5 -124.5v-465h-135v1094h-182z" />
<glyph unicode="&#x453;" horiz-adv-x="724" d="M145 1151l510 281l64 -107l-510 -281zM170 0v907h535v-114h-402v-793h-133z" />
<glyph unicode="&#x454;" horiz-adv-x="1087" d="M92 455q0 92 29 178t86 151.5t143 105.5t203 40q102 0 180 -29t131.5 -78t82 -113.5t32.5 -134.5h-133q-6 47 -25.5 89.5t-56.5 75t-90 51t-127 18.5q-78 0 -135.5 -24.5t-97.5 -65.5t-61.5 -96.5t-23.5 -118.5h410v-105h-410q2 -63 23.5 -117.5t61.5 -94.5t97.5 -63.5 t135.5 -23.5q141 0 214 59.5t89 151.5h133q-6 -70 -37 -131t-85 -106t-132 -71t-176 -26q-117 0 -203 40t-143 105.5t-86 152.5t-29 180z" />
<glyph unicode="&#x455;" horiz-adv-x="921" d="M90 307h131q0 -61 19.5 -102t53.5 -67.5t81 -38t100 -11.5q102 0 159.5 39t57.5 115q0 45 -22.5 71.5t-62.5 45t-94 33t-120 32.5q-55 14 -105 30.5t-88 43t-59.5 67.5t-21.5 105q0 63 25.5 111t70.5 81t106.5 49.5t133.5 16.5q74 0 138 -20.5t111.5 -59.5t74 -95.5 t26.5 -125.5h-131q0 94 -58.5 143t-162.5 49q-90 0 -146.5 -40t-56.5 -111q0 -41 18.5 -67t53 -43t85.5 -30.5t117 -31.5q55 -14 108.5 -29.5t95.5 -43.5t66.5 -70t24.5 -109q0 -131 -95 -199t-255 -68q-78 0 -146.5 19.5t-119.5 60.5t-82 102.5t-31 147.5z" />
<glyph unicode="&#x456;" horiz-adv-x="473" d="M115 1262q0 53 34.5 88.5t86.5 35.5q53 0 88.5 -35.5t35.5 -88.5q0 -51 -35.5 -86t-88.5 -35q-51 0 -86 35t-35 86zM170 0v907h133v-907h-133z" />
<glyph unicode="&#x457;" horiz-adv-x="473" d="M-45 1262q0 53 35 88.5t86 35.5q53 0 89 -35.5t36 -88.5q0 -51 -36 -86t-89 -35q-51 0 -86 35t-35 86zM170 0v907h133v-907h-133zM274 1262q0 53 35 88.5t86 35.5q53 0 88 -35.5t35 -88.5q0 -51 -34.5 -86t-88.5 -35q-51 0 -86 35t-35 86z" />
<glyph unicode="&#x458;" horiz-adv-x="473" d="M-49 -395q31 -10 52.5 -14.5t51.5 -4.5q53 0 84 41t31 115v1165h133v-1183q0 -139 -62.5 -203t-148.5 -64q-90 0 -141 25v123zM115 1262q0 53 35.5 88.5t87.5 35.5q51 0 86.5 -35.5t35.5 -88.5q0 -51 -35.5 -86t-86.5 -35t-87 35t-36 86z" />
<glyph unicode="&#x459;" horiz-adv-x="1630" d="M63 -20v120h56q53 0 82.5 23.5t29.5 87.5v696h766v-338h267q59 0 109 -22.5t87 -60t57.5 -90t20.5 -111.5t-20.5 -110.5t-57.5 -90.5t-88 -61.5t-112 -22.5h-396v793h-499v-598q0 -115 -62.5 -165t-157.5 -50h-82zM997 111h242q76 0 125 51t49 123t-48 123t-122 51h-246 v-348z" />
<glyph unicode="&#x45a;" horiz-adv-x="1593" d="M170 0v907h133v-338h524v338h134v-338h268q57 0 107 -22.5t87 -60t57.5 -90t20.5 -111.5t-20.5 -110.5t-57.5 -90.5t-88 -61.5t-110 -22.5h-398v459h-524v-459h-133zM961 111h241q76 0 125 51t49 123t-48 123t-122 51h-245v-348z" />
<glyph unicode="&#x45b;" horiz-adv-x="1204" d="M41 1094v96h182v244h135v-244h263v-96h-263v-383q39 92 126 154.5t216 62.5q92 0 161 -30t112 -83q41 -51 60.5 -118.5t19.5 -164.5v-532h-133v494q0 68 -14.5 125t-46.5 99t-82 66.5t-120 24.5q-76 0 -132 -29.5t-93 -79t-55.5 -111t-18.5 -124.5v-465h-135v1094h-182z " />
<glyph unicode="&#x45c;" horiz-adv-x="983" d="M170 0v907h133v-403h35q43 0 83 23.5t81 86.5l116 177q41 59 84 91.5t111 32.5h88v-110h-57q-47 0 -76 -20.5t-57 -63.5l-88 -135q-43 -68 -89.5 -92.5t-105.5 -28.5l496 -465h-168l-453 432v-432h-133zM246 1151l510 281l63 -107l-510 -281z" />
<glyph unicode="&#x45e;" horiz-adv-x="1163" d="M154 -133h135q8 -147 77.5 -223t211.5 -76q70 0 123 16.5t89.5 55t56 100t19.5 154.5v303q-39 -92 -125 -156t-215 -64q-102 0 -166.5 29t-111.5 82q-43 51 -60.5 119.5t-17.5 177.5v522h135v-483q0 -74 12.5 -134.5t43 -102.5t81 -65.5t127.5 -23.5q76 0 131.5 30t92 79 t55 110.5t18.5 124.5v465h133v-1013q0 -233 -107.5 -337t-316.5 -104q-412 0 -421 414zM209 1434h127q23 -92 88.5 -142.5t161.5 -50.5q94 0 159.5 50t88.5 143h127q-12 -68 -45 -122.5t-83.5 -94t-114 -61t-132.5 -21.5q-72 0 -135.5 21.5t-113.5 61t-83 94t-45 122.5z" />
<glyph unicode="&#x45f;" horiz-adv-x="1169" d="M170 0v907h133v-792h563v792h133v-907h-354v-182h-121v182h-354z" />
<glyph unicode="&#x462;" horiz-adv-x="1234" d="M29 1313v121h739v-121h-377v-508h383q84 0 155.5 -32t124 -86t81 -127t28.5 -157t-29.5 -156.5t-82 -128t-125 -87t-158.5 -31.5h-516v1313h-223zM391 127h377q55 0 101 21.5t81 59.5t54.5 88t19.5 107q0 55 -18.5 105.5t-52 88.5t-80 60.5t-99.5 22.5h-383v-553z" />
<glyph unicode="&#x463;" horiz-adv-x="958" d="M41 1028v96h160v312h125v-312h256v-96h-256v-459h268q63 0 113.5 -22.5t85 -60t54 -90t19.5 -111.5t-19.5 -110.5t-54 -90.5t-87 -61.5t-115.5 -22.5h-389v1028h-160zM326 111h241q80 0 127 50t47 124q0 72 -46 123t-124 51h-245v-348z" />
<glyph unicode="&#x472;" horiz-adv-x="1650" d="M88 717q0 145 50 280.5t145.5 238.5t232.5 165.5t309 62.5t308.5 -62.5t231.5 -165.5t146.5 -238.5t51.5 -280.5t-51.5 -280.5t-146.5 -239t-231.5 -166t-308.5 -62.5t-309 62.5t-232.5 166t-145.5 238.5t-50 281zM236 670q6 -113 50 -216.5t119.5 -183.5t182 -127 t237.5 -47t236.5 47t181.5 127t120 183.5t52 216.5h-1179zM236 766h1179q-8 113 -52 216t-120 182t-181.5 126t-236.5 47t-236.5 -47t-181 -126t-119.5 -182t-52 -216z" />
<glyph unicode="&#x473;" horiz-adv-x="1130" d="M88 453q0 96 34 183t96.5 151.5t149.5 102.5t195 38q109 0 198 -38t151.5 -102.5t96 -151.5t33.5 -183t-33.5 -182.5t-96 -152t-151.5 -103.5t-198 -38t-195.5 38t-149 103.5t-96.5 151.5t-34 183zM225 406q6 -63 34 -119t71 -98t102 -65.5t131 -23.5t131.5 23.5 t104.5 65.5t71.5 97.5t34.5 119.5h-680zM225 500h680q-6 63 -33.5 119.5t-71.5 97.5t-104.5 65.5t-132.5 24.5t-131 -24.5t-102 -65.5t-71 -97.5t-34 -119.5z" />
<glyph unicode="&#x474;" horiz-adv-x="1271" d="M10 1434h148l413 -1209l338 989q43 125 106.5 176.5t172.5 51.5h63v-125h-47q-57 0 -100 -27.5t-74 -115.5l-407 -1174h-105z" />
<glyph unicode="&#x475;" horiz-adv-x="1056" d="M14 907h146l319 -719l228 502q27 57 52 100.5t56 71t70 40.5t92 13h65v-124h-38q-61 0 -98.5 -30t-76.5 -112l-303 -649h-96z" />
<glyph unicode="&#x48a;" horiz-adv-x="1388" d="M170 0v1434h139v-1133l735 1038v95h142v-1307h151v-338h-139v211h-154v1133l-735 -1039v-94h-139zM307 1880h127q23 -92 91.5 -142t166.5 -50t167 50t91 142h127q-12 -68 -46 -122t-85 -94t-115.5 -61.5t-138.5 -21.5t-139.5 21.5t-116.5 61.5t-84 94t-45 122z" />
<glyph unicode="&#x48b;" horiz-adv-x="1165" d="M170 0v907h133v-682l537 609v73h133v-792h151v-297h-131v182h-153v676l-537 -606v-70h-133zM205 1434h127q23 -92 88.5 -142.5t161.5 -50.5q94 0 159.5 50t87.5 143h127q-12 -68 -44.5 -122.5t-83 -94t-114 -61t-132.5 -21.5q-72 0 -135.5 21.5t-113.5 61t-83 94 t-45 122.5z" />
<glyph unicode="&#x48c;" horiz-adv-x="1181" d="M41 1094v110h160v230h139v-230h326v-110h-326v-289h383q84 0 154.5 -32t123 -86t82 -127t29.5 -157t-29.5 -156.5t-82 -128t-125 -87t-158.5 -31.5h-516v1094h-160zM340 127h377q55 0 101 21.5t80 59.5t53.5 88t19.5 107q0 55 -18.5 105.5t-52.5 88.5t-79 60.5t-98 22.5 h-383v-553z" />
<glyph unicode="&#x48d;" horiz-adv-x="954" d="M45 698v95h152v114h127v-114h260v-95h-260v-129h266q63 0 113.5 -22.5t86 -60t54 -90t18.5 -111.5t-19.5 -110.5t-54 -90.5t-87 -61.5t-115.5 -22.5h-389v698h-152zM324 111h241q78 0 126 50t48 124q0 72 -46 123t-124 51h-245v-348z" />
<glyph unicode="&#x48e;" horiz-adv-x="1220" d="M170 0v1434h494q109 0 197.5 -38t151 -103.5t96.5 -151.5t34 -183q0 -133 -63.5 -242.5t-174.5 -168.5l150 -148l-68 -67l-174 174q-74 -23 -149 -23h-355v-483h-139zM309 610h344q25 0 49 6l-161 162l65 68l203 -203q92 41 142 126t50 189q0 70 -23.5 133.5t-67.5 111.5 t-106.5 76t-139.5 28h-355v-697z" />
<glyph unicode="&#x48f;" horiz-adv-x="1220" d="M170 -526v1433h133v-192q45 98 139.5 155.5t212.5 57.5q104 0 191.5 -38t149 -102.5t95 -150.5t33.5 -182q0 -100 -35.5 -188.5t-101.5 -153.5l137 -136l-69 -69l-146 145q-53 -35 -116.5 -55.5t-137.5 -20.5q-119 0 -213 58.5t-139 157.5v-719h-133zM303 455 q0 -72 24.5 -136.5t69.5 -112.5t108.5 -77t143.5 -29q47 0 89 12.5t77 34.5l-156 158l68 66l168 -168q96 102 96 252q0 72 -24.5 135t-68.5 111.5t-107.5 77t-141.5 28.5q-80 0 -143.5 -28.5t-108.5 -77t-69.5 -112t-24.5 -134.5z" />
<glyph unicode="&#x490;" horiz-adv-x="970" d="M170 0v1434h655v186h127v-313h-643v-1307h-139z" />
<glyph unicode="&#x491;" horiz-adv-x="749" d="M170 0v907h440v170h119v-284h-426v-793h-133z" />
<glyph unicode="&#x492;" horiz-adv-x="1054" d="M96 770v111h160v553h780v-127h-641v-426h242v-111h-242v-770h-139v770h-160z" />
<glyph unicode="&#x493;" horiz-adv-x="724" d="M35 444v97h135v366h535v-114h-400v-252h219v-97h-219v-444h-135v444h-135z" />
<glyph unicode="&#x494;" horiz-adv-x="1165" d="M170 0v1434h545v-127h-406v-596q39 92 128 154.5t218 62.5q92 0 162 -30t113 -83q41 -51 61.5 -118.5t20.5 -164.5v-808q0 -121 -64.5 -193t-173.5 -72h-30.5t-43 2t-41 4.5t-26.5 6.5v131q14 -8 52 -12.5t60 -4.5q59 0 93 40t34 112v756q0 68 -14 125t-46 99t-82 66.5 t-120 24.5q-76 0 -132 -29.5t-94 -79t-56.5 -111t-18.5 -124.5v-465h-139z" />
<glyph unicode="&#x495;" horiz-adv-x="1007" d="M170 0v907h133v-477q29 82 97.5 139.5t168.5 57.5q80 0 137.5 -28t96.5 -81q74 -98 74 -287v-507q0 -121 -64.5 -193t-173.5 -72h-29.5t-41 2t-39 4.5t-25.5 6.5v116q14 -8 52 -12t60 -4q59 0 93 40t34 112v499q0 59 -11 111.5t-35.5 90.5t-64.5 60.5t-95 22.5 q-59 0 -103.5 -25.5t-73 -66.5t-43 -92.5t-14.5 -104.5v-219h-133z" />
<glyph unicode="&#x496;" horiz-adv-x="1779" d="M18 0l660 729q-190 20 -285 205l-108 215q-41 82 -86 122t-111 40h-65v129h81q104 0 171 -62.5t118 -163.5l125 -241q53 -102 112.5 -142t141.5 -40h47v643h133v-643h47q82 0 141.5 39.5t112.5 142.5l125 241q51 100 119 163t172 63h80v-129h-66q-66 0 -110.5 -40 t-85.5 -122l-109 -215q-94 -184 -282 -205l657 -729v-211h-127v211h-53l-621 702v-702h-133v702l-620 -702h-181z" />
<glyph unicode="&#x497;" horiz-adv-x="1353" d="M45 0l457 469q-78 2 -131.5 30.5t-85.5 94.5l-54 104q-23 47 -53.5 77t-71.5 30h-57v110h74q63 0 112.5 -32.5t90.5 -110.5l75 -143q33 -63 69 -88t101 -25h43v391h125v-391h43q66 0 102 24.5t68 88.5l78 143q41 78 89 110.5t112 32.5h74v-110h-56q-41 0 -71.5 -30 t-53.5 -77l-53 -104q-35 -66 -88 -94.5t-131 -30.5l457 -469v-182h-99v182h-59l-412 440v-440h-125v440l-411 -440h-158z" />
<glyph unicode="&#x498;" horiz-adv-x="1146" d="M86 426h139q0 -74 25.5 -134.5t72 -102.5t110 -64.5t136.5 -22.5q76 0 136.5 22.5t102.5 60.5t64.5 91.5t22.5 114.5q0 129 -83 207t-253 78h-102v125h102q80 0 138.5 21.5t97.5 57t58 84t19 103.5q0 115 -81.5 189.5t-223.5 74.5q-74 0 -134 -19.5t-105 -56t-70 -90 t-25 -121.5h-139q0 92 35 168t98.5 131.5t151.5 85t194 29.5q94 0 175 -25.5t139.5 -74.5t91.5 -120t33 -161q0 -127 -72 -216t-195 -113q129 -20 209 -115.5t80 -239.5q0 -88 -30.5 -161.5t-87 -129t-135.5 -87t-173 -38.5q-8 0 -15 1.5t-15 1.5v-127q33 47 110 47 q68 0 115 -46.5t47 -121.5q0 -70 -50 -125.5t-147 -55.5q-25 0 -54.5 8.5t-58 27t-51 48t-28.5 74.5h88q8 -35 35.5 -57.5t68.5 -22.5q51 0 81 30t30 73t-28.5 72.5t-76.5 29.5q-29 0 -55 -12t-43 -47h-78v205q-90 12 -162.5 47.5t-125 92t-81 134.5t-28.5 172z" />
<glyph unicode="&#x499;" horiz-adv-x="849" d="M72 258h131q0 -78 57 -123t162 -45q90 0 144.5 40t54.5 114q0 72 -52.5 117t-150.5 45h-92v100h86q98 0 145 45t47 117q0 66 -50 108.5t-136 42.5q-100 0 -149.5 -45t-49.5 -117h-131q0 121 90 196t240 75q143 0 229 -68.5t86 -177.5q0 -90 -52 -147.5t-140 -71.5 q92 -10 150.5 -68.5t58.5 -154.5q0 -113 -85 -181.5t-214 -76.5q-31 0 -52 6v-135q33 47 111 47q68 0 115 -46.5t47 -121.5q0 -70 -50.5 -125.5t-146.5 -55.5q-25 0 -54.5 8.5t-58 27t-51 48t-28.5 74.5h88q8 -35 35.5 -57.5t68.5 -22.5q51 0 81 30t30 73t-28 72.5t-75 29.5 q-29 0 -56.5 -12t-43.5 -47h-76v217q-113 23 -174 92.5t-61 173.5z" />
<glyph unicode="&#x49a;" horiz-adv-x="1200" d="M170 0v1434h139v-617h45q70 0 139.5 33t131.5 137l141 242q55 94 123.5 152.5t173.5 58.5h90v-129h-68q-68 0 -115.5 -34t-92.5 -114l-132 -227q-53 -96 -130.5 -140t-170.5 -55l711 -741v-211h-125v211h-59l-662 700v-700h-139z" />
<glyph unicode="&#x49b;" horiz-adv-x="983" d="M170 0v907h133v-403h35q43 0 83 23.5t81 86.5l116 177q41 59 84 91.5t111 32.5h88v-110h-57q-47 0 -76 -20.5t-57 -63.5l-88 -135q-43 -68 -89.5 -92.5t-105.5 -28.5l496 -465v-182h-103v182h-65l-453 432v-432h-133z" />
<glyph unicode="&#x49c;" horiz-adv-x="1191" d="M170 0v1434h139v-627h64v326h41v-326h2q41 0 70.5 9t56 33.5t53.5 66.5t61 108l105 205q49 98 121.5 154.5t177.5 56.5h92v-129h-68q-68 0 -117.5 -33t-90.5 -115l-101 -196q-51 -104 -106.5 -158.5t-137.5 -65.5l623 -743h-184l-557 682v-285h-41v285h-64v-682h-139z " />
<glyph unicode="&#x49d;" horiz-adv-x="983" d="M170 0v907h133v-403h41v201h39v-201h12q47 0 73 25.5t60 84.5l103 177q37 63 80 93.5t110 30.5h80v-110h-47q-47 0 -75.5 -19.5t-57.5 -64.5l-78 -135q-39 -63 -70.5 -89t-72.5 -30l424 -467h-168l-373 432v-209h-39v209h-41v-432h-133z" />
<glyph unicode="&#x49e;" horiz-adv-x="1222" d="M41 1116v101h160v217h139v-217h184v-101h-184v-299h45q70 0 139.5 33t128.5 137l144 242q55 94 123.5 152.5t173.5 58.5h88v-129h-66q-68 0 -116 -34t-95 -114l-129 -227q-53 -96 -132 -140t-169 -55l711 -741h-185l-661 700v-700h-139v1116h-160z" />
<glyph unicode="&#x49f;" horiz-adv-x="972" d="M35 698v84h125v125h135v-125h137v-84h-137v-194h35q43 0 82 23.5t80 86.5l116 177q41 59 85 91.5t112 32.5h88v-110h-57q-47 0 -76 -20.5t-58 -63.5l-88 -135q-43 -68 -90 -92.5t-104 -28.5l493 -465h-168l-450 432v-432h-135v698h-125z" />
<glyph unicode="&#x4a0;" horiz-adv-x="1353" d="M31 1307v127h440v-617h45q70 0 139.5 33t128.5 137l144 242q55 94 123.5 152.5t173.5 58.5h88v-129h-66q-68 0 -116 -34t-95 -114l-129 -227q-53 -96 -131 -140t-170 -55l711 -741h-184l-662 700v-700h-139v1307h-301z" />
<glyph unicode="&#x4a1;" horiz-adv-x="1034" d="M35 793v114h321v-403h35q43 0 82 23.5t80 86.5l117 177q41 59 85 91.5t111 32.5h88v-110h-57q-47 0 -75.5 -20.5t-57.5 -63.5l-88 -135q-45 -68 -91 -92.5t-104 -28.5l494 -465h-168l-451 432v-432h-135v793h-186z" />
<glyph unicode="&#x4a2;" horiz-adv-x="1361" d="M170 0v1434h139v-658h738v658h141v-1307h84v-338h-139v211h-86v649h-738v-649h-139z" />
<glyph unicode="&#x4a3;" horiz-adv-x="1177" d="M170 0v907h133v-393h549v393h133v-792h98v-297h-133v182h-98v397h-549v-397h-133z" />
<glyph unicode="&#x4a4;" horiz-adv-x="1558" d="M170 0v1434h139v-658h738v658h481v-127h-340v-1307h-141v649h-738v-649h-139z" />
<glyph unicode="&#x4a5;" horiz-adv-x="1259" d="M170 0v907h133v-393h549v393h371v-114h-238v-793h-133v397h-549v-397h-133z" />
<glyph unicode="&#x4a6;" horiz-adv-x="1402" d="M170 0v1434h1028v-1307h115v-338h-139v211h-115v1307h-750v-1307h-139z" />
<glyph unicode="&#x4a7;" horiz-adv-x="1183" d="M170 0v907h821v-792h99v-297h-134v182h-98v793h-555v-793h-133z" />
<glyph unicode="&#x4a8;" horiz-adv-x="1685" d="M88 723q0 143 48 277.5t138.5 237.5t219.5 164.5t292 61.5v-127q-131 0 -233 -49t-173 -131t-109 -191.5t-38 -228.5q0 -127 40 -241.5t115 -202.5t183.5 -141.5t243.5 -55.5h23.5t21.5 2v942q0 117 29 199t77 132t111.5 72.5t134.5 22.5q76 0 139.5 -23.5t110.5 -74.5 t74 -130t27 -191v-302q0 -133 -39 -256.5t-113 -225t-179.5 -174.5t-240.5 -101v-248q0 -72 40 -112t106 -40q12 0 29.5 1t36 2t34.5 4.5t25 7.5v-129q-8 -4 -28 -7.5t-41.5 -4.5t-42 -2t-30.5 -1q-117 0 -188.5 72t-71.5 195v247q-10 -2 -21.5 -3t-23.5 -1 q-170 2 -305 63.5t-228.5 164t-143.5 238.5t-50 288zM991 125q100 29 180 89t135.5 143t85 183.5t29.5 204.5v318q0 131 -56 209t-155 78q-98 0 -158.5 -74t-60.5 -209v-942z" />
<glyph unicode="&#x4a9;" horiz-adv-x="1140" d="M88 465q0 92 29.5 176t86 146.5t138.5 100.5t184 38v-123q-72 0 -129 -26.5t-96 -73t-59.5 -107.5t-20.5 -131q0 -74 22.5 -139.5t65.5 -115.5t103.5 -80t134.5 -30q20 0 31 2v551q0 76 18 129.5t49 85t74 46t92 14.5q104 0 168.5 -61.5t64.5 -209.5v-192 q0 -84 -24.5 -160t-70.5 -137.5t-111.5 -106.5t-147.5 -65v-279q0 -68 31 -106.5t82 -38.5q23 0 55.5 4t46.5 12v-116q-16 -8 -56 -10.5t-63 -2.5q-100 0 -154 71t-54 187v263q-10 -2 -31 -3q-106 0 -191.5 40t-144.5 106.5t-91 155t-32 186.5zM690 127q109 41 171.5 134 t62.5 210v172q0 78 -29 124t-88 46t-88 -45t-29 -129v-512z" />
<glyph unicode="&#x4aa;" horiz-adv-x="1587" d="M88 719q0 145 50 279.5t143.5 237.5t227.5 165.5t302 62.5q152 0 270.5 -40t204.5 -108.5t139.5 -162.5t75.5 -203h-145q-20 82 -63.5 153t-110 123t-155.5 81.5t-200 29.5q-141 0 -251.5 -51t-187.5 -137t-117 -197.5t-40 -232.5q0 -127 42 -239.5t122 -197.5 t196 -135.5t263 -50.5q84 0 163 24.5t143.5 67.5t113.5 102.5t74 131.5h153q-29 -94 -87 -176t-142 -142.5t-188.5 -96.5t-225.5 -38q-10 0 -17 1t-16 1v-118q33 47 111 47q70 0 117 -46.5t47 -121.5q0 -70 -50.5 -125.5t-148.5 -55.5q-25 0 -54.5 8.5t-58 27t-50 48 t-27.5 74.5h88q8 -35 34.5 -57.5t67.5 -22.5q51 0 81 30t30 73t-28 72.5t-75 29.5q-29 0 -55.5 -12t-44.5 -47h-76v200q-152 18 -271.5 84t-202.5 166.5t-127 227.5t-44 266z" />
<glyph unicode="&#x4ab;" horiz-adv-x="1073" d="M94 455q0 92 30 178t86 151.5t141 105.5t196 40q109 0 186.5 -31t128.5 -81t77 -113.5t32 -129.5h-133q-6 47 -24.5 90.5t-52.5 75t-86 50t-126 18.5q-80 0 -139.5 -29.5t-99.5 -79t-60.5 -113t-20.5 -132.5q0 -72 19.5 -135.5t60.5 -112.5t101.5 -78t144.5 -29 q133 0 198.5 59.5t88.5 151.5h133q-10 -68 -40 -127t-80 -104t-121.5 -71.5t-166.5 -28.5h-26v-127q33 47 110 47q70 0 117 -46.5t47 -121.5q0 -70 -50 -125.5t-147 -55.5q-25 0 -55.5 8.5t-58 27t-50 48t-28.5 74.5h88q8 -35 34.5 -57.5t69.5 -22.5q49 0 79 30t30 73 t-27.5 72.5t-74.5 29.5q-29 0 -55.5 -12t-45.5 -47h-75v213q-86 16 -153 60t-112 107.5t-67.5 140.5t-22.5 159z" />
<glyph unicode="&#x4ac;" horiz-adv-x="970" d="M29 1307v127h913v-127h-389v-1180h86v-338h-139v211h-86v1307h-385z" />
<glyph unicode="&#x4ad;" horiz-adv-x="761" d="M31 793v114h700v-114h-285v-678h99v-297h-133v182h-99v793h-282z" />
<glyph unicode="&#x4ae;" horiz-adv-x="1202" d="M18 1434h162l420 -723l420 723h164l-512 -859v-575h-142v575z" />
<glyph unicode="&#x4af;" horiz-adv-x="997" d="M25 907h145l328 -731l329 731h146l-408 -874v-561h-135v561z" />
<glyph unicode="&#x4b0;" horiz-adv-x="1202" d="M18 1434h162l420 -723l420 723h164l-512 -859v-118h250v-109h-250v-348h-142v348h-249v109h249v118z" />
<glyph unicode="&#x4b1;" horiz-adv-x="997" d="M25 907h145l328 -731l329 731h146l-408 -874v-109h213v-94h-213v-358h-135v358h-211v94h211v109z" />
<glyph unicode="&#x4b2;" horiz-adv-x="1093" d="M23 0l444 717l-444 717h157l367 -596l366 596h160l-446 -717l446 -717v-195h-100v195h-60l-366 594l-367 -594h-157z" />
<glyph unicode="&#x4b3;" horiz-adv-x="888" d="M47 0l320 455l-318 452h156l239 -348l240 348h154l-316 -452l320 -455v-182h-101v182h-55l-242 352l-241 -352h-156z" />
<glyph unicode="&#x4b4;" horiz-adv-x="1599" d="M31 1307v127h913v-127h-389v-1180h680v1307h139v-1307h185v-338h-127v211h-1016v1307h-385z" />
<glyph unicode="&#x4b5;" horiz-adv-x="1308" d="M35 793v114h649v-114h-258v-678h535v792h133v-792h153v-297h-133v182h-821v793h-258z" />
<glyph unicode="&#x4b6;" horiz-adv-x="1185" d="M68 940v494h139v-461q0 -168 85 -267.5t273 -99.5h277v828h139v-1307h115v-338h-140v211h-114v479h-301q-121 0 -210 34t-147.5 94.5t-87 145.5t-28.5 187z" />
<glyph unicode="&#x4b7;" horiz-adv-x="964" d="M82 608v299h135v-297q0 -98 50 -150t155 -52h215v499h135v-792h98v-297h-133v182h-100v293h-234q-154 0 -237.5 80t-83.5 235z" />
<glyph unicode="&#x4b8;" horiz-adv-x="1171" d="M88 940v494h139v-461q0 -154 71 -251t234 -112v244h97v-248h233v828h139v-1434h-139v479h-233v-203h-97v203q-225 8 -334.5 135t-109.5 326z" />
<glyph unicode="&#x4b9;" horiz-adv-x="997" d="M82 608v299h135v-297q0 -96 46 -147t143 -55v219h77v-219h154v499h135v-907h-135v293h-154v-168h-77v168h-5q-154 0 -236.5 80t-82.5 235z" />
<glyph unicode="&#x4ba;" horiz-adv-x="1200" d="M170 0v1434h139v-471h299q106 0 189.5 -32t138.5 -90.5t84 -141.5t29 -183v-516h-142v481q0 168 -78.5 261.5t-244.5 93.5h-275v-836h-139z" />
<glyph unicode="&#x4bb;" horiz-adv-x="1150" d="M170 0v1434h133v-723q39 92 127 154.5t217 62.5q92 0 161 -30t112 -83q41 -51 60 -118.5t19 -164.5v-532h-133v494q0 68 -14 125t-47 99t-83 66.5t-120 24.5q-76 0 -132 -29.5t-93 -79t-55.5 -111t-18.5 -124.5v-465h-133z" />
<glyph unicode="&#x4bc;" horiz-adv-x="1898" d="M25 938v106h127v-104q0 -72 37.5 -117t123.5 -45h70q8 141 61.5 266t147.5 219.5t225 148.5t297 54q154 0 283 -57t221 -154.5t143 -227.5t49 -277v-84h-1263q6 -113 42 -215.5t106.5 -179t176 -122t246.5 -45.5q104 0 185 26t141.5 71t103.5 105.5t70 129.5h166 q-27 -92 -84.5 -175t-142 -146.5t-195.5 -101.5t-244 -38q-184 0 -319 56.5t-225.5 153t-137.5 221t-53 260.5h-84q-133 0 -203.5 74.5t-70.5 197.5zM547 778h1118q-2 117 -43 219.5t-113.5 178t-174 119.5t-224.5 44q-127 0 -229.5 -42t-176 -116.5t-114.5 -177t-43 -225.5 z" />
<glyph unicode="&#x4bd;" horiz-adv-x="1275" d="M25 672v86h116v-84q0 -66 36 -106t112 -40h30q10 88 44 161t90.5 126t134.5 83t174 30q88 0 163.5 -31t132 -86t89.5 -129t33 -160q0 -18 -1 -41.5t-5 -56.5h-725q2 -66 20 -126t57 -105.5t98.5 -72t143.5 -26.5q113 0 177.5 49.5t88.5 116.5h135q-12 -55 -44.5 -106.5 t-84 -90t-120 -62.5t-152.5 -24q-109 0 -191.5 35t-138 95.5t-86 141.5t-35.5 171l-32 4q-125 0 -192.5 67.5t-67.5 180.5zM449 528h602q0 68 -22.5 122.5t-62.5 92t-93.5 59t-114.5 21.5q-135 0 -218 -78.5t-91 -216.5z" />
<glyph unicode="&#x4be;" horiz-adv-x="1898" d="M25 938v106h127v-104q0 -72 37.5 -117t123.5 -45h70q8 141 61.5 266t147.5 219.5t225 148.5t297 54q154 0 283 -57t221 -154.5t143 -227.5t49 -277v-84h-1263q6 -113 42 -215.5t106.5 -179t176 -122t246.5 -45.5q104 0 185 26t141.5 71t103.5 105.5t70 129.5h166 q-25 -92 -79 -173t-134 -143.5t-184.5 -100t-229.5 -44.5q-41 -37 -61.5 -83t-20.5 -89q0 -53 36 -93t108 -40q37 0 75.5 8.5t69.5 20.5l-2 -102q-33 -10 -80 -20.5t-100 -10.5q-117 0 -176.5 58.5t-59.5 139.5q0 121 111 213q-158 8 -280 66.5t-207 152t-133 214t-54 256.5 h-84q-133 0 -203.5 74.5t-70.5 197.5zM547 778h1118q-2 117 -43 219.5t-113.5 178t-174 119.5t-224.5 44q-127 0 -229.5 -42t-176 -116.5t-114.5 -177t-43 -225.5z" />
<glyph unicode="&#x4bf;" horiz-adv-x="1275" d="M25 672v86h116v-84q0 -66 36 -106t112 -40h30q10 88 44 161t90.5 126t134.5 83t174 30q88 0 163.5 -31t132 -86t89.5 -129t33 -160q0 -18 -1 -41.5t-5 -56.5h-725q2 -66 20 -126t57 -105.5t98.5 -72t143.5 -26.5q113 0 177.5 49.5t88.5 116.5h135q-12 -53 -41.5 -101 t-76.5 -86t-109.5 -62.5t-138.5 -30.5q-43 -39 -69.5 -86.5t-26.5 -90.5q0 -53 36.5 -93t106.5 -40q37 0 77 8.5t68 20.5l-2 -102q-33 -10 -80 -20.5t-100 -10.5q-117 0 -176 58.5t-59 139.5q0 57 35 114t96 106q-96 8 -167 46t-120 96t-74.5 134t-30.5 160l-32 4 q-125 0 -192.5 67.5t-67.5 180.5zM449 528h602q0 68 -22.5 122.5t-62.5 92t-93.5 59t-114.5 21.5q-135 0 -218 -78.5t-91 -216.5z" />
<glyph unicode="&#x4c0;" horiz-adv-x="483" d="M170 0v1434h143v-1434h-143z" />
<glyph unicode="&#x4c3;" horiz-adv-x="1218" d="M170 0v1434h139v-633h51q39 0 73 7t63.5 26.5t59.5 57.5t62 99l134 242q53 96 124.5 152.5t178.5 56.5h92v-127h-68q-70 0 -121 -35t-94 -113l-121 -225q-29 -53 -67.5 -92t-75.5 -49h59q178 -10 273 -105q96 -92 96 -278v-694q0 -121 -71.5 -193t-188.5 -72h-30.5t-42 2 t-41 4.5t-27.5 6.5v131q8 -4 22.5 -7.5t30.5 -5.5t32.5 -3t28.5 -1q66 0 106 40t40 112v635q0 74 -17.5 136t-54.5 108.5t-92 72t-131 25.5h-283v-715h-139z" />
<glyph unicode="&#x4c4;" horiz-adv-x="1021" d="M170 0v907h133v-407h45q41 0 77 26.5t77 87.5l116 177q41 59 84 91.5t113 32.5h100v-110h-69q-47 0 -76 -20.5t-57 -63.5l-84 -129q-25 -37 -50.5 -58.5t-56.5 -35.5h43q78 -4 135.5 -34t92.5 -75q39 -47 53 -108.5t14 -147.5v-409q0 -121 -68.5 -193t-185.5 -72h-29.5 t-40 2t-38 4.5t-25.5 6.5v116q6 -4 20.5 -7t31 -5t32.5 -3t29 -1q66 0 103.5 40t37.5 112v438q0 53 -12.5 99t-38 80t-67.5 52.5t-103 18.5h-203v-412h-133z" />
<glyph unicode="&#x4c5;" horiz-adv-x="1415" d="M20 -25v127h74q72 0 112 35t40 133v1164h981v-1307h96l-129 -338h-141l82 211h-48v1307h-700v-1057q0 -74 -19.5 -126t-54 -85t-83 -48.5t-105.5 -15.5h-105z" />
<glyph unicode="&#x4c6;" horiz-adv-x="1136" d="M31 -20v120h45q27 0 50.5 5.5t38.5 19.5t24.5 41t9.5 70v671h759v-780h74l-123 -326h-131l76 199h-29v793h-493v-574q0 -68 -17.5 -114t-48 -73.5t-72.5 -39.5t-92 -12h-71z" />
<glyph unicode="&#x4c7;" horiz-adv-x="1349" d="M170 0v1434h139v-658h738v658h141v-1710q0 -121 -64.5 -193t-175.5 -72h-30.5t-42 2t-40 4.5t-26.5 6.5v131q6 -4 20.5 -7.5t31 -5.5t32.5 -3t29 -1q59 0 92 40t33 112v911h-738v-649h-139z" />
<glyph unicode="&#x4c8;" horiz-adv-x="1148" d="M170 0v907h133v-393h549v393h133v-1183q0 -70 -15.5 -120t-43 -83t-64.5 -48.5t-78 -15.5q-96 0 -151 25v117q31 -12 52.5 -17.5t51.5 -5.5q53 0 84 39t31 117v665h-549v-397h-133z" />
<glyph unicode="&#x4c9;" horiz-adv-x="1372" d="M170 0v1434h139v-658h738v658h141v-1307h96l-129 -338h-141l82 211h-49v649h-738v-649h-139z" />
<glyph unicode="&#x4ca;" horiz-adv-x="1177" d="M184 0v907h133v-393h549v393h133v-780h74l-125 -326h-129l76 199h-29v397h-549v-397h-133z" />
<glyph unicode="&#x4cb;" horiz-adv-x="1171" d="M88 940v494h139v-461q0 -168 85 -267.5t274 -99.5h276v828h139v-1434h-83v-211h-142v338h86v352h-301q-121 0 -210 34t-147.5 94.5t-87 145.5t-28.5 187z" />
<glyph unicode="&#x4cc;" horiz-adv-x="952" d="M72 608v299h133v-297q0 -98 51 -150t156 -52h215v499h133v-792h98v-297h-133v182h-98v293h-234q-156 0 -238.5 80t-82.5 235z" />
<glyph unicode="&#x4cd;" horiz-adv-x="1679" d="M170 0v1434h135l524 -1223l525 1223h135v-1307h96l-129 -338h-139l80 211h-47v1108l-465 -1108h-111l-465 1108v-1108h-139z" />
<glyph unicode="&#x4ce;" horiz-adv-x="1445" d="M170 0v907h195l354 -729l354 729h197v-780h73l-124 -326h-119l76 199h-29v786l-381 -786h-92l-381 786v-786h-123z" />
<glyph unicode="&#x4d0;" horiz-adv-x="1118" d="M12 0l494 1434h106l494 -1434h-148l-88 256h-622l-88 -256h-148zM176 1880h127q23 -92 90.5 -142t167.5 -50q98 0 167 50t91 142h127q-12 -68 -46 -122t-85 -94t-115.5 -61.5t-138.5 -21.5t-139.5 21.5t-116.5 61.5t-84 94t-45 122zM291 383h536l-268 827z" />
<glyph unicode="&#x4d1;" horiz-adv-x="1212" d="M88 453q0 96 34 183t95.5 151.5t148.5 102.5t191 38q119 0 213 -57.5t139 -155.5v192h133v-907h-133v190q-45 -96 -139 -154.5t-213 -58.5q-104 0 -191 38t-148.5 103.5t-95.5 151.5t-34 183zM186 1434h127q23 -92 87.5 -142.5t160.5 -50.5t161.5 50t88.5 143h125 q-12 -68 -45 -122.5t-82 -94t-112.5 -61t-135.5 -21.5t-135.5 21.5t-112.5 61t-81.5 94t-45.5 122.5zM221 453q0 -72 24.5 -135.5t68.5 -111.5t107.5 -77t141.5 -29q80 0 143.5 29t108.5 77t69.5 111.5t24.5 135.5t-24.5 136t-69.5 112.5t-108.5 77t-143.5 28.5 q-78 0 -141.5 -28.5t-107.5 -77t-68.5 -113t-24.5 -135.5z" />
<glyph unicode="&#x4d2;" horiz-adv-x="1118" d="M12 0l494 1434h106l494 -1434h-148l-88 256h-622l-88 -256h-148zM203 1702q0 53 34.5 89t86.5 36q53 0 89 -36t36 -89q0 -51 -36 -86t-89 -35q-51 0 -86 35t-35 86zM291 383h536l-268 827zM674 1702q0 53 34.5 89t86.5 36q53 0 89 -36t36 -89q0 -51 -36 -86t-89 -35 q-51 0 -86 35t-35 86z" />
<glyph unicode="&#x4d3;" horiz-adv-x="1212" d="M88 453q0 96 34 183t95.5 151.5t148.5 102.5t191 38q119 0 213 -57.5t139 -155.5v192h133v-907h-133v190q-45 -96 -139 -154.5t-213 -58.5q-104 0 -191 38t-148.5 103.5t-95.5 151.5t-34 183zM203 1239q0 53 34.5 89t88.5 36q51 0 87 -36t36 -89q0 -51 -36 -86t-87 -35 q-53 0 -88 35t-35 86zM221 453q0 -72 24.5 -135.5t68.5 -111.5t107.5 -77t141.5 -29q80 0 143.5 29t108.5 77t69.5 111.5t24.5 135.5t-24.5 136t-69.5 112.5t-108.5 77t-143.5 28.5q-78 0 -141.5 -28.5t-107.5 -77t-68.5 -113t-24.5 -135.5zM674 1239q0 53 34.5 89t88.5 36 q51 0 87 -36t36 -89q0 -51 -36 -86t-87 -35q-53 0 -88 35t-35 86z" />
<glyph unicode="&#x4d4;" horiz-adv-x="1738" d="M12 0l717 1434h850v-127h-643v-531h643v-127h-643v-522h643v-127h-782v256h-504l-127 -256h-154zM354 385h443v893z" />
<glyph unicode="&#x4d5;" horiz-adv-x="1875" d="M88 453q0 96 34 183t95.5 151.5t148.5 102.5t191 38q119 0 213 -57.5t139 -155.5v192h133v-125q47 66 126 106t186 40q88 0 164.5 -31t133 -86t89.5 -129t33 -160q0 -18 -1 -41.5t-6 -56.5h-723q0 -70 19.5 -130.5t58.5 -104.5t98.5 -69.5t139.5 -25.5q115 0 178.5 49.5 t87.5 116.5h137q-12 -55 -46 -106.5t-85 -90t-119.5 -62.5t-152.5 -24q-111 0 -190.5 43t-127.5 109v-129h-133v190q-45 -96 -139 -154.5t-213 -58.5q-104 0 -191 38t-148.5 103.5t-95.5 151.5t-34 183zM221 453q0 -72 24.5 -135.5t68.5 -111.5t107.5 -77t141.5 -29 q80 0 143.5 29t108.5 77t69.5 111.5t24.5 135.5q0 74 -24.5 138t-69.5 112.5t-109.5 76t-142.5 27.5t-141.5 -28.5t-107.5 -77t-68.5 -113t-24.5 -135.5zM1047 528h595q0 63 -22.5 116.5t-61 90.5t-92 57.5t-114.5 20.5q-133 0 -216 -77t-89 -208z" />
<glyph unicode="&#x4d6;" horiz-adv-x="1112" d="M170 0v1434h782v-127h-643v-531h643v-127h-643v-522h643v-127h-782zM176 1880h129q23 -92 90.5 -142t167.5 -50q98 0 167 50t91 142h127q-12 -68 -46 -122t-85 -94t-115.5 -61.5t-138.5 -21.5t-139.5 21.5t-116.5 61.5t-85 94t-46 122z" />
<glyph unicode="&#x4d7;" horiz-adv-x="1062" d="M94 455q0 100 30 187t87 150.5t140 99.5t190 36q88 0 164.5 -31t133 -86t89.5 -129t33 -160q0 -18 -1.5 -41.5t-5.5 -56.5h-727q2 -66 20.5 -126t57.5 -105.5t98.5 -72t143.5 -26.5q113 0 178.5 49.5t87.5 116.5h135q-12 -55 -45 -106.5t-84 -90t-119.5 -62.5t-152.5 -24 q-115 0 -200 38t-141 103.5t-84 152.5t-28 184zM166 1434h125q23 -92 88.5 -142.5t161.5 -50.5t161.5 50t88.5 143h124q-12 -68 -44.5 -122.5t-82 -94t-113 -61t-134.5 -21.5q-72 0 -135.5 21.5t-112.5 61t-82 94t-45 122.5zM229 528h600q0 68 -22.5 122.5t-61 92t-92 59 t-114.5 21.5q-135 0 -219 -78.5t-91 -216.5z" />
<glyph unicode="&#x4d8;" horiz-adv-x="1603" d="M86 696v84h1282q-6 111 -44 211.5t-110.5 177t-180 121.5t-253.5 45q-104 0 -185 -25.5t-141.5 -70.5t-103.5 -105.5t-69 -129.5h-168q27 94 84 178t142 147.5t195.5 100t245.5 36.5q180 0 317.5 -60t230.5 -161.5t140.5 -238t47.5 -285.5q0 -154 -49.5 -289 t-143.5 -236.5t-230.5 -161t-310.5 -59.5q-154 0 -281.5 57.5t-220 156t-143.5 229.5t-51 278zM233 666q2 -117 42 -220.5t113 -180.5t174 -121t226 -44q129 0 234.5 42t181.5 118t119 179.5t45 226.5h-1135z" />
<glyph unicode="&#x4d9;" horiz-adv-x="1062" d="M102 385q0 18 1 42t6 56h727q-2 66 -20.5 126.5t-57.5 105.5t-98.5 71.5t-143.5 26.5q-113 0 -177.5 -50t-88.5 -116h-135q12 55 45 106.5t84 90.5t119.5 61.5t152.5 22.5q115 0 200 -38t141 -102.5t84 -151.5t28 -183q0 -102 -30 -188.5t-87 -151t-140 -100.5t-190 -36 q-88 0 -164.5 32t-133 86.5t-89.5 129t-33 160.5zM233 379q0 -68 23 -122t62.5 -92t93 -59.5t114.5 -21.5q135 0 218 79t92 216h-603z" />
<glyph unicode="&#x4da;" horiz-adv-x="1603" d="M86 696v84h1282q-6 111 -44 211.5t-110.5 177t-180 121.5t-253.5 45q-104 0 -185 -25.5t-141.5 -70.5t-103.5 -105.5t-69 -129.5h-168q27 94 84 178t142 147.5t195.5 100t245.5 36.5q180 0 317.5 -60t230.5 -161.5t140.5 -238t47.5 -285.5q0 -154 -49.5 -289 t-143.5 -236.5t-230.5 -161t-310.5 -59.5q-154 0 -281.5 57.5t-220 156t-143.5 229.5t-51 278zM233 666q2 -117 42 -220.5t113 -180.5t174 -121t226 -44q129 0 234.5 42t181.5 118t119 179.5t45 226.5h-1135zM444 1702q0 53 35 89t86 36q53 0 88 -36t35 -89q0 -51 -35 -86 t-88 -35q-51 0 -86 35t-35 86zM915 1702q0 53 35 89t86 36q53 0 88 -36t35 -89q0 -51 -34.5 -86t-88.5 -35q-51 0 -86 35t-35 86z" />
<glyph unicode="&#x4db;" horiz-adv-x="1062" d="M102 385q0 18 1 42t6 56h727q-2 66 -20.5 126.5t-57.5 105.5t-98.5 71.5t-143.5 26.5q-113 0 -177.5 -50t-88.5 -116h-135q12 55 45 106.5t84 90.5t119.5 61.5t152.5 22.5q115 0 200 -38t141 -102.5t84 -151.5t28 -183q0 -102 -30 -188.5t-87 -151t-140 -100.5t-190 -36 q-88 0 -164.5 32t-133 86.5t-89.5 129t-33 160.5zM180 1239q0 51 35 87t88 36q51 0 86 -36t35 -87q0 -53 -35 -88t-86 -35q-53 0 -88 35t-35 88zM233 379q0 -68 23 -122t61.5 -92t93 -59.5t115.5 -21.5q135 0 218 79t92 216h-603zM651 1239q0 51 35 87t88 36q51 0 86 -36 t35 -87q0 -53 -35 -88t-86 -35q-53 0 -88 35t-35 88z" />
<glyph unicode="&#x4dc;" horiz-adv-x="1771" d="M18 0l660 729q-190 20 -285 205l-108 215q-41 82 -86 122t-111 40h-65v129h81q104 0 171 -62.5t118 -163.5l125 -241q53 -102 112.5 -142t141.5 -40h47v643h133v-643h47q82 0 141.5 39.5t112.5 142.5l125 241q51 100 119 163t172 63h80v-129h-66q-66 0 -110.5 -40 t-85.5 -122l-109 -215q-94 -184 -282 -205l657 -729h-180l-621 702v-702h-133v702l-620 -702h-181zM526 1702q0 53 35 89t88 36q51 0 87 -36t36 -89q0 -51 -36 -86t-87 -35q-53 0 -88 35t-35 86zM997 1702q0 53 35 89t88 36q51 0 87 -36t36 -89q0 -51 -36 -86t-87 -35 q-53 0 -88 35t-35 86z" />
<glyph unicode="&#x4dd;" horiz-adv-x="1353" d="M45 0l457 469q-78 2 -131.5 30.5t-85.5 94.5l-54 104q-23 47 -53.5 77t-71.5 30h-57v110h74q63 0 112.5 -32.5t90.5 -110.5l75 -143q33 -63 69 -88t101 -25h43v391h125v-391h43q66 0 102 24.5t68 88.5l78 143q41 78 89 110.5t112 32.5h74v-110h-56q-41 0 -71.5 -30 t-53.5 -77l-53 -104q-35 -66 -88 -94.5t-131 -30.5l457 -469h-158l-412 440v-440h-125v440l-411 -440h-158zM319 1239q0 53 35 89t86 36q53 0 88 -36t35 -89q0 -51 -35 -86t-88 -35q-51 0 -86 35t-35 86zM791 1239q0 53 34.5 89t85.5 36q53 0 88 -36t35 -89q0 -51 -35 -86 t-88 -35q-51 0 -85.5 35t-34.5 86z" />
<glyph unicode="&#x4de;" horiz-adv-x="1146" d="M86 426h139q0 -74 25.5 -134.5t72 -102.5t110 -64.5t136.5 -22.5q76 0 136.5 22.5t102.5 60.5t64.5 91.5t22.5 114.5q0 129 -83 207t-253 78h-102v125h102q80 0 138.5 21.5t97.5 57t58 84t19 103.5q0 115 -81.5 189.5t-223.5 74.5q-74 0 -134 -19.5t-105 -56t-70 -90 t-25 -121.5h-139q0 92 35 168t98.5 131.5t151.5 85t194 29.5q94 0 175 -25.5t139.5 -74.5t91.5 -120t33 -161q0 -127 -72 -216t-195 -113q129 -20 209 -115.5t80 -239.5q0 -94 -34.5 -171t-96 -132t-147.5 -85t-189 -30q-106 0 -194 31t-151.5 89.5t-99.5 142.5t-36 188z M209 1702q0 53 35 89t86 36q53 0 89 -36t36 -89q0 -51 -36 -86t-89 -35q-51 0 -86 35t-35 86zM680 1702q0 53 35 89t86 36q53 0 89 -36t36 -89q0 -51 -36 -86t-89 -35q-51 0 -86 35t-35 86z" />
<glyph unicode="&#x4df;" horiz-adv-x="849" d="M72 258h131q0 -78 57 -123t162 -45q90 0 144.5 40t54.5 114q0 72 -52.5 117t-150.5 45h-92v100h86q98 0 145 45t47 117q0 66 -50 108.5t-136 42.5q-100 0 -149.5 -45t-49.5 -117h-131q0 121 90 196t240 75q143 0 229 -68.5t86 -177.5q0 -90 -52 -147.5t-140 -71.5 q92 -10 150.5 -68.5t58.5 -154.5q0 -59 -27 -108.5t-72 -83.5t-106.5 -52.5t-130.5 -18.5q-160 0 -251 77t-91 204zM98 1239q0 53 36 89t87 36t87 -36t36 -89q0 -51 -36 -86t-87 -35t-87 35t-36 86zM467 1239q0 53 36 89t87 36q53 0 88 -36t35 -89q0 -51 -35 -86t-88 -35 q-51 0 -87 35t-36 86z" />
<glyph unicode="&#x4e0;" horiz-adv-x="1159" d="M82 422h139q0 -74 25.5 -133.5t72 -100.5t110 -63.5t136.5 -22.5q76 0 136.5 24t102.5 65.5t64.5 98t22.5 122.5q0 143 -82 229t-248 86h-158l412 580h-647v127h881l-439 -605q94 -2 171 -30.5t132.5 -82.5t86 -129t30.5 -169q0 -98 -34.5 -179t-96 -139.5t-147.5 -91.5 t-189 -33q-106 0 -194 31t-151.5 89.5t-99.5 140t-36 186.5z" />
<glyph unicode="&#x4e1;" horiz-adv-x="999" d="M51 -150h131q4 -131 82 -205.5t195 -74.5q131 0 210 91t79 259t-106.5 260t-299.5 92h-66l408 514h-563v121h797l-439 -555q90 -6 164 -41t127 -90t82 -129t29 -162q0 -113 -31 -200.5t-87 -149t-134 -94.5t-172 -33q-90 0 -164 26.5t-128 78t-84 125t-30 167.5z" />
<glyph unicode="&#x4e2;" horiz-adv-x="1355" d="M170 0v1434h139v-1133l735 1038v95h142v-1434h-142v1133l-735 -1039v-94h-139zM328 1638v121h733v-121h-733z" />
<glyph unicode="&#x4e3;" horiz-adv-x="1142" d="M170 0v907h133v-682l537 609v73h133v-907h-133v676l-537 -606v-70h-133zM209 1178v120h733v-120h-733z" />
<glyph unicode="&#x4e4;" horiz-adv-x="1355" d="M170 0v1434h139v-1133l735 1038v95h142v-1434h-142v1133l-735 -1039v-94h-139zM336 1702q0 53 35 89t88 36q51 0 87 -36t36 -89q0 -51 -36 -86t-87 -35q-53 0 -88 35t-35 86zM807 1702q0 53 35 89t88 36q51 0 87 -36t36 -89q0 -51 -36 -86t-87 -35q-53 0 -88 35t-35 86z " />
<glyph unicode="&#x4e5;" horiz-adv-x="1142" d="M170 0v907h133v-682l537 609v73h133v-907h-133v676l-537 -606v-70h-133zM227 1239q0 53 35 89t88 36q51 0 87 -36t36 -89q0 -51 -36 -86t-87 -35q-53 0 -88 35t-35 86zM698 1239q0 53 35 89t88 36q51 0 87 -36t36 -89q0 -51 -36 -86t-87 -35q-53 0 -88 35t-35 86z" />
<glyph unicode="&#x4e6;" horiz-adv-x="1650" d="M88 717q0 145 50 280.5t145.5 238.5t232.5 165.5t309 62.5t308.5 -62.5t231.5 -165.5t146.5 -238.5t51.5 -280.5t-51.5 -280.5t-146.5 -239t-231.5 -166t-308.5 -62.5t-309 62.5t-232.5 166t-145.5 238.5t-50 281zM233 717q0 -121 41 -232.5t117 -197.5t185.5 -138.5 t248.5 -52.5q137 0 247 52.5t186.5 138.5t117.5 197.5t41 232.5t-41 232.5t-117.5 197.5t-186 138t-247.5 52q-139 0 -248.5 -52t-185.5 -138t-117 -197.5t-41 -232.5zM467 1702q0 53 35 89t86 36q53 0 89 -36t36 -89q0 -51 -36 -86t-89 -35q-51 0 -86 35t-35 86zM938 1702 q0 53 35 89t86 36q53 0 89 -36t36 -89q0 -51 -36 -86t-89 -35q-51 0 -86 35t-35 86z" />
<glyph unicode="&#x4e7;" horiz-adv-x="1130" d="M88 453q0 96 34 183t96.5 151.5t149.5 102.5t195 38q109 0 198 -38t151.5 -102.5t96 -151.5t33.5 -183t-33.5 -182.5t-96 -152t-151.5 -103.5t-198 -38t-195.5 38t-149 103.5t-96.5 151.5t-34 183zM207 1239q0 53 34.5 89t86.5 36q53 0 89 -36t36 -89q0 -51 -36 -86 t-89 -35q-51 0 -86 35t-35 86zM221 453q0 -72 24.5 -135.5t68.5 -111.5t107.5 -77t141.5 -29q80 0 143.5 29t108.5 77t69.5 111.5t24.5 135.5t-24.5 136t-69.5 112.5t-108.5 77t-143.5 28.5q-78 0 -141.5 -28.5t-107.5 -77t-68.5 -113t-24.5 -135.5zM678 1239q0 53 35 89 t86 36q53 0 88 -36t35 -89q0 -51 -35 -86t-88 -35q-51 0 -86 35t-35 86z" />
<glyph unicode="&#x4e8;" horiz-adv-x="1650" d="M88 717q0 145 50 280.5t145.5 238.5t232.5 165.5t309 62.5t308.5 -62.5t231.5 -165.5t146.5 -238.5t51.5 -280.5t-51.5 -280.5t-146.5 -239t-231.5 -166t-308.5 -62.5t-309 62.5t-232.5 166t-145.5 238.5t-50 281zM236 670q8 -115 52 -218.5t119.5 -182.5t181 -126 t236.5 -47t236.5 47t181.5 126t120 182.5t52 218.5h-1179zM236 764h1179q-8 113 -52 216t-120 183t-181.5 127t-236.5 47t-236.5 -47t-181 -127t-119.5 -183t-52 -216z" />
<glyph unicode="&#x4e9;" horiz-adv-x="1130" d="M88 453q0 96 34 183t96.5 151.5t149.5 102.5t195 38q109 0 198 -38t151.5 -102.5t96 -151.5t33.5 -183t-33.5 -182.5t-96 -152t-151.5 -103.5t-198 -38t-195.5 38t-149 103.5t-96.5 151.5t-34 183zM225 403q6 -63 34 -118.5t71 -96.5t102 -64.5t131 -23.5t131.5 23.5 t104.5 64.5t71.5 96.5t34.5 118.5h-680zM225 500h680q-6 63 -33.5 119.5t-71.5 97.5t-104.5 65.5t-132.5 24.5t-131 -24.5t-102 -65.5t-71 -97.5t-34 -119.5z" />
<glyph unicode="&#x4ea;" horiz-adv-x="1650" d="M88 717q0 145 50 280.5t145.5 238.5t232.5 165.5t309 62.5t308.5 -62.5t231.5 -165.5t146.5 -238.5t51.5 -280.5t-51.5 -280.5t-146.5 -239t-231.5 -166t-308.5 -62.5t-309 62.5t-232.5 166t-145.5 238.5t-50 281zM236 670q8 -115 52 -218.5t119.5 -182.5t181 -126 t236.5 -47t236.5 47t181.5 126t120 182.5t52 218.5h-1179zM236 764h1179q-8 113 -52 216t-120 183t-181.5 127t-236.5 47t-236.5 -47t-181 -127t-119.5 -183t-52 -216zM471 1718q0 49 34 84t83 35q51 0 86 -35t35 -84q0 -51 -35 -85t-86 -34q-49 0 -83 34t-34 85zM942 1718 q0 49 34 84t83 35q51 0 86 -35t35 -84q0 -51 -35 -85t-86 -34q-49 0 -83 34t-34 85z" />
<glyph unicode="&#x4eb;" horiz-adv-x="1130" d="M88 453q0 96 34 183t96.5 151.5t149.5 102.5t195 38q109 0 198 -38t151.5 -102.5t96 -151.5t33.5 -183t-33.5 -182.5t-96 -152t-151.5 -103.5t-198 -38t-195.5 38t-149 103.5t-96.5 151.5t-34 183zM211 1262q0 51 34 84.5t83 33.5q51 0 84.5 -33.5t33.5 -84.5 q0 -49 -33.5 -83t-84.5 -34q-49 0 -83 33.5t-34 83.5zM225 403q6 -63 34 -118.5t71 -96.5t102 -64.5t131 -23.5t131.5 23.5t104.5 64.5t71.5 96.5t34.5 118.5h-680zM225 500h680q-6 63 -33.5 119.5t-71.5 97.5t-104.5 65.5t-132.5 24.5t-131 -24.5t-102 -65.5t-71 -97.5 t-34 -119.5zM682 1262q0 51 34 84.5t83 33.5q51 0 85 -33.5t34 -84.5q0 -49 -34 -83t-85 -34q-49 0 -83 34t-34 83z" />
<glyph unicode="&#x4ec;" horiz-adv-x="1556" d="M86 422h154q25 -72 75 -131.5t116.5 -102.5t147 -67.5t166.5 -24.5q129 0 231.5 42t176.5 117t117 176t53 218h-772v127h772q-8 115 -49 217.5t-112.5 179t-171 120.5t-224.5 44q-115 0 -204 -29.5t-155.5 -81.5t-109.5 -123t-64 -153h-147q23 109 76 203t138 162.5 t203 108.5t269 40q164 0 293 -59t219 -161.5t137 -238t47 -286.5q0 -158 -49 -294t-142 -237.5t-227.5 -160t-304.5 -58.5q-125 0 -232 35t-192 95.5t-145.5 143.5t-89.5 179zM414 1702q0 53 34.5 89t86.5 36q53 0 87.5 -36t34.5 -89q0 -51 -34.5 -86t-87.5 -35 q-51 0 -86 35t-35 86zM885 1702q0 53 34.5 89t86.5 36q53 0 87.5 -36t34.5 -89q0 -51 -34.5 -86t-87.5 -35q-51 0 -86 35t-35 86z" />
<glyph unicode="&#x4ed;" horiz-adv-x="1064" d="M86 311h135q16 -92 88 -151.5t213 -59.5q76 0 133.5 23.5t97.5 63.5t62.5 94.5t26.5 117.5h-412v105h412q-4 63 -25.5 118.5t-61.5 96.5t-98.5 65.5t-134.5 24.5q-74 0 -127 -18.5t-90 -51t-56.5 -74.5t-25.5 -90h-133q4 70 33 134.5t83 113.5t132 78t180 29 q115 0 201 -40t143.5 -105.5t86 -151.5t28.5 -178t-28.5 -179.5t-86 -153t-143.5 -105.5t-201 -40q-98 0 -176 26t-133 71t-86 106.5t-37 130.5zM168 1239q0 53 35 89t88 36q51 0 87 -36t36 -89q0 -51 -36 -86t-87 -35q-53 0 -88 35t-35 86zM639 1239q0 53 35 89t88 36 q51 0 87 -36t36 -89q0 -51 -36 -86t-87 -35q-53 0 -88 35t-35 86z" />
<glyph unicode="&#x4ee;" d="M18 1434h162l455 -723l371 723h153l-731 -1434h-154l289 567zM252 1638v121h733v-121h-733z" />
<glyph unicode="&#x4ef;" horiz-adv-x="1163" d="M154 -133h135q8 -147 77.5 -223t211.5 -76q70 0 123 16.5t89.5 55t56 100t19.5 154.5v303q-39 -92 -125 -156t-215 -64q-102 0 -166.5 29t-111.5 82q-43 51 -60.5 119.5t-17.5 177.5v522h135v-483q0 -74 12.5 -134.5t43 -102.5t81 -65.5t127.5 -23.5q76 0 131.5 30t92 79 t55 110.5t18.5 124.5v465h133v-1013q0 -233 -107.5 -337t-316.5 -104q-412 0 -421 414zM225 1178v120h733v-120h-733z" />
<glyph unicode="&#x4f0;" d="M18 1434h162l455 -723l371 723h153l-731 -1434h-154l289 567zM266 1702q0 51 34 86t83 35q51 0 85 -35t34 -86q0 -49 -34 -83t-85 -34q-49 0 -83 34t-34 83zM737 1702q0 51 34 86t83 35q51 0 85 -35t34 -86q0 -49 -34 -83t-85 -34q-49 0 -83 34t-34 83z" />
<glyph unicode="&#x4f1;" horiz-adv-x="1163" d="M154 -133h135q8 -147 77.5 -223t211.5 -76q70 0 123 16.5t89.5 55t56 100t19.5 154.5v303q-39 -92 -125 -156t-215 -64q-102 0 -166.5 29t-111.5 82q-43 51 -60.5 119.5t-17.5 177.5v522h135v-483q0 -74 12.5 -134.5t43 -102.5t81 -65.5t127.5 -23.5q76 0 131.5 30t92 79 t55 110.5t18.5 124.5v465h133v-1013q0 -233 -107.5 -337t-316.5 -104q-412 0 -421 414zM246 1239q0 49 33.5 84t82.5 35q51 0 85 -35t34 -84q0 -51 -33.5 -85t-85.5 -34q-49 0 -82.5 34t-33.5 85zM717 1239q0 49 33.5 84t83.5 35q51 0 84.5 -35t33.5 -84q0 -51 -33.5 -85 t-84.5 -34q-49 0 -83 34t-34 85z" />
<glyph unicode="&#x4f2;" d="M18 1434h162l455 -723l371 723h153l-731 -1434h-154l289 567zM313 1604l256 340l117 -60l-301 -319zM713 1604l256 340l116 -60l-301 -319z" />
<glyph unicode="&#x4f3;" horiz-adv-x="1163" d="M154 -133h135q8 -147 77.5 -223t211.5 -76q70 0 123 16.5t89.5 55t56 100t19.5 154.5v303q-39 -92 -125 -156t-215 -64q-102 0 -166.5 29t-111.5 82q-43 51 -60.5 119.5t-17.5 177.5v522h135v-483q0 -74 12.5 -134.5t43 -102.5t81 -65.5t127.5 -23.5q76 0 131.5 30t92 79 t55 110.5t18.5 124.5v465h133v-1013q0 -233 -107.5 -337t-316.5 -104q-412 0 -421 414zM301 1102l256 340l117 -60l-301 -319zM700 1102l256 340l117 -60l-301 -319z" />
<glyph unicode="&#x4f4;" horiz-adv-x="1171" d="M88 940v494h139v-461q0 -168 85 -267.5t274 -99.5h276v828h139v-1434h-139v479h-301q-121 0 -210 34t-147.5 94.5t-87 145.5t-28.5 187zM203 1702q0 51 33.5 86t82.5 35q51 0 85 -35t34 -86q0 -49 -33.5 -83t-85.5 -34q-49 0 -82.5 34t-33.5 83zM674 1702q0 51 33.5 86 t83.5 35q51 0 84.5 -35t33.5 -86q0 -49 -33.5 -83t-84.5 -34q-49 0 -83 34t-34 83z" />
<glyph unicode="&#x4f5;" horiz-adv-x="950" d="M92 608v299h135v-297q0 -98 50.5 -150t154.5 -52h215v499h135v-907h-135v293h-233q-154 0 -238 80t-84 235zM92 1239q0 53 36 89t87 36t87 -36t36 -89q0 -51 -36 -86t-87 -35t-87 35t-36 86zM537 1239q0 53 35.5 89t86.5 36t87 -36t36 -89q0 -51 -35.5 -86t-87.5 -35 q-51 0 -86.5 35t-35.5 86z" />
<glyph unicode="&#x4f8;" horiz-adv-x="1503" d="M170 0v1434h139v-629h359q84 0 154.5 -32t122.5 -86t82 -127t30 -157t-30 -156.5t-82 -128t-124.5 -87t-158.5 -31.5h-492zM309 127h353q55 0 101 21.5t80 59.5t53 88t19 107q0 55 -18 105.5t-52 88.5t-79 60.5t-98 22.5h-359v-553zM428 1702q0 51 34 86t83 35 q51 0 85 -35t34 -86q0 -49 -34 -83t-85 -34q-49 0 -83 34t-34 83zM899 1702q0 51 34 86t83 35q51 0 85 -35t34 -86q0 -49 -34 -83t-85 -34q-49 0 -83 34t-34 83zM1194 0v1434h139v-1434h-139z" />
<glyph unicode="&#x4f9;" horiz-adv-x="1255" d="M170 0v907h127v-338h266q63 0 113.5 -22.5t86.5 -60t54.5 -90t18.5 -111.5t-19.5 -110.5t-54.5 -90.5t-87 -61.5t-116 -22.5h-389zM279 1239q0 53 34.5 89t87.5 36q51 0 87 -36t36 -89q0 -51 -35.5 -86t-87.5 -35q-53 0 -87.5 35t-34.5 86zM297 111h242q78 0 125 50 t47 124q0 72 -45 123t-123 51h-246v-348zM750 1239q0 53 34.5 89t87.5 36q51 0 87 -36t36 -89q0 -51 -35.5 -86t-87.5 -35q-53 0 -87.5 35t-34.5 86zM952 0v907h133v-907h-133z" />
<glyph unicode="&#x2000;" horiz-adv-x="972" />
<glyph unicode="&#x2001;" horiz-adv-x="1944" />
<glyph unicode="&#x2002;" horiz-adv-x="972" />
<glyph unicode="&#x2003;" horiz-adv-x="1944" />
<glyph unicode="&#x2004;" horiz-adv-x="648" />
<glyph unicode="&#x2005;" horiz-adv-x="486" />
<glyph unicode="&#x2006;" horiz-adv-x="324" />
<glyph unicode="&#x2007;" horiz-adv-x="324" />
<glyph unicode="&#x2008;" horiz-adv-x="243" />
<glyph unicode="&#x2009;" horiz-adv-x="388" />
<glyph unicode="&#x200a;" horiz-adv-x="108" />
<glyph unicode="&#x2010;" horiz-adv-x="602" d="M61 522v121h480v-121h-480z" />
<glyph unicode="&#x2011;" horiz-adv-x="602" d="M61 522v121h480v-121h-480z" />
<glyph unicode="&#x2012;" horiz-adv-x="602" d="M61 522v121h480v-121h-480z" />
<glyph unicode="&#x2013;" horiz-adv-x="1030" d="M102 522v121h826v-121h-826z" />
<glyph unicode="&#x2014;" horiz-adv-x="2060" d="M102 522v121h1856v-121h-1856z" />
<glyph unicode="&#x2018;" horiz-adv-x="524" d="M123 1253q0 143 70.5 201.5t193.5 61.5v-72q-119 0 -141 -84q-12 -29 -13.5 -48.5t0.5 -35.5q8 8 22.5 12t27.5 4q53 0 85.5 -33.5t32.5 -82.5t-34.5 -85t-90.5 -36q-72 0 -112.5 56t-40.5 142z" />
<glyph unicode="&#x2019;" horiz-adv-x="524" d="M123 1395q0 49 35 85t90 36q72 0 112.5 -56.5t40.5 -142.5q0 -143 -70.5 -201.5t-193.5 -60.5v71q57 0 94 22.5t48 61.5q12 29 13 49.5t-1 34.5q-8 -8 -22.5 -12t-26.5 -4q-53 0 -86 34t-33 83z" />
<glyph unicode="&#x201a;" horiz-adv-x="524" d="M123 98q0 49 35 85t90 36q72 0 112.5 -56.5t40.5 -142.5q0 -143 -70.5 -201.5t-193.5 -60.5v72q119 0 142 84q12 29 13 48.5t-1 35.5q-8 -8 -22.5 -12t-26.5 -4q-53 0 -86 33.5t-33 82.5z" />
<glyph unicode="&#x201c;" horiz-adv-x="856" d="M123 1253q0 143 70.5 201.5t193.5 61.5v-72q-119 0 -141 -84q-12 -29 -13.5 -48.5t0.5 -35.5q8 8 22.5 12t27.5 4q53 0 85.5 -33.5t32.5 -82.5t-34.5 -85t-90.5 -36q-72 0 -112.5 56t-40.5 142zM455 1253q0 143 71.5 201.5t192.5 61.5v-72q-115 0 -141 -84 q-10 -29 -12.5 -48.5t1.5 -35.5q16 16 49 16q53 0 85 -33.5t32 -82.5t-33.5 -85t-89.5 -36q-72 0 -113.5 56t-41.5 142z" />
<glyph unicode="&#x201d;" horiz-adv-x="856" d="M123 1395q0 49 35 85t90 36q72 0 112.5 -56.5t40.5 -142.5q0 -143 -70.5 -201.5t-193.5 -60.5v71q57 0 94 22.5t48 61.5q12 29 13 49.5t-1 34.5q-8 -8 -22.5 -12t-26.5 -4q-53 0 -86 34t-33 83zM455 1395q0 49 34.5 85t90.5 36q72 0 112.5 -56.5t40.5 -142.5 q0 -143 -70.5 -201.5t-193.5 -60.5v71q59 0 95 22.5t46 61.5q12 29 14.5 49.5t-1.5 34.5q-16 -16 -50 -16q-53 0 -85.5 34t-32.5 83z" />
<glyph unicode="&#x201e;" horiz-adv-x="856" d="M123 98q0 49 35 85t90 36q72 0 112.5 -56.5t40.5 -142.5q0 -143 -70.5 -201.5t-193.5 -60.5v72q119 0 142 84q12 29 13 48.5t-1 35.5q-8 -8 -22.5 -12t-26.5 -4q-53 0 -86 33.5t-33 82.5zM455 98q0 49 34.5 85t90.5 36q72 0 112.5 -56.5t40.5 -142.5q0 -143 -70.5 -201.5 t-193.5 -60.5v72q119 0 141 84q12 29 14.5 48.5t-1.5 35.5q-16 -16 -50 -16q-53 0 -85.5 33.5t-32.5 82.5z" />
<glyph unicode="&#x2022;" horiz-adv-x="702" d="M113 639q0 49 18.5 93t51 77t75.5 51.5t92 18.5t93 -18.5t77 -51.5t51.5 -77t18.5 -93t-18.5 -92t-51.5 -76t-77 -51.5t-93 -18.5t-92 18.5t-75.5 51.5t-51 76t-18.5 92z" />
<glyph unicode="&#x2026;" horiz-adv-x="1871" d="M113 113q0 53 34.5 88t85.5 35q53 0 89 -35t36 -88q0 -51 -35.5 -87t-89.5 -36q-51 0 -85.5 36t-34.5 87zM813 111q0 53 35 89t86 36q53 0 89 -36t36 -89q0 -51 -36 -86t-89 -35q-51 0 -86 35t-35 86zM1513 111q0 53 35 87.5t86 34.5q53 0 89 -34.5t36 -87.5 q0 -51 -35.5 -87t-89.5 -36q-51 0 -86 36t-35 87z" />
<glyph unicode="&#x202f;" horiz-adv-x="388" />
<glyph unicode="&#x2039;" horiz-adv-x="565" d="M82 553v86l401 348v-137l-290 -254l290 -254v-137z" />
<glyph unicode="&#x203a;" horiz-adv-x="565" d="M82 205v137l291 254l-291 254v137l401 -348v-86z" />
<glyph unicode="&#x205f;" horiz-adv-x="486" />
<glyph unicode="&#x20ac;" horiz-adv-x="1239" d="M49 496l25 106h106v223h-127l27 105h100v45q0 96 34 183t95.5 152.5t148.5 103.5t195 38q106 0 192.5 -36t149 -96t98 -142t40.5 -174h-142q-4 66 -29.5 124t-68.5 102t-104.5 69.5t-135.5 25.5q-76 0 -137 -27.5t-105 -75.5t-68 -111.5t-24 -135.5v-45h508l-26 -105 h-482v-223h502l-24 -106h-478v-41q0 -72 24 -134.5t68 -110.5t105.5 -76t136.5 -28q78 0 140.5 28t107.5 75t68.5 110.5t23.5 135.5h142q0 -96 -34 -183.5t-97.5 -153t-151.5 -103.5t-199 -38q-109 0 -195.5 39t-148 104.5t-95.5 151.5t-34 183v41h-131z" />
<glyph unicode="&#x2122;" horiz-adv-x="1648" d="M82 1339v95h530v-95h-213v-739h-104v739h-213zM772 600v834h162l246 -660l245 660h162v-834h-102v698l-258 -698h-94l-259 698v-698h-102z" />
<glyph unicode="&#x25fc;" horiz-adv-x="911" d="M0 0v911h911v-911h-911z" />
</font>
</defs>
</svg>
