<svg xmlns="http://www.w3.org/2000/svg" viewBox="0 0 510 510" width="510" height="510">
	<style>
		tspan { white-space:pre }
		.shp0 { fill: #000000 } 
	</style>
	<g id="Layer">
		<g id="star-o">
			<path id="Layer" class="shp0" d="M364,405l-108,-57l-108,57l21,-120l-88,-85l121,-18l54,-109l54,109l121,18l-88,85zM478,170l-144,-21l-64,-130c-4,-8 -8,-12 -14,-12c-6,0 -10,4 -14,12l-64,130l-144,21c-10,1 -16,6 -16,13c0,4 3,8 7,14l104,101l-24,143c-1,2 -1,4 -1,5c0,4 1,8 3,10c2,3 5,5 9,5c4,0 8,-2 12,-4l128,-67l128,67c4,2 8,4 12,4c8,0 11,-5 11,-15c0,-2 0,-4 0,-5l-24,-143l103,-101c5,-5 8,-10 8,-14c0,-7 -6,-12 -16,-13z" />
		</g>
	</g>
	<g id="Layer">
	</g>
	<g id="Layer">
	</g>
	<g id="Layer">
	</g>
	<g id="Layer">
	</g>
	<g id="Layer">
	</g>
	<g id="Layer">
	</g>
	<g id="Layer">
	</g>
	<g id="Layer">
	</g>
	<g id="Layer">
	</g>
	<g id="Layer">
	</g>
	<g id="Layer">
	</g>
	<g id="Layer">
	</g>
	<g id="Layer">
	</g>
	<g id="Layer">
	</g>
	<g id="Layer">
	</g>
</svg>